<?xml version="1.0" encoding="UTF-8"?>
<svg xmlns="http://www.w3.org/2000/svg" xmlns:xlink="http://www.w3.org/1999/xlink" width="1296pt" height="432pt" viewBox="0 0 1296 432">
<defs>
<g>
<g id="glyph-0-0">
<path d="M 4.09375 -4.5 L 0.65625 -4.5 L 0.65625 -3.453125 L 4.09375 -3.453125 Z M 4.09375 -4.5 "/>
</g>
<g id="glyph-0-1">
<path d="M 7.296875 -1.25 L 1.921875 -1.25 C 2.046875 -2.125 2.5 -2.671875 3.765625 -3.421875 L 5.203125 -4.234375 C 6.625 -5.03125 7.359375 -6.09375 7.359375 -7.375 C 7.359375 -8.234375 7.015625 -9.046875 6.40625 -9.609375 C 5.8125 -10.15625 5.0625 -10.421875 4.09375 -10.421875 C 2.796875 -10.421875 1.828125 -9.953125 1.265625 -9.0625 C 0.90625 -8.515625 0.75 -7.859375 0.71875 -6.8125 L 1.984375 -6.8125 C 2.03125 -7.515625 2.125 -7.9375 2.296875 -8.28125 C 2.625 -8.921875 3.28125 -9.3125 4.046875 -9.3125 C 5.203125 -9.3125 6.0625 -8.46875 6.0625 -7.34375 C 6.0625 -6.515625 5.59375 -5.796875 4.6875 -5.265625 L 3.359375 -4.5 C 1.21875 -3.265625 0.609375 -2.296875 0.484375 -0.015625 L 7.296875 -0.015625 Z M 7.296875 -1.25 "/>
</g>
<g id="glyph-0-2">
<path d="M 3.96875 -10.421875 C 3.015625 -10.421875 2.140625 -9.984375 1.609375 -9.28125 C 0.953125 -8.359375 0.625 -6.96875 0.625 -5.046875 C 0.625 -1.53125 1.765625 0.328125 3.96875 0.328125 C 6.125 0.328125 7.296875 -1.53125 7.296875 -4.953125 C 7.296875 -6.96875 6.984375 -8.328125 6.3125 -9.28125 C 5.78125 -10 4.921875 -10.421875 3.96875 -10.421875 Z M 3.96875 -9.296875 C 5.328125 -9.296875 6 -7.890625 6 -5.078125 C 6 -2.109375 5.34375 -0.71875 3.9375 -0.71875 C 2.59375 -0.71875 1.921875 -2.15625 1.921875 -5.03125 C 1.921875 -7.890625 2.59375 -9.296875 3.96875 -9.296875 Z M 3.96875 -9.296875 "/>
</g>
<g id="glyph-1-0">
<path d="M 6.375 -11.640625 L 10.671875 -11.640625 L 10.671875 -13.125 L 0.375 -13.125 L 0.375 -11.640625 L 4.703125 -11.640625 L 4.703125 0 L 6.375 0 Z M 6.375 -11.640625 "/>
</g>
<g id="glyph-1-1">
<path d="M 6.984375 -9.4375 L 4.375 -2.09375 L 1.96875 -9.4375 L 0.359375 -9.4375 L 3.546875 0.03125 L 2.96875 1.53125 C 2.71875 2.203125 2.390625 2.453125 1.765625 2.453125 C 1.515625 2.453125 1.296875 2.40625 0.96875 2.34375 L 0.96875 3.6875 C 1.28125 3.859375 1.578125 3.921875 1.984375 3.921875 C 2.46875 3.921875 2.984375 3.765625 3.390625 3.46875 C 3.859375 3.125 4.125 2.734375 4.40625 1.984375 L 8.609375 -9.4375 Z M 6.984375 -9.4375 "/>
</g>
<g id="glyph-1-2">
<path d="M 0.96875 3.921875 L 2.484375 3.921875 L 2.484375 -0.984375 C 3.28125 -0.015625 4.15625 0.40625 5.375 0.40625 C 7.828125 0.40625 9.40625 -1.546875 9.40625 -4.546875 C 9.40625 -7.71875 7.859375 -9.703125 5.359375 -9.703125 C 4.09375 -9.703125 3.0625 -9.125 2.359375 -8.015625 L 2.359375 -9.4375 L 0.96875 -9.4375 Z M 5.109375 -8.296875 C 6.765625 -8.296875 7.84375 -6.84375 7.84375 -4.59375 C 7.84375 -2.453125 6.75 -0.984375 5.109375 -0.984375 C 3.515625 -0.984375 2.484375 -2.4375 2.484375 -4.640625 C 2.484375 -6.859375 3.515625 -8.296875 5.109375 -8.296875 Z M 5.109375 -8.296875 "/>
</g>
<g id="glyph-1-3">
<path d="M 9.234375 -4.21875 C 9.234375 -5.65625 9.125 -6.515625 8.859375 -7.21875 C 8.25 -8.765625 6.796875 -9.703125 5.046875 -9.703125 C 2.40625 -9.703125 0.71875 -7.703125 0.71875 -4.59375 C 0.71875 -1.46875 2.34375 0.40625 5 0.40625 C 7.15625 0.40625 8.65625 -0.8125 9.03125 -2.859375 L 7.53125 -2.859375 C 7.109375 -1.625 6.265625 -0.96875 5.0625 -0.96875 C 4.109375 -0.96875 3.296875 -1.40625 2.796875 -2.203125 C 2.4375 -2.734375 2.296875 -3.28125 2.28125 -4.21875 Z M 2.328125 -5.4375 C 2.453125 -7.1875 3.515625 -8.3125 5.015625 -8.3125 C 6.546875 -8.3125 7.609375 -7.125 7.609375 -5.4375 Z M 2.328125 -5.4375 "/>
</g>
<g id="glyph-1-4">
</g>
<g id="glyph-1-5">
<path d="M 4.65625 -9.265625 L 4.65625 0 L 6.25 0 L 6.25 -13.015625 L 5.203125 -13.015625 C 4.640625 -11.015625 4.28125 -10.75 1.84375 -10.421875 L 1.84375 -9.265625 Z M 4.65625 -9.265625 "/>
</g>
<g id="glyph-1-6">
<path d="M 3.296875 -5.96875 L 10.4375 -5.96875 L 10.4375 -7.453125 L 3.296875 -7.453125 L 3.296875 -11.640625 L 10.703125 -11.640625 L 10.703125 -13.125 L 1.625 -13.125 L 1.625 0 L 11.03125 0 L 11.03125 -1.46875 L 3.296875 -1.46875 Z M 3.296875 -5.96875 "/>
</g>
<g id="glyph-1-7">
<path d="M 5.125 0 L 8.75 -9.4375 L 7.0625 -9.4375 L 4.390625 -1.78125 L 1.875 -9.4375 L 0.1875 -9.4375 L 3.484375 0 Z M 5.125 0 "/>
</g>
<g id="glyph-1-8">
<path d="M 2.703125 -9.4375 L 1.203125 -9.4375 L 1.203125 0 L 2.703125 0 Z M 2.703125 -13.125 L 1.1875 -13.125 L 1.1875 -11.234375 L 2.703125 -11.234375 Z M 2.703125 -13.125 "/>
</g>
<g id="glyph-1-9">
<path d="M 8.90625 -13.125 L 7.421875 -13.125 L 7.421875 -8.25 C 6.78125 -9.203125 5.78125 -9.703125 4.515625 -9.703125 C 2.0625 -9.703125 0.46875 -7.734375 0.46875 -4.734375 C 0.46875 -1.546875 2.015625 0.40625 4.578125 0.40625 C 5.875 0.40625 6.765625 -0.078125 7.578125 -1.234375 L 7.578125 0 L 8.90625 0 Z M 4.765625 -8.296875 C 6.390625 -8.296875 7.421875 -6.875 7.421875 -4.609375 C 7.421875 -2.4375 6.375 -0.984375 4.78125 -0.984375 C 3.125 -0.984375 2.03125 -2.453125 2.03125 -4.640625 C 2.03125 -6.84375 3.125 -8.296875 4.765625 -8.296875 Z M 4.765625 -8.296875 "/>
</g>
<g id="glyph-1-10">
<path d="M 1.265625 -9.4375 L 1.265625 0 L 2.765625 0 L 2.765625 -5.203125 C 2.765625 -7.125 3.78125 -8.390625 5.328125 -8.390625 C 6.515625 -8.390625 7.265625 -7.671875 7.265625 -6.53125 L 7.265625 0 L 8.765625 0 L 8.765625 -7.125 C 8.765625 -8.6875 7.59375 -9.703125 5.78125 -9.703125 C 4.375 -9.703125 3.46875 -9.15625 2.640625 -7.84375 L 2.640625 -9.4375 Z M 1.265625 -9.4375 "/>
</g>
<g id="glyph-1-11">
<path d="M 8.484375 -6.265625 C 8.40625 -7.1875 8.203125 -7.78125 7.84375 -8.296875 C 7.203125 -9.1875 6.0625 -9.703125 4.75 -9.703125 C 2.203125 -9.703125 0.5625 -7.6875 0.5625 -4.546875 C 0.5625 -1.515625 2.171875 0.40625 4.734375 0.40625 C 6.984375 0.40625 8.40625 -0.9375 8.59375 -3.234375 L 7.078125 -3.234375 C 6.828125 -1.734375 6.046875 -0.96875 4.765625 -0.96875 C 3.109375 -0.96875 2.125 -2.328125 2.125 -4.546875 C 2.125 -6.90625 3.09375 -8.3125 4.734375 -8.3125 C 6 -8.3125 6.78125 -7.578125 6.96875 -6.265625 Z M 8.484375 -6.265625 "/>
</g>
<g id="glyph-1-12">
<path d="M 9.109375 -1.5625 L 2.390625 -1.5625 C 2.5625 -2.640625 3.125 -3.328125 4.703125 -4.28125 L 6.5 -5.296875 C 8.28125 -6.28125 9.203125 -7.609375 9.203125 -9.21875 C 9.203125 -10.296875 8.765625 -11.296875 8.015625 -12 C 7.25 -12.6875 6.3125 -13.015625 5.109375 -13.015625 C 3.484375 -13.015625 2.28125 -12.4375 1.578125 -11.328125 C 1.140625 -10.640625 0.9375 -9.828125 0.90625 -8.515625 L 2.484375 -8.515625 C 2.53125 -9.390625 2.640625 -9.921875 2.859375 -10.34375 C 3.28125 -11.140625 4.109375 -11.625 5.0625 -11.625 C 6.5 -11.625 7.578125 -10.578125 7.578125 -9.1875 C 7.578125 -8.140625 6.984375 -7.234375 5.84375 -6.59375 L 4.1875 -5.609375 C 1.53125 -4.09375 0.75 -2.859375 0.609375 -0.015625 L 9.109375 -0.015625 Z M 9.109375 -1.5625 "/>
</g>
<g id="glyph-1-13">
<path d="M 4.25 -13.125 C 2.453125 -10.765625 1.3125 -7.484375 1.3125 -4.65625 C 1.3125 -1.8125 2.453125 1.453125 4.25 3.8125 L 5.234375 3.8125 C 3.65625 1.234375 2.765625 -1.78125 2.765625 -4.65625 C 2.765625 -7.53125 3.65625 -10.5625 5.234375 -13.125 Z M 4.25 -13.125 "/>
</g>
<g id="glyph-1-14">
<path d="M 0.9375 -12.765625 L 0.9375 -10.765625 L 1.421875 -8.359375 L 2.125 -8.359375 L 2.609375 -10.765625 L 2.609375 -12.765625 Z M 3.8125 -12.765625 L 3.8125 -10.765625 L 4.296875 -8.359375 L 5 -8.359375 L 5.484375 -10.765625 L 5.484375 -12.765625 Z M 3.8125 -12.765625 "/>
</g>
<g id="glyph-1-15">
<path d="M 4.953125 -13.015625 C 3.765625 -13.015625 2.6875 -12.46875 2.015625 -11.59375 C 1.1875 -10.4375 0.78125 -8.71875 0.78125 -6.296875 C 0.78125 -1.90625 2.21875 0.40625 4.953125 0.40625 C 7.65625 0.40625 9.125 -1.90625 9.125 -6.1875 C 9.125 -8.71875 8.734375 -10.40625 7.890625 -11.59375 C 7.21875 -12.484375 6.15625 -13.015625 4.953125 -13.015625 Z M 4.953125 -11.609375 C 6.65625 -11.609375 7.5 -9.859375 7.5 -6.34375 C 7.5 -2.625 6.671875 -0.90625 4.90625 -0.90625 C 3.234375 -0.90625 2.390625 -2.703125 2.390625 -6.28125 C 2.390625 -9.859375 3.234375 -11.609375 4.953125 -11.609375 Z M 4.953125 -11.609375 "/>
</g>
<g id="glyph-1-16">
<path d="M 3.34375 -5.65625 L 7.671875 -5.65625 C 9.15625 -5.65625 9.828125 -4.9375 9.828125 -3.3125 L 9.8125 -2.140625 C 9.8125 -1.328125 9.953125 -0.546875 10.1875 0 L 12.21875 0 L 12.21875 -0.40625 C 11.59375 -0.84375 11.46875 -1.3125 11.4375 -3.0625 C 11.40625 -5.21875 11.0625 -5.875 9.640625 -6.484375 C 11.125 -7.21875 11.71875 -8.09375 11.71875 -9.609375 C 11.71875 -11.875 10.3125 -13.125 7.71875 -13.125 L 1.671875 -13.125 L 1.671875 0 L 3.34375 0 Z M 3.34375 -7.125 L 3.34375 -11.640625 L 7.390625 -11.640625 C 8.328125 -11.640625 8.875 -11.5 9.28125 -11.140625 C 9.734375 -10.765625 9.96875 -10.171875 9.96875 -9.390625 C 9.96875 -7.828125 9.1875 -7.125 7.390625 -7.125 Z M 3.34375 -7.125 "/>
</g>
<g id="glyph-1-17">
<path d="M 7.890625 -6.796875 C 7.859375 -8.65625 6.640625 -9.703125 4.46875 -9.703125 C 2.265625 -9.703125 0.84375 -8.5625 0.84375 -6.828125 C 0.84375 -5.34375 1.609375 -4.640625 3.828125 -4.109375 L 5.234375 -3.765625 C 6.28125 -3.515625 6.703125 -3.125 6.703125 -2.46875 C 6.703125 -1.5625 5.8125 -0.96875 4.5 -0.96875 C 3.6875 -0.96875 3 -1.203125 2.625 -1.609375 C 2.390625 -1.875 2.28125 -2.140625 2.203125 -2.8125 L 0.609375 -2.8125 C 0.6875 -0.625 1.90625 0.40625 4.375 0.40625 C 6.75 0.40625 8.265625 -0.75 8.265625 -2.578125 C 8.265625 -3.984375 7.46875 -4.75 5.59375 -5.203125 L 4.15625 -5.546875 C 2.9375 -5.828125 2.40625 -6.234375 2.40625 -6.890625 C 2.40625 -7.78125 3.1875 -8.3125 4.40625 -8.3125 C 5.609375 -8.3125 6.265625 -7.796875 6.296875 -6.796875 Z M 7.890625 -6.796875 "/>
</g>
<g id="glyph-1-18">
<path d="M 4.890625 -9.703125 C 2.234375 -9.703125 0.640625 -7.8125 0.640625 -4.640625 C 0.640625 -1.453125 2.234375 0.40625 4.90625 0.40625 C 7.578125 0.40625 9.1875 -1.46875 9.1875 -4.578125 C 9.1875 -7.84375 7.625 -9.703125 4.890625 -9.703125 Z M 4.90625 -8.3125 C 6.609375 -8.3125 7.609375 -6.9375 7.609375 -4.59375 C 7.609375 -2.359375 6.5625 -0.96875 4.90625 -0.96875 C 3.234375 -0.96875 2.21875 -2.359375 2.21875 -4.640625 C 2.21875 -6.9375 3.234375 -8.3125 4.90625 -8.3125 Z M 4.90625 -8.3125 "/>
</g>
<g id="glyph-1-19">
<path d="M 1.671875 3.8125 C 3.46875 1.453125 4.609375 -1.8125 4.609375 -4.640625 C 4.609375 -7.484375 3.46875 -10.765625 1.671875 -13.125 L 0.6875 -13.125 C 2.265625 -10.546875 3.15625 -7.53125 3.15625 -4.640625 C 3.15625 -1.78125 2.265625 1.265625 0.6875 3.8125 Z M 1.671875 3.8125 "/>
</g>
</g>
<clipPath id="clip-0">
<path clip-rule="nonzero" d="M 790.789062 5.480469 L 1290.523438 5.480469 L 1290.523438 426.523438 L 790.789062 426.523438 Z M 790.789062 5.480469 "/>
</clipPath>
<clipPath id="clip-1">
<path clip-rule="nonzero" d="M 5.480469 5.480469 L 790.789062 5.480469 L 790.789062 206.28125 L 5.480469 206.28125 Z M 5.480469 5.480469 "/>
</clipPath>
<clipPath id="clip-2">
<path clip-rule="nonzero" d="M 14.445312 14.445312 L 781.820312 14.445312 L 781.820312 151.761719 L 14.445312 151.761719 Z M 14.445312 14.445312 "/>
</clipPath>
<clipPath id="clip-3">
<path clip-rule="nonzero" d="M 14.445312 41 L 781.820312 41 L 781.820312 151.761719 L 14.445312 151.761719 Z M 14.445312 41 "/>
</clipPath>
<clipPath id="clip-4">
<path clip-rule="nonzero" d="M 474 14.445312 L 476 14.445312 L 476 151.761719 L 474 151.761719 Z M 474 14.445312 "/>
</clipPath>
<clipPath id="clip-5">
<path clip-rule="nonzero" d="M 5.480469 206.28125 L 473.078125 206.28125 L 473.078125 426.523438 L 5.480469 426.523438 Z M 5.480469 206.28125 "/>
</clipPath>
<clipPath id="clip-6">
<path clip-rule="nonzero" d="M 473.078125 206.28125 L 790.789062 206.28125 L 790.789062 426.523438 L 473.078125 426.523438 Z M 473.078125 206.28125 "/>
</clipPath>
<clipPath id="clip-7">
<path clip-rule="nonzero" d="M 14.445312 215.246094 L 464.109375 215.246094 L 464.109375 352.5625 L 14.445312 352.5625 Z M 14.445312 215.246094 "/>
</clipPath>
<clipPath id="clip-8">
<path clip-rule="nonzero" d="M 14.445312 242 L 463 242 L 463 352.5625 L 14.445312 352.5625 Z M 14.445312 242 "/>
</clipPath>
<clipPath id="clip-9">
<path clip-rule="nonzero" d="M 14.445312 287 L 463 287 L 463 352.5625 L 14.445312 352.5625 Z M 14.445312 287 "/>
</clipPath>
<clipPath id="clip-10">
<path clip-rule="nonzero" d="M 461 215.246094 L 464 215.246094 L 464 352.5625 L 461 352.5625 Z M 461 215.246094 "/>
</clipPath>
<clipPath id="clip-11">
<path clip-rule="nonzero" d="M 482.042969 215.246094 L 781.820312 215.246094 L 781.820312 352.5625 L 482.042969 352.5625 Z M 482.042969 215.246094 "/>
</clipPath>
<clipPath id="clip-12">
<path clip-rule="nonzero" d="M 483 295 L 781.820312 295 L 781.820312 352.5625 L 483 352.5625 Z M 483 295 "/>
</clipPath>
<clipPath id="clip-13">
<path clip-rule="nonzero" d="M 483 242 L 781.820312 242 L 781.820312 352.5625 L 483 352.5625 Z M 483 242 "/>
</clipPath>
<clipPath id="clip-14">
<path clip-rule="nonzero" d="M 482.042969 215.246094 L 485 215.246094 L 485 352.5625 L 482.042969 352.5625 Z M 482.042969 215.246094 "/>
</clipPath>
</defs>
<rect x="-129.6" y="-43.2" width="1555.2" height="518.4" fill="rgb(100%, 100%, 100%)" fill-opacity="1"/>
<path fill="none" stroke-width="1.066978" stroke-linecap="round" stroke-linejoin="round" stroke="rgb(100%, 100%, 100%)" stroke-opacity="1" stroke-miterlimit="10" d="M 0 432 L 1296 432 L 1296 0 L 0 0 Z M 0 432 "/>
<g clip-path="url(#clip-0)">
<path fill-rule="nonzero" fill="rgb(100%, 100%, 100%)" fill-opacity="1" stroke-width="1.066978" stroke-linecap="round" stroke-linejoin="round" stroke="rgb(100%, 100%, 100%)" stroke-opacity="1" stroke-miterlimit="10" d="M 790.789062 426.519531 L 1290.523438 426.519531 L 1290.523438 5.476562 L 790.789062 5.476562 Z M 790.789062 426.519531 "/>
</g>
<g clip-path="url(#clip-1)">
<path fill-rule="nonzero" fill="rgb(100%, 100%, 100%)" fill-opacity="1" stroke-width="1.745965" stroke-linecap="round" stroke-linejoin="round" stroke="rgb(100%, 100%, 100%)" stroke-opacity="1" stroke-miterlimit="10" d="M 5.480469 206.28125 L 790.789062 206.28125 L 790.789062 5.480469 L 5.480469 5.480469 Z M 5.480469 206.28125 "/>
</g>
<g clip-path="url(#clip-2)">
<path fill-rule="nonzero" fill="rgb(100%, 100%, 100%)" fill-opacity="1" d="M 14.445312 151.761719 L 781.820312 151.761719 L 781.820312 14.445312 L 14.445312 14.445312 Z M 14.445312 151.761719 "/>
</g>
<g clip-path="url(#clip-3)">
<path fill-rule="nonzero" fill="rgb(90.980392%, 70.196078%, 19.607843%)" fill-opacity="0.2" d="M 14.445312 151.203125 L 22.121094 151.105469 L 23.65625 151.082031 L 25.1875 151.0625 L 29.792969 150.992188 L 31.328125 150.964844 L 32.863281 150.941406 L 37.46875 150.859375 L 39 150.832031 L 40.535156 150.804688 L 46.675781 150.679688 L 48.210938 150.644531 L 49.746094 150.613281 L 51.28125 150.578125 L 52.816406 150.539062 L 54.347656 150.503906 L 58.953125 150.386719 L 65.09375 150.214844 L 66.628906 150.167969 L 68.160156 150.121094 L 69.695312 150.074219 L 74.300781 149.921875 L 78.90625 149.757812 L 81.976562 149.640625 L 83.507812 149.582031 L 86.578125 149.457031 L 91.183594 149.257812 L 94.253906 149.117188 L 97.324219 148.96875 L 98.855469 148.890625 L 101.925781 148.734375 L 103.460938 148.652344 L 108.066406 148.394531 L 109.601562 148.300781 L 111.136719 148.210938 L 112.667969 148.117188 L 115.738281 147.921875 L 118.808594 147.71875 L 121.878906 147.507812 L 123.414062 147.398438 L 126.484375 147.171875 L 128.015625 147.054688 L 131.085938 146.8125 L 134.15625 146.5625 L 138.761719 146.164062 L 141.832031 145.882812 L 143.363281 145.742188 L 146.433594 145.445312 L 147.96875 145.292969 L 149.503906 145.136719 L 152.574219 144.816406 L 154.109375 144.652344 L 155.644531 144.484375 L 157.175781 144.3125 L 160.246094 143.960938 L 161.78125 143.78125 L 164.851562 143.40625 L 166.386719 143.214844 L 169.457031 142.824219 L 170.992188 142.621094 L 172.523438 142.414062 L 174.058594 142.207031 L 177.128906 141.777344 L 180.199219 141.332031 L 183.269531 140.871094 L 186.339844 140.394531 L 187.871094 140.148438 L 189.40625 139.902344 L 192.476562 139.394531 L 194.011719 139.132812 L 195.546875 138.867188 L 197.082031 138.597656 L 198.617188 138.324219 L 200.152344 138.046875 L 201.683594 137.765625 L 203.21875 137.480469 L 206.289062 136.894531 L 207.824219 136.59375 L 209.359375 136.289062 L 210.894531 135.980469 L 212.429688 135.667969 L 213.964844 135.351562 L 215.5 135.027344 L 217.03125 134.703125 L 218.566406 134.371094 L 220.101562 134.035156 L 223.171875 133.347656 L 224.707031 132.996094 L 226.242188 132.640625 L 227.777344 132.28125 L 229.3125 131.917969 L 230.84375 131.546875 L 232.378906 131.171875 L 233.914062 130.792969 L 235.449219 130.410156 L 238.519531 129.628906 L 240.054688 129.230469 L 243.125 128.417969 L 244.660156 128.003906 L 246.191406 127.585938 L 247.726562 127.164062 L 249.261719 126.734375 L 250.796875 126.300781 L 252.332031 125.863281 L 253.867188 125.421875 L 255.402344 124.972656 L 256.9375 124.519531 L 258.472656 124.0625 L 260.007812 123.601562 L 261.539062 123.132812 L 263.074219 122.664062 L 264.609375 122.1875 L 267.679688 121.21875 L 269.214844 120.726562 L 270.75 120.230469 L 272.285156 119.730469 L 273.820312 119.226562 L 275.351562 118.714844 L 276.886719 118.199219 L 278.421875 117.679688 L 279.957031 117.15625 L 281.492188 116.628906 L 283.027344 116.097656 L 286.097656 115.019531 L 287.632812 114.472656 L 289.167969 113.921875 L 290.699219 113.367188 L 292.234375 112.808594 L 293.769531 112.246094 L 295.304688 111.679688 L 298.375 110.53125 L 299.910156 109.953125 L 301.445312 109.371094 L 304.515625 108.191406 L 306.046875 107.597656 L 307.582031 107 L 309.117188 106.398438 L 310.652344 105.792969 L 313.722656 104.574219 L 316.792969 103.339844 L 318.328125 102.71875 L 319.859375 102.09375 L 321.394531 101.46875 L 326 99.570312 L 330.605469 97.648438 L 332.140625 97.003906 L 333.675781 96.355469 L 335.207031 95.707031 L 338.277344 94.402344 L 342.882812 92.433594 L 347.488281 90.453125 L 349.019531 89.789062 L 353.625 87.796875 L 355.160156 87.128906 L 356.695312 86.464844 L 358.230469 85.796875 L 359.765625 85.132812 L 361.300781 84.464844 L 362.835938 83.800781 L 364.367188 83.132812 L 372.042969 79.8125 L 376.648438 77.832031 L 378.183594 77.175781 L 379.714844 76.519531 L 382.785156 75.214844 L 385.855469 73.917969 L 387.390625 73.273438 L 390.460938 71.992188 L 391.996094 71.355469 L 393.527344 70.722656 L 395.0625 70.089844 L 398.132812 68.839844 L 399.667969 68.21875 L 402.738281 66.992188 L 404.273438 66.382812 L 405.808594 65.777344 L 407.34375 65.179688 L 408.875 64.585938 L 410.410156 63.992188 L 413.480469 62.828125 L 415.015625 62.253906 L 416.550781 61.683594 L 418.085938 61.117188 L 419.621094 60.558594 L 421.15625 60.003906 L 422.691406 59.457031 L 424.222656 58.914062 L 425.757812 58.378906 L 427.292969 57.851562 L 428.828125 57.328125 L 430.363281 56.8125 L 431.898438 56.304688 L 433.433594 55.800781 L 434.96875 55.304688 L 436.503906 54.816406 L 438.035156 54.335938 L 439.570312 53.863281 L 441.105469 53.394531 L 442.640625 52.9375 L 444.175781 52.488281 L 445.710938 52.042969 L 447.246094 51.609375 L 448.78125 51.183594 L 450.316406 50.765625 L 451.851562 50.355469 L 453.382812 49.953125 L 454.917969 49.5625 L 456.453125 49.175781 L 457.988281 48.800781 L 459.523438 48.433594 L 461.058594 48.078125 L 462.59375 47.730469 L 464.128906 47.390625 L 465.664062 47.0625 L 467.199219 46.742188 L 468.730469 46.433594 L 470.265625 46.132812 L 471.800781 45.839844 L 473.335938 45.558594 L 474.871094 45.289062 L 476.40625 45.027344 L 477.941406 44.777344 L 479.476562 44.535156 L 481.011719 44.304688 L 482.542969 44.085938 L 484.078125 43.875 L 485.613281 43.675781 L 487.148438 43.484375 L 488.683594 43.304688 L 490.21875 43.136719 L 491.753906 42.980469 L 493.289062 42.832031 L 494.824219 42.695312 L 496.359375 42.570312 L 497.890625 42.457031 L 499.425781 42.351562 L 500.960938 42.261719 L 502.496094 42.175781 L 504.03125 42.105469 L 505.566406 42.046875 L 507.101562 41.996094 L 508.636719 41.957031 L 510.171875 41.929688 L 511.703125 41.914062 L 513.238281 41.910156 L 514.773438 41.914062 L 516.308594 41.929688 L 517.84375 41.957031 L 519.378906 41.996094 L 520.914062 42.046875 L 522.449219 42.105469 L 523.984375 42.175781 L 525.519531 42.261719 L 527.050781 42.351562 L 528.585938 42.457031 L 530.121094 42.570312 L 531.65625 42.695312 L 533.191406 42.832031 L 534.726562 42.980469 L 536.261719 43.136719 L 537.796875 43.304688 L 539.332031 43.484375 L 540.867188 43.675781 L 542.398438 43.875 L 543.933594 44.085938 L 545.46875 44.304688 L 547.003906 44.535156 L 548.539062 44.777344 L 550.074219 45.027344 L 551.609375 45.289062 L 553.144531 45.558594 L 554.679688 45.839844 L 556.210938 46.132812 L 557.746094 46.433594 L 559.28125 46.742188 L 560.816406 47.0625 L 562.351562 47.390625 L 563.886719 47.730469 L 565.421875 48.078125 L 566.957031 48.433594 L 568.492188 48.800781 L 570.027344 49.175781 L 571.558594 49.5625 L 573.09375 49.953125 L 574.628906 50.355469 L 576.164062 50.765625 L 577.699219 51.183594 L 579.234375 51.609375 L 580.769531 52.042969 L 582.304688 52.488281 L 583.839844 52.9375 L 585.375 53.394531 L 586.90625 53.863281 L 588.441406 54.335938 L 589.976562 54.816406 L 591.511719 55.304688 L 593.046875 55.800781 L 594.582031 56.304688 L 596.117188 56.8125 L 597.652344 57.328125 L 599.1875 57.851562 L 600.71875 58.378906 L 602.253906 58.914062 L 603.789062 59.457031 L 605.324219 60.003906 L 606.859375 60.558594 L 608.394531 61.117188 L 609.929688 61.683594 L 611.464844 62.253906 L 613 62.828125 L 614.535156 63.410156 L 616.066406 63.992188 L 619.136719 65.179688 L 620.671875 65.777344 L 622.207031 66.382812 L 623.742188 66.992188 L 626.8125 68.21875 L 628.347656 68.839844 L 629.878906 69.464844 L 631.414062 70.089844 L 634.484375 71.355469 L 636.019531 71.992188 L 639.089844 73.273438 L 640.625 73.917969 L 643.695312 75.214844 L 645.226562 75.867188 L 646.761719 76.519531 L 649.832031 77.832031 L 654.4375 79.8125 L 659.042969 81.804688 L 660.574219 82.46875 L 662.109375 83.132812 L 663.644531 83.800781 L 665.179688 84.464844 L 666.714844 85.132812 L 668.25 85.796875 L 669.785156 86.464844 L 671.320312 87.128906 L 672.855469 87.796875 L 674.386719 88.460938 L 678.992188 90.453125 L 683.597656 92.433594 L 688.203125 94.402344 L 689.734375 95.054688 L 691.269531 95.707031 L 694.339844 97.003906 L 695.875 97.648438 L 700.480469 99.570312 L 703.550781 100.835938 L 705.082031 101.46875 L 708.152344 102.71875 L 709.6875 103.339844 L 712.757812 104.574219 L 715.828125 105.792969 L 717.363281 106.398438 L 718.894531 107 L 720.429688 107.597656 L 721.964844 108.191406 L 725.035156 109.371094 L 726.570312 109.953125 L 728.105469 110.53125 L 731.175781 111.679688 L 732.710938 112.246094 L 734.242188 112.808594 L 735.777344 113.367188 L 737.3125 113.921875 L 738.847656 114.472656 L 740.382812 115.019531 L 743.453125 116.097656 L 744.988281 116.628906 L 746.523438 117.15625 L 748.058594 117.679688 L 749.589844 118.199219 L 751.125 118.714844 L 752.660156 119.226562 L 754.195312 119.730469 L 755.730469 120.230469 L 757.265625 120.726562 L 758.800781 121.21875 L 761.871094 122.1875 L 763.402344 122.664062 L 766.472656 123.601562 L 768.007812 124.0625 L 769.542969 124.519531 L 771.078125 124.972656 L 772.613281 125.421875 L 774.148438 125.863281 L 775.683594 126.300781 L 777.21875 126.734375 L 778.75 127.164062 L 780.285156 127.585938 L 781.820312 128.003906 L 781.820312 151.761719 L 14.445312 151.761719 Z M 14.445312 151.203125 "/>
<path fill-rule="nonzero" fill="rgb(75.686275%, 9.411765%, 0%)" fill-opacity="0.2" d="M 14.445312 128.003906 L 15.980469 127.585938 L 17.515625 127.164062 L 19.050781 126.734375 L 20.585938 126.300781 L 22.121094 125.863281 L 23.65625 125.421875 L 25.1875 124.972656 L 26.722656 124.519531 L 28.257812 124.0625 L 29.792969 123.601562 L 32.863281 122.664062 L 34.398438 122.1875 L 37.46875 121.21875 L 39 120.726562 L 40.535156 120.230469 L 42.070312 119.730469 L 43.605469 119.226562 L 45.140625 118.714844 L 46.675781 118.199219 L 48.210938 117.679688 L 49.746094 117.15625 L 51.28125 116.628906 L 52.816406 116.097656 L 54.347656 115.558594 L 55.882812 115.019531 L 57.417969 114.472656 L 58.953125 113.921875 L 60.488281 113.367188 L 62.023438 112.808594 L 63.558594 112.246094 L 65.09375 111.679688 L 66.628906 111.105469 L 68.160156 110.53125 L 69.695312 109.953125 L 71.230469 109.371094 L 74.300781 108.191406 L 75.835938 107.597656 L 77.371094 107 L 78.90625 106.398438 L 80.441406 105.792969 L 81.976562 105.183594 L 83.507812 104.574219 L 86.578125 103.339844 L 88.113281 102.71875 L 91.183594 101.46875 L 95.789062 99.570312 L 97.324219 98.929688 L 98.855469 98.289062 L 100.390625 97.648438 L 101.925781 97.003906 L 104.996094 95.707031 L 108.066406 94.402344 L 111.136719 93.089844 L 112.667969 92.433594 L 117.273438 90.453125 L 123.414062 87.796875 L 124.949219 87.128906 L 126.484375 86.464844 L 128.015625 85.796875 L 129.550781 85.132812 L 131.085938 84.464844 L 132.621094 83.800781 L 134.15625 83.132812 L 141.832031 79.8125 L 143.363281 79.152344 L 146.433594 77.832031 L 149.503906 76.519531 L 152.574219 75.214844 L 155.644531 73.917969 L 157.175781 73.273438 L 160.246094 71.992188 L 161.78125 71.355469 L 164.851562 70.089844 L 167.921875 68.839844 L 169.457031 68.21875 L 170.992188 67.605469 L 172.523438 66.992188 L 174.058594 66.382812 L 175.59375 65.777344 L 177.128906 65.179688 L 180.199219 63.992188 L 183.269531 62.828125 L 184.804688 62.253906 L 186.339844 61.683594 L 187.871094 61.117188 L 189.40625 60.558594 L 190.941406 60.003906 L 192.476562 59.457031 L 194.011719 58.914062 L 195.546875 58.378906 L 197.082031 57.851562 L 198.617188 57.328125 L 200.152344 56.8125 L 201.683594 56.304688 L 203.21875 55.800781 L 204.753906 55.304688 L 206.289062 54.816406 L 207.824219 54.335938 L 209.359375 53.863281 L 210.894531 53.394531 L 212.429688 52.9375 L 213.964844 52.488281 L 215.5 52.042969 L 217.03125 51.609375 L 218.566406 51.183594 L 220.101562 50.765625 L 221.636719 50.355469 L 223.171875 49.953125 L 224.707031 49.5625 L 226.242188 49.175781 L 227.777344 48.800781 L 229.3125 48.433594 L 230.84375 48.078125 L 232.378906 47.730469 L 233.914062 47.390625 L 235.449219 47.0625 L 236.984375 46.742188 L 238.519531 46.433594 L 240.054688 46.132812 L 241.589844 45.839844 L 243.125 45.558594 L 244.660156 45.289062 L 246.191406 45.027344 L 247.726562 44.777344 L 249.261719 44.535156 L 250.796875 44.304688 L 252.332031 44.085938 L 253.867188 43.875 L 255.402344 43.675781 L 256.9375 43.484375 L 258.472656 43.304688 L 260.007812 43.136719 L 261.539062 42.980469 L 263.074219 42.832031 L 264.609375 42.695312 L 266.144531 42.570312 L 267.679688 42.457031 L 269.214844 42.351562 L 270.75 42.261719 L 272.285156 42.175781 L 273.820312 42.105469 L 275.351562 42.046875 L 276.886719 41.996094 L 278.421875 41.957031 L 279.957031 41.929688 L 281.492188 41.914062 L 283.027344 41.910156 L 284.5625 41.914062 L 286.097656 41.929688 L 287.632812 41.957031 L 289.167969 41.996094 L 290.699219 42.046875 L 292.234375 42.105469 L 293.769531 42.175781 L 295.304688 42.261719 L 296.839844 42.351562 L 298.375 42.457031 L 299.910156 42.570312 L 301.445312 42.695312 L 302.980469 42.832031 L 304.515625 42.980469 L 306.046875 43.136719 L 307.582031 43.304688 L 309.117188 43.484375 L 310.652344 43.675781 L 312.1875 43.875 L 313.722656 44.085938 L 315.257812 44.304688 L 316.792969 44.535156 L 318.328125 44.777344 L 319.859375 45.027344 L 321.394531 45.289062 L 322.929688 45.558594 L 324.464844 45.839844 L 326 46.132812 L 327.535156 46.433594 L 329.070312 46.742188 L 330.605469 47.0625 L 332.140625 47.390625 L 333.675781 47.730469 L 335.207031 48.078125 L 336.742188 48.433594 L 338.277344 48.800781 L 339.8125 49.175781 L 341.347656 49.5625 L 342.882812 49.953125 L 344.417969 50.355469 L 345.953125 50.765625 L 347.488281 51.183594 L 349.019531 51.609375 L 350.554688 52.042969 L 352.089844 52.488281 L 353.625 52.9375 L 355.160156 53.394531 L 356.695312 53.863281 L 358.230469 54.335938 L 359.765625 54.816406 L 361.300781 55.304688 L 362.835938 55.800781 L 364.367188 56.304688 L 365.902344 56.8125 L 367.4375 57.328125 L 368.972656 57.851562 L 370.507812 58.378906 L 372.042969 58.914062 L 373.578125 59.457031 L 375.113281 60.003906 L 376.648438 60.558594 L 378.183594 61.117188 L 379.714844 61.683594 L 381.25 62.253906 L 382.785156 62.828125 L 385.855469 63.992188 L 388.925781 65.179688 L 390.460938 65.777344 L 391.996094 66.382812 L 393.527344 66.992188 L 396.597656 68.21875 L 398.132812 68.839844 L 401.203125 70.089844 L 404.273438 71.355469 L 405.808594 71.992188 L 407.34375 72.632812 L 408.875 73.273438 L 410.410156 73.917969 L 413.480469 75.214844 L 416.550781 76.519531 L 419.621094 77.832031 L 422.691406 79.152344 L 424.222656 79.8125 L 431.898438 83.132812 L 433.433594 83.800781 L 434.96875 84.464844 L 436.503906 85.132812 L 438.035156 85.796875 L 439.570312 86.464844 L 441.105469 87.128906 L 442.640625 87.796875 L 448.78125 90.453125 L 451.851562 91.773438 L 453.382812 92.433594 L 457.988281 94.402344 L 461.058594 95.707031 L 464.128906 97.003906 L 465.664062 97.648438 L 467.199219 98.289062 L 468.730469 98.929688 L 470.265625 99.570312 L 474.871094 101.46875 L 477.941406 102.71875 L 479.476562 103.339844 L 481.011719 103.957031 L 482.542969 104.574219 L 485.613281 105.792969 L 487.148438 106.398438 L 488.683594 107 L 490.21875 107.597656 L 491.753906 108.191406 L 494.824219 109.371094 L 496.359375 109.953125 L 497.890625 110.53125 L 500.960938 111.679688 L 502.496094 112.246094 L 504.03125 112.808594 L 505.566406 113.367188 L 507.101562 113.921875 L 508.636719 114.472656 L 510.171875 115.019531 L 511.703125 115.558594 L 513.238281 116.097656 L 514.773438 116.628906 L 516.308594 117.15625 L 517.84375 117.679688 L 519.378906 118.199219 L 520.914062 118.714844 L 522.449219 119.226562 L 523.984375 119.730469 L 525.519531 120.230469 L 527.050781 120.726562 L 528.585938 121.21875 L 531.65625 122.1875 L 533.191406 122.664062 L 536.261719 123.601562 L 537.796875 124.0625 L 539.332031 124.519531 L 540.867188 124.972656 L 542.398438 125.421875 L 543.933594 125.863281 L 545.46875 126.300781 L 547.003906 126.734375 L 548.539062 127.164062 L 550.074219 127.585938 L 551.609375 128.003906 L 553.144531 128.417969 L 554.679688 128.824219 L 556.210938 129.230469 L 557.746094 129.628906 L 560.816406 130.410156 L 562.351562 130.792969 L 563.886719 131.171875 L 565.421875 131.546875 L 566.957031 131.917969 L 568.492188 132.28125 L 570.027344 132.640625 L 571.558594 132.996094 L 573.09375 133.347656 L 576.164062 134.035156 L 577.699219 134.371094 L 579.234375 134.703125 L 582.304688 135.351562 L 583.839844 135.667969 L 585.375 135.980469 L 586.90625 136.289062 L 588.441406 136.59375 L 589.976562 136.894531 L 593.046875 137.480469 L 594.582031 137.765625 L 596.117188 138.046875 L 597.652344 138.324219 L 599.1875 138.597656 L 600.71875 138.867188 L 602.253906 139.132812 L 603.789062 139.394531 L 606.859375 139.902344 L 609.929688 140.394531 L 613 140.871094 L 614.535156 141.101562 L 616.066406 141.332031 L 619.136719 141.777344 L 622.207031 142.207031 L 625.277344 142.621094 L 626.8125 142.824219 L 628.347656 143.019531 L 629.878906 143.214844 L 631.414062 143.40625 L 634.484375 143.78125 L 636.019531 143.960938 L 639.089844 144.3125 L 640.625 144.484375 L 642.160156 144.652344 L 643.695312 144.816406 L 645.226562 144.976562 L 646.761719 145.136719 L 648.296875 145.292969 L 649.832031 145.445312 L 652.902344 145.742188 L 657.507812 146.164062 L 659.042969 146.296875 L 660.574219 146.429688 L 662.109375 146.5625 L 665.179688 146.8125 L 668.25 147.054688 L 669.785156 147.171875 L 672.855469 147.398438 L 674.386719 147.507812 L 677.457031 147.71875 L 680.527344 147.921875 L 683.597656 148.117188 L 685.132812 148.210938 L 686.667969 148.300781 L 688.203125 148.394531 L 689.734375 148.480469 L 692.804688 148.652344 L 694.339844 148.734375 L 698.945312 148.96875 L 702.015625 149.117188 L 703.550781 149.1875 L 705.082031 149.257812 L 709.6875 149.457031 L 712.757812 149.582031 L 717.363281 149.757812 L 718.894531 149.8125 L 721.964844 149.921875 L 726.570312 150.074219 L 731.175781 150.214844 L 732.710938 150.257812 L 734.242188 150.300781 L 737.3125 150.386719 L 741.917969 150.503906 L 743.453125 150.539062 L 744.988281 150.578125 L 746.523438 150.613281 L 748.058594 150.644531 L 749.589844 150.679688 L 755.730469 150.804688 L 761.871094 150.914062 L 763.402344 150.941406 L 764.9375 150.964844 L 766.472656 150.992188 L 771.078125 151.0625 L 772.613281 151.082031 L 774.148438 151.105469 L 777.21875 151.144531 L 778.75 151.164062 L 781.820312 151.203125 L 781.820312 151.761719 L 14.445312 151.761719 Z M 14.445312 128.003906 "/>
</g>
<g clip-path="url(#clip-4)">
<path fill="none" stroke-width="1.745965" stroke-linecap="butt" stroke-linejoin="round" stroke="rgb(0%, 0%, 0%)" stroke-opacity="1" stroke-miterlimit="10" d="M 474.871094 151.761719 L 474.871094 14.445312 "/>
</g>
<path fill="none" stroke-width="1.745965" stroke-linecap="square" stroke-linejoin="round" stroke="rgb(0%, 0%, 0%)" stroke-opacity="1" stroke-miterlimit="10" d="M 14.445312 151.761719 L 781.820312 151.761719 "/>
<path fill="none" stroke-width="1.745965" stroke-linecap="butt" stroke-linejoin="round" stroke="rgb(0%, 0%, 0%)" stroke-opacity="1" stroke-miterlimit="10" d="M 91.183594 156.242188 L 91.183594 151.761719 "/>
<path fill="none" stroke-width="1.745965" stroke-linecap="butt" stroke-linejoin="round" stroke="rgb(0%, 0%, 0%)" stroke-opacity="1" stroke-miterlimit="10" d="M 398.132812 156.242188 L 398.132812 151.761719 "/>
<path fill="none" stroke-width="1.745965" stroke-linecap="butt" stroke-linejoin="round" stroke="rgb(0%, 0%, 0%)" stroke-opacity="1" stroke-miterlimit="10" d="M 705.082031 156.242188 L 705.082031 151.761719 "/>
<g fill="rgb(0%, 0%, 0%)" fill-opacity="1">
<use xlink:href="#glyph-0-0" x="84.683594" y="170.329102"/>
<use xlink:href="#glyph-0-1" x="89.683594" y="170.329102"/>
</g>
<g fill="rgb(0%, 0%, 0%)" fill-opacity="1">
<use xlink:href="#glyph-0-2" x="394.132812" y="170.329102"/>
</g>
<g fill="rgb(0%, 0%, 0%)" fill-opacity="1">
<use xlink:href="#glyph-0-1" x="701.082031" y="170.329102"/>
</g>
<g fill="rgb(0%, 0%, 0%)" fill-opacity="1">
<use xlink:href="#glyph-1-0" x="332.132812" y="192.43457"/>
<use xlink:href="#glyph-1-1" x="341.132812" y="192.43457"/>
<use xlink:href="#glyph-1-2" x="350.132812" y="192.43457"/>
<use xlink:href="#glyph-1-3" x="360.132812" y="192.43457"/>
<use xlink:href="#glyph-1-4" x="370.132812" y="192.43457"/>
<use xlink:href="#glyph-1-5" x="375.132812" y="192.43457"/>
<use xlink:href="#glyph-1-4" x="385.132812" y="192.43457"/>
<use xlink:href="#glyph-1-6" x="390.132812" y="192.43457"/>
<use xlink:href="#glyph-1-7" x="402.132812" y="192.43457"/>
<use xlink:href="#glyph-1-8" x="411.132812" y="192.43457"/>
<use xlink:href="#glyph-1-9" x="415.132812" y="192.43457"/>
<use xlink:href="#glyph-1-3" x="425.132812" y="192.43457"/>
<use xlink:href="#glyph-1-10" x="435.132812" y="192.43457"/>
<use xlink:href="#glyph-1-11" x="445.132812" y="192.43457"/>
<use xlink:href="#glyph-1-3" x="454.132812" y="192.43457"/>
</g>
<g clip-path="url(#clip-5)">
<path fill-rule="nonzero" fill="rgb(100%, 100%, 100%)" fill-opacity="1" stroke-width="1.745965" stroke-linecap="round" stroke-linejoin="round" stroke="rgb(100%, 100%, 100%)" stroke-opacity="1" stroke-miterlimit="10" d="M 5.480469 426.519531 L 473.078125 426.519531 L 473.078125 206.277344 L 5.480469 206.277344 Z M 5.480469 426.519531 "/>
</g>
<g clip-path="url(#clip-6)">
<path fill-rule="nonzero" fill="rgb(100%, 100%, 100%)" fill-opacity="1" stroke-width="1.745965" stroke-linecap="round" stroke-linejoin="round" stroke="rgb(100%, 100%, 100%)" stroke-opacity="1" stroke-miterlimit="10" d="M 473.078125 426.519531 L 790.789062 426.519531 L 790.789062 206.277344 L 473.078125 206.277344 Z M 473.078125 426.519531 "/>
</g>
<g clip-path="url(#clip-7)">
<path fill-rule="nonzero" fill="rgb(100%, 100%, 100%)" fill-opacity="1" d="M 14.445312 352.5625 L 464.109375 352.5625 L 464.109375 215.246094 L 14.445312 215.246094 Z M 14.445312 352.5625 "/>
</g>
<g clip-path="url(#clip-8)">
<path fill-rule="nonzero" fill="rgb(90.980392%, 70.196078%, 19.607843%)" fill-opacity="0.329412" d="M 14.445312 351.339844 L 15.34375 351.320312 L 16.238281 351.296875 L 17.136719 351.273438 L 18.925781 351.226562 L 19.824219 351.203125 L 20.71875 351.179688 L 21.617188 351.152344 L 22.511719 351.128906 L 23.410156 351.101562 L 24.304688 351.078125 L 25.203125 351.050781 L 26.097656 351.023438 L 26.996094 350.996094 L 27.890625 350.96875 L 28.789062 350.941406 L 29.683594 350.914062 L 30.578125 350.882812 L 31.476562 350.855469 L 32.371094 350.824219 L 33.269531 350.792969 L 34.164062 350.765625 L 35.0625 350.734375 L 35.957031 350.699219 L 36.855469 350.667969 L 37.75 350.636719 L 38.648438 350.601562 L 39.542969 350.570312 L 40.441406 350.535156 L 41.335938 350.5 L 42.234375 350.464844 L 44.023438 350.394531 L 44.921875 350.355469 L 45.816406 350.320312 L 46.714844 350.28125 L 47.609375 350.242188 L 48.507812 350.203125 L 49.402344 350.164062 L 50.300781 350.125 L 51.195312 350.085938 L 52.09375 350.042969 L 52.988281 350 L 53.886719 349.960938 L 54.78125 349.917969 L 55.675781 349.871094 L 56.574219 349.828125 L 57.46875 349.785156 L 58.367188 349.738281 L 59.261719 349.691406 L 60.160156 349.644531 L 61.054688 349.597656 L 61.953125 349.550781 L 62.847656 349.5 L 63.746094 349.449219 L 64.640625 349.402344 L 65.539062 349.351562 L 66.433594 349.296875 L 67.332031 349.246094 L 68.226562 349.191406 L 69.121094 349.140625 L 70.019531 349.085938 L 70.914062 349.03125 L 71.8125 348.972656 L 72.707031 348.917969 L 73.605469 348.859375 L 74.5 348.800781 L 75.398438 348.742188 L 76.292969 348.683594 L 77.191406 348.621094 L 78.085938 348.5625 L 78.984375 348.5 L 79.878906 348.4375 L 80.773438 348.371094 L 81.671875 348.308594 L 82.566406 348.242188 L 83.464844 348.175781 L 84.359375 348.109375 L 85.257812 348.039062 L 86.152344 347.972656 L 87.050781 347.902344 L 87.945312 347.832031 L 88.84375 347.757812 L 89.738281 347.6875 L 90.636719 347.613281 L 92.425781 347.464844 L 93.324219 347.386719 L 94.21875 347.308594 L 95.117188 347.230469 L 96.011719 347.152344 L 96.910156 347.070312 L 97.804688 346.992188 L 98.703125 346.910156 L 99.597656 346.824219 L 100.496094 346.742188 L 101.390625 346.65625 L 102.289062 346.570312 L 103.183594 346.484375 L 104.082031 346.394531 L 105.871094 346.214844 L 106.769531 346.125 L 107.664062 346.03125 L 108.5625 345.9375 L 109.457031 345.84375 L 110.355469 345.746094 L 111.25 345.648438 L 112.148438 345.550781 L 113.042969 345.453125 L 113.941406 345.351562 L 114.835938 345.25 L 115.734375 345.148438 L 117.523438 344.9375 L 118.421875 344.832031 L 119.316406 344.726562 L 120.214844 344.617188 L 121.109375 344.507812 L 122.007812 344.394531 L 122.902344 344.285156 L 123.800781 344.167969 L 124.695312 344.054688 L 125.59375 343.9375 L 126.488281 343.820312 L 127.386719 343.703125 L 128.28125 343.582031 L 129.179688 343.460938 L 130.074219 343.339844 L 130.96875 343.214844 L 131.867188 343.089844 L 132.761719 342.964844 L 133.660156 342.835938 L 134.554688 342.707031 L 135.453125 342.578125 L 136.347656 342.445312 L 137.246094 342.3125 L 138.140625 342.175781 L 139.039062 342.039062 L 139.933594 341.902344 L 140.832031 341.765625 L 141.726562 341.625 L 142.621094 341.480469 L 143.519531 341.339844 L 144.414062 341.195312 L 145.3125 341.046875 L 146.207031 340.902344 L 147.105469 340.753906 L 148 340.601562 L 148.898438 340.449219 L 149.792969 340.296875 L 150.691406 340.140625 L 151.585938 339.984375 L 152.484375 339.828125 L 154.273438 339.507812 L 155.171875 339.34375 L 156.066406 339.179688 L 156.964844 339.015625 L 157.859375 338.847656 L 158.757812 338.679688 L 159.652344 338.507812 L 160.550781 338.335938 L 161.445312 338.164062 L 162.34375 337.988281 L 163.238281 337.8125 L 164.136719 337.636719 L 165.03125 337.457031 L 165.929688 337.273438 L 167.71875 336.90625 L 168.617188 336.71875 L 169.511719 336.53125 L 170.410156 336.34375 L 171.304688 336.152344 L 172.203125 335.957031 L 173.097656 335.765625 L 173.996094 335.566406 L 174.890625 335.371094 L 175.789062 335.171875 L 176.683594 334.96875 L 177.582031 334.765625 L 178.476562 334.5625 L 179.371094 334.355469 L 180.269531 334.148438 L 181.164062 333.9375 L 182.0625 333.726562 L 182.957031 333.511719 L 183.855469 333.300781 L 184.75 333.082031 L 185.648438 332.863281 L 186.542969 332.644531 L 187.441406 332.421875 L 188.335938 332.199219 L 189.234375 331.972656 L 190.128906 331.746094 L 191.027344 331.519531 L 191.921875 331.289062 L 192.816406 331.054688 L 193.714844 330.820312 L 194.609375 330.585938 L 195.507812 330.347656 L 196.402344 330.109375 L 197.300781 329.867188 L 198.195312 329.625 L 199.09375 329.382812 L 199.988281 329.136719 L 200.886719 328.886719 L 201.78125 328.636719 L 202.679688 328.386719 L 204.46875 327.878906 L 205.367188 327.621094 L 206.261719 327.363281 L 207.160156 327.101562 L 208.054688 326.839844 L 208.953125 326.574219 L 209.847656 326.308594 L 210.746094 326.042969 L 211.640625 325.773438 L 212.539062 325.503906 L 213.433594 325.230469 L 214.332031 324.957031 L 215.226562 324.679688 L 216.125 324.402344 L 217.914062 323.839844 L 218.8125 323.558594 L 219.707031 323.273438 L 220.605469 322.984375 L 221.5 322.699219 L 222.398438 322.40625 L 223.292969 322.117188 L 224.191406 321.824219 L 225.085938 321.527344 L 225.984375 321.230469 L 226.878906 320.933594 L 227.777344 320.632812 L 228.671875 320.328125 L 229.566406 320.027344 L 230.464844 319.71875 L 231.359375 319.414062 L 232.257812 319.105469 L 233.152344 318.792969 L 234.050781 318.480469 L 234.945312 318.167969 L 235.84375 317.851562 L 236.738281 317.535156 L 237.636719 317.21875 L 238.53125 316.898438 L 239.429688 316.574219 L 240.324219 316.253906 L 241.21875 315.925781 L 242.117188 315.601562 L 243.011719 315.273438 L 243.910156 314.941406 L 244.804688 314.613281 L 245.703125 314.277344 L 246.597656 313.945312 L 247.496094 313.609375 L 248.390625 313.273438 L 249.289062 312.933594 L 250.183594 312.59375 L 251.082031 312.25 L 251.976562 311.90625 L 252.875 311.5625 L 253.769531 311.21875 L 254.664062 310.871094 L 255.5625 310.519531 L 256.457031 310.171875 L 257.355469 309.820312 L 258.25 309.464844 L 259.148438 309.109375 L 260.042969 308.753906 L 260.941406 308.398438 L 261.835938 308.039062 L 262.734375 307.679688 L 263.628906 307.320312 L 264.527344 306.957031 L 266.316406 306.230469 L 267.214844 305.863281 L 268.109375 305.496094 L 269.007812 305.128906 L 269.902344 304.757812 L 270.800781 304.386719 L 271.695312 304.015625 L 272.59375 303.644531 L 273.488281 303.269531 L 274.386719 302.894531 L 275.28125 302.519531 L 276.179688 302.140625 L 277.074219 301.761719 L 277.972656 301.382812 L 279.761719 300.625 L 280.660156 300.242188 L 281.554688 299.859375 L 282.453125 299.476562 L 283.347656 299.089844 L 284.246094 298.707031 L 285.140625 298.320312 L 286.039062 297.933594 L 286.933594 297.542969 L 287.832031 297.15625 L 288.726562 296.765625 L 289.625 296.375 L 291.414062 295.59375 L 292.3125 295.203125 L 293.207031 294.808594 L 294.105469 294.417969 L 295 294.023438 L 295.898438 293.628906 L 296.792969 293.234375 L 297.691406 292.835938 L 298.585938 292.441406 L 299.484375 292.046875 L 300.378906 291.648438 L 301.277344 291.25 L 302.171875 290.855469 L 303.070312 290.457031 L 304.859375 289.660156 L 305.757812 289.261719 L 306.652344 288.863281 L 307.550781 288.464844 L 308.445312 288.0625 L 309.34375 287.664062 L 310.238281 287.265625 L 311.136719 286.867188 L 312.03125 286.464844 L 312.929688 286.066406 L 313.824219 285.667969 L 314.722656 285.265625 L 316.511719 284.46875 L 317.410156 284.066406 L 318.304688 283.667969 L 319.203125 283.269531 L 320.097656 282.871094 L 320.996094 282.472656 L 321.890625 282.074219 L 322.789062 281.675781 L 323.683594 281.277344 L 324.582031 280.878906 L 325.476562 280.480469 L 326.375 280.085938 L 327.269531 279.6875 L 328.164062 279.292969 L 329.0625 278.898438 L 329.957031 278.503906 L 330.855469 278.109375 L 331.75 277.714844 L 332.648438 277.320312 L 333.542969 276.929688 L 334.441406 276.535156 L 335.335938 276.144531 L 336.234375 275.753906 L 337.128906 275.367188 L 338.027344 274.976562 L 338.921875 274.589844 L 339.820312 274.203125 L 340.714844 273.816406 L 341.609375 273.433594 L 342.507812 273.046875 L 343.402344 272.664062 L 344.300781 272.28125 L 345.195312 271.902344 L 346.09375 271.523438 L 346.988281 271.144531 L 347.886719 270.765625 L 348.78125 270.390625 L 349.679688 270.015625 L 350.574219 269.640625 L 351.472656 269.269531 L 353.261719 268.527344 L 354.160156 268.160156 L 355.054688 267.792969 L 355.953125 267.425781 L 356.847656 267.0625 L 357.746094 266.699219 L 358.640625 266.339844 L 359.539062 265.980469 L 360.433594 265.621094 L 361.332031 265.265625 L 362.226562 264.914062 L 363.125 264.558594 L 364.019531 264.207031 L 364.917969 263.859375 L 365.8125 263.511719 L 366.707031 263.167969 L 367.605469 262.824219 L 368.5 262.484375 L 369.398438 262.144531 L 370.292969 261.804688 L 371.191406 261.46875 L 372.085938 261.136719 L 372.984375 260.804688 L 373.878906 260.476562 L 374.777344 260.148438 L 375.671875 259.824219 L 376.570312 259.5 L 377.464844 259.179688 L 378.359375 258.863281 L 379.257812 258.546875 L 380.152344 258.234375 L 381.050781 257.921875 L 381.945312 257.613281 L 382.84375 257.304688 L 383.738281 257.003906 L 384.636719 256.699219 L 385.53125 256.402344 L 386.429688 256.105469 L 387.324219 255.8125 L 388.222656 255.519531 L 389.117188 255.230469 L 390.011719 254.945312 L 390.910156 254.664062 L 391.804688 254.382812 L 392.703125 254.105469 L 393.597656 253.828125 L 394.496094 253.558594 L 395.390625 253.289062 L 396.289062 253.019531 L 397.183594 252.757812 L 398.082031 252.496094 L 398.976562 252.238281 L 399.875 251.984375 L 400.769531 251.730469 L 401.667969 251.480469 L 402.5625 251.238281 L 403.457031 250.992188 L 404.355469 250.753906 L 405.25 250.515625 L 406.148438 250.285156 L 407.042969 250.054688 L 407.941406 249.824219 L 408.835938 249.601562 L 409.734375 249.382812 L 410.628906 249.164062 L 411.527344 248.949219 L 412.421875 248.738281 L 413.320312 248.53125 L 415.109375 248.125 L 416.007812 247.929688 L 416.902344 247.734375 L 417.800781 247.542969 L 418.695312 247.355469 L 419.59375 247.171875 L 420.488281 246.992188 L 421.386719 246.816406 L 422.28125 246.640625 L 423.179688 246.472656 L 424.074219 246.304688 L 424.972656 246.140625 L 425.867188 245.984375 L 426.765625 245.828125 L 427.660156 245.675781 L 428.554688 245.527344 L 429.453125 245.382812 L 430.347656 245.242188 L 431.246094 245.105469 L 432.140625 244.972656 L 433.039062 244.839844 L 433.933594 244.714844 L 434.832031 244.59375 L 435.726562 244.476562 L 436.625 244.359375 L 437.519531 244.25 L 438.417969 244.140625 L 440.207031 243.9375 L 441.105469 243.84375 L 442 243.75 L 442.898438 243.664062 L 443.792969 243.578125 L 444.691406 243.496094 L 445.585938 243.421875 L 446.484375 243.347656 L 447.378906 243.28125 L 448.277344 243.214844 L 449.171875 243.152344 L 450.070312 243.097656 L 450.964844 243.042969 L 451.863281 242.992188 L 453.652344 242.90625 L 454.550781 242.871094 L 455.445312 242.835938 L 456.34375 242.804688 L 457.238281 242.78125 L 458.136719 242.757812 L 459.03125 242.742188 L 459.929688 242.726562 L 460.824219 242.71875 L 461.722656 242.710938 L 462.617188 242.710938 L 462.617188 352.5625 L 14.445312 352.5625 Z M 14.445312 351.339844 "/>
</g>
<g clip-path="url(#clip-9)">
<path fill-rule="nonzero" fill="rgb(75.686275%, 9.411765%, 0%)" fill-opacity="0.329412" d="M 14.445312 343.726562 L 15.34375 343.621094 L 16.238281 343.511719 L 17.136719 343.402344 L 18.925781 343.183594 L 19.824219 343.074219 L 20.71875 342.960938 L 21.617188 342.847656 L 22.511719 342.734375 L 23.410156 342.617188 L 24.304688 342.5 L 25.203125 342.382812 L 26.097656 342.265625 L 26.996094 342.148438 L 27.890625 342.027344 L 28.789062 341.90625 L 29.683594 341.78125 L 30.578125 341.660156 L 31.476562 341.535156 L 32.371094 341.410156 L 33.269531 341.285156 L 34.164062 341.15625 L 35.0625 341.027344 L 35.957031 340.898438 L 36.855469 340.769531 L 37.75 340.636719 L 38.648438 340.503906 L 39.542969 340.371094 L 40.441406 340.238281 L 41.335938 340.101562 L 42.234375 339.964844 L 43.128906 339.828125 L 44.023438 339.6875 L 44.921875 339.546875 L 45.816406 339.40625 L 46.714844 339.265625 L 47.609375 339.125 L 48.507812 338.980469 L 49.402344 338.835938 L 50.300781 338.6875 L 51.195312 338.542969 L 52.09375 338.394531 L 52.988281 338.242188 L 53.886719 338.09375 L 55.675781 337.789062 L 56.574219 337.636719 L 57.46875 337.484375 L 58.367188 337.328125 L 59.261719 337.171875 L 60.160156 337.011719 L 61.054688 336.855469 L 61.953125 336.695312 L 62.847656 336.535156 L 63.746094 336.371094 L 64.640625 336.210938 L 65.539062 336.046875 L 66.433594 335.882812 L 67.332031 335.714844 L 68.226562 335.550781 L 69.121094 335.382812 L 70.019531 335.210938 L 70.914062 335.042969 L 71.8125 334.871094 L 72.707031 334.699219 L 73.605469 334.527344 L 74.5 334.351562 L 75.398438 334.175781 L 76.292969 334 L 77.191406 333.824219 L 78.085938 333.644531 L 78.984375 333.464844 L 80.773438 333.105469 L 81.671875 332.921875 L 82.566406 332.738281 L 83.464844 332.554688 L 84.359375 332.371094 L 85.257812 332.183594 L 86.152344 331.996094 L 87.050781 331.808594 L 87.945312 331.621094 L 88.84375 331.429688 L 89.738281 331.238281 L 90.636719 331.046875 L 91.53125 330.855469 L 92.425781 330.660156 L 93.324219 330.464844 L 94.21875 330.269531 L 95.117188 330.074219 L 96.011719 329.875 L 96.910156 329.679688 L 97.804688 329.480469 L 98.703125 329.277344 L 99.597656 329.078125 L 100.496094 328.875 L 101.390625 328.671875 L 102.289062 328.46875 L 103.183594 328.265625 L 104.082031 328.058594 L 105.871094 327.644531 L 106.769531 327.4375 L 107.664062 327.230469 L 108.5625 327.019531 L 109.457031 326.808594 L 110.355469 326.597656 L 111.25 326.386719 L 112.148438 326.175781 L 113.042969 325.960938 L 113.941406 325.746094 L 114.835938 325.53125 L 115.734375 325.316406 L 116.628906 325.097656 L 117.523438 324.882812 L 118.421875 324.664062 L 119.316406 324.445312 L 120.214844 324.226562 L 121.109375 324.007812 L 122.007812 323.785156 L 122.902344 323.5625 L 123.800781 323.34375 L 124.695312 323.121094 L 125.59375 322.894531 L 126.488281 322.671875 L 127.386719 322.449219 L 128.28125 322.222656 L 129.179688 321.996094 L 130.96875 321.542969 L 131.867188 321.316406 L 132.761719 321.089844 L 133.660156 320.859375 L 134.554688 320.632812 L 135.453125 320.402344 L 136.347656 320.171875 L 137.246094 319.941406 L 138.140625 319.710938 L 139.039062 319.480469 L 139.933594 319.25 L 140.832031 319.015625 L 141.726562 318.785156 L 142.621094 318.550781 L 143.519531 318.316406 L 144.414062 318.085938 L 145.3125 317.851562 L 146.207031 317.617188 L 147.105469 317.382812 L 148 317.148438 L 148.898438 316.910156 L 149.792969 316.675781 L 150.691406 316.441406 L 151.585938 316.203125 L 152.484375 315.96875 L 153.378906 315.730469 L 154.273438 315.496094 L 155.171875 315.257812 L 156.066406 315.023438 L 156.964844 314.785156 L 157.859375 314.546875 L 158.757812 314.3125 L 159.652344 314.074219 L 160.550781 313.835938 L 161.445312 313.597656 L 162.34375 313.359375 L 163.238281 313.125 L 164.136719 312.886719 L 165.03125 312.648438 L 165.929688 312.410156 L 167.71875 311.933594 L 168.617188 311.699219 L 169.511719 311.460938 L 170.410156 311.222656 L 171.304688 310.988281 L 172.203125 310.75 L 173.097656 310.511719 L 173.996094 310.277344 L 174.890625 310.039062 L 175.789062 309.804688 L 176.683594 309.566406 L 177.582031 309.332031 L 179.371094 308.863281 L 180.269531 308.628906 L 181.164062 308.394531 L 182.0625 308.160156 L 182.957031 307.925781 L 183.855469 307.691406 L 184.75 307.457031 L 185.648438 307.226562 L 186.542969 306.992188 L 187.441406 306.761719 L 188.335938 306.53125 L 189.234375 306.300781 L 190.128906 306.070312 L 191.027344 305.839844 L 191.921875 305.613281 L 192.816406 305.382812 L 193.714844 305.15625 L 194.609375 304.929688 L 195.507812 304.703125 L 196.402344 304.476562 L 197.300781 304.25 L 198.195312 304.027344 L 199.09375 303.800781 L 199.988281 303.578125 L 200.886719 303.355469 L 201.78125 303.136719 L 202.679688 302.914062 L 204.46875 302.476562 L 205.367188 302.257812 L 206.261719 302.039062 L 207.160156 301.824219 L 208.054688 301.605469 L 208.953125 301.390625 L 209.847656 301.179688 L 210.746094 300.964844 L 211.640625 300.753906 L 212.539062 300.542969 L 213.433594 300.332031 L 214.332031 300.125 L 215.226562 299.917969 L 216.125 299.710938 L 217.019531 299.503906 L 217.914062 299.300781 L 218.8125 299.097656 L 219.707031 298.894531 L 220.605469 298.691406 L 221.5 298.492188 L 222.398438 298.292969 L 223.292969 298.097656 L 224.191406 297.902344 L 225.085938 297.707031 L 225.984375 297.511719 L 226.878906 297.320312 L 227.777344 297.128906 L 229.566406 296.753906 L 230.464844 296.566406 L 231.359375 296.378906 L 232.257812 296.195312 L 233.152344 296.011719 L 234.050781 295.832031 L 234.945312 295.652344 L 235.84375 295.472656 L 236.738281 295.296875 L 237.636719 295.121094 L 238.53125 294.949219 L 239.429688 294.777344 L 240.324219 294.605469 L 241.21875 294.4375 L 242.117188 294.269531 L 243.011719 294.105469 L 243.910156 293.941406 L 244.804688 293.777344 L 245.703125 293.617188 L 246.597656 293.457031 L 247.496094 293.300781 L 248.390625 293.144531 L 249.289062 292.992188 L 250.183594 292.839844 L 251.082031 292.6875 L 251.976562 292.539062 L 252.875 292.394531 L 254.664062 292.105469 L 255.5625 291.964844 L 256.457031 291.824219 L 257.355469 291.6875 L 258.25 291.550781 L 259.148438 291.417969 L 260.042969 291.285156 L 260.941406 291.15625 L 261.835938 291.027344 L 262.734375 290.902344 L 263.628906 290.777344 L 264.527344 290.65625 L 265.421875 290.535156 L 266.316406 290.417969 L 267.214844 290.300781 L 268.109375 290.1875 L 269.007812 290.074219 L 269.902344 289.964844 L 270.800781 289.859375 L 271.695312 289.753906 L 272.59375 289.648438 L 273.488281 289.546875 L 274.386719 289.449219 L 275.28125 289.351562 L 276.179688 289.253906 L 277.074219 289.160156 L 277.972656 289.070312 L 278.867188 288.980469 L 279.761719 288.894531 L 280.660156 288.8125 L 281.554688 288.726562 L 282.453125 288.648438 L 283.347656 288.570312 L 284.246094 288.496094 L 285.140625 288.421875 L 286.039062 288.351562 L 286.933594 288.28125 L 287.832031 288.214844 L 288.726562 288.148438 L 289.625 288.085938 L 291.414062 287.96875 L 292.3125 287.914062 L 293.207031 287.859375 L 294.105469 287.808594 L 295 287.761719 L 295.898438 287.714844 L 296.792969 287.671875 L 297.691406 287.628906 L 298.585938 287.589844 L 299.484375 287.554688 L 300.378906 287.519531 L 301.277344 287.484375 L 302.171875 287.457031 L 303.070312 287.429688 L 303.964844 287.402344 L 304.859375 287.378906 L 305.757812 287.359375 L 306.652344 287.339844 L 307.550781 287.324219 L 308.445312 287.3125 L 309.34375 287.300781 L 310.238281 287.289062 L 311.136719 287.285156 L 312.03125 287.28125 L 312.929688 287.277344 L 313.824219 287.277344 L 314.722656 287.28125 L 315.617188 287.285156 L 316.511719 287.292969 L 317.410156 287.304688 L 318.304688 287.316406 L 319.203125 287.328125 L 320.097656 287.347656 L 320.996094 287.367188 L 321.890625 287.386719 L 322.789062 287.410156 L 323.683594 287.4375 L 324.582031 287.464844 L 325.476562 287.496094 L 326.375 287.53125 L 328.164062 287.601562 L 329.0625 287.644531 L 329.957031 287.6875 L 330.855469 287.730469 L 331.75 287.777344 L 332.648438 287.828125 L 333.542969 287.878906 L 334.441406 287.933594 L 335.335938 287.988281 L 336.234375 288.046875 L 337.128906 288.109375 L 338.027344 288.171875 L 338.921875 288.234375 L 339.820312 288.304688 L 341.609375 288.445312 L 342.507812 288.519531 L 343.402344 288.597656 L 344.300781 288.675781 L 345.195312 288.753906 L 346.09375 288.839844 L 346.988281 288.921875 L 347.886719 289.011719 L 348.78125 289.101562 L 349.679688 289.191406 L 350.574219 289.285156 L 351.472656 289.382812 L 352.367188 289.480469 L 353.261719 289.582031 L 354.160156 289.683594 L 355.054688 289.789062 L 355.953125 289.894531 L 356.847656 290.003906 L 357.746094 290.113281 L 358.640625 290.226562 L 359.539062 290.339844 L 360.433594 290.457031 L 361.332031 290.574219 L 362.226562 290.695312 L 363.125 290.820312 L 364.019531 290.945312 L 364.917969 291.070312 L 366.707031 291.328125 L 367.605469 291.460938 L 368.5 291.597656 L 369.398438 291.734375 L 370.292969 291.871094 L 371.191406 292.011719 L 372.085938 292.152344 L 372.984375 292.296875 L 373.878906 292.441406 L 374.777344 292.589844 L 375.671875 292.738281 L 376.570312 292.890625 L 378.359375 293.195312 L 379.257812 293.351562 L 380.152344 293.511719 L 381.050781 293.671875 L 381.945312 293.832031 L 382.84375 293.996094 L 383.738281 294.160156 L 384.636719 294.324219 L 385.53125 294.492188 L 386.429688 294.664062 L 387.324219 294.832031 L 388.222656 295.007812 L 389.117188 295.179688 L 390.011719 295.355469 L 390.910156 295.535156 L 391.804688 295.710938 L 392.703125 295.890625 L 393.597656 296.074219 L 394.496094 296.257812 L 395.390625 296.441406 L 396.289062 296.628906 L 397.183594 296.816406 L 398.082031 297.003906 L 398.976562 297.191406 L 399.875 297.382812 L 400.769531 297.578125 L 401.667969 297.769531 L 402.5625 297.964844 L 403.457031 298.164062 L 404.355469 298.359375 L 405.25 298.558594 L 406.148438 298.761719 L 407.042969 298.960938 L 407.941406 299.164062 L 408.835938 299.367188 L 409.734375 299.574219 L 410.628906 299.777344 L 411.527344 299.984375 L 412.421875 300.195312 L 413.320312 300.402344 L 415.109375 300.824219 L 416.007812 301.035156 L 416.902344 301.25 L 417.800781 301.464844 L 418.695312 301.679688 L 419.59375 301.894531 L 420.488281 302.113281 L 421.386719 302.328125 L 422.28125 302.546875 L 423.179688 302.765625 L 424.074219 302.988281 L 424.972656 303.207031 L 425.867188 303.429688 L 426.765625 303.652344 L 427.660156 303.875 L 428.554688 304.101562 L 429.453125 304.324219 L 430.347656 304.550781 L 431.246094 304.777344 L 432.140625 305.003906 L 433.039062 305.230469 L 433.933594 305.460938 L 434.832031 305.6875 L 435.726562 305.917969 L 436.625 306.148438 L 437.519531 306.378906 L 438.417969 306.609375 L 440.207031 307.070312 L 441.105469 307.304688 L 442 307.535156 L 442.898438 307.769531 L 443.792969 308.003906 L 444.691406 308.238281 L 445.585938 308.472656 L 446.484375 308.707031 L 447.378906 308.941406 L 448.277344 309.175781 L 449.171875 309.410156 L 450.070312 309.648438 L 450.964844 309.882812 L 451.863281 310.117188 L 453.652344 310.59375 L 454.550781 310.828125 L 455.445312 311.066406 L 456.34375 311.300781 L 457.238281 311.539062 L 458.136719 311.777344 L 459.03125 312.015625 L 459.929688 312.253906 L 460.824219 312.488281 L 461.722656 312.726562 L 462.617188 312.964844 L 462.617188 352.5625 L 14.445312 352.5625 Z M 14.445312 343.726562 "/>
</g>
<g clip-path="url(#clip-10)">
<path fill="none" stroke-width="1.745965" stroke-linecap="butt" stroke-linejoin="round" stroke="rgb(0%, 0%, 0%)" stroke-opacity="1" stroke-miterlimit="10" d="M 462.617188 352.5625 L 462.617188 215.246094 "/>
</g>
<path fill="none" stroke-width="1.745965" stroke-linecap="square" stroke-linejoin="round" stroke="rgb(0%, 0%, 0%)" stroke-opacity="1" stroke-miterlimit="10" d="M 14.445312 352.5625 L 464.113281 352.5625 "/>
<path fill="none" stroke-width="1.745965" stroke-linecap="butt" stroke-linejoin="round" stroke="rgb(0%, 0%, 0%)" stroke-opacity="1" stroke-miterlimit="10" d="M 89.140625 357.042969 L 89.140625 352.5625 "/>
<path fill="none" stroke-width="1.745965" stroke-linecap="butt" stroke-linejoin="round" stroke="rgb(0%, 0%, 0%)" stroke-opacity="1" stroke-miterlimit="10" d="M 387.921875 357.042969 L 387.921875 352.5625 "/>
<g fill="rgb(0%, 0%, 0%)" fill-opacity="1">
<use xlink:href="#glyph-0-0" x="82.640625" y="371.129883"/>
<use xlink:href="#glyph-0-1" x="87.640625" y="371.129883"/>
</g>
<g fill="rgb(0%, 0%, 0%)" fill-opacity="1">
<use xlink:href="#glyph-0-2" x="383.921875" y="371.129883"/>
</g>
<g fill="rgb(0%, 0%, 0%)" fill-opacity="1">
<use xlink:href="#glyph-1-0" x="173.277344" y="393.235352"/>
<use xlink:href="#glyph-1-1" x="182.277344" y="393.235352"/>
<use xlink:href="#glyph-1-2" x="191.277344" y="393.235352"/>
<use xlink:href="#glyph-1-3" x="201.277344" y="393.235352"/>
<use xlink:href="#glyph-1-4" x="211.277344" y="393.235352"/>
<use xlink:href="#glyph-1-12" x="216.277344" y="393.235352"/>
<use xlink:href="#glyph-1-4" x="226.277344" y="393.235352"/>
<use xlink:href="#glyph-1-6" x="231.277344" y="393.235352"/>
<use xlink:href="#glyph-1-7" x="243.277344" y="393.235352"/>
<use xlink:href="#glyph-1-8" x="252.277344" y="393.235352"/>
<use xlink:href="#glyph-1-9" x="256.277344" y="393.235352"/>
<use xlink:href="#glyph-1-3" x="266.277344" y="393.235352"/>
<use xlink:href="#glyph-1-10" x="276.277344" y="393.235352"/>
<use xlink:href="#glyph-1-11" x="286.277344" y="393.235352"/>
<use xlink:href="#glyph-1-3" x="295.277344" y="393.235352"/>
</g>
<g fill="rgb(0%, 0%, 0%)" fill-opacity="1">
<use xlink:href="#glyph-1-13" x="179.277344" y="412.676758"/>
<use xlink:href="#glyph-1-14" x="185.277344" y="412.676758"/>
<use xlink:href="#glyph-1-15" x="191.277344" y="412.676758"/>
<use xlink:href="#glyph-1-14" x="201.277344" y="412.676758"/>
<use xlink:href="#glyph-1-4" x="207.277344" y="412.676758"/>
<use xlink:href="#glyph-1-16" x="212.277344" y="412.676758"/>
<use xlink:href="#glyph-1-3" x="225.277344" y="412.676758"/>
<use xlink:href="#glyph-1-17" x="235.277344" y="412.676758"/>
<use xlink:href="#glyph-1-2" x="244.277344" y="412.676758"/>
<use xlink:href="#glyph-1-18" x="254.277344" y="412.676758"/>
<use xlink:href="#glyph-1-10" x="264.277344" y="412.676758"/>
<use xlink:href="#glyph-1-17" x="274.277344" y="412.676758"/>
<use xlink:href="#glyph-1-3" x="283.277344" y="412.676758"/>
<use xlink:href="#glyph-1-19" x="293.277344" y="412.676758"/>
</g>
<g clip-path="url(#clip-11)">
<path fill-rule="nonzero" fill="rgb(100%, 100%, 100%)" fill-opacity="1" d="M 482.042969 352.5625 L 781.820312 352.5625 L 781.820312 215.246094 L 482.042969 215.246094 Z M 482.042969 352.5625 "/>
</g>
<g clip-path="url(#clip-12)">
<path fill-rule="nonzero" fill="rgb(90.980392%, 70.196078%, 19.607843%)" fill-opacity="0.329412" d="M 483.535156 295.089844 L 484.132812 295.09375 L 485.324219 295.09375 L 486.519531 295.101562 L 487.113281 295.109375 L 487.710938 295.113281 L 488.90625 295.128906 L 489.5 295.136719 L 490.097656 295.148438 L 490.695312 295.15625 L 491.289062 295.167969 L 491.886719 295.179688 L 493.082031 295.210938 L 493.675781 295.222656 L 494.273438 295.242188 L 495.46875 295.273438 L 496.0625 295.292969 L 496.660156 295.3125 L 497.257812 295.335938 L 497.851562 295.355469 L 499.644531 295.425781 L 500.238281 295.449219 L 501.433594 295.503906 L 502.027344 295.53125 L 502.625 295.558594 L 503.820312 295.621094 L 504.414062 295.652344 L 505.011719 295.683594 L 505.609375 295.71875 L 506.207031 295.75 L 506.800781 295.785156 L 507.398438 295.824219 L 507.996094 295.859375 L 508.589844 295.898438 L 509.1875 295.933594 L 509.785156 295.976562 L 510.382812 296.015625 L 510.976562 296.054688 L 512.171875 296.140625 L 512.765625 296.183594 L 513.363281 296.230469 L 513.960938 296.273438 L 514.558594 296.320312 L 515.152344 296.367188 L 515.75 296.417969 L 516.347656 296.464844 L 516.945312 296.515625 L 517.539062 296.566406 L 518.734375 296.667969 L 519.328125 296.722656 L 521.121094 296.886719 L 521.714844 296.945312 L 522.3125 297 L 522.910156 297.058594 L 523.503906 297.117188 L 524.101562 297.179688 L 524.699219 297.238281 L 525.296875 297.300781 L 525.890625 297.363281 L 527.085938 297.488281 L 527.683594 297.554688 L 528.277344 297.621094 L 529.472656 297.753906 L 530.066406 297.820312 L 531.859375 298.03125 L 532.453125 298.101562 L 533.050781 298.171875 L 533.648438 298.246094 L 534.242188 298.320312 L 536.035156 298.542969 L 536.628906 298.621094 L 537.226562 298.699219 L 537.824219 298.773438 L 538.421875 298.855469 L 539.015625 298.933594 L 539.613281 299.011719 L 540.210938 299.09375 L 540.804688 299.175781 L 542 299.339844 L 542.597656 299.425781 L 543.191406 299.511719 L 543.789062 299.59375 L 544.386719 299.679688 L 544.980469 299.769531 L 546.175781 299.941406 L 546.773438 300.03125 L 547.367188 300.121094 L 548.5625 300.300781 L 549.160156 300.394531 L 549.753906 300.484375 L 550.949219 300.671875 L 551.542969 300.765625 L 552.140625 300.859375 L 553.335938 301.054688 L 553.929688 301.148438 L 555.125 301.34375 L 555.71875 301.445312 L 556.316406 301.542969 L 556.914062 301.644531 L 557.511719 301.742188 L 558.105469 301.84375 L 559.300781 302.046875 L 559.898438 302.152344 L 560.492188 302.253906 L 561.6875 302.464844 L 562.28125 302.570312 L 564.074219 302.886719 L 564.667969 302.996094 L 565.265625 303.105469 L 565.863281 303.210938 L 566.457031 303.320312 L 567.054688 303.433594 L 568.25 303.652344 L 568.84375 303.765625 L 569.441406 303.875 L 570.636719 304.101562 L 571.230469 304.214844 L 571.828125 304.328125 L 572.425781 304.445312 L 573.019531 304.558594 L 573.617188 304.675781 L 574.214844 304.789062 L 574.8125 304.90625 L 575.40625 305.023438 L 576.601562 305.257812 L 577.195312 305.375 L 577.792969 305.496094 L 578.390625 305.613281 L 578.988281 305.734375 L 579.582031 305.855469 L 581.375 306.21875 L 581.96875 306.339844 L 582.566406 306.460938 L 583.164062 306.585938 L 583.757812 306.707031 L 584.355469 306.832031 L 584.953125 306.953125 L 585.550781 307.078125 L 586.144531 307.203125 L 587.339844 307.453125 L 587.933594 307.578125 L 588.53125 307.707031 L 589.726562 307.957031 L 590.320312 308.085938 L 590.917969 308.214844 L 591.515625 308.339844 L 592.113281 308.46875 L 592.707031 308.597656 L 593.902344 308.855469 L 594.496094 308.984375 L 595.09375 309.117188 L 596.289062 309.375 L 596.882812 309.507812 L 597.480469 309.636719 L 598.078125 309.769531 L 598.671875 309.902344 L 599.269531 310.03125 L 600.464844 310.296875 L 601.058594 310.429688 L 602.851562 310.828125 L 603.445312 310.964844 L 604.640625 311.230469 L 605.234375 311.367188 L 605.832031 311.5 L 606.429688 311.636719 L 607.027344 311.769531 L 607.621094 311.90625 L 608.21875 312.039062 L 608.816406 312.175781 L 609.410156 312.3125 L 610.605469 312.585938 L 611.203125 312.71875 L 611.796875 312.855469 L 613.589844 313.265625 L 614.183594 313.40625 L 615.378906 313.679688 L 615.972656 313.816406 L 616.570312 313.953125 L 617.167969 314.09375 L 617.765625 314.230469 L 618.359375 314.367188 L 618.957031 314.507812 L 619.554688 314.644531 L 620.148438 314.78125 L 620.746094 314.921875 L 621.34375 315.058594 L 621.941406 315.199219 L 622.535156 315.335938 L 623.132812 315.476562 L 623.730469 315.613281 L 624.328125 315.753906 L 624.921875 315.894531 L 625.519531 316.03125 L 626.117188 316.171875 L 626.710938 316.3125 L 627.308594 316.449219 L 627.90625 316.589844 L 628.503906 316.726562 L 629.097656 316.867188 L 629.695312 317.007812 L 630.292969 317.144531 L 630.886719 317.285156 L 632.082031 317.566406 L 632.679688 317.703125 L 633.273438 317.84375 L 633.871094 317.984375 L 634.46875 318.121094 L 635.066406 318.261719 L 635.660156 318.402344 L 636.257812 318.539062 L 636.855469 318.679688 L 637.449219 318.820312 L 638.046875 318.957031 L 639.242188 319.238281 L 639.835938 319.375 L 640.433594 319.515625 L 641.03125 319.652344 L 641.625 319.792969 L 642.222656 319.933594 L 642.820312 320.070312 L 643.417969 320.210938 L 644.011719 320.347656 L 644.609375 320.488281 L 645.207031 320.625 L 645.804688 320.765625 L 646.398438 320.902344 L 646.996094 321.039062 L 647.59375 321.179688 L 648.1875 321.316406 L 648.785156 321.453125 L 649.382812 321.59375 L 649.980469 321.730469 L 650.574219 321.867188 L 651.769531 322.140625 L 652.363281 322.28125 L 654.15625 322.691406 L 654.75 322.828125 L 655.347656 322.964844 L 655.945312 323.097656 L 656.542969 323.234375 L 657.136719 323.371094 L 658.332031 323.644531 L 658.925781 323.777344 L 660.121094 324.050781 L 660.71875 324.183594 L 661.3125 324.320312 L 662.507812 324.585938 L 663.101562 324.722656 L 664.296875 324.988281 L 664.894531 325.125 L 665.488281 325.257812 L 667.28125 325.65625 L 667.875 325.789062 L 668.472656 325.921875 L 669.070312 326.050781 L 669.664062 326.183594 L 670.261719 326.316406 L 670.859375 326.445312 L 671.457031 326.578125 L 672.050781 326.707031 L 672.648438 326.839844 L 673.246094 326.96875 L 673.839844 327.101562 L 675.632812 327.488281 L 676.226562 327.617188 L 678.019531 328.003906 L 678.613281 328.132812 L 679.210938 328.257812 L 679.808594 328.386719 L 680.402344 328.511719 L 681 328.640625 L 681.597656 328.765625 L 682.195312 328.894531 L 682.789062 329.019531 L 683.984375 329.269531 L 684.578125 329.394531 L 686.371094 329.769531 L 686.964844 329.890625 L 688.160156 330.140625 L 688.757812 330.261719 L 689.351562 330.382812 L 689.949219 330.507812 L 690.546875 330.628906 L 691.140625 330.75 L 692.933594 331.113281 L 693.527344 331.234375 L 694.125 331.351562 L 694.722656 331.472656 L 695.316406 331.59375 L 696.511719 331.828125 L 697.109375 331.949219 L 697.703125 332.066406 L 699.496094 332.417969 L 700.089844 332.535156 L 700.6875 332.648438 L 701.285156 332.765625 L 701.878906 332.882812 L 703.074219 333.109375 L 703.671875 333.226562 L 704.265625 333.339844 L 705.460938 333.566406 L 706.054688 333.679688 L 706.652344 333.792969 L 707.25 333.902344 L 707.847656 334.015625 L 708.441406 334.125 L 709.039062 334.238281 L 710.234375 334.457031 L 710.828125 334.570312 L 711.425781 334.679688 L 712.023438 334.785156 L 712.617188 334.894531 L 713.8125 335.113281 L 714.410156 335.21875 L 715.003906 335.328125 L 716.199219 335.539062 L 716.792969 335.644531 L 718.585938 335.960938 L 719.179688 336.066406 L 719.777344 336.171875 L 720.375 336.273438 L 720.972656 336.378906 L 721.566406 336.480469 L 722.761719 336.683594 L 723.355469 336.785156 L 725.148438 337.089844 L 725.742188 337.1875 L 726.339844 337.289062 L 726.9375 337.386719 L 727.53125 337.488281 L 729.324219 337.78125 L 729.917969 337.878906 L 730.515625 337.976562 L 731.113281 338.070312 L 731.710938 338.167969 L 732.304688 338.261719 L 732.902344 338.359375 L 733.5 338.453125 L 734.09375 338.546875 L 735.886719 338.828125 L 736.480469 338.921875 L 737.078125 339.011719 L 737.675781 339.105469 L 738.269531 339.195312 L 738.867188 339.289062 L 740.0625 339.46875 L 740.65625 339.558594 L 741.851562 339.738281 L 742.449219 339.824219 L 743.042969 339.914062 L 743.640625 340 L 744.238281 340.089844 L 744.832031 340.175781 L 746.625 340.433594 L 747.21875 340.519531 L 747.816406 340.605469 L 748.414062 340.6875 L 749.007812 340.773438 L 749.605469 340.855469 L 750.203125 340.941406 L 750.800781 341.023438 L 751.394531 341.105469 L 753.1875 341.351562 L 753.78125 341.433594 L 754.378906 341.511719 L 754.976562 341.59375 L 755.570312 341.671875 L 756.167969 341.75 L 756.765625 341.832031 L 757.363281 341.910156 L 757.957031 341.988281 L 758.554688 342.0625 L 759.152344 342.140625 L 759.746094 342.21875 L 760.34375 342.292969 L 760.941406 342.371094 L 761.539062 342.445312 L 762.132812 342.523438 L 763.925781 342.746094 L 764.519531 342.820312 L 765.117188 342.890625 L 765.714844 342.964844 L 766.308594 343.035156 L 766.90625 343.109375 L 768.101562 343.25 L 768.695312 343.324219 L 769.890625 343.464844 L 770.484375 343.53125 L 771.679688 343.671875 L 772.277344 343.738281 L 772.871094 343.808594 L 774.664062 344.007812 L 775.257812 344.078125 L 775.855469 344.140625 L 776.453125 344.207031 L 777.046875 344.273438 L 777.644531 344.339844 L 778.242188 344.402344 L 778.839844 344.46875 L 779.433594 344.53125 L 780.03125 344.59375 L 780.628906 344.660156 L 781.222656 344.722656 L 781.820312 344.785156 L 781.820312 352.5625 L 483.535156 352.5625 Z M 483.535156 295.089844 "/>
</g>
<g clip-path="url(#clip-13)">
<path fill-rule="nonzero" fill="rgb(75.686275%, 9.411765%, 0%)" fill-opacity="0.329412" d="M 483.535156 242.710938 L 484.132812 243.148438 L 484.730469 243.589844 L 485.324219 244.027344 L 485.921875 244.46875 L 486.519531 244.90625 L 487.113281 245.34375 L 487.710938 245.785156 L 488.308594 246.222656 L 488.90625 246.664062 L 489.5 247.101562 L 490.695312 247.976562 L 491.289062 248.417969 L 493.082031 249.730469 L 493.675781 250.167969 L 495.46875 251.480469 L 496.0625 251.914062 L 497.257812 252.789062 L 497.851562 253.222656 L 498.449219 253.660156 L 499.644531 254.527344 L 500.238281 254.960938 L 500.835938 255.398438 L 501.433594 255.832031 L 502.027344 256.261719 L 503.222656 257.128906 L 503.820312 257.558594 L 504.414062 257.992188 L 505.609375 258.851562 L 506.207031 259.285156 L 506.800781 259.714844 L 507.398438 260.140625 L 507.996094 260.570312 L 508.589844 261 L 509.785156 261.851562 L 510.382812 262.28125 L 510.976562 262.707031 L 511.574219 263.128906 L 512.171875 263.554688 L 512.765625 263.980469 L 513.960938 264.824219 L 514.558594 265.25 L 515.152344 265.667969 L 516.347656 266.511719 L 516.945312 266.929688 L 517.539062 267.347656 L 518.734375 268.183594 L 519.328125 268.601562 L 519.925781 269.019531 L 521.121094 269.847656 L 521.714844 270.261719 L 522.3125 270.675781 L 522.910156 271.085938 L 523.503906 271.5 L 525.296875 272.730469 L 525.890625 273.136719 L 527.683594 274.355469 L 528.277344 274.761719 L 528.875 275.167969 L 529.472656 275.570312 L 530.066406 275.972656 L 530.664062 276.375 L 531.859375 277.171875 L 532.453125 277.574219 L 533.050781 277.96875 L 533.648438 278.367188 L 534.242188 278.761719 L 534.839844 279.160156 L 535.4375 279.550781 L 536.035156 279.945312 L 536.628906 280.335938 L 537.226562 280.730469 L 537.824219 281.121094 L 538.421875 281.507812 L 539.015625 281.898438 L 540.210938 282.671875 L 540.804688 283.054688 L 541.402344 283.441406 L 542.597656 284.207031 L 543.191406 284.585938 L 543.789062 284.96875 L 544.386719 285.347656 L 544.980469 285.722656 L 545.578125 286.101562 L 546.773438 286.851562 L 547.367188 287.226562 L 549.160156 288.339844 L 549.753906 288.710938 L 550.949219 289.445312 L 551.542969 289.8125 L 553.335938 290.902344 L 553.929688 291.261719 L 554.527344 291.625 L 555.125 291.984375 L 555.71875 292.339844 L 556.316406 292.699219 L 557.511719 293.410156 L 558.105469 293.761719 L 559.898438 294.816406 L 560.492188 295.164062 L 561.089844 295.511719 L 561.6875 295.855469 L 562.28125 296.203125 L 563.476562 296.890625 L 564.074219 297.230469 L 564.667969 297.570312 L 565.265625 297.910156 L 565.863281 298.246094 L 566.457031 298.582031 L 567.652344 299.253906 L 568.25 299.585938 L 568.84375 299.917969 L 569.441406 300.25 L 570.636719 300.90625 L 571.230469 301.230469 L 571.828125 301.558594 L 572.425781 301.882812 L 573.019531 302.203125 L 573.617188 302.527344 L 574.214844 302.847656 L 574.8125 303.164062 L 575.40625 303.484375 L 576.601562 304.117188 L 577.195312 304.429688 L 578.390625 305.054688 L 578.988281 305.363281 L 579.582031 305.671875 L 580.777344 306.289062 L 581.375 306.59375 L 581.96875 306.894531 L 582.566406 307.199219 L 583.164062 307.5 L 583.757812 307.800781 L 585.550781 308.691406 L 586.144531 308.988281 L 587.339844 309.574219 L 587.933594 309.863281 L 589.726562 310.730469 L 590.320312 311.015625 L 590.917969 311.300781 L 592.113281 311.863281 L 592.707031 312.144531 L 593.304688 312.425781 L 593.902344 312.703125 L 594.496094 312.980469 L 596.289062 313.800781 L 596.882812 314.074219 L 598.078125 314.613281 L 598.671875 314.878906 L 599.269531 315.148438 L 599.867188 315.414062 L 600.464844 315.675781 L 601.058594 315.9375 L 602.253906 316.460938 L 602.851562 316.71875 L 603.445312 316.976562 L 604.042969 317.230469 L 604.640625 317.488281 L 605.234375 317.742188 L 607.027344 318.492188 L 607.621094 318.742188 L 608.816406 319.234375 L 609.410156 319.480469 L 611.203125 320.207031 L 611.796875 320.445312 L 612.992188 320.921875 L 613.589844 321.15625 L 614.183594 321.390625 L 614.78125 321.625 L 615.378906 321.855469 L 615.972656 322.085938 L 617.167969 322.546875 L 617.765625 322.773438 L 618.359375 323 L 619.554688 323.445312 L 620.148438 323.667969 L 620.746094 323.890625 L 621.941406 324.328125 L 622.535156 324.542969 L 623.132812 324.761719 L 623.730469 324.972656 L 624.328125 325.1875 L 624.921875 325.398438 L 626.117188 325.820312 L 626.710938 326.03125 L 627.308594 326.238281 L 627.90625 326.441406 L 628.503906 326.648438 L 629.097656 326.851562 L 630.292969 327.257812 L 630.886719 327.457031 L 631.484375 327.65625 L 632.082031 327.851562 L 632.679688 328.050781 L 633.273438 328.246094 L 633.871094 328.441406 L 635.066406 328.824219 L 635.660156 329.015625 L 636.257812 329.207031 L 636.855469 329.394531 L 637.449219 329.582031 L 638.046875 329.765625 L 638.644531 329.953125 L 639.242188 330.136719 L 639.835938 330.320312 L 641.03125 330.679688 L 641.625 330.859375 L 642.222656 331.039062 L 643.417969 331.390625 L 644.011719 331.566406 L 644.609375 331.742188 L 645.804688 332.085938 L 646.398438 332.253906 L 646.996094 332.425781 L 647.59375 332.59375 L 648.1875 332.761719 L 649.980469 333.253906 L 650.574219 333.417969 L 651.171875 333.582031 L 651.769531 333.742188 L 652.363281 333.902344 L 653.558594 334.214844 L 654.15625 334.375 L 654.75 334.527344 L 655.347656 334.683594 L 656.542969 334.988281 L 657.136719 335.140625 L 657.734375 335.289062 L 658.332031 335.441406 L 658.925781 335.585938 L 660.121094 335.882812 L 660.71875 336.027344 L 661.3125 336.171875 L 661.910156 336.3125 L 662.507812 336.457031 L 663.101562 336.597656 L 663.699219 336.738281 L 664.296875 336.875 L 664.894531 337.015625 L 665.488281 337.152344 L 666.683594 337.425781 L 667.28125 337.558594 L 667.875 337.691406 L 669.070312 337.957031 L 669.664062 338.085938 L 671.457031 338.472656 L 672.050781 338.601562 L 673.246094 338.851562 L 673.839844 338.976562 L 674.4375 339.097656 L 675.035156 339.222656 L 675.632812 339.34375 L 676.226562 339.460938 L 676.824219 339.582031 L 677.421875 339.699219 L 678.019531 339.820312 L 678.613281 339.9375 L 679.210938 340.050781 L 679.808594 340.167969 L 680.402344 340.28125 L 682.195312 340.621094 L 682.789062 340.730469 L 683.984375 340.949219 L 684.578125 341.058594 L 685.175781 341.167969 L 686.371094 341.378906 L 686.964844 341.484375 L 687.5625 341.589844 L 688.757812 341.792969 L 689.351562 341.898438 L 689.949219 341.996094 L 690.546875 342.097656 L 691.140625 342.199219 L 692.933594 342.492188 L 693.527344 342.589844 L 694.722656 342.777344 L 695.316406 342.871094 L 697.109375 343.152344 L 697.703125 343.242188 L 699.496094 343.511719 L 700.089844 343.597656 L 700.6875 343.6875 L 701.285156 343.773438 L 701.878906 343.859375 L 703.074219 344.03125 L 703.671875 344.113281 L 704.265625 344.199219 L 705.460938 344.363281 L 706.054688 344.441406 L 707.25 344.605469 L 707.847656 344.683594 L 708.441406 344.761719 L 709.636719 344.917969 L 710.234375 344.992188 L 710.828125 345.070312 L 712.023438 345.21875 L 712.617188 345.292969 L 713.214844 345.367188 L 713.8125 345.4375 L 714.410156 345.511719 L 715.003906 345.582031 L 716.199219 345.722656 L 716.792969 345.792969 L 717.988281 345.933594 L 718.585938 346 L 719.179688 346.066406 L 720.972656 346.265625 L 721.566406 346.332031 L 722.761719 346.457031 L 723.355469 346.523438 L 724.550781 346.648438 L 725.148438 346.707031 L 725.742188 346.769531 L 726.339844 346.828125 L 726.9375 346.890625 L 727.53125 346.949219 L 729.324219 347.125 L 729.917969 347.183594 L 731.113281 347.292969 L 731.710938 347.351562 L 732.304688 347.40625 L 733.5 347.515625 L 734.09375 347.570312 L 734.691406 347.621094 L 735.289062 347.675781 L 735.886719 347.726562 L 736.480469 347.777344 L 737.078125 347.832031 L 737.675781 347.882812 L 738.269531 347.929688 L 739.464844 348.03125 L 740.0625 348.078125 L 740.65625 348.128906 L 742.449219 348.269531 L 743.042969 348.316406 L 744.238281 348.410156 L 744.832031 348.457031 L 745.429688 348.5 L 746.027344 348.546875 L 746.625 348.589844 L 747.21875 348.632812 L 748.414062 348.71875 L 749.007812 348.761719 L 749.605469 348.804688 L 750.203125 348.84375 L 750.800781 348.886719 L 751.394531 348.925781 L 751.992188 348.96875 L 753.1875 349.046875 L 753.78125 349.085938 L 754.976562 349.164062 L 755.570312 349.203125 L 756.167969 349.238281 L 756.765625 349.277344 L 757.363281 349.3125 L 757.957031 349.351562 L 759.152344 349.421875 L 759.746094 349.457031 L 761.539062 349.5625 L 762.132812 349.597656 L 762.730469 349.632812 L 763.328125 349.664062 L 763.925781 349.699219 L 764.519531 349.730469 L 765.117188 349.761719 L 765.714844 349.796875 L 766.308594 349.828125 L 768.101562 349.921875 L 768.695312 349.953125 L 769.292969 349.980469 L 769.890625 350.011719 L 770.484375 350.042969 L 771.082031 350.070312 L 771.679688 350.101562 L 772.277344 350.128906 L 772.871094 350.15625 L 774.066406 350.210938 L 774.664062 350.242188 L 775.257812 350.265625 L 776.453125 350.320312 L 777.046875 350.347656 L 777.644531 350.375 L 778.242188 350.398438 L 778.839844 350.425781 L 779.433594 350.449219 L 780.03125 350.476562 L 780.628906 350.5 L 781.222656 350.523438 L 781.820312 350.550781 L 781.820312 352.5625 L 483.535156 352.5625 Z M 483.535156 242.710938 "/>
</g>
<g clip-path="url(#clip-14)">
<path fill="none" stroke-width="1.745965" stroke-linecap="butt" stroke-linejoin="round" stroke="rgb(0%, 0%, 0%)" stroke-opacity="1" stroke-miterlimit="10" d="M 483.535156 352.5625 L 483.535156 215.246094 "/>
</g>
<path fill="none" stroke-width="1.745965" stroke-linecap="square" stroke-linejoin="round" stroke="rgb(0%, 0%, 0%)" stroke-opacity="1" stroke-miterlimit="10" d="M 482.042969 352.5625 L 781.820312 352.5625 "/>
<path fill="none" stroke-width="1.745965" stroke-linecap="butt" stroke-linejoin="round" stroke="rgb(0%, 0%, 0%)" stroke-opacity="1" stroke-miterlimit="10" d="M 707.25 357.042969 L 707.25 352.5625 "/>
<g fill="rgb(0%, 0%, 0%)" fill-opacity="1">
<use xlink:href="#glyph-0-1" x="703.25" y="371.129883"/>
</g>
<g fill="rgb(0%, 0%, 0%)" fill-opacity="1">
<use xlink:href="#glyph-1-0" x="565.933594" y="393.235352"/>
<use xlink:href="#glyph-1-1" x="574.933594" y="393.235352"/>
<use xlink:href="#glyph-1-2" x="583.933594" y="393.235352"/>
<use xlink:href="#glyph-1-3" x="593.933594" y="393.235352"/>
<use xlink:href="#glyph-1-4" x="603.933594" y="393.235352"/>
<use xlink:href="#glyph-1-12" x="608.933594" y="393.235352"/>
<use xlink:href="#glyph-1-4" x="618.933594" y="393.235352"/>
<use xlink:href="#glyph-1-6" x="623.933594" y="393.235352"/>
<use xlink:href="#glyph-1-7" x="635.933594" y="393.235352"/>
<use xlink:href="#glyph-1-8" x="644.933594" y="393.235352"/>
<use xlink:href="#glyph-1-9" x="648.933594" y="393.235352"/>
<use xlink:href="#glyph-1-3" x="658.933594" y="393.235352"/>
<use xlink:href="#glyph-1-10" x="668.933594" y="393.235352"/>
<use xlink:href="#glyph-1-11" x="678.933594" y="393.235352"/>
<use xlink:href="#glyph-1-3" x="687.933594" y="393.235352"/>
</g>
<g fill="rgb(0%, 0%, 0%)" fill-opacity="1">
<use xlink:href="#glyph-1-13" x="571.933594" y="412.676758"/>
<use xlink:href="#glyph-1-14" x="577.933594" y="412.676758"/>
<use xlink:href="#glyph-1-5" x="583.933594" y="412.676758"/>
<use xlink:href="#glyph-1-14" x="593.933594" y="412.676758"/>
<use xlink:href="#glyph-1-4" x="599.933594" y="412.676758"/>
<use xlink:href="#glyph-1-16" x="604.933594" y="412.676758"/>
<use xlink:href="#glyph-1-3" x="617.933594" y="412.676758"/>
<use xlink:href="#glyph-1-17" x="627.933594" y="412.676758"/>
<use xlink:href="#glyph-1-2" x="636.933594" y="412.676758"/>
<use xlink:href="#glyph-1-18" x="646.933594" y="412.676758"/>
<use xlink:href="#glyph-1-10" x="656.933594" y="412.676758"/>
<use xlink:href="#glyph-1-17" x="666.933594" y="412.676758"/>
<use xlink:href="#glyph-1-3" x="675.933594" y="412.676758"/>
<use xlink:href="#glyph-1-19" x="685.933594" y="412.676758"/>
</g>
</svg>
