<?xml version="1.0" encoding="UTF-8"?>
<svg xmlns="http://www.w3.org/2000/svg" xmlns:xlink="http://www.w3.org/1999/xlink" width="576pt" height="216pt" viewBox="0 0 576 216">
<defs>
<g>
<g id="glyph-0-0">
<path d="M 2.15625 -4.59375 C 2.15625 -3.582031 2.367188 -2.738281 2.796875 -2.0625 C 3.234375 -1.382812 3.921875 -1.046875 4.859375 -1.046875 C 5.585938 -1.046875 6.1875 -1.359375 6.65625 -1.984375 C 7.132812 -2.617188 7.375 -3.523438 7.375 -4.703125 C 7.375 -5.890625 7.128906 -6.769531 6.640625 -7.34375 C 6.160156 -7.914062 5.5625 -8.203125 4.84375 -8.203125 C 4.039062 -8.203125 3.390625 -7.894531 2.890625 -7.28125 C 2.398438 -6.675781 2.15625 -5.78125 2.15625 -4.59375 Z M 4.546875 -9.578125 C 5.265625 -9.578125 5.867188 -9.425781 6.359375 -9.125 C 6.640625 -8.945312 6.957031 -8.640625 7.3125 -8.203125 L 7.3125 -12.953125 L 8.828125 -12.953125 L 8.828125 0 L 7.40625 0 L 7.40625 -1.3125 C 7.039062 -0.726562 6.601562 -0.304688 6.09375 -0.046875 C 5.59375 0.203125 5.019531 0.328125 4.375 0.328125 C 3.320312 0.328125 2.410156 -0.109375 1.640625 -0.984375 C 0.878906 -1.867188 0.5 -3.046875 0.5 -4.515625 C 0.5 -5.878906 0.847656 -7.0625 1.546875 -8.0625 C 2.242188 -9.070312 3.242188 -9.578125 4.546875 -9.578125 Z M 4.546875 -9.578125 "/>
</g>
<g id="glyph-0-1">
<path d="M 2.96875 -12.90625 L 2.6875 -7.75 L 1.65625 -7.75 L 1.375 -12.90625 Z M 2.96875 -12.90625 "/>
</g>
<g id="glyph-0-2">
<path d="M 4.796875 -9.6875 C 5.847656 -9.6875 6.707031 -9.425781 7.375 -8.90625 C 8.039062 -8.394531 8.441406 -7.507812 8.578125 -6.25 L 7.046875 -6.25 C 6.953125 -6.832031 6.734375 -7.3125 6.390625 -7.6875 C 6.054688 -8.070312 5.523438 -8.265625 4.796875 -8.265625 C 3.785156 -8.265625 3.0625 -7.773438 2.625 -6.796875 C 2.34375 -6.160156 2.203125 -5.375 2.203125 -4.4375 C 2.203125 -3.488281 2.398438 -2.691406 2.796875 -2.046875 C 3.203125 -1.398438 3.832031 -1.078125 4.6875 -1.078125 C 5.34375 -1.078125 5.863281 -1.273438 6.25 -1.671875 C 6.632812 -2.078125 6.898438 -2.628906 7.046875 -3.328125 L 8.578125 -3.328125 C 8.398438 -2.078125 7.957031 -1.164062 7.25 -0.59375 C 6.550781 -0.0195312 5.65625 0.265625 4.5625 0.265625 C 3.332031 0.265625 2.347656 -0.179688 1.609375 -1.078125 C 0.878906 -1.972656 0.515625 -3.097656 0.515625 -4.453125 C 0.515625 -6.097656 0.914062 -7.378906 1.71875 -8.296875 C 2.519531 -9.222656 3.546875 -9.6875 4.796875 -9.6875 Z M 4.546875 -9.640625 Z M 4.546875 -9.640625 "/>
</g>
<g id="glyph-0-3">
<path d="M 7.375 -7 C 8.195312 -7 8.84375 -7.160156 9.3125 -7.484375 C 9.789062 -7.816406 10.03125 -8.410156 10.03125 -9.265625 C 10.03125 -10.179688 9.695312 -10.804688 9.03125 -11.140625 C 8.675781 -11.316406 8.203125 -11.40625 7.609375 -11.40625 L 3.328125 -11.40625 L 3.328125 -7 Z M 1.578125 -12.90625 L 7.5625 -12.90625 C 8.539062 -12.90625 9.351562 -12.765625 10 -12.484375 C 11.207031 -11.929688 11.8125 -10.914062 11.8125 -9.4375 C 11.8125 -8.65625 11.648438 -8.019531 11.328125 -7.53125 C 11.015625 -7.039062 10.570312 -6.644531 10 -6.34375 C 10.5 -6.132812 10.875 -5.863281 11.125 -5.53125 C 11.382812 -5.195312 11.53125 -4.65625 11.5625 -3.90625 L 11.625 -2.1875 C 11.632812 -1.6875 11.675781 -1.316406 11.75 -1.078125 C 11.851562 -0.671875 12.039062 -0.410156 12.3125 -0.296875 L 12.3125 0 L 10.15625 0 C 10.101562 -0.113281 10.054688 -0.253906 10.015625 -0.421875 C 9.984375 -0.597656 9.957031 -0.941406 9.9375 -1.453125 L 9.828125 -3.609375 C 9.785156 -4.453125 9.472656 -5.015625 8.890625 -5.296875 C 8.554688 -5.453125 8.03125 -5.53125 7.3125 -5.53125 L 3.328125 -5.53125 L 3.328125 0 L 1.578125 0 Z M 1.578125 -12.90625 "/>
</g>
<g id="glyph-0-4">
<path d="M 9.96875 -7.21875 L 9.96875 -5.75 L 0.8125 -5.75 L 0.8125 -7.21875 Z M 9.96875 -3.453125 L 9.96875 -1.953125 L 0.8125 -1.953125 L 0.8125 -3.453125 Z M 9.96875 -3.453125 "/>
</g>
<g id="glyph-0-5">
<path d="M 4.875 -12.59375 C 6.5 -12.59375 7.675781 -11.921875 8.40625 -10.578125 C 8.96875 -9.535156 9.25 -8.113281 9.25 -6.3125 C 9.25 -4.601562 8.992188 -3.1875 8.484375 -2.0625 C 7.742188 -0.457031 6.535156 0.34375 4.859375 0.34375 C 3.347656 0.34375 2.222656 -0.3125 1.484375 -1.625 C 0.867188 -2.71875 0.5625 -4.1875 0.5625 -6.03125 C 0.5625 -7.46875 0.742188 -8.695312 1.109375 -9.71875 C 1.804688 -11.632812 3.0625 -12.59375 4.875 -12.59375 Z M 4.859375 -1.09375 C 5.671875 -1.09375 6.320312 -1.457031 6.8125 -2.1875 C 7.300781 -2.914062 7.546875 -4.269531 7.546875 -6.25 C 7.546875 -7.675781 7.367188 -8.847656 7.015625 -9.765625 C 6.660156 -10.691406 5.976562 -11.15625 4.96875 -11.15625 C 4.03125 -11.15625 3.347656 -10.71875 2.921875 -9.84375 C 2.492188 -8.96875 2.28125 -7.679688 2.28125 -5.984375 C 2.28125 -4.691406 2.414062 -3.660156 2.6875 -2.890625 C 3.113281 -1.691406 3.835938 -1.09375 4.859375 -1.09375 Z M 4.859375 -1.09375 "/>
</g>
<g id="glyph-0-6">
<path d="M 1.71875 -8.90625 L 1.71875 -10.125 C 2.863281 -10.238281 3.660156 -10.425781 4.109375 -10.6875 C 4.566406 -10.945312 4.90625 -11.5625 5.125 -12.53125 L 6.375 -12.53125 L 6.375 0 L 4.6875 0 L 4.6875 -8.90625 Z M 1.71875 -8.90625 "/>
</g>
<g id="glyph-0-7">
<path d="M 10.765625 -12.90625 L 10.765625 -11.375 L 6.421875 -11.375 L 6.421875 0 L 4.640625 0 L 4.640625 -11.375 L 0.296875 -11.375 L 0.296875 -12.90625 Z M 10.765625 -12.90625 "/>
</g>
<g id="glyph-0-8">
<path d="M 7.046875 -9.40625 L 8.796875 -9.40625 C 8.566406 -8.8125 8.066406 -7.4375 7.296875 -5.28125 C 6.722656 -3.664062 6.242188 -2.347656 5.859375 -1.328125 C 4.941406 1.074219 4.296875 2.539062 3.921875 3.0625 C 3.546875 3.59375 2.90625 3.859375 2 3.859375 C 1.769531 3.859375 1.59375 3.847656 1.46875 3.828125 C 1.351562 3.816406 1.207031 3.785156 1.03125 3.734375 L 1.03125 2.296875 C 1.3125 2.367188 1.507812 2.414062 1.625 2.4375 C 1.75 2.457031 1.859375 2.46875 1.953125 2.46875 C 2.253906 2.46875 2.472656 2.414062 2.609375 2.3125 C 2.742188 2.21875 2.859375 2.097656 2.953125 1.953125 C 2.984375 1.910156 3.085938 1.671875 3.265625 1.234375 C 3.453125 0.804688 3.585938 0.484375 3.671875 0.265625 L 0.1875 -9.40625 L 1.984375 -9.40625 L 4.5 -1.75 Z M 4.484375 -9.640625 Z M 4.484375 -9.640625 "/>
</g>
<g id="glyph-0-9">
<path d="M 5.140625 -1.0625 C 5.867188 -1.0625 6.476562 -1.367188 6.96875 -1.984375 C 7.457031 -2.609375 7.703125 -3.535156 7.703125 -4.765625 C 7.703125 -5.515625 7.597656 -6.160156 7.390625 -6.703125 C 6.972656 -7.734375 6.222656 -8.25 5.140625 -8.25 C 4.035156 -8.25 3.285156 -7.703125 2.890625 -6.609375 C 2.671875 -6.023438 2.5625 -5.28125 2.5625 -4.375 C 2.5625 -3.644531 2.671875 -3.023438 2.890625 -2.515625 C 3.296875 -1.546875 4.046875 -1.0625 5.140625 -1.0625 Z M 1.03125 -9.375 L 2.578125 -9.375 L 2.578125 -8.125 C 2.890625 -8.550781 3.234375 -8.878906 3.609375 -9.109375 C 4.140625 -9.460938 4.769531 -9.640625 5.5 -9.640625 C 6.5625 -9.640625 7.460938 -9.226562 8.203125 -8.40625 C 8.953125 -7.59375 9.328125 -6.425781 9.328125 -4.90625 C 9.328125 -2.863281 8.789062 -1.398438 7.71875 -0.515625 C 7.039062 0.0351562 6.25 0.3125 5.34375 0.3125 C 4.632812 0.3125 4.039062 0.152344 3.5625 -0.15625 C 3.28125 -0.320312 2.96875 -0.625 2.625 -1.0625 L 2.625 3.75 L 1.03125 3.75 Z M 1.03125 -9.375 "/>
</g>
<g id="glyph-0-10">
<path d="M 5.078125 -9.625 C 5.742188 -9.625 6.390625 -9.46875 7.015625 -9.15625 C 7.648438 -8.84375 8.128906 -8.4375 8.453125 -7.9375 C 8.773438 -7.457031 8.988281 -6.90625 9.09375 -6.28125 C 9.1875 -5.84375 9.234375 -5.148438 9.234375 -4.203125 L 2.328125 -4.203125 C 2.359375 -3.242188 2.582031 -2.472656 3 -1.890625 C 3.425781 -1.316406 4.082031 -1.03125 4.96875 -1.03125 C 5.789062 -1.03125 6.445312 -1.304688 6.9375 -1.859375 C 7.21875 -2.171875 7.421875 -2.535156 7.546875 -2.953125 L 9.09375 -2.953125 C 9.050781 -2.609375 8.914062 -2.222656 8.6875 -1.796875 C 8.457031 -1.367188 8.195312 -1.019531 7.90625 -0.75 C 7.425781 -0.28125 6.832031 0.03125 6.125 0.1875 C 5.75 0.28125 5.316406 0.328125 4.828125 0.328125 C 3.660156 0.328125 2.671875 -0.09375 1.859375 -0.9375 C 1.046875 -1.789062 0.640625 -2.988281 0.640625 -4.53125 C 0.640625 -6.039062 1.046875 -7.265625 1.859375 -8.203125 C 2.679688 -9.148438 3.753906 -9.625 5.078125 -9.625 Z M 7.609375 -5.453125 C 7.535156 -6.140625 7.382812 -6.691406 7.15625 -7.109375 C 6.71875 -7.867188 5.992188 -8.25 4.984375 -8.25 C 4.253906 -8.25 3.644531 -7.984375 3.15625 -7.453125 C 2.664062 -6.929688 2.40625 -6.265625 2.375 -5.453125 Z M 4.9375 -9.640625 Z M 4.9375 -9.640625 "/>
</g>
<g id="glyph-0-11">
</g>
<g id="glyph-0-12">
<path d="M 1.53125 -12.90625 L 10.953125 -12.90625 L 10.953125 -11.328125 L 3.25 -11.328125 L 3.25 -7.40625 L 10.375 -7.40625 L 10.375 -5.921875 L 3.25 -5.921875 L 3.25 -1.53125 L 11.078125 -1.53125 L 11.078125 0 L 1.53125 0 Z M 6.3125 -12.90625 Z M 6.3125 -12.90625 "/>
</g>
<g id="glyph-0-13">
<path d="M 1.9375 -9.40625 L 4.453125 -1.75 L 7.078125 -9.40625 L 8.8125 -9.40625 L 5.25 0 L 3.5625 0 L 0.09375 -9.40625 Z M 1.9375 -9.40625 "/>
</g>
<g id="glyph-0-14">
<path d="M 1.15625 -9.375 L 2.765625 -9.375 L 2.765625 0 L 1.15625 0 Z M 1.15625 -12.90625 L 2.765625 -12.90625 L 2.765625 -11.125 L 1.15625 -11.125 Z M 1.15625 -12.90625 "/>
</g>
<g id="glyph-0-15">
<path d="M 1.15625 -9.40625 L 2.65625 -9.40625 L 2.65625 -8.078125 C 3.101562 -8.628906 3.578125 -9.023438 4.078125 -9.265625 C 4.578125 -9.503906 5.128906 -9.625 5.734375 -9.625 C 7.078125 -9.625 7.984375 -9.160156 8.453125 -8.234375 C 8.703125 -7.722656 8.828125 -6.988281 8.828125 -6.03125 L 8.828125 0 L 7.21875 0 L 7.21875 -5.9375 C 7.21875 -6.507812 7.132812 -6.972656 6.96875 -7.328125 C 6.6875 -7.910156 6.175781 -8.203125 5.4375 -8.203125 C 5.0625 -8.203125 4.753906 -8.164062 4.515625 -8.09375 C 4.085938 -7.957031 3.707031 -7.695312 3.375 -7.3125 C 3.113281 -7 2.941406 -6.675781 2.859375 -6.34375 C 2.785156 -6.019531 2.75 -5.550781 2.75 -4.9375 L 2.75 0 L 1.15625 0 Z M 4.875 -9.640625 Z M 4.875 -9.640625 "/>
</g>
<g id="glyph-1-0">
<path d="M 0.59375 -4.65625 L 4.125 -4.65625 L 4.125 -3.359375 L 0.59375 -3.359375 Z M 0.59375 -4.65625 "/>
</g>
<g id="glyph-1-1">
<path d="M 0.453125 0 C 0.492188 -0.863281 0.671875 -1.617188 0.984375 -2.265625 C 1.296875 -2.910156 1.90625 -3.492188 2.8125 -4.015625 L 4.171875 -4.796875 C 4.773438 -5.148438 5.195312 -5.453125 5.4375 -5.703125 C 5.820312 -6.085938 6.015625 -6.53125 6.015625 -7.03125 C 6.015625 -7.613281 5.835938 -8.078125 5.484375 -8.421875 C 5.128906 -8.773438 4.660156 -8.953125 4.078125 -8.953125 C 3.210938 -8.953125 2.613281 -8.625 2.28125 -7.96875 C 2.101562 -7.613281 2.003906 -7.125 1.984375 -6.5 L 0.703125 -6.5 C 0.710938 -7.375 0.875 -8.085938 1.1875 -8.640625 C 1.726562 -9.617188 2.695312 -10.109375 4.09375 -10.109375 C 5.238281 -10.109375 6.078125 -9.796875 6.609375 -9.171875 C 7.148438 -8.546875 7.421875 -7.851562 7.421875 -7.09375 C 7.421875 -6.28125 7.132812 -5.585938 6.5625 -5.015625 C 6.238281 -4.679688 5.648438 -4.28125 4.796875 -3.8125 L 3.828125 -3.28125 C 3.367188 -3.019531 3.007812 -2.773438 2.75 -2.546875 C 2.28125 -2.140625 1.984375 -1.691406 1.859375 -1.203125 L 7.359375 -1.203125 L 7.359375 0 Z M 0.453125 0 "/>
</g>
<g id="glyph-1-2">
<path d="M 3.890625 -10.078125 C 5.203125 -10.078125 6.144531 -9.539062 6.71875 -8.46875 C 7.175781 -7.632812 7.40625 -6.492188 7.40625 -5.046875 C 7.40625 -3.679688 7.195312 -2.550781 6.78125 -1.65625 C 6.195312 -0.363281 5.234375 0.28125 3.890625 0.28125 C 2.679688 0.28125 1.78125 -0.242188 1.1875 -1.296875 C 0.695312 -2.171875 0.453125 -3.347656 0.453125 -4.828125 C 0.453125 -5.972656 0.597656 -6.957031 0.890625 -7.78125 C 1.441406 -9.3125 2.441406 -10.078125 3.890625 -10.078125 Z M 3.890625 -0.875 C 4.546875 -0.875 5.066406 -1.164062 5.453125 -1.75 C 5.835938 -2.332031 6.03125 -3.414062 6.03125 -5 C 6.03125 -6.144531 5.890625 -7.085938 5.609375 -7.828125 C 5.328125 -8.566406 4.78125 -8.9375 3.96875 -8.9375 C 3.226562 -8.9375 2.6875 -8.582031 2.34375 -7.875 C 2 -7.175781 1.828125 -6.144531 1.828125 -4.78125 C 1.828125 -3.757812 1.9375 -2.9375 2.15625 -2.3125 C 2.488281 -1.351562 3.066406 -0.875 3.890625 -0.875 Z M 3.890625 -0.875 "/>
</g>
</g>
<clipPath id="clip-0">
<path clip-rule="nonzero" d="M 8.964844 8.964844 L 567.03125 8.964844 L 567.03125 164.074219 L 8.964844 164.074219 Z M 8.964844 8.964844 "/>
</clipPath>
<clipPath id="clip-1">
<path clip-rule="nonzero" d="M 8.964844 39 L 567.03125 39 L 567.03125 164.074219 L 8.964844 164.074219 Z M 8.964844 39 "/>
</clipPath>
<clipPath id="clip-2">
<path clip-rule="nonzero" d="M 342 8.964844 L 345 8.964844 L 345 164.074219 L 342 164.074219 Z M 342 8.964844 "/>
</clipPath>
</defs>
<rect x="-57.6" y="-21.6" width="691.2" height="259.2" fill="rgb(100%, 100%, 100%)" fill-opacity="1"/>
<path fill="none" stroke-width="1.745965" stroke-linecap="round" stroke-linejoin="round" stroke="rgb(100%, 100%, 100%)" stroke-opacity="1" stroke-miterlimit="10" d="M 0 216 L 576 216 L 576 0 L 0 0 Z M 0 216 "/>
<g clip-path="url(#clip-0)">
<path fill-rule="nonzero" fill="rgb(100%, 100%, 100%)" fill-opacity="1" d="M 8.964844 164.074219 L 567.03125 164.074219 L 567.03125 8.964844 L 8.964844 8.964844 Z M 8.964844 164.074219 "/>
</g>
<g clip-path="url(#clip-1)">
<path fill-rule="nonzero" fill="rgb(90.980392%, 70.196078%, 19.607843%)" fill-opacity="0.329412" d="M 8.964844 163.441406 L 11.199219 163.402344 L 12.316406 163.378906 L 13.429688 163.355469 L 16.78125 163.285156 L 17.894531 163.257812 L 20.128906 163.203125 L 21.242188 163.175781 L 23.476562 163.121094 L 24.59375 163.089844 L 25.707031 163.058594 L 26.824219 163.027344 L 27.941406 162.992188 L 29.058594 162.960938 L 30.171875 162.925781 L 31.289062 162.890625 L 32.40625 162.851562 L 33.519531 162.816406 L 35.753906 162.738281 L 36.871094 162.695312 L 37.984375 162.652344 L 40.21875 162.566406 L 41.335938 162.519531 L 42.449219 162.472656 L 44.683594 162.378906 L 45.796875 162.328125 L 46.914062 162.277344 L 49.148438 162.167969 L 50.261719 162.113281 L 53.613281 161.9375 L 54.726562 161.875 L 55.84375 161.8125 L 58.078125 161.679688 L 59.191406 161.613281 L 61.425781 161.472656 L 62.539062 161.398438 L 63.65625 161.324219 L 65.890625 161.167969 L 67.003906 161.085938 L 68.121094 161.003906 L 70.355469 160.832031 L 71.46875 160.746094 L 72.585938 160.652344 L 73.703125 160.5625 L 74.816406 160.464844 L 77.050781 160.269531 L 78.167969 160.167969 L 79.28125 160.0625 L 80.398438 159.957031 L 82.632812 159.738281 L 83.746094 159.625 L 85.980469 159.390625 L 87.097656 159.269531 L 88.210938 159.144531 L 89.328125 159.019531 L 90.445312 158.890625 L 91.558594 158.757812 L 93.792969 158.484375 L 94.910156 158.34375 L 96.023438 158.199219 L 97.140625 158.054688 L 99.375 157.75 L 100.488281 157.59375 L 101.605469 157.4375 L 102.722656 157.273438 L 103.835938 157.109375 L 104.953125 156.941406 L 106.070312 156.765625 L 107.1875 156.59375 L 108.300781 156.414062 L 109.417969 156.230469 L 111.652344 155.855469 L 112.765625 155.660156 L 113.882812 155.464844 L 116.117188 155.058594 L 117.230469 154.851562 L 119.464844 154.421875 L 120.578125 154.203125 L 122.8125 153.75 L 123.929688 153.515625 L 125.042969 153.28125 L 127.277344 152.796875 L 128.394531 152.546875 L 129.507812 152.292969 L 130.625 152.035156 L 131.742188 151.773438 L 132.855469 151.503906 L 133.972656 151.234375 L 136.207031 150.679688 L 137.320312 150.394531 L 138.4375 150.105469 L 140.671875 149.511719 L 141.785156 149.207031 L 142.902344 148.898438 L 144.019531 148.585938 L 145.136719 148.265625 L 146.25 147.941406 L 147.367188 147.613281 L 148.484375 147.28125 L 149.597656 146.941406 L 150.714844 146.597656 L 151.832031 146.25 L 152.949219 145.898438 L 154.0625 145.539062 L 156.296875 144.804688 L 157.414062 144.429688 L 158.527344 144.050781 L 159.644531 143.664062 L 160.761719 143.273438 L 161.875 142.878906 L 162.992188 142.476562 L 164.109375 142.070312 L 165.226562 141.660156 L 166.339844 141.242188 L 167.457031 140.820312 L 168.574219 140.390625 L 169.691406 139.957031 L 170.804688 139.515625 L 171.921875 139.074219 L 173.039062 138.621094 L 174.152344 138.167969 L 175.269531 137.707031 L 176.386719 137.238281 L 177.503906 136.765625 L 178.617188 136.289062 L 179.734375 135.804688 L 180.851562 135.316406 L 181.96875 134.820312 L 183.082031 134.320312 L 184.199219 133.816406 L 185.316406 133.304688 L 186.433594 132.789062 L 187.546875 132.265625 L 188.664062 131.738281 L 189.78125 131.207031 L 190.894531 130.667969 L 193.128906 129.574219 L 194.246094 129.019531 L 195.359375 128.457031 L 196.476562 127.894531 L 197.59375 127.324219 L 198.710938 126.746094 L 199.824219 126.164062 L 200.941406 125.578125 L 202.058594 124.988281 L 203.171875 124.390625 L 204.289062 123.789062 L 205.40625 123.183594 L 206.523438 122.570312 L 207.636719 121.953125 L 208.753906 121.332031 L 209.871094 120.707031 L 210.988281 120.074219 L 212.101562 119.4375 L 213.21875 118.796875 L 214.335938 118.152344 L 215.453125 117.503906 L 216.566406 116.847656 L 217.683594 116.191406 L 218.800781 115.527344 L 219.914062 114.859375 L 221.03125 114.1875 L 222.148438 113.511719 L 223.265625 112.832031 L 224.378906 112.148438 L 225.496094 111.464844 L 226.613281 110.773438 L 227.730469 110.078125 L 228.84375 109.378906 L 231.078125 107.972656 L 232.191406 107.261719 L 233.308594 106.550781 L 234.425781 105.835938 L 235.542969 105.117188 L 236.65625 104.398438 L 237.773438 103.675781 L 238.890625 102.949219 L 240.007812 102.21875 L 241.121094 101.488281 L 243.355469 100.019531 L 244.472656 99.28125 L 245.585938 98.542969 L 247.820312 97.058594 L 248.933594 96.3125 L 251.167969 94.820312 L 252.285156 94.070312 L 253.398438 93.324219 L 254.515625 92.570312 L 256.75 91.070312 L 257.863281 90.316406 L 258.980469 89.566406 L 260.097656 88.8125 L 261.210938 88.058594 L 262.328125 87.308594 L 263.445312 86.554688 L 264.5625 85.804688 L 265.675781 85.050781 L 267.910156 83.550781 L 269.027344 82.804688 L 270.140625 82.058594 L 272.375 80.566406 L 273.492188 79.824219 L 274.605469 79.085938 L 276.839844 77.609375 L 277.953125 76.875 L 279.070312 76.144531 L 281.304688 74.691406 L 282.417969 73.96875 L 283.535156 73.25 L 285.769531 71.820312 L 286.882812 71.113281 L 289.117188 69.707031 L 290.230469 69.011719 L 291.347656 68.320312 L 292.464844 67.632812 L 293.582031 66.953125 L 294.695312 66.273438 L 295.8125 65.601562 L 296.929688 64.933594 L 298.046875 64.273438 L 299.160156 63.617188 L 300.277344 62.96875 L 301.394531 62.324219 L 302.507812 61.683594 L 303.625 61.054688 L 304.742188 60.429688 L 305.859375 59.808594 L 306.972656 59.199219 L 308.089844 58.59375 L 309.207031 57.996094 L 310.324219 57.40625 L 311.4375 56.824219 L 312.554688 56.246094 L 313.671875 55.679688 L 314.789062 55.121094 L 315.902344 54.570312 L 317.019531 54.023438 L 318.136719 53.488281 L 319.25 52.964844 L 320.367188 52.445312 L 321.484375 51.9375 L 322.601562 51.4375 L 323.714844 50.945312 L 324.832031 50.464844 L 325.949219 49.992188 L 327.066406 49.527344 L 328.179688 49.074219 L 329.296875 48.632812 L 330.414062 48.199219 L 331.527344 47.773438 L 332.644531 47.359375 L 333.761719 46.957031 L 334.878906 46.5625 L 335.992188 46.179688 L 337.109375 45.808594 L 338.226562 45.449219 L 339.34375 45.097656 L 340.457031 44.757812 L 341.574219 44.429688 L 342.691406 44.113281 L 343.808594 43.804688 L 344.921875 43.511719 L 346.039062 43.226562 L 347.15625 42.953125 L 348.269531 42.695312 L 349.386719 42.445312 L 350.503906 42.207031 L 351.621094 41.980469 L 352.734375 41.769531 L 353.851562 41.566406 L 354.96875 41.375 L 356.085938 41.199219 L 357.199219 41.03125 L 358.316406 40.878906 L 359.433594 40.738281 L 360.546875 40.605469 L 361.664062 40.488281 L 362.78125 40.382812 L 363.898438 40.292969 L 365.011719 40.210938 L 366.128906 40.144531 L 367.246094 40.085938 L 368.363281 40.042969 L 369.476562 40.011719 L 370.59375 39.992188 L 371.710938 39.988281 L 372.828125 39.992188 L 373.941406 40.011719 L 375.058594 40.042969 L 376.175781 40.085938 L 377.289062 40.144531 L 378.40625 40.210938 L 379.523438 40.292969 L 380.640625 40.382812 L 381.753906 40.488281 L 382.871094 40.605469 L 383.988281 40.738281 L 385.105469 40.878906 L 386.21875 41.03125 L 387.335938 41.199219 L 388.453125 41.375 L 389.566406 41.566406 L 390.683594 41.769531 L 391.800781 41.980469 L 392.917969 42.207031 L 394.03125 42.445312 L 395.148438 42.695312 L 396.265625 42.953125 L 397.382812 43.226562 L 398.496094 43.511719 L 399.613281 43.804688 L 400.730469 44.113281 L 401.847656 44.429688 L 402.960938 44.757812 L 404.078125 45.097656 L 405.195312 45.449219 L 406.308594 45.808594 L 407.425781 46.179688 L 408.542969 46.5625 L 409.660156 46.957031 L 410.773438 47.359375 L 411.890625 47.773438 L 413.007812 48.199219 L 414.125 48.632812 L 415.238281 49.074219 L 416.355469 49.527344 L 417.472656 49.992188 L 418.585938 50.464844 L 419.703125 50.945312 L 420.820312 51.4375 L 421.9375 51.9375 L 423.050781 52.445312 L 424.167969 52.964844 L 425.285156 53.488281 L 426.402344 54.023438 L 427.515625 54.570312 L 428.632812 55.121094 L 429.75 55.679688 L 430.863281 56.246094 L 431.980469 56.824219 L 433.097656 57.40625 L 434.214844 57.996094 L 435.328125 58.59375 L 436.445312 59.199219 L 437.5625 59.808594 L 438.679688 60.429688 L 439.792969 61.054688 L 440.910156 61.683594 L 442.027344 62.324219 L 443.144531 62.96875 L 444.257812 63.617188 L 445.375 64.273438 L 446.492188 64.933594 L 447.605469 65.601562 L 448.722656 66.273438 L 450.957031 67.632812 L 452.070312 68.320312 L 453.1875 69.011719 L 454.304688 69.707031 L 455.421875 70.410156 L 456.535156 71.113281 L 457.652344 71.820312 L 458.769531 72.535156 L 459.882812 73.25 L 461 73.96875 L 462.117188 74.691406 L 463.234375 75.417969 L 464.347656 76.144531 L 465.464844 76.875 L 466.582031 77.609375 L 467.699219 78.347656 L 468.8125 79.085938 L 469.929688 79.824219 L 471.046875 80.566406 L 472.164062 81.3125 L 473.277344 82.058594 L 475.511719 83.550781 L 476.625 84.300781 L 477.742188 85.050781 L 478.859375 85.804688 L 479.976562 86.554688 L 481.089844 87.308594 L 482.207031 88.058594 L 484.441406 89.566406 L 485.554688 90.316406 L 486.671875 91.070312 L 487.789062 91.820312 L 488.902344 92.570312 L 490.019531 93.324219 L 491.136719 94.070312 L 492.253906 94.820312 L 493.367188 95.566406 L 495.601562 97.058594 L 496.71875 97.800781 L 497.832031 98.542969 L 500.066406 100.019531 L 501.183594 100.753906 L 502.296875 101.488281 L 504.53125 102.949219 L 505.644531 103.675781 L 506.761719 104.398438 L 508.996094 105.835938 L 510.109375 106.550781 L 512.34375 107.972656 L 513.460938 108.675781 L 514.574219 109.378906 L 515.691406 110.078125 L 516.808594 110.773438 L 517.921875 111.464844 L 520.15625 112.832031 L 521.273438 113.511719 L 522.386719 114.1875 L 523.503906 114.859375 L 524.621094 115.527344 L 525.738281 116.191406 L 526.851562 116.847656 L 527.96875 117.503906 L 529.085938 118.152344 L 530.203125 118.796875 L 531.316406 119.4375 L 532.433594 120.074219 L 533.550781 120.707031 L 534.664062 121.332031 L 535.78125 121.953125 L 536.898438 122.570312 L 538.015625 123.183594 L 539.128906 123.789062 L 540.246094 124.390625 L 541.363281 124.988281 L 542.480469 125.578125 L 543.59375 126.164062 L 544.710938 126.746094 L 545.828125 127.324219 L 546.941406 127.894531 L 549.175781 129.019531 L 550.292969 129.574219 L 551.40625 130.121094 L 552.523438 130.667969 L 553.640625 131.207031 L 554.757812 131.738281 L 555.871094 132.265625 L 556.988281 132.789062 L 558.105469 133.304688 L 559.21875 133.816406 L 560.335938 134.320312 L 561.453125 134.820312 L 562.570312 135.316406 L 563.683594 135.804688 L 564.800781 136.289062 L 565.917969 136.765625 L 567.035156 137.238281 L 567.035156 164.074219 L 8.964844 164.074219 Z M 8.964844 163.441406 "/>
<path fill-rule="nonzero" fill="rgb(75.686275%, 9.411765%, 0%)" fill-opacity="0.329412" d="M 8.964844 137.238281 L 10.082031 136.765625 L 11.199219 136.289062 L 12.316406 135.804688 L 13.429688 135.316406 L 14.546875 134.820312 L 15.664062 134.320312 L 16.78125 133.816406 L 17.894531 133.304688 L 19.011719 132.789062 L 20.128906 132.265625 L 21.242188 131.738281 L 22.359375 131.207031 L 23.476562 130.667969 L 24.59375 130.121094 L 25.707031 129.574219 L 26.824219 129.019531 L 29.058594 127.894531 L 30.171875 127.324219 L 31.289062 126.746094 L 32.40625 126.164062 L 33.519531 125.578125 L 34.636719 124.988281 L 35.753906 124.390625 L 36.871094 123.789062 L 37.984375 123.183594 L 39.101562 122.570312 L 40.21875 121.953125 L 41.335938 121.332031 L 42.449219 120.707031 L 43.566406 120.074219 L 44.683594 119.4375 L 45.796875 118.796875 L 46.914062 118.152344 L 48.03125 117.503906 L 49.148438 116.847656 L 50.261719 116.191406 L 51.378906 115.527344 L 52.496094 114.859375 L 53.613281 114.1875 L 54.726562 113.511719 L 55.84375 112.832031 L 58.078125 111.464844 L 59.191406 110.773438 L 60.308594 110.078125 L 61.425781 109.378906 L 62.539062 108.675781 L 63.65625 107.972656 L 65.890625 106.550781 L 67.003906 105.835938 L 69.238281 104.398438 L 70.355469 103.675781 L 71.46875 102.949219 L 73.703125 101.488281 L 74.816406 100.753906 L 75.933594 100.019531 L 78.167969 98.542969 L 79.28125 97.800781 L 80.398438 97.058594 L 82.632812 95.566406 L 83.746094 94.820312 L 84.863281 94.070312 L 85.980469 93.324219 L 87.097656 92.570312 L 88.210938 91.820312 L 89.328125 91.070312 L 90.445312 90.316406 L 91.558594 89.566406 L 93.792969 88.058594 L 94.910156 87.308594 L 96.023438 86.554688 L 97.140625 85.804688 L 98.257812 85.050781 L 99.375 84.300781 L 100.488281 83.550781 L 102.722656 82.058594 L 103.835938 81.3125 L 104.953125 80.566406 L 106.070312 79.824219 L 107.1875 79.085938 L 108.300781 78.347656 L 109.417969 77.609375 L 110.535156 76.875 L 111.652344 76.144531 L 112.765625 75.417969 L 113.882812 74.691406 L 115 73.96875 L 116.117188 73.25 L 117.230469 72.535156 L 118.347656 71.820312 L 119.464844 71.113281 L 120.578125 70.410156 L 121.695312 69.707031 L 122.8125 69.011719 L 123.929688 68.320312 L 125.042969 67.632812 L 127.277344 66.273438 L 128.394531 65.601562 L 129.507812 64.933594 L 130.625 64.273438 L 131.742188 63.617188 L 132.855469 62.96875 L 133.972656 62.324219 L 135.089844 61.683594 L 136.207031 61.054688 L 137.320312 60.429688 L 138.4375 59.808594 L 139.554688 59.199219 L 140.671875 58.59375 L 141.785156 57.996094 L 142.902344 57.40625 L 144.019531 56.824219 L 145.136719 56.246094 L 146.25 55.679688 L 147.367188 55.121094 L 148.484375 54.570312 L 149.597656 54.023438 L 150.714844 53.488281 L 151.832031 52.964844 L 152.949219 52.445312 L 154.0625 51.9375 L 155.179688 51.4375 L 156.296875 50.945312 L 157.414062 50.464844 L 158.527344 49.992188 L 159.644531 49.527344 L 160.761719 49.074219 L 161.875 48.632812 L 162.992188 48.199219 L 164.109375 47.773438 L 165.226562 47.359375 L 166.339844 46.957031 L 167.457031 46.5625 L 168.574219 46.179688 L 169.691406 45.808594 L 170.804688 45.449219 L 171.921875 45.097656 L 173.039062 44.757812 L 174.152344 44.429688 L 175.269531 44.113281 L 176.386719 43.804688 L 177.503906 43.511719 L 178.617188 43.226562 L 179.734375 42.953125 L 180.851562 42.695312 L 181.96875 42.445312 L 183.082031 42.207031 L 184.199219 41.980469 L 185.316406 41.769531 L 186.433594 41.566406 L 187.546875 41.375 L 188.664062 41.199219 L 189.78125 41.03125 L 190.894531 40.878906 L 192.011719 40.738281 L 193.128906 40.605469 L 194.246094 40.488281 L 195.359375 40.382812 L 196.476562 40.292969 L 197.59375 40.210938 L 198.710938 40.144531 L 199.824219 40.085938 L 200.941406 40.042969 L 202.058594 40.011719 L 203.171875 39.992188 L 204.289062 39.988281 L 205.40625 39.992188 L 206.523438 40.011719 L 207.636719 40.042969 L 208.753906 40.085938 L 209.871094 40.144531 L 210.988281 40.210938 L 212.101562 40.292969 L 213.21875 40.382812 L 214.335938 40.488281 L 215.453125 40.605469 L 216.566406 40.738281 L 217.683594 40.878906 L 218.800781 41.03125 L 219.914062 41.199219 L 221.03125 41.375 L 222.148438 41.566406 L 223.265625 41.769531 L 224.378906 41.980469 L 225.496094 42.207031 L 226.613281 42.445312 L 227.730469 42.695312 L 228.84375 42.953125 L 229.960938 43.226562 L 231.078125 43.511719 L 232.191406 43.804688 L 233.308594 44.113281 L 234.425781 44.429688 L 235.542969 44.757812 L 236.65625 45.097656 L 237.773438 45.449219 L 238.890625 45.808594 L 240.007812 46.179688 L 241.121094 46.5625 L 242.238281 46.957031 L 243.355469 47.359375 L 244.472656 47.773438 L 245.585938 48.199219 L 246.703125 48.632812 L 247.820312 49.074219 L 248.933594 49.527344 L 250.050781 49.992188 L 251.167969 50.464844 L 252.285156 50.945312 L 253.398438 51.4375 L 254.515625 51.9375 L 255.632812 52.445312 L 256.75 52.964844 L 257.863281 53.488281 L 258.980469 54.023438 L 260.097656 54.570312 L 261.210938 55.121094 L 262.328125 55.679688 L 263.445312 56.246094 L 264.5625 56.824219 L 265.675781 57.40625 L 266.792969 57.996094 L 267.910156 58.59375 L 269.027344 59.199219 L 270.140625 59.808594 L 271.257812 60.429688 L 272.375 61.054688 L 273.492188 61.683594 L 274.605469 62.324219 L 275.722656 62.96875 L 276.839844 63.617188 L 277.953125 64.273438 L 279.070312 64.933594 L 280.1875 65.601562 L 281.304688 66.273438 L 282.417969 66.953125 L 283.535156 67.632812 L 284.652344 68.320312 L 285.769531 69.011719 L 286.882812 69.707031 L 289.117188 71.113281 L 290.230469 71.820312 L 292.464844 73.25 L 293.582031 73.96875 L 294.695312 74.691406 L 296.929688 76.144531 L 298.046875 76.875 L 299.160156 77.609375 L 301.394531 79.085938 L 302.507812 79.824219 L 303.625 80.566406 L 305.859375 82.058594 L 306.972656 82.804688 L 308.089844 83.550781 L 310.324219 85.050781 L 311.4375 85.804688 L 312.554688 86.554688 L 313.671875 87.308594 L 314.789062 88.058594 L 315.902344 88.8125 L 317.019531 89.566406 L 318.136719 90.316406 L 319.25 91.070312 L 321.484375 92.570312 L 322.601562 93.324219 L 323.714844 94.070312 L 324.832031 94.820312 L 327.066406 96.3125 L 328.179688 97.058594 L 330.414062 98.542969 L 331.527344 99.28125 L 332.644531 100.019531 L 334.878906 101.488281 L 335.992188 102.21875 L 337.109375 102.949219 L 338.226562 103.675781 L 339.34375 104.398438 L 340.457031 105.117188 L 341.574219 105.835938 L 342.691406 106.550781 L 343.808594 107.261719 L 344.921875 107.972656 L 347.15625 109.378906 L 348.269531 110.078125 L 349.386719 110.773438 L 350.503906 111.464844 L 351.621094 112.148438 L 352.734375 112.832031 L 353.851562 113.511719 L 354.96875 114.1875 L 356.085938 114.859375 L 357.199219 115.527344 L 358.316406 116.191406 L 359.433594 116.847656 L 360.546875 117.503906 L 361.664062 118.152344 L 362.78125 118.796875 L 363.898438 119.4375 L 365.011719 120.074219 L 366.128906 120.707031 L 367.246094 121.332031 L 368.363281 121.953125 L 369.476562 122.570312 L 370.59375 123.183594 L 371.710938 123.789062 L 372.828125 124.390625 L 373.941406 124.988281 L 375.058594 125.578125 L 376.175781 126.164062 L 377.289062 126.746094 L 378.40625 127.324219 L 379.523438 127.894531 L 380.640625 128.457031 L 381.753906 129.019531 L 382.871094 129.574219 L 385.105469 130.667969 L 386.21875 131.207031 L 387.335938 131.738281 L 388.453125 132.265625 L 389.566406 132.789062 L 390.683594 133.304688 L 391.800781 133.816406 L 392.917969 134.320312 L 394.03125 134.820312 L 395.148438 135.316406 L 396.265625 135.804688 L 397.382812 136.289062 L 398.496094 136.765625 L 399.613281 137.238281 L 400.730469 137.707031 L 401.847656 138.167969 L 402.960938 138.621094 L 404.078125 139.074219 L 405.195312 139.515625 L 406.308594 139.957031 L 407.425781 140.390625 L 408.542969 140.820312 L 409.660156 141.242188 L 410.773438 141.660156 L 411.890625 142.070312 L 413.007812 142.476562 L 414.125 142.878906 L 415.238281 143.273438 L 416.355469 143.664062 L 417.472656 144.050781 L 418.585938 144.429688 L 419.703125 144.804688 L 421.9375 145.539062 L 423.050781 145.898438 L 424.167969 146.25 L 425.285156 146.597656 L 426.402344 146.941406 L 427.515625 147.28125 L 428.632812 147.613281 L 429.75 147.941406 L 430.863281 148.265625 L 431.980469 148.585938 L 433.097656 148.898438 L 434.214844 149.207031 L 435.328125 149.511719 L 437.5625 150.105469 L 438.679688 150.394531 L 439.792969 150.679688 L 442.027344 151.234375 L 443.144531 151.503906 L 444.257812 151.773438 L 445.375 152.035156 L 446.492188 152.292969 L 447.605469 152.546875 L 448.722656 152.796875 L 450.957031 153.28125 L 452.070312 153.515625 L 453.1875 153.75 L 455.421875 154.203125 L 456.535156 154.421875 L 458.769531 154.851562 L 459.882812 155.058594 L 462.117188 155.464844 L 463.234375 155.660156 L 464.347656 155.855469 L 466.582031 156.230469 L 467.699219 156.414062 L 468.8125 156.59375 L 469.929688 156.765625 L 471.046875 156.941406 L 472.164062 157.109375 L 473.277344 157.273438 L 474.394531 157.4375 L 475.511719 157.59375 L 476.625 157.75 L 478.859375 158.054688 L 479.976562 158.199219 L 481.089844 158.34375 L 482.207031 158.484375 L 484.441406 158.757812 L 485.554688 158.890625 L 486.671875 159.019531 L 487.789062 159.144531 L 488.902344 159.269531 L 490.019531 159.390625 L 492.253906 159.625 L 493.367188 159.738281 L 495.601562 159.957031 L 496.71875 160.0625 L 497.832031 160.167969 L 498.949219 160.269531 L 501.183594 160.464844 L 502.296875 160.5625 L 503.414062 160.652344 L 504.53125 160.746094 L 505.644531 160.832031 L 507.878906 161.003906 L 508.996094 161.085938 L 510.109375 161.167969 L 512.34375 161.324219 L 513.460938 161.398438 L 514.574219 161.472656 L 516.808594 161.613281 L 517.921875 161.679688 L 520.15625 161.8125 L 521.273438 161.875 L 522.386719 161.9375 L 525.738281 162.113281 L 526.851562 162.167969 L 529.085938 162.277344 L 530.203125 162.328125 L 531.316406 162.378906 L 533.550781 162.472656 L 534.664062 162.519531 L 535.78125 162.566406 L 538.015625 162.652344 L 539.128906 162.695312 L 540.246094 162.738281 L 542.480469 162.816406 L 543.59375 162.851562 L 544.710938 162.890625 L 545.828125 162.925781 L 546.941406 162.960938 L 548.058594 162.992188 L 549.175781 163.027344 L 550.292969 163.058594 L 551.40625 163.089844 L 552.523438 163.121094 L 554.757812 163.175781 L 555.871094 163.203125 L 558.105469 163.257812 L 559.21875 163.285156 L 562.570312 163.355469 L 563.683594 163.378906 L 564.800781 163.402344 L 567.035156 163.441406 L 567.035156 164.074219 L 8.964844 164.074219 Z M 8.964844 137.238281 "/>
</g>
<path fill="none" stroke-width="1.745965" stroke-linecap="butt" stroke-linejoin="round" stroke="rgb(0%, 0%, 0%)" stroke-opacity="1" stroke-miterlimit="10" d="M 371.710938 43.867188 L 371.710938 36.109375 "/>
<path fill="none" stroke-width="1.745965" stroke-linecap="butt" stroke-linejoin="round" stroke="rgb(0%, 0%, 0%)" stroke-opacity="1" stroke-miterlimit="10" d="M 371.710938 39.988281 L 204.289062 39.988281 "/>
<path fill="none" stroke-width="1.745965" stroke-linecap="butt" stroke-linejoin="round" stroke="rgb(0%, 0%, 0%)" stroke-opacity="1" stroke-miterlimit="10" d="M 204.289062 43.867188 L 204.289062 36.109375 "/>
<g fill="rgb(0%, 0%, 0%)" fill-opacity="1">
<use xlink:href="#glyph-0-0" x="281.277344" y="27.054688"/>
<use xlink:href="#glyph-0-1" x="291.288086" y="27.054688"/>
</g>
<g clip-path="url(#clip-2)">
<path fill="none" stroke-width="1.745965" stroke-linecap="butt" stroke-linejoin="round" stroke="rgb(0%, 0%, 0%)" stroke-opacity="1" stroke-miterlimit="10" d="M 343.808594 164.074219 L 343.808594 8.964844 "/>
</g>
<g fill="rgb(0%, 0%, 0%)" fill-opacity="1">
<use xlink:href="#glyph-0-2" x="356.046875" y="139.507812"/>
</g>
<g fill="rgb(75.686275%, 9.411765%, 0%)" fill-opacity="1">
<use xlink:href="#glyph-0-3" x="215.429688" y="139.507812"/>
<use xlink:href="#glyph-0-4" x="228.428711" y="139.507812"/>
<use xlink:href="#glyph-0-5" x="238.94043" y="139.507812"/>
</g>
<g fill="rgb(90.980392%, 70.196078%, 19.607843%)" fill-opacity="1">
<use xlink:href="#glyph-0-3" x="438.660156" y="139.507812"/>
<use xlink:href="#glyph-0-4" x="451.65918" y="139.507812"/>
<use xlink:href="#glyph-0-6" x="462.170898" y="139.507812"/>
</g>
<path fill="none" stroke-width="1.745965" stroke-linecap="square" stroke-linejoin="round" stroke="rgb(0%, 0%, 0%)" stroke-opacity="1" stroke-miterlimit="10" d="M 8.964844 164.074219 L 567.035156 164.074219 "/>
<path fill="none" stroke-width="1.745965" stroke-linecap="butt" stroke-linejoin="round" stroke="rgb(0%, 0%, 0%)" stroke-opacity="1" stroke-miterlimit="10" d="M 64.773438 168.558594 L 64.773438 164.074219 "/>
<path fill="none" stroke-width="1.745965" stroke-linecap="butt" stroke-linejoin="round" stroke="rgb(0%, 0%, 0%)" stroke-opacity="1" stroke-miterlimit="10" d="M 288 168.558594 L 288 164.074219 "/>
<path fill="none" stroke-width="1.745965" stroke-linecap="butt" stroke-linejoin="round" stroke="rgb(0%, 0%, 0%)" stroke-opacity="1" stroke-miterlimit="10" d="M 511.226562 168.558594 L 511.226562 164.074219 "/>
<g fill="rgb(0%, 0%, 0%)" fill-opacity="1">
<use xlink:href="#glyph-1-0" x="58.371094" y="182.472656"/>
<use xlink:href="#glyph-1-1" x="63.166406" y="182.472656"/>
</g>
<g fill="rgb(0%, 0%, 0%)" fill-opacity="1">
<use xlink:href="#glyph-1-2" x="283.996094" y="182.472656"/>
</g>
<g fill="rgb(0%, 0%, 0%)" fill-opacity="1">
<use xlink:href="#glyph-1-1" x="507.222656" y="182.472656"/>
</g>
<g fill="rgb(0%, 0%, 0%)" fill-opacity="1">
<use xlink:href="#glyph-0-7" x="220.960938" y="203.050781"/>
<use xlink:href="#glyph-0-8" x="231.956055" y="203.050781"/>
<use xlink:href="#glyph-0-9" x="240.956055" y="203.050781"/>
<use xlink:href="#glyph-0-10" x="250.966797" y="203.050781"/>
<use xlink:href="#glyph-0-11" x="260.977539" y="203.050781"/>
<use xlink:href="#glyph-0-6" x="265.978516" y="203.050781"/>
<use xlink:href="#glyph-0-11" x="275.989258" y="203.050781"/>
<use xlink:href="#glyph-0-12" x="280.990234" y="203.050781"/>
<use xlink:href="#glyph-0-13" x="292.996094" y="203.050781"/>
<use xlink:href="#glyph-0-14" x="301.996094" y="203.050781"/>
<use xlink:href="#glyph-0-0" x="305.995117" y="203.050781"/>
<use xlink:href="#glyph-0-10" x="316.005859" y="203.050781"/>
<use xlink:href="#glyph-0-15" x="326.016602" y="203.050781"/>
<use xlink:href="#glyph-0-2" x="336.027344" y="203.050781"/>
<use xlink:href="#glyph-0-10" x="345.027344" y="203.050781"/>
</g>
</svg>
