<?xml version="1.0" encoding="UTF-8"?>
<svg xmlns="http://www.w3.org/2000/svg" xmlns:xlink="http://www.w3.org/1999/xlink" width="504pt" height="360pt" viewBox="0 0 504 360">
<defs>
<g>
<g id="glyph-0-0">
<path d="M 7.53125 0.921875 L 7.53125 2.1875 L 6.46875 2.1875 C 6.832031 2.476562 7.101562 2.75 7.28125 3 C 7.5625 3.414062 7.703125 3.890625 7.703125 4.421875 C 7.703125 5.015625 7.554688 5.492188 7.265625 5.859375 C 7.085938 6.066406 6.835938 6.253906 6.515625 6.421875 C 6.921875 6.703125 7.21875 7.03125 7.40625 7.40625 C 7.601562 7.789062 7.703125 8.222656 7.703125 8.703125 C 7.703125 9.710938 7.335938 10.398438 6.609375 10.765625 C 6.210938 10.960938 5.679688 11.0625 5.015625 11.0625 L 0 11.0625 L 0 9.75 L 5.234375 9.75 C 5.734375 9.75 6.078125 9.625 6.265625 9.375 C 6.453125 9.125 6.546875 8.816406 6.546875 8.453125 C 6.546875 7.953125 6.378906 7.523438 6.046875 7.171875 C 5.710938 6.816406 5.15625 6.640625 4.375 6.640625 L 0 6.640625 L 0 5.34375 L 4.921875 5.34375 C 5.429688 5.34375 5.800781 5.28125 6.03125 5.15625 C 6.382812 4.96875 6.5625 4.613281 6.5625 4.09375 C 6.5625 3.613281 6.375 3.175781 6 2.78125 C 5.632812 2.382812 4.96875 2.1875 4 2.1875 L 0 2.1875 L 0 0.921875 Z M 7.53125 0.921875 "/>
</g>
<g id="glyph-0-1">
<path d="M 7.703125 4.0625 C 7.703125 4.601562 7.578125 5.125 7.328125 5.625 C 7.078125 6.125 6.753906 6.503906 6.359375 6.765625 C 5.972656 7.015625 5.523438 7.1875 5.015625 7.28125 C 4.671875 7.351562 4.117188 7.390625 3.359375 7.390625 L 3.359375 1.859375 C 2.597656 1.890625 1.984375 2.070312 1.515625 2.40625 C 1.054688 2.738281 0.828125 3.257812 0.828125 3.96875 C 0.828125 4.632812 1.046875 5.164062 1.484375 5.5625 C 1.734375 5.78125 2.023438 5.9375 2.359375 6.03125 L 2.359375 7.28125 C 2.085938 7.25 1.78125 7.140625 1.4375 6.953125 C 1.09375 6.765625 0.816406 6.554688 0.609375 6.328125 C 0.234375 5.941406 -0.0195312 5.46875 -0.15625 4.90625 C -0.226562 4.601562 -0.265625 4.257812 -0.265625 3.875 C -0.265625 2.9375 0.0703125 2.140625 0.75 1.484375 C 1.4375 0.828125 2.394531 0.5 3.625 0.5 C 4.832031 0.5 5.8125 0.828125 6.5625 1.484375 C 7.320312 2.140625 7.703125 3 7.703125 4.0625 Z M 4.375 6.078125 C 4.914062 6.023438 5.351562 5.90625 5.6875 5.71875 C 6.289062 5.375 6.59375 4.796875 6.59375 3.984375 C 6.59375 3.398438 6.382812 2.910156 5.96875 2.515625 C 5.550781 2.128906 5.019531 1.925781 4.375 1.90625 Z M 7.71875 3.953125 Z M 7.71875 3.953125 "/>
</g>
<g id="glyph-0-2">
<path d="M 9.640625 1.1875 L 9.640625 2.46875 L 7.53125 2.46875 L 7.53125 3.671875 L 6.5 3.671875 L 6.5 2.46875 L 1.578125 2.46875 C 1.316406 2.46875 1.144531 2.554688 1.0625 2.734375 C 1.007812 2.828125 0.984375 2.988281 0.984375 3.21875 C 0.984375 3.28125 0.984375 3.347656 0.984375 3.421875 C 0.984375 3.492188 0.988281 3.578125 1 3.671875 L 0 3.671875 C -0.0390625 3.523438 -0.0703125 3.367188 -0.09375 3.203125 C -0.113281 3.046875 -0.125 2.878906 -0.125 2.703125 C -0.125 2.109375 0.0234375 1.707031 0.328125 1.5 C 0.628906 1.289062 1.023438 1.1875 1.515625 1.1875 L 6.5 1.1875 L 6.5 0.15625 L 7.53125 0.15625 L 7.53125 1.1875 Z M 9.640625 1.1875 "/>
</g>
<g id="glyph-0-3">
<path d="M 2 1.90625 C 1.632812 1.90625 1.347656 2.035156 1.140625 2.296875 C 0.929688 2.566406 0.828125 2.882812 0.828125 3.25 C 0.828125 3.695312 0.925781 4.128906 1.125 4.546875 C 1.46875 5.242188 2.03125 5.59375 2.8125 5.59375 L 3.828125 5.59375 C 3.734375 5.4375 3.648438 5.238281 3.578125 5 C 3.515625 4.757812 3.472656 4.519531 3.453125 4.28125 L 3.34375 3.515625 C 3.28125 3.054688 3.1875 2.710938 3.0625 2.484375 C 2.84375 2.097656 2.488281 1.90625 2 1.90625 Z M 4.5625 4.96875 C 4.601562 5.257812 4.726562 5.453125 4.9375 5.546875 C 5.039062 5.609375 5.203125 5.640625 5.421875 5.640625 C 5.847656 5.640625 6.15625 5.484375 6.34375 5.171875 C 6.539062 4.867188 6.640625 4.429688 6.640625 3.859375 C 6.640625 3.191406 6.460938 2.722656 6.109375 2.453125 C 5.910156 2.296875 5.617188 2.191406 5.234375 2.140625 L 5.234375 0.96875 C 6.160156 0.988281 6.804688 1.285156 7.171875 1.859375 C 7.535156 2.441406 7.71875 3.117188 7.71875 3.890625 C 7.71875 4.773438 7.546875 5.492188 7.203125 6.046875 C 6.867188 6.585938 6.347656 6.859375 5.640625 6.859375 L 1.296875 6.859375 C 1.160156 6.859375 1.050781 6.882812 0.96875 6.9375 C 0.894531 7 0.859375 7.113281 0.859375 7.28125 C 0.859375 7.34375 0.859375 7.40625 0.859375 7.46875 C 0.867188 7.539062 0.882812 7.617188 0.90625 7.703125 L -0.03125 7.703125 C -0.09375 7.503906 -0.128906 7.351562 -0.140625 7.25 C -0.148438 7.144531 -0.15625 7.003906 -0.15625 6.828125 C -0.15625 6.390625 -0.00390625 6.070312 0.296875 5.875 C 0.460938 5.769531 0.695312 5.695312 1 5.65625 C 0.664062 5.40625 0.375 5.035156 0.125 4.546875 C -0.121094 4.066406 -0.25 3.535156 -0.25 2.953125 C -0.25 2.253906 -0.0390625 1.679688 0.375 1.234375 C 0.800781 0.796875 1.335938 0.578125 1.984375 0.578125 C 2.679688 0.578125 3.21875 0.796875 3.59375 1.234375 C 3.976562 1.671875 4.21875 2.242188 4.3125 2.953125 Z M 7.71875 3.921875 Z M 7.71875 3.921875 "/>
</g>
<g id="glyph-0-4">
<path d="M 7.75 3.828125 C 7.75 4.679688 7.539062 5.375 7.125 5.90625 C 6.71875 6.4375 6.007812 6.753906 5 6.859375 L 5 5.640625 C 5.46875 5.554688 5.851562 5.378906 6.15625 5.109375 C 6.46875 4.847656 6.625 4.421875 6.625 3.828125 C 6.625 3.023438 6.226562 2.453125 5.4375 2.109375 C 4.925781 1.878906 4.296875 1.765625 3.546875 1.765625 C 2.785156 1.765625 2.144531 1.921875 1.625 2.234375 C 1.113281 2.554688 0.859375 3.0625 0.859375 3.75 C 0.859375 4.269531 1.019531 4.679688 1.34375 4.984375 C 1.664062 5.296875 2.109375 5.515625 2.671875 5.640625 L 2.671875 6.859375 C 1.671875 6.722656 0.9375 6.375 0.46875 5.8125 C 0.0078125 5.25 -0.21875 4.53125 -0.21875 3.65625 C -0.21875 2.664062 0.140625 1.878906 0.859375 1.296875 C 1.578125 0.710938 2.476562 0.421875 3.5625 0.421875 C 4.882812 0.421875 5.910156 0.738281 6.640625 1.375 C 7.378906 2.019531 7.75 2.835938 7.75 3.828125 Z M 7.71875 3.640625 Z M 7.71875 3.640625 "/>
</g>
<g id="glyph-0-5">
<path d="M 0.8125 3.921875 C 0.8125 4.753906 1.128906 5.328125 1.765625 5.640625 C 2.398438 5.953125 3.109375 6.109375 3.890625 6.109375 C 4.585938 6.109375 5.160156 6 5.609375 5.78125 C 6.296875 5.414062 6.640625 4.800781 6.640625 3.9375 C 6.640625 3.15625 6.34375 2.585938 5.75 2.234375 C 5.164062 1.890625 4.457031 1.71875 3.625 1.71875 C 2.820312 1.71875 2.148438 1.890625 1.609375 2.234375 C 1.078125 2.585938 0.8125 3.148438 0.8125 3.921875 Z M 7.75 3.96875 C 7.75 4.9375 7.425781 5.753906 6.78125 6.421875 C 6.132812 7.097656 5.179688 7.4375 3.921875 7.4375 C 2.710938 7.4375 1.707031 7.140625 0.90625 6.546875 C 0.113281 5.953125 -0.28125 5.035156 -0.28125 3.796875 C -0.28125 2.765625 0.0664062 1.941406 0.765625 1.328125 C 1.472656 0.722656 2.421875 0.421875 3.609375 0.421875 C 4.867188 0.421875 5.875 0.738281 6.625 1.375 C 7.375 2.019531 7.75 2.882812 7.75 3.96875 Z M 7.71875 3.921875 Z M 7.71875 3.921875 "/>
</g>
<g id="glyph-0-6">
<path d="M 7.671875 3.59375 C 7.671875 4.175781 7.523438 4.691406 7.234375 5.140625 C 7.066406 5.378906 6.828125 5.617188 6.515625 5.859375 L 7.46875 5.859375 L 7.46875 7.03125 L 0.609375 7.03125 C -0.347656 7.03125 -1.101562 6.890625 -1.65625 6.609375 C -2.675781 6.085938 -3.1875 5.097656 -3.1875 3.640625 C -3.1875 2.828125 -3.003906 2.144531 -2.640625 1.59375 C -2.273438 1.039062 -1.707031 0.726562 -0.9375 0.65625 L -0.9375 1.953125 C -1.269531 2.015625 -1.53125 2.132812 -1.71875 2.3125 C -2 2.601562 -2.140625 3.054688 -2.140625 3.671875 C -2.140625 4.640625 -1.796875 5.273438 -1.109375 5.578125 C -0.703125 5.753906 0.015625 5.832031 1.046875 5.8125 C 0.660156 5.5625 0.375 5.257812 0.1875 4.90625 C 0 4.550781 -0.09375 4.078125 -0.09375 3.484375 C -0.09375 2.671875 0.191406 1.957031 0.765625 1.34375 C 1.347656 0.726562 2.3125 0.421875 3.65625 0.421875 C 4.914062 0.421875 5.898438 0.726562 6.609375 1.34375 C 7.316406 1.96875 7.671875 2.71875 7.671875 3.59375 Z M 3.796875 5.859375 C 4.734375 5.859375 5.425781 5.664062 5.875 5.28125 C 6.320312 4.90625 6.546875 4.414062 6.546875 3.8125 C 6.546875 2.925781 6.128906 2.316406 5.296875 1.984375 C 4.847656 1.816406 4.265625 1.734375 3.546875 1.734375 C 2.691406 1.734375 2.039062 1.90625 1.59375 2.25 C 1.15625 2.59375 0.9375 3.054688 0.9375 3.640625 C 0.9375 4.546875 1.347656 5.1875 2.171875 5.5625 C 2.640625 5.757812 3.179688 5.859375 3.796875 5.859375 Z M 7.71875 3.734375 Z M 7.71875 3.734375 "/>
</g>
<g id="glyph-0-7">
<path d="M 7.53125 0.921875 L 7.53125 2.125 L 6.46875 2.125 C 6.90625 2.488281 7.21875 2.867188 7.40625 3.265625 C 7.601562 3.660156 7.703125 4.101562 7.703125 4.59375 C 7.703125 5.664062 7.328125 6.390625 6.578125 6.765625 C 6.171875 6.960938 5.585938 7.0625 4.828125 7.0625 L 0 7.0625 L 0 5.78125 L 4.75 5.78125 C 5.207031 5.78125 5.578125 5.710938 5.859375 5.578125 C 6.328125 5.347656 6.5625 4.941406 6.5625 4.359375 C 6.5625 4.054688 6.53125 3.804688 6.46875 3.609375 C 6.363281 3.265625 6.160156 2.960938 5.859375 2.703125 C 5.609375 2.492188 5.347656 2.351562 5.078125 2.28125 C 4.816406 2.21875 4.441406 2.1875 3.953125 2.1875 L 0 2.1875 L 0 0.921875 Z M 7.71875 3.90625 Z M 7.71875 3.90625 "/>
</g>
<g id="glyph-0-8">
<path d="M 7.5 0.921875 L 7.5 2.21875 L 0 2.21875 L 0 0.921875 Z M 10.328125 0.921875 L 10.328125 2.21875 L 8.890625 2.21875 L 8.890625 0.921875 Z M 10.328125 0.921875 "/>
</g>
<g id="glyph-0-9">
<path d="M 7.4375 1.59375 L 7.4375 3.0625 L 5.90625 3.0625 L 5.90625 1.59375 Z M 1.53125 1.59375 L 1.53125 3.0625 L 0 3.0625 L 0 1.59375 Z M 1.53125 1.59375 "/>
</g>
<g id="glyph-0-10">
</g>
<g id="glyph-0-11">
<path d="M 10.375 0.921875 L 10.375 2.1875 L 6.515625 2.1875 C 6.890625 2.488281 7.15625 2.757812 7.3125 3 C 7.582031 3.40625 7.71875 3.914062 7.71875 4.53125 C 7.71875 5.625 7.332031 6.363281 6.5625 6.75 C 6.144531 6.957031 5.566406 7.0625 4.828125 7.0625 L 0 7.0625 L 0 5.765625 L 4.75 5.765625 C 5.300781 5.765625 5.707031 5.695312 5.96875 5.5625 C 6.375 5.332031 6.578125 4.898438 6.578125 4.265625 C 6.578125 3.734375 6.394531 3.253906 6.03125 2.828125 C 5.675781 2.398438 5 2.1875 4 2.1875 L 0 2.1875 L 0 0.921875 Z M 10.375 0.921875 "/>
</g>
<g id="glyph-0-12">
<path d="M 10.328125 0.96875 L 10.328125 2.234375 L 0 2.234375 L 0 0.96875 Z M 10.328125 0.96875 "/>
</g>
<g id="glyph-0-13">
<path d="M 7.53125 1.515625 L 1.59375 2.96875 L 7.53125 4.4375 L 7.53125 5.859375 L 1.625 7.328125 L 7.53125 8.875 L 7.53125 10.140625 L 0 7.953125 L 0 6.640625 L 5.828125 5.09375 L 0 3.609375 L 0 2.296875 L 7.53125 0.125 Z M 7.53125 1.515625 "/>
</g>
<g id="glyph-1-0">
<path d="M 1.375 -7.125 L 1.375 -8.109375 C 2.289062 -8.191406 2.925781 -8.335938 3.28125 -8.546875 C 3.644531 -8.753906 3.914062 -9.25 4.09375 -10.03125 L 5.09375 -10.03125 L 5.09375 0 L 3.75 0 L 3.75 -7.125 Z M 1.375 -7.125 "/>
</g>
<g id="glyph-1-1">
<path d="M 0.453125 0 C 0.492188 -0.863281 0.671875 -1.617188 0.984375 -2.265625 C 1.296875 -2.910156 1.90625 -3.492188 2.8125 -4.015625 L 4.171875 -4.796875 C 4.773438 -5.148438 5.195312 -5.453125 5.4375 -5.703125 C 5.820312 -6.085938 6.015625 -6.53125 6.015625 -7.03125 C 6.015625 -7.613281 5.835938 -8.078125 5.484375 -8.421875 C 5.128906 -8.773438 4.660156 -8.953125 4.078125 -8.953125 C 3.210938 -8.953125 2.613281 -8.625 2.28125 -7.96875 C 2.101562 -7.613281 2.003906 -7.125 1.984375 -6.5 L 0.703125 -6.5 C 0.710938 -7.375 0.875 -8.085938 1.1875 -8.640625 C 1.726562 -9.617188 2.695312 -10.109375 4.09375 -10.109375 C 5.238281 -10.109375 6.078125 -9.796875 6.609375 -9.171875 C 7.148438 -8.546875 7.421875 -7.851562 7.421875 -7.09375 C 7.421875 -6.28125 7.132812 -5.585938 6.5625 -5.015625 C 6.238281 -4.679688 5.648438 -4.28125 4.796875 -3.8125 L 3.828125 -3.28125 C 3.367188 -3.019531 3.007812 -2.773438 2.75 -2.546875 C 2.28125 -2.140625 1.984375 -1.691406 1.859375 -1.203125 L 7.359375 -1.203125 L 7.359375 0 Z M 0.453125 0 "/>
</g>
<g id="glyph-1-2">
<path d="M 3.75 0.28125 C 2.550781 0.28125 1.679688 -0.046875 1.140625 -0.703125 C 0.609375 -1.359375 0.34375 -2.15625 0.34375 -3.09375 L 1.671875 -3.09375 C 1.722656 -2.445312 1.84375 -1.972656 2.03125 -1.671875 C 2.363281 -1.140625 2.957031 -0.875 3.8125 -0.875 C 4.476562 -0.875 5.007812 -1.050781 5.40625 -1.40625 C 5.8125 -1.769531 6.015625 -2.234375 6.015625 -2.796875 C 6.015625 -3.484375 5.800781 -3.960938 5.375 -4.234375 C 4.957031 -4.515625 4.367188 -4.65625 3.609375 -4.65625 C 3.523438 -4.65625 3.441406 -4.65625 3.359375 -4.65625 C 3.273438 -4.65625 3.1875 -4.65625 3.09375 -4.65625 L 3.09375 -5.765625 C 3.226562 -5.753906 3.335938 -5.742188 3.421875 -5.734375 C 3.515625 -5.734375 3.613281 -5.734375 3.71875 -5.734375 C 4.1875 -5.734375 4.570312 -5.804688 4.875 -5.953125 C 5.414062 -6.222656 5.6875 -6.691406 5.6875 -7.359375 C 5.6875 -7.867188 5.503906 -8.257812 5.140625 -8.53125 C 4.785156 -8.800781 4.375 -8.9375 3.90625 -8.9375 C 3.0625 -8.9375 2.476562 -8.65625 2.15625 -8.09375 C 1.976562 -7.78125 1.875 -7.335938 1.84375 -6.765625 L 0.59375 -6.765625 C 0.59375 -7.515625 0.742188 -8.15625 1.046875 -8.6875 C 1.566406 -9.625 2.472656 -10.09375 3.765625 -10.09375 C 4.796875 -10.09375 5.59375 -9.863281 6.15625 -9.40625 C 6.71875 -8.945312 7 -8.285156 7 -7.421875 C 7 -6.796875 6.832031 -6.289062 6.5 -5.90625 C 6.289062 -5.664062 6.023438 -5.476562 5.703125 -5.34375 C 6.234375 -5.195312 6.644531 -4.914062 6.9375 -4.5 C 7.238281 -4.09375 7.390625 -3.585938 7.390625 -2.984375 C 7.390625 -2.023438 7.070312 -1.238281 6.4375 -0.625 C 5.800781 -0.0195312 4.90625 0.28125 3.75 0.28125 Z M 3.75 0.28125 "/>
</g>
<g id="glyph-1-3">
<path d="M 4.765625 -3.5625 L 4.765625 -8.125 L 1.53125 -3.5625 Z M 4.78125 0 L 4.78125 -2.46875 L 0.359375 -2.46875 L 0.359375 -3.703125 L 4.984375 -10.09375 L 6.046875 -10.09375 L 6.046875 -3.5625 L 7.53125 -3.5625 L 7.53125 -2.46875 L 6.046875 -2.46875 L 6.046875 0 Z M 4.78125 0 "/>
</g>
<g id="glyph-1-4">
<path d="M 3.890625 -10.078125 C 5.203125 -10.078125 6.144531 -9.539062 6.71875 -8.46875 C 7.175781 -7.632812 7.40625 -6.492188 7.40625 -5.046875 C 7.40625 -3.679688 7.195312 -2.550781 6.78125 -1.65625 C 6.195312 -0.363281 5.234375 0.28125 3.890625 0.28125 C 2.679688 0.28125 1.78125 -0.242188 1.1875 -1.296875 C 0.695312 -2.171875 0.453125 -3.347656 0.453125 -4.828125 C 0.453125 -5.972656 0.597656 -6.957031 0.890625 -7.78125 C 1.441406 -9.3125 2.441406 -10.078125 3.890625 -10.078125 Z M 3.890625 -0.875 C 4.546875 -0.875 5.066406 -1.164062 5.453125 -1.75 C 5.835938 -2.332031 6.03125 -3.414062 6.03125 -5 C 6.03125 -6.144531 5.890625 -7.085938 5.609375 -7.828125 C 5.328125 -8.566406 4.78125 -8.9375 3.96875 -8.9375 C 3.226562 -8.9375 2.6875 -8.582031 2.34375 -7.875 C 2 -7.175781 1.828125 -6.144531 1.828125 -4.78125 C 1.828125 -3.757812 1.9375 -2.9375 2.15625 -2.3125 C 2.488281 -1.351562 3.066406 -0.875 3.890625 -0.875 Z M 3.890625 -0.875 "/>
</g>
<g id="glyph-2-0">
<path d="M 6.8125 -13.265625 C 8.445312 -13.265625 9.710938 -12.832031 10.609375 -11.96875 C 11.515625 -11.101562 12.019531 -10.125 12.125 -9.03125 L 10.421875 -9.03125 C 10.222656 -9.863281 9.832031 -10.523438 9.25 -11.015625 C 8.675781 -11.503906 7.867188 -11.75 6.828125 -11.75 C 5.554688 -11.75 4.53125 -11.300781 3.75 -10.40625 C 2.96875 -9.507812 2.578125 -8.140625 2.578125 -6.296875 C 2.578125 -4.785156 2.925781 -3.554688 3.625 -2.609375 C 4.332031 -1.671875 5.390625 -1.203125 6.796875 -1.203125 C 8.085938 -1.203125 9.066406 -1.695312 9.734375 -2.6875 C 10.097656 -3.207031 10.363281 -3.894531 10.53125 -4.75 L 12.25 -4.75 C 12.09375 -3.382812 11.585938 -2.242188 10.734375 -1.328125 C 9.703125 -0.222656 8.316406 0.328125 6.578125 0.328125 C 5.078125 0.328125 3.816406 -0.125 2.796875 -1.03125 C 1.460938 -2.226562 0.796875 -4.082031 0.796875 -6.59375 C 0.796875 -8.5 1.296875 -10.0625 2.296875 -11.28125 C 3.390625 -12.601562 4.894531 -13.265625 6.8125 -13.265625 Z M 6.453125 -13.265625 Z M 6.453125 -13.265625 "/>
</g>
<g id="glyph-2-1">
<path d="M 4.890625 -1.015625 C 5.941406 -1.015625 6.660156 -1.410156 7.046875 -2.203125 C 7.441406 -3.003906 7.640625 -3.890625 7.640625 -4.859375 C 7.640625 -5.734375 7.5 -6.445312 7.21875 -7 C 6.769531 -7.875 6 -8.3125 4.90625 -8.3125 C 3.945312 -8.3125 3.242188 -7.941406 2.796875 -7.203125 C 2.359375 -6.460938 2.140625 -5.570312 2.140625 -4.53125 C 2.140625 -3.53125 2.359375 -2.691406 2.796875 -2.015625 C 3.242188 -1.347656 3.941406 -1.015625 4.890625 -1.015625 Z M 4.953125 -9.6875 C 6.171875 -9.6875 7.195312 -9.28125 8.03125 -8.46875 C 8.875 -7.664062 9.296875 -6.476562 9.296875 -4.90625 C 9.296875 -3.382812 8.925781 -2.128906 8.1875 -1.140625 C 7.445312 -0.148438 6.300781 0.34375 4.75 0.34375 C 3.445312 0.34375 2.414062 -0.09375 1.65625 -0.96875 C 0.894531 -1.84375 0.515625 -3.019531 0.515625 -4.5 C 0.515625 -6.082031 0.914062 -7.34375 1.71875 -8.28125 C 2.519531 -9.21875 3.597656 -9.6875 4.953125 -9.6875 Z M 4.90625 -9.640625 Z M 4.90625 -9.640625 "/>
</g>
<g id="glyph-2-2">
<path d="M 1.15625 -9.40625 L 2.65625 -9.40625 L 2.65625 -8.078125 C 3.101562 -8.628906 3.578125 -9.023438 4.078125 -9.265625 C 4.578125 -9.503906 5.128906 -9.625 5.734375 -9.625 C 7.078125 -9.625 7.984375 -9.160156 8.453125 -8.234375 C 8.703125 -7.722656 8.828125 -6.988281 8.828125 -6.03125 L 8.828125 0 L 7.21875 0 L 7.21875 -5.9375 C 7.21875 -6.507812 7.132812 -6.972656 6.96875 -7.328125 C 6.6875 -7.910156 6.175781 -8.203125 5.4375 -8.203125 C 5.0625 -8.203125 4.753906 -8.164062 4.515625 -8.09375 C 4.085938 -7.957031 3.707031 -7.695312 3.375 -7.3125 C 3.113281 -7 2.941406 -6.675781 2.859375 -6.34375 C 2.785156 -6.019531 2.75 -5.550781 2.75 -4.9375 L 2.75 0 L 1.15625 0 Z M 4.875 -9.640625 Z M 4.875 -9.640625 "/>
</g>
<g id="glyph-2-3">
<path d="M 1.5625 -10.84375 C 1.582031 -11.5 1.695312 -11.976562 1.90625 -12.28125 C 2.269531 -12.820312 2.976562 -13.09375 4.03125 -13.09375 C 4.132812 -13.09375 4.238281 -13.085938 4.34375 -13.078125 C 4.445312 -13.078125 4.566406 -13.070312 4.703125 -13.0625 L 4.703125 -11.625 C 4.535156 -11.632812 4.414062 -11.640625 4.34375 -11.640625 C 4.269531 -11.640625 4.203125 -11.640625 4.140625 -11.640625 C 3.660156 -11.640625 3.375 -11.515625 3.28125 -11.265625 C 3.1875 -11.023438 3.140625 -10.394531 3.140625 -9.375 L 4.703125 -9.375 L 4.703125 -8.125 L 3.125 -8.125 L 3.125 0 L 1.5625 0 L 1.5625 -8.125 L 0.25 -8.125 L 0.25 -9.375 L 1.5625 -9.375 Z M 1.5625 -10.84375 "/>
</g>
<g id="glyph-2-4">
<path d="M 1.15625 -9.375 L 2.765625 -9.375 L 2.765625 0 L 1.15625 0 Z M 1.15625 -12.90625 L 2.765625 -12.90625 L 2.765625 -11.125 L 1.15625 -11.125 Z M 1.15625 -12.90625 "/>
</g>
<g id="glyph-2-5">
<path d="M 2.15625 -4.59375 C 2.15625 -3.582031 2.367188 -2.738281 2.796875 -2.0625 C 3.234375 -1.382812 3.921875 -1.046875 4.859375 -1.046875 C 5.585938 -1.046875 6.1875 -1.359375 6.65625 -1.984375 C 7.132812 -2.617188 7.375 -3.523438 7.375 -4.703125 C 7.375 -5.890625 7.128906 -6.769531 6.640625 -7.34375 C 6.160156 -7.914062 5.5625 -8.203125 4.84375 -8.203125 C 4.039062 -8.203125 3.390625 -7.894531 2.890625 -7.28125 C 2.398438 -6.675781 2.15625 -5.78125 2.15625 -4.59375 Z M 4.546875 -9.578125 C 5.265625 -9.578125 5.867188 -9.425781 6.359375 -9.125 C 6.640625 -8.945312 6.957031 -8.640625 7.3125 -8.203125 L 7.3125 -12.953125 L 8.828125 -12.953125 L 8.828125 0 L 7.40625 0 L 7.40625 -1.3125 C 7.039062 -0.726562 6.601562 -0.304688 6.09375 -0.046875 C 5.59375 0.203125 5.019531 0.328125 4.375 0.328125 C 3.320312 0.328125 2.410156 -0.109375 1.640625 -0.984375 C 0.878906 -1.867188 0.5 -3.046875 0.5 -4.515625 C 0.5 -5.878906 0.847656 -7.0625 1.546875 -8.0625 C 2.242188 -9.070312 3.242188 -9.578125 4.546875 -9.578125 Z M 4.546875 -9.578125 "/>
</g>
<g id="glyph-2-6">
<path d="M 5.078125 -9.625 C 5.742188 -9.625 6.390625 -9.46875 7.015625 -9.15625 C 7.648438 -8.84375 8.128906 -8.4375 8.453125 -7.9375 C 8.773438 -7.457031 8.988281 -6.90625 9.09375 -6.28125 C 9.1875 -5.84375 9.234375 -5.148438 9.234375 -4.203125 L 2.328125 -4.203125 C 2.359375 -3.242188 2.582031 -2.472656 3 -1.890625 C 3.425781 -1.316406 4.082031 -1.03125 4.96875 -1.03125 C 5.789062 -1.03125 6.445312 -1.304688 6.9375 -1.859375 C 7.21875 -2.171875 7.421875 -2.535156 7.546875 -2.953125 L 9.09375 -2.953125 C 9.050781 -2.609375 8.914062 -2.222656 8.6875 -1.796875 C 8.457031 -1.367188 8.195312 -1.019531 7.90625 -0.75 C 7.425781 -0.28125 6.832031 0.03125 6.125 0.1875 C 5.75 0.28125 5.316406 0.328125 4.828125 0.328125 C 3.660156 0.328125 2.671875 -0.09375 1.859375 -0.9375 C 1.046875 -1.789062 0.640625 -2.988281 0.640625 -4.53125 C 0.640625 -6.039062 1.046875 -7.265625 1.859375 -8.203125 C 2.679688 -9.148438 3.753906 -9.625 5.078125 -9.625 Z M 7.609375 -5.453125 C 7.535156 -6.140625 7.382812 -6.691406 7.15625 -7.109375 C 6.71875 -7.867188 5.992188 -8.25 4.984375 -8.25 C 4.253906 -8.25 3.644531 -7.984375 3.15625 -7.453125 C 2.664062 -6.929688 2.40625 -6.265625 2.375 -5.453125 Z M 4.9375 -9.640625 Z M 4.9375 -9.640625 "/>
</g>
<g id="glyph-2-7">
<path d="M 4.796875 -9.6875 C 5.847656 -9.6875 6.707031 -9.425781 7.375 -8.90625 C 8.039062 -8.394531 8.441406 -7.507812 8.578125 -6.25 L 7.046875 -6.25 C 6.953125 -6.832031 6.734375 -7.3125 6.390625 -7.6875 C 6.054688 -8.070312 5.523438 -8.265625 4.796875 -8.265625 C 3.785156 -8.265625 3.0625 -7.773438 2.625 -6.796875 C 2.34375 -6.160156 2.203125 -5.375 2.203125 -4.4375 C 2.203125 -3.488281 2.398438 -2.691406 2.796875 -2.046875 C 3.203125 -1.398438 3.832031 -1.078125 4.6875 -1.078125 C 5.34375 -1.078125 5.863281 -1.273438 6.25 -1.671875 C 6.632812 -2.078125 6.898438 -2.628906 7.046875 -3.328125 L 8.578125 -3.328125 C 8.398438 -2.078125 7.957031 -1.164062 7.25 -0.59375 C 6.550781 -0.0195312 5.65625 0.265625 4.5625 0.265625 C 3.332031 0.265625 2.347656 -0.179688 1.609375 -1.078125 C 0.878906 -1.972656 0.515625 -3.097656 0.515625 -4.453125 C 0.515625 -6.097656 0.914062 -7.378906 1.71875 -8.296875 C 2.519531 -9.222656 3.546875 -9.6875 4.796875 -9.6875 Z M 4.546875 -9.640625 Z M 4.546875 -9.640625 "/>
</g>
<g id="glyph-2-8">
<path d="M 1.203125 -9.40625 L 2.703125 -9.40625 L 2.703125 -7.78125 C 2.828125 -8.101562 3.128906 -8.488281 3.609375 -8.9375 C 4.085938 -9.394531 4.644531 -9.625 5.28125 -9.625 C 5.300781 -9.625 5.347656 -9.617188 5.421875 -9.609375 C 5.492188 -9.609375 5.613281 -9.597656 5.78125 -9.578125 L 5.78125 -7.90625 C 5.6875 -7.925781 5.597656 -7.9375 5.515625 -7.9375 C 5.441406 -7.945312 5.359375 -7.953125 5.265625 -7.953125 C 4.460938 -7.953125 3.847656 -7.695312 3.421875 -7.1875 C 2.992188 -6.675781 2.78125 -6.085938 2.78125 -5.421875 L 2.78125 0 L 1.203125 0 Z M 1.203125 -9.40625 "/>
</g>
<g id="glyph-2-9">
<path d="M 1.484375 -12.046875 L 3.078125 -12.046875 L 3.078125 -9.40625 L 4.578125 -9.40625 L 4.578125 -8.125 L 3.078125 -8.125 L 3.078125 -1.984375 C 3.078125 -1.648438 3.1875 -1.425781 3.40625 -1.3125 C 3.53125 -1.25 3.738281 -1.21875 4.03125 -1.21875 C 4.101562 -1.21875 4.179688 -1.21875 4.265625 -1.21875 C 4.359375 -1.226562 4.460938 -1.238281 4.578125 -1.25 L 4.578125 0 C 4.398438 0.0507812 4.210938 0.0859375 4.015625 0.109375 C 3.816406 0.140625 3.601562 0.15625 3.375 0.15625 C 2.632812 0.15625 2.132812 -0.03125 1.875 -0.40625 C 1.613281 -0.789062 1.484375 -1.285156 1.484375 -1.890625 L 1.484375 -8.125 L 0.203125 -8.125 L 0.203125 -9.40625 L 1.484375 -9.40625 Z M 1.484375 -12.046875 "/>
</g>
</g>
<clipPath id="clip-0">
<path clip-rule="nonzero" d="M 372.296875 8.964844 L 400.15625 8.964844 L 400.15625 154.035156 L 372.296875 154.035156 Z M 372.296875 8.964844 "/>
</clipPath>
<clipPath id="clip-1">
<path clip-rule="nonzero" d="M 372.296875 163.003906 L 400.15625 163.003906 L 400.15625 308.074219 L 372.296875 308.074219 Z M 372.296875 163.003906 "/>
</clipPath>
</defs>
<path fill-rule="nonzero" fill="rgb(97.254902%, 46.27451%, 42.745098%)" fill-opacity="1" d="M 21.402344 147.441406 L 60.332031 147.441406 L 60.332031 15.558594 L 21.402344 15.558594 Z M 21.402344 147.441406 "/>
<path fill-rule="nonzero" fill="rgb(97.254902%, 46.27451%, 42.745098%)" fill-opacity="1" d="M 107.910156 147.441406 L 146.839844 147.441406 L 146.839844 73.929688 L 107.910156 73.929688 Z M 107.910156 147.441406 "/>
<path fill-rule="nonzero" fill="rgb(97.254902%, 46.27451%, 42.745098%)" fill-opacity="1" d="M 194.417969 147.441406 L 233.347656 147.441406 L 233.347656 116.078125 L 194.417969 116.078125 Z M 194.417969 147.441406 "/>
<path fill-rule="nonzero" fill="rgb(97.254902%, 46.27451%, 42.745098%)" fill-opacity="1" d="M 280.925781 147.441406 L 319.855469 147.441406 L 319.855469 135.351562 L 280.925781 135.351562 Z M 280.925781 147.441406 "/>
<path fill-rule="nonzero" fill="rgb(0%, 74.901961%, 76.862745%)" fill-opacity="1" d="M 61.410156 147.441406 L 100.339844 147.441406 L 100.339844 91.929688 L 61.410156 91.929688 Z M 61.410156 147.441406 "/>
<path fill-rule="nonzero" fill="rgb(0%, 74.901961%, 76.862745%)" fill-opacity="1" d="M 147.917969 147.441406 L 186.847656 147.441406 L 186.847656 82.449219 L 147.917969 82.449219 Z M 147.917969 147.441406 "/>
<path fill-rule="nonzero" fill="rgb(0%, 74.901961%, 76.862745%)" fill-opacity="1" d="M 234.425781 147.441406 L 273.355469 147.441406 L 273.355469 91.480469 L 234.425781 91.480469 Z M 234.425781 147.441406 "/>
<path fill-rule="nonzero" fill="rgb(0%, 74.901961%, 76.862745%)" fill-opacity="1" d="M 320.933594 147.441406 L 359.863281 147.441406 L 359.863281 75.0625 L 320.933594 75.0625 Z M 320.933594 147.441406 "/>
<path fill-rule="nonzero" fill="rgb(97.254902%, 46.27451%, 42.745098%)" fill-opacity="1" d="M 21.402344 301.480469 L 60.332031 301.480469 L 60.332031 193.375 L 21.402344 193.375 Z M 21.402344 301.480469 "/>
<path fill-rule="nonzero" fill="rgb(97.254902%, 46.27451%, 42.745098%)" fill-opacity="1" d="M 107.910156 301.480469 L 146.839844 301.480469 L 146.839844 223.480469 L 107.910156 223.480469 Z M 107.910156 301.480469 "/>
<path fill-rule="nonzero" fill="rgb(97.254902%, 46.27451%, 42.745098%)" fill-opacity="1" d="M 194.417969 301.480469 L 233.347656 301.480469 L 233.347656 262.21875 L 194.417969 262.21875 Z M 194.417969 301.480469 "/>
<path fill-rule="nonzero" fill="rgb(97.254902%, 46.27451%, 42.745098%)" fill-opacity="1" d="M 280.925781 301.480469 L 319.855469 301.480469 L 319.855469 278.007812 L 280.925781 278.007812 Z M 280.925781 301.480469 "/>
<path fill-rule="nonzero" fill="rgb(0%, 74.901961%, 76.862745%)" fill-opacity="1" d="M 61.410156 301.480469 L 100.339844 301.480469 L 100.339844 222.191406 L 61.410156 222.191406 Z M 61.410156 301.480469 "/>
<path fill-rule="nonzero" fill="rgb(0%, 74.901961%, 76.862745%)" fill-opacity="1" d="M 147.917969 301.480469 L 186.847656 301.480469 L 186.847656 229.851562 L 147.917969 229.851562 Z M 147.917969 301.480469 "/>
<path fill-rule="nonzero" fill="rgb(0%, 74.901961%, 76.862745%)" fill-opacity="1" d="M 234.425781 301.480469 L 273.355469 301.480469 L 273.355469 247.515625 L 234.425781 247.515625 Z M 234.425781 301.480469 "/>
<path fill-rule="nonzero" fill="rgb(0%, 74.901961%, 76.862745%)" fill-opacity="1" d="M 320.933594 301.480469 L 359.863281 301.480469 L 359.863281 257.519531 L 320.933594 257.519531 Z M 320.933594 301.480469 "/>
<g clip-path="url(#clip-0)">
<path fill="none" stroke-width="3.491929" stroke-linecap="round" stroke-linejoin="round" stroke="rgb(0%, 0%, 0%)" stroke-opacity="1" stroke-miterlimit="10" d="M 372.296875 154.035156 L 400.15625 154.035156 L 400.15625 8.964844 L 372.296875 8.964844 Z M 372.296875 154.035156 "/>
</g>
<g fill="rgb(10.196078%, 10.196078%, 10.196078%)" fill-opacity="0.901961">
<use xlink:href="#glyph-0-0" x="381.0625" y="19.058594"/>
<use xlink:href="#glyph-0-1" x="381.0625" y="31.053906"/>
<use xlink:href="#glyph-0-2" x="381.0625" y="39.0625"/>
<use xlink:href="#glyph-0-3" x="381.0625" y="43.063281"/>
<use xlink:href="#glyph-0-4" x="381.0625" y="51.071875"/>
<use xlink:href="#glyph-0-5" x="381.0625" y="58.271875"/>
<use xlink:href="#glyph-0-6" x="381.0625" y="66.280469"/>
<use xlink:href="#glyph-0-7" x="381.0625" y="74.289063"/>
<use xlink:href="#glyph-0-8" x="381.0625" y="82.297656"/>
<use xlink:href="#glyph-0-2" x="381.0625" y="85.496875"/>
<use xlink:href="#glyph-0-8" x="381.0625" y="89.497656"/>
<use xlink:href="#glyph-0-5" x="381.0625" y="92.696875"/>
<use xlink:href="#glyph-0-7" x="381.0625" y="100.705469"/>
<use xlink:href="#glyph-0-9" x="381.0625" y="108.714063"/>
<use xlink:href="#glyph-0-10" x="381.0625" y="112.714844"/>
<use xlink:href="#glyph-0-11" x="381.0625" y="116.715625"/>
<use xlink:href="#glyph-0-8" x="381.0625" y="124.724219"/>
<use xlink:href="#glyph-0-6" x="381.0625" y="127.923438"/>
<use xlink:href="#glyph-0-11" x="381.0625" y="135.932031"/>
</g>
<g clip-path="url(#clip-1)">
<path fill="none" stroke-width="3.491929" stroke-linecap="round" stroke-linejoin="round" stroke="rgb(0%, 0%, 0%)" stroke-opacity="1" stroke-miterlimit="10" d="M 372.296875 308.074219 L 400.15625 308.074219 L 400.15625 163.003906 L 372.296875 163.003906 Z M 372.296875 308.074219 "/>
</g>
<g fill="rgb(10.196078%, 10.196078%, 10.196078%)" fill-opacity="0.901961">
<use xlink:href="#glyph-0-0" x="381.0625" y="175.90625"/>
<use xlink:href="#glyph-0-1" x="381.0625" y="187.901563"/>
<use xlink:href="#glyph-0-2" x="381.0625" y="195.910156"/>
<use xlink:href="#glyph-0-3" x="381.0625" y="199.910937"/>
<use xlink:href="#glyph-0-4" x="381.0625" y="207.919531"/>
<use xlink:href="#glyph-0-5" x="381.0625" y="215.119531"/>
<use xlink:href="#glyph-0-6" x="381.0625" y="223.128125"/>
<use xlink:href="#glyph-0-7" x="381.0625" y="231.136719"/>
<use xlink:href="#glyph-0-8" x="381.0625" y="239.145312"/>
<use xlink:href="#glyph-0-2" x="381.0625" y="242.344531"/>
<use xlink:href="#glyph-0-8" x="381.0625" y="246.345312"/>
<use xlink:href="#glyph-0-5" x="381.0625" y="249.544531"/>
<use xlink:href="#glyph-0-7" x="381.0625" y="257.553125"/>
<use xlink:href="#glyph-0-9" x="381.0625" y="265.561719"/>
<use xlink:href="#glyph-0-10" x="381.0625" y="269.5625"/>
<use xlink:href="#glyph-0-12" x="381.0625" y="273.563281"/>
<use xlink:href="#glyph-0-5" x="381.0625" y="276.7625"/>
<use xlink:href="#glyph-0-13" x="381.0625" y="284.771094"/>
</g>
<path fill="none" stroke-width="1.745965" stroke-linecap="square" stroke-linejoin="round" stroke="rgb(0%, 0%, 0%)" stroke-opacity="1" stroke-miterlimit="10" d="M 8.964844 308.074219 L 372.296875 308.074219 "/>
<path fill="none" stroke-width="1.745965" stroke-linecap="butt" stroke-linejoin="round" stroke="rgb(0%, 0%, 0%)" stroke-opacity="1" stroke-miterlimit="10" d="M 60.871094 312.558594 L 60.871094 308.074219 "/>
<path fill="none" stroke-width="1.745965" stroke-linecap="butt" stroke-linejoin="round" stroke="rgb(0%, 0%, 0%)" stroke-opacity="1" stroke-miterlimit="10" d="M 147.378906 312.558594 L 147.378906 308.074219 "/>
<path fill="none" stroke-width="1.745965" stroke-linecap="butt" stroke-linejoin="round" stroke="rgb(0%, 0%, 0%)" stroke-opacity="1" stroke-miterlimit="10" d="M 233.886719 312.558594 L 233.886719 308.074219 "/>
<path fill="none" stroke-width="1.745965" stroke-linecap="butt" stroke-linejoin="round" stroke="rgb(0%, 0%, 0%)" stroke-opacity="1" stroke-miterlimit="10" d="M 320.394531 312.558594 L 320.394531 308.074219 "/>
<g fill="rgb(0%, 0%, 0%)" fill-opacity="1">
<use xlink:href="#glyph-1-0" x="56.867188" y="326.472656"/>
</g>
<g fill="rgb(0%, 0%, 0%)" fill-opacity="1">
<use xlink:href="#glyph-1-1" x="143.375" y="326.472656"/>
</g>
<g fill="rgb(0%, 0%, 0%)" fill-opacity="1">
<use xlink:href="#glyph-1-2" x="229.882812" y="326.472656"/>
</g>
<g fill="rgb(0%, 0%, 0%)" fill-opacity="1">
<use xlink:href="#glyph-1-3" x="316.390625" y="326.472656"/>
</g>
<g fill="rgb(0%, 0%, 0%)" fill-opacity="1">
<use xlink:href="#glyph-2-0" x="145.101562" y="347.050781"/>
<use xlink:href="#glyph-2-1" x="158.100586" y="347.050781"/>
<use xlink:href="#glyph-2-2" x="168.111328" y="347.050781"/>
<use xlink:href="#glyph-2-3" x="178.12207" y="347.050781"/>
<use xlink:href="#glyph-2-4" x="183.123047" y="347.050781"/>
<use xlink:href="#glyph-2-5" x="187.12207" y="347.050781"/>
<use xlink:href="#glyph-2-6" x="197.132812" y="347.050781"/>
<use xlink:href="#glyph-2-2" x="207.143555" y="347.050781"/>
<use xlink:href="#glyph-2-7" x="217.154297" y="347.050781"/>
<use xlink:href="#glyph-2-6" x="226.154297" y="347.050781"/>
</g>
<g fill="rgb(0%, 0%, 0%)" fill-opacity="1">
<use xlink:href="#glyph-2-0" x="427.058594" y="143.210938"/>
<use xlink:href="#glyph-2-1" x="440.057617" y="143.210938"/>
<use xlink:href="#glyph-2-8" x="450.068359" y="143.210938"/>
<use xlink:href="#glyph-2-8" x="456.0625" y="143.210938"/>
<use xlink:href="#glyph-2-6" x="462.056641" y="143.210938"/>
<use xlink:href="#glyph-2-7" x="472.067383" y="143.210938"/>
<use xlink:href="#glyph-2-9" x="481.067383" y="143.210938"/>
</g>
<path fill-rule="nonzero" fill="rgb(97.254902%, 46.27451%, 42.745098%)" fill-opacity="1" d="M 428.21875 170.289062 L 443.179688 170.289062 L 443.179688 155.328125 L 428.21875 155.328125 Z M 428.21875 170.289062 "/>
<path fill-rule="nonzero" fill="rgb(0%, 74.901961%, 76.862745%)" fill-opacity="1" d="M 428.21875 187.570312 L 443.179688 187.570312 L 443.179688 172.609375 L 428.21875 172.609375 Z M 428.21875 187.570312 "/>
<g fill="rgb(0%, 0%, 0%)" fill-opacity="1">
<use xlink:href="#glyph-1-4" x="453.304688" y="167.972656"/>
</g>
<g fill="rgb(0%, 0%, 0%)" fill-opacity="1">
<use xlink:href="#glyph-1-0" x="453.304688" y="185.253906"/>
</g>
</svg>
