<?xml version="1.0" encoding="UTF-8"?>
<svg xmlns="http://www.w3.org/2000/svg" xmlns:xlink="http://www.w3.org/1999/xlink" width="432pt" height="144pt" viewBox="0 0 432 144">
<defs>
<g>
<g id="glyph-0-0">
<path d="M 8.484375 -6.265625 C 8.40625 -7.1875 8.203125 -7.78125 7.84375 -8.296875 C 7.203125 -9.1875 6.0625 -9.703125 4.75 -9.703125 C 2.203125 -9.703125 0.5625 -7.6875 0.5625 -4.546875 C 0.5625 -1.515625 2.171875 0.40625 4.734375 0.40625 C 6.984375 0.40625 8.40625 -0.9375 8.59375 -3.234375 L 7.078125 -3.234375 C 6.828125 -1.734375 6.046875 -0.96875 4.765625 -0.96875 C 3.109375 -0.96875 2.125 -2.328125 2.125 -4.546875 C 2.125 -6.90625 3.09375 -8.3125 4.734375 -8.3125 C 6 -8.3125 6.78125 -7.578125 6.96875 -6.265625 Z M 8.484375 -6.265625 "/>
</g>
<g id="glyph-0-1">
<path d="M 3.34375 -5.65625 L 7.671875 -5.65625 C 9.15625 -5.65625 9.828125 -4.9375 9.828125 -3.3125 L 9.8125 -2.140625 C 9.8125 -1.328125 9.953125 -0.546875 10.1875 0 L 12.21875 0 L 12.21875 -0.40625 C 11.59375 -0.84375 11.46875 -1.3125 11.4375 -3.0625 C 11.40625 -5.21875 11.0625 -5.875 9.640625 -6.484375 C 11.125 -7.21875 11.71875 -8.09375 11.71875 -9.609375 C 11.71875 -11.875 10.3125 -13.125 7.71875 -13.125 L 1.671875 -13.125 L 1.671875 0 L 3.34375 0 Z M 3.34375 -7.125 L 3.34375 -11.640625 L 7.390625 -11.640625 C 8.328125 -11.640625 8.875 -11.5 9.28125 -11.140625 C 9.734375 -10.765625 9.96875 -10.171875 9.96875 -9.390625 C 9.96875 -7.828125 9.1875 -7.125 7.390625 -7.125 Z M 3.34375 -7.125 "/>
</g>
<g id="glyph-0-2">
<path d="M 9.609375 -6.359375 L 0.90625 -6.359375 L 0.90625 -5.09375 L 9.609375 -5.09375 Z M 9.609375 -3.265625 L 0.90625 -3.265625 L 0.90625 -2 L 9.609375 -2 Z M 9.609375 -3.265625 "/>
</g>
<g id="glyph-0-3">
<path d="M 4.953125 -13.015625 C 3.765625 -13.015625 2.6875 -12.46875 2.015625 -11.59375 C 1.1875 -10.4375 0.78125 -8.71875 0.78125 -6.296875 C 0.78125 -1.90625 2.21875 0.40625 4.953125 0.40625 C 7.65625 0.40625 9.125 -1.90625 9.125 -6.1875 C 9.125 -8.71875 8.734375 -10.40625 7.890625 -11.59375 C 7.21875 -12.484375 6.15625 -13.015625 4.953125 -13.015625 Z M 4.953125 -11.609375 C 6.65625 -11.609375 7.5 -9.859375 7.5 -6.34375 C 7.5 -2.625 6.671875 -0.90625 4.90625 -0.90625 C 3.234375 -0.90625 2.390625 -2.703125 2.390625 -6.28125 C 2.390625 -9.859375 3.234375 -11.609375 4.953125 -11.609375 Z M 4.953125 -11.609375 "/>
</g>
<g id="glyph-0-4">
<path d="M 4.65625 -9.265625 L 4.65625 0 L 6.25 0 L 6.25 -13.015625 L 5.203125 -13.015625 C 4.640625 -11.015625 4.28125 -10.75 1.84375 -10.421875 L 1.84375 -9.265625 Z M 4.65625 -9.265625 "/>
</g>
<g id="glyph-0-5">
<path d="M 6.375 -11.640625 L 10.671875 -11.640625 L 10.671875 -13.125 L 0.375 -13.125 L 0.375 -11.640625 L 4.703125 -11.640625 L 4.703125 0 L 6.375 0 Z M 6.375 -11.640625 "/>
</g>
<g id="glyph-0-6">
<path d="M 6.984375 -9.4375 L 4.375 -2.09375 L 1.96875 -9.4375 L 0.359375 -9.4375 L 3.546875 0.03125 L 2.96875 1.53125 C 2.71875 2.203125 2.390625 2.453125 1.765625 2.453125 C 1.515625 2.453125 1.296875 2.40625 0.96875 2.34375 L 0.96875 3.6875 C 1.28125 3.859375 1.578125 3.921875 1.984375 3.921875 C 2.46875 3.921875 2.984375 3.765625 3.390625 3.46875 C 3.859375 3.125 4.125 2.734375 4.40625 1.984375 L 8.609375 -9.4375 Z M 6.984375 -9.4375 "/>
</g>
<g id="glyph-0-7">
<path d="M 0.96875 3.921875 L 2.484375 3.921875 L 2.484375 -0.984375 C 3.28125 -0.015625 4.15625 0.40625 5.375 0.40625 C 7.828125 0.40625 9.40625 -1.546875 9.40625 -4.546875 C 9.40625 -7.71875 7.859375 -9.703125 5.359375 -9.703125 C 4.09375 -9.703125 3.0625 -9.125 2.359375 -8.015625 L 2.359375 -9.4375 L 0.96875 -9.4375 Z M 5.109375 -8.296875 C 6.765625 -8.296875 7.84375 -6.84375 7.84375 -4.59375 C 7.84375 -2.453125 6.75 -0.984375 5.109375 -0.984375 C 3.515625 -0.984375 2.484375 -2.4375 2.484375 -4.640625 C 2.484375 -6.859375 3.515625 -8.296875 5.109375 -8.296875 Z M 5.109375 -8.296875 "/>
</g>
<g id="glyph-0-8">
<path d="M 9.234375 -4.21875 C 9.234375 -5.65625 9.125 -6.515625 8.859375 -7.21875 C 8.25 -8.765625 6.796875 -9.703125 5.046875 -9.703125 C 2.40625 -9.703125 0.71875 -7.703125 0.71875 -4.59375 C 0.71875 -1.46875 2.34375 0.40625 5 0.40625 C 7.15625 0.40625 8.65625 -0.8125 9.03125 -2.859375 L 7.53125 -2.859375 C 7.109375 -1.625 6.265625 -0.96875 5.0625 -0.96875 C 4.109375 -0.96875 3.296875 -1.40625 2.796875 -2.203125 C 2.4375 -2.734375 2.296875 -3.28125 2.28125 -4.21875 Z M 2.328125 -5.4375 C 2.453125 -7.1875 3.515625 -8.3125 5.015625 -8.3125 C 6.546875 -8.3125 7.609375 -7.125 7.609375 -5.4375 Z M 2.328125 -5.4375 "/>
</g>
<g id="glyph-0-9">
</g>
<g id="glyph-0-10">
<path d="M 3.296875 -5.96875 L 10.4375 -5.96875 L 10.4375 -7.453125 L 3.296875 -7.453125 L 3.296875 -11.640625 L 10.703125 -11.640625 L 10.703125 -13.125 L 1.625 -13.125 L 1.625 0 L 11.03125 0 L 11.03125 -1.46875 L 3.296875 -1.46875 Z M 3.296875 -5.96875 "/>
</g>
<g id="glyph-0-11">
<path d="M 5.125 0 L 8.75 -9.4375 L 7.0625 -9.4375 L 4.390625 -1.78125 L 1.875 -9.4375 L 0.1875 -9.4375 L 3.484375 0 Z M 5.125 0 "/>
</g>
<g id="glyph-0-12">
<path d="M 2.703125 -9.4375 L 1.203125 -9.4375 L 1.203125 0 L 2.703125 0 Z M 2.703125 -13.125 L 1.1875 -13.125 L 1.1875 -11.234375 L 2.703125 -11.234375 Z M 2.703125 -13.125 "/>
</g>
<g id="glyph-0-13">
<path d="M 8.90625 -13.125 L 7.421875 -13.125 L 7.421875 -8.25 C 6.78125 -9.203125 5.78125 -9.703125 4.515625 -9.703125 C 2.0625 -9.703125 0.46875 -7.734375 0.46875 -4.734375 C 0.46875 -1.546875 2.015625 0.40625 4.578125 0.40625 C 5.875 0.40625 6.765625 -0.078125 7.578125 -1.234375 L 7.578125 0 L 8.90625 0 Z M 4.765625 -8.296875 C 6.390625 -8.296875 7.421875 -6.875 7.421875 -4.609375 C 7.421875 -2.4375 6.375 -0.984375 4.78125 -0.984375 C 3.125 -0.984375 2.03125 -2.453125 2.03125 -4.640625 C 2.03125 -6.84375 3.125 -8.296875 4.765625 -8.296875 Z M 4.765625 -8.296875 "/>
</g>
<g id="glyph-0-14">
<path d="M 1.265625 -9.4375 L 1.265625 0 L 2.765625 0 L 2.765625 -5.203125 C 2.765625 -7.125 3.78125 -8.390625 5.328125 -8.390625 C 6.515625 -8.390625 7.265625 -7.671875 7.265625 -6.53125 L 7.265625 0 L 8.765625 0 L 8.765625 -7.125 C 8.765625 -8.6875 7.59375 -9.703125 5.78125 -9.703125 C 4.375 -9.703125 3.46875 -9.15625 2.640625 -7.84375 L 2.640625 -9.4375 Z M 1.265625 -9.4375 "/>
</g>
<g id="glyph-0-15">
<path d="M 10.734375 -9.265625 C 10.734375 -10.171875 10.671875 -10.421875 10.390625 -11.03125 C 9.671875 -12.546875 8.140625 -13.34375 5.921875 -13.34375 C 3.046875 -13.34375 1.265625 -11.859375 1.265625 -9.484375 C 1.265625 -7.890625 2.109375 -6.875 3.828125 -6.421875 L 7.09375 -5.5625 C 8.765625 -5.125 9.5 -4.46875 9.5 -3.4375 C 9.5 -2.734375 9.125 -2.015625 8.5625 -1.625 C 8.046875 -1.234375 7.21875 -1.0625 6.15625 -1.0625 C 4.71875 -1.0625 3.765625 -1.40625 3.125 -2.15625 C 2.640625 -2.734375 2.4375 -3.359375 2.453125 -4.171875 L 0.859375 -4.171875 C 0.875 -2.96875 1.109375 -2.171875 1.640625 -1.453125 C 2.53125 -0.21875 4.046875 0.40625 6.046875 0.40625 C 7.609375 0.40625 8.890625 0.046875 9.734375 -0.59375 C 10.625 -1.296875 11.171875 -2.46875 11.171875 -3.59375 C 11.171875 -5.21875 10.171875 -6.40625 8.390625 -6.890625 L 5.09375 -7.78125 C 3.515625 -8.203125 2.9375 -8.71875 2.9375 -9.71875 C 2.9375 -11.046875 4.109375 -11.9375 5.875 -11.9375 C 7.953125 -11.9375 9.125 -11 9.140625 -9.265625 Z M 10.734375 -9.265625 "/>
</g>
<g id="glyph-0-16">
<path d="M 4.578125 -9.4375 L 3.03125 -9.4375 L 3.03125 -12.03125 L 1.53125 -12.03125 L 1.53125 -9.4375 L 0.25 -9.4375 L 0.25 -8.203125 L 1.53125 -8.203125 L 1.53125 -1.078125 C 1.53125 -0.109375 2.171875 0.40625 3.34375 0.40625 C 3.75 0.40625 4.0625 0.375 4.578125 0.28125 L 4.578125 -0.96875 C 4.359375 -0.921875 4.15625 -0.90625 3.859375 -0.90625 C 3.203125 -0.90625 3.03125 -1.078125 3.03125 -1.75 L 3.03125 -8.203125 L 4.578125 -8.203125 Z M 4.578125 -9.4375 "/>
</g>
<g id="glyph-0-17">
<path d="M 1.265625 -9.4375 L 1.265625 0 L 2.765625 0 L 2.765625 -5.921875 C 2.765625 -7.296875 3.765625 -8.390625 4.984375 -8.390625 C 6.109375 -8.390625 6.734375 -7.703125 6.734375 -6.5 L 6.734375 0 L 8.25 0 L 8.25 -5.921875 C 8.25 -7.296875 9.234375 -8.390625 10.453125 -8.390625 C 11.5625 -8.390625 12.203125 -7.6875 12.203125 -6.5 L 12.203125 0 L 13.71875 0 L 13.71875 -7.078125 C 13.71875 -8.765625 12.75 -9.703125 10.984375 -9.703125 C 9.71875 -9.703125 8.96875 -9.328125 8.078125 -8.265625 C 7.53125 -9.265625 6.765625 -9.703125 5.546875 -9.703125 C 4.28125 -9.703125 3.4375 -9.234375 2.640625 -8.09375 L 2.640625 -9.4375 Z M 1.265625 -9.4375 "/>
</g>
<g id="glyph-0-18">
<path d="M 8.671875 0 L 8.671875 -9.4375 L 7.1875 -9.4375 L 7.1875 -4.09375 C 7.1875 -2.15625 6.171875 -0.90625 4.609375 -0.90625 C 3.421875 -0.90625 2.65625 -1.625 2.65625 -2.75 L 2.65625 -9.4375 L 1.171875 -9.4375 L 1.171875 -2.15625 C 1.171875 -0.59375 2.34375 0.40625 4.171875 0.40625 C 5.5625 0.40625 6.4375 -0.078125 7.328125 -1.3125 L 7.328125 0 Z M 8.671875 0 "/>
</g>
<g id="glyph-0-19">
<path d="M 2.734375 -13.125 L 1.21875 -13.125 L 1.21875 0 L 2.734375 0 Z M 2.734375 -13.125 "/>
</g>
<g id="glyph-0-20">
<path d="M 7.890625 -6.796875 C 7.859375 -8.65625 6.640625 -9.703125 4.46875 -9.703125 C 2.265625 -9.703125 0.84375 -8.5625 0.84375 -6.828125 C 0.84375 -5.34375 1.609375 -4.640625 3.828125 -4.109375 L 5.234375 -3.765625 C 6.28125 -3.515625 6.703125 -3.125 6.703125 -2.46875 C 6.703125 -1.5625 5.8125 -0.96875 4.5 -0.96875 C 3.6875 -0.96875 3 -1.203125 2.625 -1.609375 C 2.390625 -1.875 2.28125 -2.140625 2.203125 -2.8125 L 0.609375 -2.8125 C 0.6875 -0.625 1.90625 0.40625 4.375 0.40625 C 6.75 0.40625 8.265625 -0.75 8.265625 -2.578125 C 8.265625 -3.984375 7.46875 -4.75 5.59375 -5.203125 L 4.15625 -5.546875 C 2.9375 -5.828125 2.40625 -6.234375 2.40625 -6.890625 C 2.40625 -7.78125 3.1875 -8.3125 4.40625 -8.3125 C 5.609375 -8.3125 6.265625 -7.796875 6.296875 -6.796875 Z M 7.890625 -6.796875 "/>
</g>
<g id="glyph-1-0">
<path d="M 4.09375 -4.5 L 0.65625 -4.5 L 0.65625 -3.453125 L 4.09375 -3.453125 Z M 4.09375 -4.5 "/>
</g>
<g id="glyph-1-1">
<path d="M 7.296875 -1.25 L 1.921875 -1.25 C 2.046875 -2.125 2.5 -2.671875 3.765625 -3.421875 L 5.203125 -4.234375 C 6.625 -5.03125 7.359375 -6.09375 7.359375 -7.375 C 7.359375 -8.234375 7.015625 -9.046875 6.40625 -9.609375 C 5.8125 -10.15625 5.0625 -10.421875 4.09375 -10.421875 C 2.796875 -10.421875 1.828125 -9.953125 1.265625 -9.0625 C 0.90625 -8.515625 0.75 -7.859375 0.71875 -6.8125 L 1.984375 -6.8125 C 2.03125 -7.515625 2.125 -7.9375 2.296875 -8.28125 C 2.625 -8.921875 3.28125 -9.3125 4.046875 -9.3125 C 5.203125 -9.3125 6.0625 -8.46875 6.0625 -7.34375 C 6.0625 -6.515625 5.59375 -5.796875 4.6875 -5.265625 L 3.359375 -4.5 C 1.21875 -3.265625 0.609375 -2.296875 0.484375 -0.015625 L 7.296875 -0.015625 Z M 7.296875 -1.25 "/>
</g>
<g id="glyph-1-2">
<path d="M 3.96875 -10.421875 C 3.015625 -10.421875 2.140625 -9.984375 1.609375 -9.28125 C 0.953125 -8.359375 0.625 -6.96875 0.625 -5.046875 C 0.625 -1.53125 1.765625 0.328125 3.96875 0.328125 C 6.125 0.328125 7.296875 -1.53125 7.296875 -4.953125 C 7.296875 -6.96875 6.984375 -8.328125 6.3125 -9.28125 C 5.78125 -10 4.921875 -10.421875 3.96875 -10.421875 Z M 3.96875 -9.296875 C 5.328125 -9.296875 6 -7.890625 6 -5.078125 C 6 -2.109375 5.34375 -0.71875 3.9375 -0.71875 C 2.59375 -0.71875 1.921875 -2.15625 1.921875 -5.03125 C 1.921875 -7.890625 2.59375 -9.296875 3.96875 -9.296875 Z M 3.96875 -9.296875 "/>
</g>
<g id="glyph-1-3">
<path d="M 3.734375 -7.421875 L 3.734375 0 L 5 0 L 5 -10.421875 L 4.15625 -10.421875 C 3.71875 -8.8125 3.421875 -8.59375 1.46875 -8.34375 L 1.46875 -7.421875 Z M 3.734375 -7.421875 "/>
</g>
</g>
<clipPath id="clip-0">
<path clip-rule="nonzero" d="M 8.964844 25 L 318.167969 25 L 318.167969 89.480469 L 8.964844 89.480469 Z M 8.964844 25 "/>
</clipPath>
<clipPath id="clip-1">
<path clip-rule="nonzero" d="M 193 8.964844 L 196 8.964844 L 196 89.480469 L 193 89.480469 Z M 193 8.964844 "/>
</clipPath>
</defs>
<g clip-path="url(#clip-0)">
<path fill-rule="nonzero" fill="rgb(90.980392%, 70.196078%, 19.607843%)" fill-opacity="0.329412" d="M 8.964844 89.152344 L 9.585938 89.140625 L 10.203125 89.132812 L 10.820312 89.121094 L 11.441406 89.109375 L 12.058594 89.097656 L 12.675781 89.082031 L 13.296875 89.070312 L 13.914062 89.058594 L 14.53125 89.042969 L 15.152344 89.03125 L 17.003906 88.984375 L 17.625 88.96875 L 18.859375 88.9375 L 19.480469 88.917969 L 20.097656 88.902344 L 20.714844 88.882812 L 21.335938 88.867188 L 22.570312 88.828125 L 23.191406 88.808594 L 23.808594 88.785156 L 24.425781 88.765625 L 25.042969 88.742188 L 25.664062 88.722656 L 26.898438 88.675781 L 27.519531 88.648438 L 28.753906 88.601562 L 29.375 88.574219 L 30.609375 88.519531 L 31.230469 88.492188 L 31.847656 88.460938 L 32.464844 88.433594 L 33.085938 88.402344 L 34.320312 88.339844 L 34.9375 88.304688 L 35.558594 88.273438 L 36.792969 88.203125 L 37.414062 88.167969 L 38.648438 88.089844 L 39.269531 88.050781 L 40.503906 87.972656 L 41.125 87.929688 L 42.359375 87.84375 L 42.980469 87.796875 L 43.597656 87.753906 L 44.214844 87.707031 L 44.832031 87.65625 L 45.453125 87.609375 L 46.070312 87.558594 L 46.6875 87.503906 L 47.308594 87.453125 L 48.542969 87.34375 L 49.164062 87.289062 L 50.398438 87.171875 L 51.019531 87.109375 L 51.636719 87.050781 L 52.253906 86.984375 L 52.871094 86.921875 L 53.492188 86.855469 L 54.109375 86.789062 L 54.726562 86.71875 L 55.347656 86.652344 L 55.964844 86.578125 L 56.582031 86.507812 L 57.203125 86.429688 L 57.820312 86.355469 L 58.4375 86.277344 L 59.058594 86.199219 L 60.292969 86.035156 L 60.914062 85.949219 L 62.148438 85.777344 L 62.765625 85.6875 L 63.386719 85.597656 L 64.621094 85.410156 L 65.242188 85.3125 L 65.859375 85.214844 L 66.476562 85.113281 L 67.097656 85.011719 L 68.332031 84.800781 L 68.953125 84.691406 L 69.570312 84.582031 L 70.1875 84.46875 L 70.808594 84.355469 L 72.042969 84.121094 L 72.660156 84 L 73.28125 83.878906 L 73.898438 83.753906 L 74.515625 83.625 L 75.136719 83.496094 L 76.371094 83.230469 L 76.992188 83.09375 L 77.609375 82.957031 L 78.226562 82.816406 L 78.847656 82.671875 L 79.464844 82.527344 L 80.082031 82.378906 L 80.703125 82.230469 L 81.320312 82.074219 L 81.9375 81.921875 L 82.554688 81.761719 L 83.175781 81.601562 L 83.792969 81.441406 L 84.410156 81.273438 L 85.03125 81.105469 L 85.648438 80.9375 L 86.265625 80.761719 L 86.886719 80.589844 L 88.121094 80.230469 L 88.742188 80.046875 L 89.359375 79.859375 L 90.59375 79.476562 L 91.214844 79.285156 L 92.449219 78.886719 L 93.070312 78.683594 L 93.6875 78.480469 L 94.304688 78.269531 L 94.925781 78.058594 L 96.160156 77.628906 L 96.78125 77.410156 L 97.398438 77.1875 L 98.015625 76.960938 L 98.636719 76.734375 L 99.253906 76.503906 L 99.871094 76.269531 L 100.488281 76.03125 L 101.109375 75.792969 L 101.726562 75.550781 L 102.34375 75.304688 L 102.964844 75.058594 L 104.199219 74.550781 L 104.820312 74.296875 L 106.054688 73.773438 L 106.675781 73.507812 L 107.292969 73.242188 L 107.910156 72.96875 L 108.53125 72.695312 L 109.765625 72.140625 L 110.382812 71.855469 L 111.003906 71.570312 L 111.621094 71.285156 L 112.238281 70.992188 L 112.859375 70.699219 L 114.09375 70.105469 L 114.714844 69.804688 L 115.332031 69.5 L 115.949219 69.191406 L 116.570312 68.882812 L 117.1875 68.570312 L 118.421875 67.9375 L 119.042969 67.617188 L 120.277344 66.96875 L 120.898438 66.640625 L 121.515625 66.3125 L 122.132812 65.980469 L 122.753906 65.644531 L 123.988281 64.964844 L 124.609375 64.625 L 125.226562 64.28125 L 125.84375 63.933594 L 126.464844 63.585938 L 127.699219 62.882812 L 128.316406 62.527344 L 128.9375 62.171875 L 130.171875 61.453125 L 130.792969 61.089844 L 131.410156 60.726562 L 132.027344 60.359375 L 132.648438 59.992188 L 133.882812 59.25 L 134.503906 58.878906 L 135.738281 58.128906 L 136.359375 57.75 L 136.976562 57.375 L 137.59375 56.992188 L 138.210938 56.613281 L 138.832031 56.230469 L 140.066406 55.464844 L 140.6875 55.078125 L 141.304688 54.695312 L 141.921875 54.308594 L 142.542969 53.921875 L 143.160156 53.53125 L 143.777344 53.144531 L 144.398438 52.753906 L 145.015625 52.363281 L 145.632812 51.976562 L 146.25 51.585938 L 146.871094 51.195312 L 148.105469 50.414062 L 148.726562 50.023438 L 149.960938 49.242188 L 150.582031 48.851562 L 151.816406 48.070312 L 152.4375 47.683594 L 153.054688 47.292969 L 153.671875 46.90625 L 154.292969 46.519531 L 154.910156 46.132812 L 155.527344 45.75 L 156.144531 45.363281 L 156.765625 44.980469 L 157.382812 44.597656 L 158 44.21875 L 158.621094 43.839844 L 159.855469 43.082031 L 160.476562 42.707031 L 161.710938 41.964844 L 162.332031 41.59375 L 163.566406 40.859375 L 164.1875 40.496094 L 166.039062 39.417969 L 166.660156 39.066406 L 167.894531 38.363281 L 168.515625 38.019531 L 169.132812 37.675781 L 169.75 37.335938 L 170.371094 36.996094 L 171.605469 36.332031 L 172.226562 36.003906 L 172.84375 35.679688 L 173.460938 35.359375 L 174.082031 35.042969 L 174.699219 34.726562 L 175.933594 34.109375 L 176.554688 33.808594 L 177.171875 33.507812 L 177.789062 33.214844 L 178.410156 32.925781 L 179.027344 32.636719 L 179.644531 32.355469 L 180.265625 32.078125 L 180.882812 31.804688 L 181.5 31.535156 L 182.121094 31.273438 L 182.738281 31.011719 L 183.355469 30.757812 L 183.972656 30.507812 L 184.59375 30.261719 L 185.210938 30.019531 L 185.828125 29.785156 L 186.449219 29.554688 L 187.683594 29.109375 L 188.304688 28.894531 L 188.921875 28.6875 L 189.539062 28.484375 L 190.160156 28.285156 L 190.777344 28.089844 L 191.394531 27.902344 L 192.015625 27.722656 L 192.632812 27.546875 L 193.25 27.375 L 193.867188 27.210938 L 194.488281 27.050781 L 195.105469 26.898438 L 195.722656 26.75 L 196.34375 26.609375 L 196.960938 26.472656 L 197.578125 26.34375 L 198.199219 26.222656 L 198.816406 26.105469 L 199.433594 25.992188 L 200.054688 25.886719 L 200.671875 25.789062 L 201.289062 25.699219 L 201.910156 25.609375 L 202.527344 25.53125 L 203.144531 25.457031 L 203.761719 25.390625 L 204.382812 25.328125 L 205 25.273438 L 205.617188 25.226562 L 206.238281 25.183594 L 206.855469 25.148438 L 207.472656 25.121094 L 208.09375 25.097656 L 208.710938 25.082031 L 209.328125 25.074219 L 209.949219 25.070312 L 210.566406 25.074219 L 211.183594 25.082031 L 211.800781 25.097656 L 212.421875 25.121094 L 213.039062 25.148438 L 213.65625 25.183594 L 214.277344 25.226562 L 214.894531 25.273438 L 215.511719 25.328125 L 216.132812 25.390625 L 216.75 25.457031 L 217.367188 25.53125 L 217.988281 25.609375 L 219.222656 25.789062 L 219.84375 25.886719 L 220.460938 25.992188 L 221.078125 26.105469 L 221.695312 26.222656 L 222.316406 26.34375 L 222.933594 26.472656 L 223.550781 26.609375 L 224.171875 26.75 L 224.789062 26.898438 L 225.40625 27.050781 L 226.027344 27.210938 L 226.644531 27.375 L 227.261719 27.546875 L 227.882812 27.722656 L 228.5 27.902344 L 229.117188 28.089844 L 229.738281 28.285156 L 230.355469 28.484375 L 230.972656 28.6875 L 231.589844 28.894531 L 232.210938 29.109375 L 233.445312 29.554688 L 234.066406 29.785156 L 234.683594 30.019531 L 235.300781 30.261719 L 235.921875 30.507812 L 236.539062 30.757812 L 237.15625 31.011719 L 237.777344 31.273438 L 238.394531 31.535156 L 239.011719 31.804688 L 239.632812 32.078125 L 240.25 32.355469 L 240.867188 32.636719 L 241.484375 32.925781 L 242.105469 33.214844 L 242.722656 33.507812 L 243.339844 33.808594 L 243.960938 34.109375 L 245.195312 34.726562 L 245.816406 35.042969 L 246.433594 35.359375 L 247.050781 35.679688 L 247.671875 36.003906 L 248.289062 36.332031 L 249.523438 36.996094 L 250.144531 37.335938 L 250.761719 37.675781 L 251.378906 38.019531 L 252 38.363281 L 253.234375 39.066406 L 253.855469 39.417969 L 255.089844 40.136719 L 255.710938 40.496094 L 256.328125 40.859375 L 256.945312 41.226562 L 257.566406 41.59375 L 259.417969 42.707031 L 260.039062 43.082031 L 261.273438 43.839844 L 261.894531 44.21875 L 262.511719 44.597656 L 263.128906 44.980469 L 263.75 45.363281 L 264.367188 45.75 L 264.984375 46.132812 L 265.605469 46.519531 L 266.839844 47.292969 L 267.460938 47.683594 L 268.078125 48.070312 L 269.3125 48.851562 L 269.933594 49.242188 L 271.167969 50.023438 L 271.789062 50.414062 L 273.023438 51.195312 L 273.644531 51.585938 L 274.261719 51.976562 L 274.878906 52.363281 L 275.5 52.753906 L 276.117188 53.144531 L 276.734375 53.53125 L 277.351562 53.921875 L 277.972656 54.308594 L 278.589844 54.695312 L 279.207031 55.078125 L 279.828125 55.464844 L 281.0625 56.230469 L 281.683594 56.613281 L 282.300781 56.992188 L 282.917969 57.375 L 283.539062 57.75 L 284.15625 58.128906 L 284.773438 58.503906 L 285.394531 58.878906 L 287.246094 59.992188 L 287.867188 60.359375 L 288.484375 60.726562 L 289.101562 61.089844 L 289.722656 61.453125 L 290.957031 62.171875 L 291.578125 62.527344 L 292.195312 62.882812 L 292.8125 63.234375 L 293.433594 63.585938 L 294.667969 64.28125 L 295.289062 64.625 L 297.140625 65.644531 L 297.761719 65.980469 L 298.378906 66.3125 L 298.996094 66.640625 L 299.617188 66.96875 L 300.851562 67.617188 L 301.472656 67.9375 L 302.707031 68.570312 L 303.328125 68.882812 L 304.5625 69.5 L 305.183594 69.804688 L 305.800781 70.105469 L 307.035156 70.699219 L 307.65625 70.992188 L 308.273438 71.285156 L 308.890625 71.570312 L 309.511719 71.855469 L 310.128906 72.140625 L 310.746094 72.417969 L 311.367188 72.695312 L 312.601562 73.242188 L 313.222656 73.507812 L 313.839844 73.773438 L 315.074219 74.296875 L 315.695312 74.550781 L 316.929688 75.058594 L 317.550781 75.304688 L 318.167969 75.550781 L 318.167969 89.480469 L 8.964844 89.480469 Z M 8.964844 89.152344 "/>
<path fill-rule="nonzero" fill="rgb(75.686275%, 9.411765%, 0%)" fill-opacity="0.329412" d="M 8.964844 75.550781 L 9.585938 75.304688 L 10.203125 75.058594 L 10.820312 74.804688 L 11.441406 74.550781 L 12.058594 74.296875 L 12.675781 74.035156 L 13.296875 73.773438 L 14.53125 73.242188 L 15.152344 72.96875 L 15.769531 72.695312 L 17.003906 72.140625 L 17.625 71.855469 L 18.859375 71.285156 L 19.480469 70.992188 L 20.097656 70.699219 L 20.714844 70.402344 L 21.335938 70.105469 L 21.953125 69.804688 L 22.570312 69.5 L 23.191406 69.191406 L 23.808594 68.882812 L 24.425781 68.570312 L 25.042969 68.253906 L 25.664062 67.9375 L 26.28125 67.617188 L 26.898438 67.292969 L 27.519531 66.96875 L 28.753906 66.3125 L 29.375 65.980469 L 29.992188 65.644531 L 30.609375 65.304688 L 31.230469 64.964844 L 31.847656 64.625 L 32.464844 64.28125 L 33.085938 63.933594 L 33.703125 63.585938 L 34.9375 62.882812 L 35.558594 62.527344 L 36.175781 62.171875 L 36.792969 61.8125 L 37.414062 61.453125 L 38.648438 60.726562 L 39.269531 60.359375 L 39.886719 59.992188 L 40.503906 59.621094 L 41.125 59.25 L 41.742188 58.878906 L 42.359375 58.503906 L 42.980469 58.128906 L 43.597656 57.75 L 44.214844 57.375 L 44.832031 56.992188 L 45.453125 56.613281 L 46.6875 55.847656 L 47.308594 55.464844 L 47.925781 55.078125 L 48.542969 54.695312 L 49.164062 54.308594 L 49.78125 53.921875 L 50.398438 53.53125 L 51.019531 53.144531 L 52.253906 52.363281 L 52.871094 51.976562 L 53.492188 51.585938 L 54.726562 50.804688 L 55.347656 50.414062 L 56.582031 49.632812 L 57.203125 49.242188 L 58.4375 48.460938 L 59.058594 48.070312 L 59.675781 47.683594 L 60.292969 47.292969 L 60.914062 46.90625 L 62.148438 46.132812 L 62.765625 45.75 L 63.386719 45.363281 L 64.621094 44.597656 L 65.242188 44.21875 L 66.476562 43.460938 L 67.097656 43.082031 L 67.714844 42.707031 L 68.332031 42.335938 L 68.953125 41.964844 L 69.570312 41.59375 L 70.1875 41.226562 L 70.808594 40.859375 L 71.425781 40.496094 L 72.660156 39.777344 L 73.28125 39.417969 L 74.515625 38.714844 L 75.136719 38.363281 L 76.371094 37.675781 L 76.992188 37.335938 L 77.609375 36.996094 L 78.226562 36.664062 L 78.847656 36.332031 L 79.464844 36.003906 L 80.082031 35.679688 L 80.703125 35.359375 L 81.9375 34.726562 L 82.554688 34.417969 L 83.175781 34.109375 L 84.410156 33.507812 L 85.03125 33.214844 L 86.265625 32.636719 L 86.886719 32.355469 L 87.503906 32.078125 L 88.121094 31.804688 L 88.742188 31.535156 L 89.976562 31.011719 L 90.59375 30.757812 L 91.214844 30.507812 L 91.832031 30.261719 L 92.449219 30.019531 L 93.070312 29.785156 L 93.6875 29.554688 L 94.304688 29.332031 L 94.925781 29.109375 L 95.542969 28.894531 L 96.160156 28.6875 L 96.78125 28.484375 L 97.398438 28.285156 L 98.015625 28.089844 L 98.636719 27.902344 L 99.253906 27.722656 L 99.871094 27.546875 L 100.488281 27.375 L 101.109375 27.210938 L 101.726562 27.050781 L 102.34375 26.898438 L 102.964844 26.75 L 103.582031 26.609375 L 104.199219 26.472656 L 104.820312 26.34375 L 105.4375 26.222656 L 106.054688 26.105469 L 106.675781 25.992188 L 107.292969 25.886719 L 107.910156 25.789062 L 108.53125 25.699219 L 109.148438 25.609375 L 109.765625 25.53125 L 110.382812 25.457031 L 111.003906 25.390625 L 111.621094 25.328125 L 112.238281 25.273438 L 112.859375 25.226562 L 113.476562 25.183594 L 114.09375 25.148438 L 114.714844 25.121094 L 115.332031 25.097656 L 115.949219 25.082031 L 116.570312 25.074219 L 117.1875 25.070312 L 117.804688 25.074219 L 118.421875 25.082031 L 119.042969 25.097656 L 119.660156 25.121094 L 120.277344 25.148438 L 120.898438 25.183594 L 121.515625 25.226562 L 122.132812 25.273438 L 122.753906 25.328125 L 123.371094 25.390625 L 123.988281 25.457031 L 124.609375 25.53125 L 125.226562 25.609375 L 125.84375 25.699219 L 126.464844 25.789062 L 127.082031 25.886719 L 127.699219 25.992188 L 128.316406 26.105469 L 128.9375 26.222656 L 129.554688 26.34375 L 130.171875 26.472656 L 130.792969 26.609375 L 131.410156 26.75 L 132.027344 26.898438 L 132.648438 27.050781 L 133.265625 27.210938 L 133.882812 27.375 L 134.503906 27.546875 L 135.121094 27.722656 L 135.738281 27.902344 L 136.359375 28.089844 L 136.976562 28.285156 L 137.59375 28.484375 L 138.210938 28.6875 L 138.832031 28.894531 L 139.449219 29.109375 L 140.066406 29.332031 L 140.6875 29.554688 L 141.304688 29.785156 L 141.921875 30.019531 L 142.542969 30.261719 L 143.160156 30.507812 L 143.777344 30.757812 L 144.398438 31.011719 L 145.632812 31.535156 L 146.25 31.804688 L 146.871094 32.078125 L 147.488281 32.355469 L 148.105469 32.636719 L 148.726562 32.925781 L 149.34375 33.214844 L 149.960938 33.507812 L 150.582031 33.808594 L 151.199219 34.109375 L 151.816406 34.417969 L 152.4375 34.726562 L 153.671875 35.359375 L 154.292969 35.679688 L 154.910156 36.003906 L 155.527344 36.332031 L 156.144531 36.664062 L 156.765625 36.996094 L 158 37.675781 L 158.621094 38.019531 L 159.238281 38.363281 L 159.855469 38.714844 L 160.476562 39.066406 L 161.09375 39.417969 L 161.710938 39.777344 L 162.332031 40.136719 L 162.949219 40.496094 L 163.566406 40.859375 L 164.1875 41.226562 L 164.804688 41.59375 L 166.039062 42.335938 L 166.660156 42.707031 L 167.277344 43.082031 L 167.894531 43.460938 L 168.515625 43.839844 L 169.75 44.597656 L 170.371094 44.980469 L 170.988281 45.363281 L 171.605469 45.75 L 172.226562 46.132812 L 173.460938 46.90625 L 174.082031 47.292969 L 174.699219 47.683594 L 175.316406 48.070312 L 175.933594 48.460938 L 176.554688 48.851562 L 177.789062 49.632812 L 178.410156 50.023438 L 179.644531 50.804688 L 180.265625 51.195312 L 181.5 51.976562 L 182.121094 52.363281 L 183.355469 53.144531 L 183.972656 53.53125 L 184.59375 53.921875 L 185.828125 54.695312 L 186.449219 55.078125 L 187.066406 55.464844 L 187.683594 55.847656 L 188.304688 56.230469 L 188.921875 56.613281 L 189.539062 56.992188 L 190.160156 57.375 L 190.777344 57.75 L 191.394531 58.128906 L 192.015625 58.503906 L 192.632812 58.878906 L 193.867188 59.621094 L 194.488281 59.992188 L 195.722656 60.726562 L 196.34375 61.089844 L 196.960938 61.453125 L 197.578125 61.8125 L 198.199219 62.171875 L 199.433594 62.882812 L 200.054688 63.234375 L 200.671875 63.585938 L 201.289062 63.933594 L 201.910156 64.28125 L 202.527344 64.625 L 203.761719 65.304688 L 204.382812 65.644531 L 205 65.980469 L 205.617188 66.3125 L 206.238281 66.640625 L 206.855469 66.96875 L 207.472656 67.292969 L 208.09375 67.617188 L 208.710938 67.9375 L 209.328125 68.253906 L 209.949219 68.570312 L 210.566406 68.882812 L 211.800781 69.5 L 212.421875 69.804688 L 213.039062 70.105469 L 213.65625 70.402344 L 214.277344 70.699219 L 215.511719 71.285156 L 216.132812 71.570312 L 217.367188 72.140625 L 217.988281 72.417969 L 218.605469 72.695312 L 219.222656 72.96875 L 219.84375 73.242188 L 221.078125 73.773438 L 221.695312 74.035156 L 222.316406 74.296875 L 223.550781 74.804688 L 224.171875 75.058594 L 225.40625 75.550781 L 226.027344 75.792969 L 227.261719 76.269531 L 227.882812 76.503906 L 228.5 76.734375 L 229.117188 76.960938 L 229.738281 77.1875 L 230.355469 77.410156 L 230.972656 77.628906 L 231.589844 77.84375 L 232.210938 78.058594 L 233.445312 78.480469 L 234.066406 78.683594 L 234.683594 78.886719 L 235.300781 79.085938 L 235.921875 79.285156 L 237.15625 79.667969 L 237.777344 79.859375 L 238.394531 80.046875 L 239.011719 80.230469 L 239.632812 80.410156 L 240.25 80.589844 L 240.867188 80.761719 L 241.484375 80.9375 L 242.105469 81.105469 L 243.339844 81.441406 L 243.960938 81.601562 L 245.195312 81.921875 L 245.816406 82.074219 L 246.433594 82.230469 L 247.050781 82.378906 L 247.671875 82.527344 L 248.90625 82.816406 L 249.523438 82.957031 L 250.144531 83.09375 L 250.761719 83.230469 L 251.378906 83.363281 L 252 83.496094 L 253.234375 83.753906 L 253.855469 83.878906 L 255.089844 84.121094 L 255.710938 84.238281 L 256.328125 84.355469 L 256.945312 84.46875 L 257.566406 84.582031 L 258.800781 84.800781 L 259.417969 84.90625 L 260.039062 85.011719 L 261.273438 85.214844 L 261.894531 85.3125 L 262.511719 85.410156 L 263.128906 85.503906 L 263.75 85.597656 L 264.984375 85.777344 L 265.605469 85.863281 L 266.839844 86.035156 L 267.460938 86.117188 L 268.078125 86.199219 L 269.3125 86.355469 L 269.933594 86.429688 L 270.550781 86.507812 L 271.167969 86.578125 L 271.789062 86.652344 L 272.40625 86.71875 L 273.023438 86.789062 L 273.644531 86.855469 L 274.261719 86.921875 L 274.878906 86.984375 L 275.5 87.050781 L 276.117188 87.109375 L 276.734375 87.171875 L 277.351562 87.230469 L 277.972656 87.289062 L 279.207031 87.398438 L 279.828125 87.453125 L 280.445312 87.503906 L 281.0625 87.558594 L 281.683594 87.609375 L 282.300781 87.65625 L 282.917969 87.707031 L 283.539062 87.753906 L 284.15625 87.796875 L 284.773438 87.84375 L 285.394531 87.886719 L 286.628906 87.972656 L 287.246094 88.011719 L 287.867188 88.050781 L 289.101562 88.128906 L 289.722656 88.167969 L 290.957031 88.238281 L 291.578125 88.273438 L 292.195312 88.304688 L 292.8125 88.339844 L 293.433594 88.371094 L 294.667969 88.433594 L 295.289062 88.460938 L 295.90625 88.492188 L 297.140625 88.546875 L 297.761719 88.574219 L 298.378906 88.601562 L 298.996094 88.625 L 299.617188 88.648438 L 300.234375 88.675781 L 300.851562 88.699219 L 301.472656 88.722656 L 302.089844 88.742188 L 302.707031 88.765625 L 303.328125 88.785156 L 303.945312 88.808594 L 304.5625 88.828125 L 305.183594 88.847656 L 305.800781 88.867188 L 306.417969 88.882812 L 307.035156 88.902344 L 307.65625 88.917969 L 308.273438 88.9375 L 308.890625 88.953125 L 309.511719 88.96875 L 310.746094 89 L 311.367188 89.015625 L 311.984375 89.03125 L 312.601562 89.042969 L 313.222656 89.058594 L 314.457031 89.082031 L 315.074219 89.097656 L 315.695312 89.109375 L 316.929688 89.132812 L 317.550781 89.140625 L 318.167969 89.152344 L 318.167969 89.480469 L 8.964844 89.480469 Z M 8.964844 75.550781 "/>
</g>
<g clip-path="url(#clip-1)">
<path fill="none" stroke-width="1.745965" stroke-linecap="butt" stroke-linejoin="round" stroke="rgb(0%, 0%, 0%)" stroke-opacity="1" stroke-miterlimit="10" d="M 194.488281 89.480469 L 194.488281 8.964844 "/>
</g>
<g fill="rgb(0%, 0%, 0%)" fill-opacity="1">
<use xlink:href="#glyph-0-0" x="180.710938" y="23.141602"/>
</g>
<g fill="rgb(75.686275%, 9.411765%, 0%)" fill-opacity="1">
<use xlink:href="#glyph-0-1" x="115.648438" y="75.473633"/>
<use xlink:href="#glyph-0-2" x="128.648438" y="75.473633"/>
<use xlink:href="#glyph-0-3" x="139.648438" y="75.473633"/>
</g>
<g fill="rgb(90.980392%, 70.196078%, 19.607843%)" fill-opacity="1">
<use xlink:href="#glyph-0-1" x="239.328125" y="75.473633"/>
<use xlink:href="#glyph-0-2" x="252.328125" y="75.473633"/>
<use xlink:href="#glyph-0-4" x="263.328125" y="75.473633"/>
</g>
<path fill="none" stroke-width="1.745965" stroke-linecap="square" stroke-linejoin="round" stroke="rgb(0%, 0%, 0%)" stroke-opacity="1" stroke-miterlimit="10" d="M 8.964844 89.480469 L 318.167969 89.480469 "/>
<path fill="none" stroke-width="1.745965" stroke-linecap="butt" stroke-linejoin="round" stroke="rgb(0%, 0%, 0%)" stroke-opacity="1" stroke-miterlimit="10" d="M 39.886719 93.964844 L 39.886719 89.480469 "/>
<path fill="none" stroke-width="1.745965" stroke-linecap="butt" stroke-linejoin="round" stroke="rgb(0%, 0%, 0%)" stroke-opacity="1" stroke-miterlimit="10" d="M 163.566406 93.964844 L 163.566406 89.480469 "/>
<path fill="none" stroke-width="1.745965" stroke-linecap="butt" stroke-linejoin="round" stroke="rgb(0%, 0%, 0%)" stroke-opacity="1" stroke-miterlimit="10" d="M 287.246094 93.964844 L 287.246094 89.480469 "/>
<g fill="rgb(0%, 0%, 0%)" fill-opacity="1">
<use xlink:href="#glyph-1-0" x="33.386719" y="108.047852"/>
<use xlink:href="#glyph-1-1" x="38.386719" y="108.047852"/>
</g>
<g fill="rgb(0%, 0%, 0%)" fill-opacity="1">
<use xlink:href="#glyph-1-2" x="159.566406" y="108.047852"/>
</g>
<g fill="rgb(0%, 0%, 0%)" fill-opacity="1">
<use xlink:href="#glyph-1-1" x="283.246094" y="108.047852"/>
</g>
<g fill="rgb(0%, 0%, 0%)" fill-opacity="1">
<use xlink:href="#glyph-0-5" x="97.566406" y="130.157227"/>
<use xlink:href="#glyph-0-6" x="106.566406" y="130.157227"/>
<use xlink:href="#glyph-0-7" x="115.566406" y="130.157227"/>
<use xlink:href="#glyph-0-8" x="125.566406" y="130.157227"/>
<use xlink:href="#glyph-0-9" x="135.566406" y="130.157227"/>
<use xlink:href="#glyph-0-4" x="140.566406" y="130.157227"/>
<use xlink:href="#glyph-0-9" x="150.566406" y="130.157227"/>
<use xlink:href="#glyph-0-10" x="155.566406" y="130.157227"/>
<use xlink:href="#glyph-0-11" x="167.566406" y="130.157227"/>
<use xlink:href="#glyph-0-12" x="176.566406" y="130.157227"/>
<use xlink:href="#glyph-0-13" x="180.566406" y="130.157227"/>
<use xlink:href="#glyph-0-8" x="190.566406" y="130.157227"/>
<use xlink:href="#glyph-0-14" x="200.566406" y="130.157227"/>
<use xlink:href="#glyph-0-0" x="210.566406" y="130.157227"/>
<use xlink:href="#glyph-0-8" x="219.566406" y="130.157227"/>
</g>
<g fill="rgb(0%, 0%, 0%)" fill-opacity="1">
<use xlink:href="#glyph-0-15" x="345.066406" y="33.583008"/>
<use xlink:href="#glyph-0-16" x="357.066406" y="33.583008"/>
<use xlink:href="#glyph-0-12" x="362.066406" y="33.583008"/>
<use xlink:href="#glyph-0-17" x="366.066406" y="33.583008"/>
<use xlink:href="#glyph-0-18" x="381.066406" y="33.583008"/>
<use xlink:href="#glyph-0-19" x="391.066406" y="33.583008"/>
<use xlink:href="#glyph-0-18" x="395.066406" y="33.583008"/>
<use xlink:href="#glyph-0-20" x="405.066406" y="33.583008"/>
</g>
<path fill-rule="nonzero" fill="rgb(75.686275%, 9.411765%, 0%)" fill-opacity="0.329412" d="M 346.484375 61.289062 L 360.929688 61.289062 L 360.929688 46.84375 L 346.484375 46.84375 Z M 346.484375 61.289062 "/>
<path fill-rule="nonzero" fill="rgb(90.980392%, 70.196078%, 19.607843%)" fill-opacity="0.329412" d="M 346.484375 78.570312 L 360.929688 78.570312 L 360.929688 64.125 L 346.484375 64.125 Z M 346.484375 78.570312 "/>
<g fill="rgb(0%, 0%, 0%)" fill-opacity="1">
<use xlink:href="#glyph-1-2" x="371.3125" y="59.063477"/>
</g>
<g fill="rgb(0%, 0%, 0%)" fill-opacity="1">
<use xlink:href="#glyph-1-3" x="371.3125" y="76.344727"/>
</g>
</svg>
