<?xml version="1.0" encoding="UTF-8"?>
<svg xmlns="http://www.w3.org/2000/svg" xmlns:xlink="http://www.w3.org/1999/xlink" width="432pt" height="144pt" viewBox="0 0 432 144">
<defs>
<g>
<g id="glyph-0-0">
<path d="M 4.296875 -8.375 C 5.335938 -8.375 6.140625 -8.101562 6.703125 -7.5625 C 7.273438 -7.019531 7.59375 -6.398438 7.65625 -5.703125 L 6.578125 -5.703125 C 6.460938 -6.234375 6.21875 -6.648438 5.84375 -6.953125 C 5.476562 -7.265625 4.96875 -7.421875 4.3125 -7.421875 C 3.507812 -7.421875 2.859375 -7.132812 2.359375 -6.5625 C 1.867188 -6 1.625 -5.140625 1.625 -3.984375 C 1.625 -3.023438 1.847656 -2.25 2.296875 -1.65625 C 2.742188 -1.0625 3.410156 -0.765625 4.296875 -0.765625 C 5.109375 -0.765625 5.726562 -1.078125 6.15625 -1.703125 C 6.382812 -2.023438 6.550781 -2.457031 6.65625 -3 L 7.734375 -3 C 7.640625 -2.132812 7.320312 -1.414062 6.78125 -0.84375 C 6.132812 -0.132812 5.257812 0.21875 4.15625 0.21875 C 3.207031 0.21875 2.410156 -0.0703125 1.765625 -0.65625 C 0.921875 -1.40625 0.5 -2.578125 0.5 -4.171875 C 0.5 -5.367188 0.816406 -6.351562 1.453125 -7.125 C 2.140625 -7.957031 3.085938 -8.375 4.296875 -8.375 Z M 4.078125 -8.375 Z M 4.078125 -8.375 "/>
</g>
<g id="glyph-0-1">
<path d="M 6.296875 -4.5625 L 6.296875 -3.625 L 0.515625 -3.625 L 0.515625 -4.5625 Z M 6.296875 -2.1875 L 6.296875 -1.234375 L 0.515625 -1.234375 L 0.515625 -2.1875 Z M 6.296875 -2.1875 "/>
</g>
<g id="glyph-0-2">
<path d="M 1.09375 -5.625 L 1.09375 -6.40625 C 1.8125 -6.46875 2.3125 -6.582031 2.59375 -6.75 C 2.882812 -6.914062 3.097656 -7.304688 3.234375 -7.921875 L 4.03125 -7.921875 L 4.03125 0 L 2.953125 0 L 2.953125 -5.625 Z M 1.09375 -5.625 "/>
</g>
<g id="glyph-0-3">
<path d="M 0.359375 0 C 0.390625 -0.6875 0.53125 -1.28125 0.78125 -1.78125 C 1.03125 -2.289062 1.507812 -2.753906 2.21875 -3.171875 L 3.28125 -3.78125 C 3.757812 -4.0625 4.097656 -4.300781 4.296875 -4.5 C 4.597656 -4.800781 4.75 -5.148438 4.75 -5.546875 C 4.75 -6.015625 4.609375 -6.382812 4.328125 -6.65625 C 4.054688 -6.925781 3.6875 -7.0625 3.21875 -7.0625 C 2.53125 -7.0625 2.054688 -6.800781 1.796875 -6.28125 C 1.660156 -6.007812 1.582031 -5.625 1.5625 -5.125 L 0.546875 -5.125 C 0.554688 -5.820312 0.6875 -6.390625 0.9375 -6.828125 C 1.363281 -7.597656 2.128906 -7.984375 3.234375 -7.984375 C 4.140625 -7.984375 4.800781 -7.734375 5.21875 -7.234375 C 5.644531 -6.742188 5.859375 -6.195312 5.859375 -5.59375 C 5.859375 -4.957031 5.632812 -4.414062 5.1875 -3.96875 C 4.925781 -3.707031 4.457031 -3.390625 3.78125 -3.015625 L 3.03125 -2.59375 C 2.664062 -2.382812 2.378906 -2.191406 2.171875 -2.015625 C 1.796875 -1.691406 1.5625 -1.332031 1.46875 -0.9375 L 5.8125 -0.9375 L 5.8125 0 Z M 0.359375 0 "/>
</g>
<g id="glyph-0-4">
<path d="M 2.953125 0.21875 C 2.015625 0.21875 1.332031 -0.0351562 0.90625 -0.546875 C 0.476562 -1.066406 0.265625 -1.695312 0.265625 -2.4375 L 1.3125 -2.4375 C 1.363281 -1.925781 1.460938 -1.554688 1.609375 -1.328125 C 1.867188 -0.898438 2.335938 -0.6875 3.015625 -0.6875 C 3.535156 -0.6875 3.953125 -0.828125 4.265625 -1.109375 C 4.585938 -1.390625 4.75 -1.753906 4.75 -2.203125 C 4.75 -2.753906 4.582031 -3.140625 4.25 -3.359375 C 3.914062 -3.578125 3.453125 -3.6875 2.859375 -3.6875 C 2.785156 -3.6875 2.710938 -3.679688 2.640625 -3.671875 C 2.578125 -3.671875 2.507812 -3.671875 2.4375 -3.671875 L 2.4375 -4.546875 C 2.539062 -4.535156 2.628906 -4.53125 2.703125 -4.53125 C 2.773438 -4.53125 2.851562 -4.53125 2.9375 -4.53125 C 3.3125 -4.53125 3.617188 -4.585938 3.859375 -4.703125 C 4.273438 -4.910156 4.484375 -5.28125 4.484375 -5.8125 C 4.484375 -6.207031 4.34375 -6.507812 4.0625 -6.71875 C 3.78125 -6.9375 3.453125 -7.046875 3.078125 -7.046875 C 2.410156 -7.046875 1.953125 -6.828125 1.703125 -6.390625 C 1.554688 -6.140625 1.472656 -5.789062 1.453125 -5.34375 L 0.46875 -5.34375 C 0.46875 -5.9375 0.585938 -6.441406 0.828125 -6.859375 C 1.234375 -7.597656 1.953125 -7.96875 2.984375 -7.96875 C 3.785156 -7.96875 4.410156 -7.785156 4.859375 -7.421875 C 5.304688 -7.054688 5.53125 -6.535156 5.53125 -5.859375 C 5.53125 -5.367188 5.394531 -4.972656 5.125 -4.671875 C 4.96875 -4.472656 4.757812 -4.320312 4.5 -4.21875 C 4.914062 -4.101562 5.238281 -3.878906 5.46875 -3.546875 C 5.707031 -3.222656 5.828125 -2.828125 5.828125 -2.359375 C 5.828125 -1.597656 5.578125 -0.976562 5.078125 -0.5 C 4.578125 -0.0195312 3.867188 0.21875 2.953125 0.21875 Z M 2.953125 0.21875 "/>
</g>
<g id="glyph-1-0">
<path d="M 0.59375 -4.65625 L 4.125 -4.65625 L 4.125 -3.359375 L 0.59375 -3.359375 Z M 0.59375 -4.65625 "/>
</g>
<g id="glyph-1-1">
<path d="M 0.453125 0 C 0.492188 -0.863281 0.671875 -1.617188 0.984375 -2.265625 C 1.296875 -2.910156 1.90625 -3.492188 2.8125 -4.015625 L 4.171875 -4.796875 C 4.773438 -5.148438 5.195312 -5.453125 5.4375 -5.703125 C 5.820312 -6.085938 6.015625 -6.53125 6.015625 -7.03125 C 6.015625 -7.613281 5.835938 -8.078125 5.484375 -8.421875 C 5.128906 -8.773438 4.660156 -8.953125 4.078125 -8.953125 C 3.210938 -8.953125 2.613281 -8.625 2.28125 -7.96875 C 2.101562 -7.613281 2.003906 -7.125 1.984375 -6.5 L 0.703125 -6.5 C 0.710938 -7.375 0.875 -8.085938 1.1875 -8.640625 C 1.726562 -9.617188 2.695312 -10.109375 4.09375 -10.109375 C 5.238281 -10.109375 6.078125 -9.796875 6.609375 -9.171875 C 7.148438 -8.546875 7.421875 -7.851562 7.421875 -7.09375 C 7.421875 -6.28125 7.132812 -5.585938 6.5625 -5.015625 C 6.238281 -4.679688 5.648438 -4.28125 4.796875 -3.8125 L 3.828125 -3.28125 C 3.367188 -3.019531 3.007812 -2.773438 2.75 -2.546875 C 2.28125 -2.140625 1.984375 -1.691406 1.859375 -1.203125 L 7.359375 -1.203125 L 7.359375 0 Z M 0.453125 0 "/>
</g>
<g id="glyph-1-2">
<path d="M 3.890625 -10.078125 C 5.203125 -10.078125 6.144531 -9.539062 6.71875 -8.46875 C 7.175781 -7.632812 7.40625 -6.492188 7.40625 -5.046875 C 7.40625 -3.679688 7.195312 -2.550781 6.78125 -1.65625 C 6.195312 -0.363281 5.234375 0.28125 3.890625 0.28125 C 2.679688 0.28125 1.78125 -0.242188 1.1875 -1.296875 C 0.695312 -2.171875 0.453125 -3.347656 0.453125 -4.828125 C 0.453125 -5.972656 0.597656 -6.957031 0.890625 -7.78125 C 1.441406 -9.3125 2.441406 -10.078125 3.890625 -10.078125 Z M 3.890625 -0.875 C 4.546875 -0.875 5.066406 -1.164062 5.453125 -1.75 C 5.835938 -2.332031 6.03125 -3.414062 6.03125 -5 C 6.03125 -6.144531 5.890625 -7.085938 5.609375 -7.828125 C 5.328125 -8.566406 4.78125 -8.9375 3.96875 -8.9375 C 3.226562 -8.9375 2.6875 -8.582031 2.34375 -7.875 C 2 -7.175781 1.828125 -6.144531 1.828125 -4.78125 C 1.828125 -3.757812 1.9375 -2.9375 2.15625 -2.3125 C 2.488281 -1.351562 3.066406 -0.875 3.890625 -0.875 Z M 3.890625 -0.875 "/>
</g>
<g id="glyph-1-3">
<path d="M 1.375 -7.125 L 1.375 -8.109375 C 2.289062 -8.191406 2.925781 -8.335938 3.28125 -8.546875 C 3.644531 -8.753906 3.914062 -9.25 4.09375 -10.03125 L 5.09375 -10.03125 L 5.09375 0 L 3.75 0 L 3.75 -7.125 Z M 1.375 -7.125 "/>
</g>
<g id="glyph-2-0">
<path d="M 10.765625 -12.90625 L 10.765625 -11.375 L 6.421875 -11.375 L 6.421875 0 L 4.640625 0 L 4.640625 -11.375 L 0.296875 -11.375 L 0.296875 -12.90625 Z M 10.765625 -12.90625 "/>
</g>
<g id="glyph-2-1">
<path d="M 7.046875 -9.40625 L 8.796875 -9.40625 C 8.566406 -8.8125 8.066406 -7.4375 7.296875 -5.28125 C 6.722656 -3.664062 6.242188 -2.347656 5.859375 -1.328125 C 4.941406 1.074219 4.296875 2.539062 3.921875 3.0625 C 3.546875 3.59375 2.90625 3.859375 2 3.859375 C 1.769531 3.859375 1.59375 3.847656 1.46875 3.828125 C 1.351562 3.816406 1.207031 3.785156 1.03125 3.734375 L 1.03125 2.296875 C 1.3125 2.367188 1.507812 2.414062 1.625 2.4375 C 1.75 2.457031 1.859375 2.46875 1.953125 2.46875 C 2.253906 2.46875 2.472656 2.414062 2.609375 2.3125 C 2.742188 2.21875 2.859375 2.097656 2.953125 1.953125 C 2.984375 1.910156 3.085938 1.671875 3.265625 1.234375 C 3.453125 0.804688 3.585938 0.484375 3.671875 0.265625 L 0.1875 -9.40625 L 1.984375 -9.40625 L 4.5 -1.75 Z M 4.484375 -9.640625 Z M 4.484375 -9.640625 "/>
</g>
<g id="glyph-2-2">
<path d="M 5.140625 -1.0625 C 5.867188 -1.0625 6.476562 -1.367188 6.96875 -1.984375 C 7.457031 -2.609375 7.703125 -3.535156 7.703125 -4.765625 C 7.703125 -5.515625 7.597656 -6.160156 7.390625 -6.703125 C 6.972656 -7.734375 6.222656 -8.25 5.140625 -8.25 C 4.035156 -8.25 3.285156 -7.703125 2.890625 -6.609375 C 2.671875 -6.023438 2.5625 -5.28125 2.5625 -4.375 C 2.5625 -3.644531 2.671875 -3.023438 2.890625 -2.515625 C 3.296875 -1.546875 4.046875 -1.0625 5.140625 -1.0625 Z M 1.03125 -9.375 L 2.578125 -9.375 L 2.578125 -8.125 C 2.890625 -8.550781 3.234375 -8.878906 3.609375 -9.109375 C 4.140625 -9.460938 4.769531 -9.640625 5.5 -9.640625 C 6.5625 -9.640625 7.460938 -9.226562 8.203125 -8.40625 C 8.953125 -7.59375 9.328125 -6.425781 9.328125 -4.90625 C 9.328125 -2.863281 8.789062 -1.398438 7.71875 -0.515625 C 7.039062 0.0351562 6.25 0.3125 5.34375 0.3125 C 4.632812 0.3125 4.039062 0.152344 3.5625 -0.15625 C 3.28125 -0.320312 2.96875 -0.625 2.625 -1.0625 L 2.625 3.75 L 1.03125 3.75 Z M 1.03125 -9.375 "/>
</g>
<g id="glyph-2-3">
<path d="M 5.078125 -9.625 C 5.742188 -9.625 6.390625 -9.46875 7.015625 -9.15625 C 7.648438 -8.84375 8.128906 -8.4375 8.453125 -7.9375 C 8.773438 -7.457031 8.988281 -6.90625 9.09375 -6.28125 C 9.1875 -5.84375 9.234375 -5.148438 9.234375 -4.203125 L 2.328125 -4.203125 C 2.359375 -3.242188 2.582031 -2.472656 3 -1.890625 C 3.425781 -1.316406 4.082031 -1.03125 4.96875 -1.03125 C 5.789062 -1.03125 6.445312 -1.304688 6.9375 -1.859375 C 7.21875 -2.171875 7.421875 -2.535156 7.546875 -2.953125 L 9.09375 -2.953125 C 9.050781 -2.609375 8.914062 -2.222656 8.6875 -1.796875 C 8.457031 -1.367188 8.195312 -1.019531 7.90625 -0.75 C 7.425781 -0.28125 6.832031 0.03125 6.125 0.1875 C 5.75 0.28125 5.316406 0.328125 4.828125 0.328125 C 3.660156 0.328125 2.671875 -0.09375 1.859375 -0.9375 C 1.046875 -1.789062 0.640625 -2.988281 0.640625 -4.53125 C 0.640625 -6.039062 1.046875 -7.265625 1.859375 -8.203125 C 2.679688 -9.148438 3.753906 -9.625 5.078125 -9.625 Z M 7.609375 -5.453125 C 7.535156 -6.140625 7.382812 -6.691406 7.15625 -7.109375 C 6.71875 -7.867188 5.992188 -8.25 4.984375 -8.25 C 4.253906 -8.25 3.644531 -7.984375 3.15625 -7.453125 C 2.664062 -6.929688 2.40625 -6.265625 2.375 -5.453125 Z M 4.9375 -9.640625 Z M 4.9375 -9.640625 "/>
</g>
<g id="glyph-2-4">
</g>
<g id="glyph-2-5">
<path d="M 0.5625 0 C 0.625 -1.082031 0.847656 -2.023438 1.234375 -2.828125 C 1.617188 -3.628906 2.378906 -4.359375 3.515625 -5.015625 L 5.203125 -6 C 5.960938 -6.4375 6.492188 -6.8125 6.796875 -7.125 C 7.273438 -7.601562 7.515625 -8.160156 7.515625 -8.796875 C 7.515625 -9.523438 7.296875 -10.101562 6.859375 -10.53125 C 6.421875 -10.96875 5.832031 -11.1875 5.09375 -11.1875 C 4.007812 -11.1875 3.257812 -10.773438 2.84375 -9.953125 C 2.625 -9.515625 2.503906 -8.90625 2.484375 -8.125 L 0.875 -8.125 C 0.882812 -9.21875 1.085938 -10.109375 1.484375 -10.796875 C 2.160156 -12.015625 3.367188 -12.625 5.109375 -12.625 C 6.546875 -12.625 7.597656 -12.234375 8.265625 -11.453125 C 8.929688 -10.679688 9.265625 -9.816406 9.265625 -8.859375 C 9.265625 -7.847656 8.910156 -6.988281 8.203125 -6.28125 C 7.785156 -5.863281 7.050781 -5.359375 6 -4.765625 L 4.796875 -4.09375 C 4.210938 -3.78125 3.757812 -3.476562 3.4375 -3.1875 C 2.851562 -2.675781 2.484375 -2.113281 2.328125 -1.5 L 9.203125 -1.5 L 9.203125 0 Z M 0.5625 0 "/>
</g>
<g id="glyph-2-6">
<path d="M 1.53125 -12.90625 L 10.953125 -12.90625 L 10.953125 -11.328125 L 3.25 -11.328125 L 3.25 -7.40625 L 10.375 -7.40625 L 10.375 -5.921875 L 3.25 -5.921875 L 3.25 -1.53125 L 11.078125 -1.53125 L 11.078125 0 L 1.53125 0 Z M 6.3125 -12.90625 Z M 6.3125 -12.90625 "/>
</g>
<g id="glyph-2-7">
<path d="M 1.9375 -9.40625 L 4.453125 -1.75 L 7.078125 -9.40625 L 8.8125 -9.40625 L 5.25 0 L 3.5625 0 L 0.09375 -9.40625 Z M 1.9375 -9.40625 "/>
</g>
<g id="glyph-2-8">
<path d="M 1.15625 -9.375 L 2.765625 -9.375 L 2.765625 0 L 1.15625 0 Z M 1.15625 -12.90625 L 2.765625 -12.90625 L 2.765625 -11.125 L 1.15625 -11.125 Z M 1.15625 -12.90625 "/>
</g>
<g id="glyph-2-9">
<path d="M 2.15625 -4.59375 C 2.15625 -3.582031 2.367188 -2.738281 2.796875 -2.0625 C 3.234375 -1.382812 3.921875 -1.046875 4.859375 -1.046875 C 5.585938 -1.046875 6.1875 -1.359375 6.65625 -1.984375 C 7.132812 -2.617188 7.375 -3.523438 7.375 -4.703125 C 7.375 -5.890625 7.128906 -6.769531 6.640625 -7.34375 C 6.160156 -7.914062 5.5625 -8.203125 4.84375 -8.203125 C 4.039062 -8.203125 3.390625 -7.894531 2.890625 -7.28125 C 2.398438 -6.675781 2.15625 -5.78125 2.15625 -4.59375 Z M 4.546875 -9.578125 C 5.265625 -9.578125 5.867188 -9.425781 6.359375 -9.125 C 6.640625 -8.945312 6.957031 -8.640625 7.3125 -8.203125 L 7.3125 -12.953125 L 8.828125 -12.953125 L 8.828125 0 L 7.40625 0 L 7.40625 -1.3125 C 7.039062 -0.726562 6.601562 -0.304688 6.09375 -0.046875 C 5.59375 0.203125 5.019531 0.328125 4.375 0.328125 C 3.320312 0.328125 2.410156 -0.109375 1.640625 -0.984375 C 0.878906 -1.867188 0.5 -3.046875 0.5 -4.515625 C 0.5 -5.878906 0.847656 -7.0625 1.546875 -8.0625 C 2.242188 -9.070312 3.242188 -9.578125 4.546875 -9.578125 Z M 4.546875 -9.578125 "/>
</g>
<g id="glyph-2-10">
<path d="M 1.15625 -9.40625 L 2.65625 -9.40625 L 2.65625 -8.078125 C 3.101562 -8.628906 3.578125 -9.023438 4.078125 -9.265625 C 4.578125 -9.503906 5.128906 -9.625 5.734375 -9.625 C 7.078125 -9.625 7.984375 -9.160156 8.453125 -8.234375 C 8.703125 -7.722656 8.828125 -6.988281 8.828125 -6.03125 L 8.828125 0 L 7.21875 0 L 7.21875 -5.9375 C 7.21875 -6.507812 7.132812 -6.972656 6.96875 -7.328125 C 6.6875 -7.910156 6.175781 -8.203125 5.4375 -8.203125 C 5.0625 -8.203125 4.753906 -8.164062 4.515625 -8.09375 C 4.085938 -7.957031 3.707031 -7.695312 3.375 -7.3125 C 3.113281 -7 2.941406 -6.675781 2.859375 -6.34375 C 2.785156 -6.019531 2.75 -5.550781 2.75 -4.9375 L 2.75 0 L 1.15625 0 Z M 4.875 -9.640625 Z M 4.875 -9.640625 "/>
</g>
<g id="glyph-2-11">
<path d="M 4.796875 -9.6875 C 5.847656 -9.6875 6.707031 -9.425781 7.375 -8.90625 C 8.039062 -8.394531 8.441406 -7.507812 8.578125 -6.25 L 7.046875 -6.25 C 6.953125 -6.832031 6.734375 -7.3125 6.390625 -7.6875 C 6.054688 -8.070312 5.523438 -8.265625 4.796875 -8.265625 C 3.785156 -8.265625 3.0625 -7.773438 2.625 -6.796875 C 2.34375 -6.160156 2.203125 -5.375 2.203125 -4.4375 C 2.203125 -3.488281 2.398438 -2.691406 2.796875 -2.046875 C 3.203125 -1.398438 3.832031 -1.078125 4.6875 -1.078125 C 5.34375 -1.078125 5.863281 -1.273438 6.25 -1.671875 C 6.632812 -2.078125 6.898438 -2.628906 7.046875 -3.328125 L 8.578125 -3.328125 C 8.398438 -2.078125 7.957031 -1.164062 7.25 -0.59375 C 6.550781 -0.0195312 5.65625 0.265625 4.5625 0.265625 C 3.332031 0.265625 2.347656 -0.179688 1.609375 -1.078125 C 0.878906 -1.972656 0.515625 -3.097656 0.515625 -4.453125 C 0.515625 -6.097656 0.914062 -7.378906 1.71875 -8.296875 C 2.519531 -9.222656 3.546875 -9.6875 4.796875 -9.6875 Z M 4.546875 -9.640625 Z M 4.546875 -9.640625 "/>
</g>
<g id="glyph-2-12">
<path d="M 2.515625 -4.171875 C 2.554688 -3.429688 2.726562 -2.832031 3.03125 -2.375 C 3.613281 -1.519531 4.632812 -1.09375 6.09375 -1.09375 C 6.75 -1.09375 7.347656 -1.1875 7.890625 -1.375 C 8.929688 -1.738281 9.453125 -2.390625 9.453125 -3.328125 C 9.453125 -4.035156 9.234375 -4.535156 8.796875 -4.828125 C 8.347656 -5.128906 7.648438 -5.382812 6.703125 -5.59375 L 4.953125 -6 C 3.816406 -6.25 3.007812 -6.53125 2.53125 -6.84375 C 1.707031 -7.382812 1.296875 -8.191406 1.296875 -9.265625 C 1.296875 -10.421875 1.695312 -11.367188 2.5 -12.109375 C 3.300781 -12.859375 4.441406 -13.234375 5.921875 -13.234375 C 7.273438 -13.234375 8.421875 -12.90625 9.359375 -12.25 C 10.304688 -11.601562 10.78125 -10.5625 10.78125 -9.125 L 9.140625 -9.125 C 9.054688 -9.8125 8.867188 -10.34375 8.578125 -10.71875 C 8.046875 -11.382812 7.140625 -11.71875 5.859375 -11.71875 C 4.828125 -11.71875 4.085938 -11.5 3.640625 -11.0625 C 3.191406 -10.632812 2.96875 -10.132812 2.96875 -9.5625 C 2.96875 -8.925781 3.226562 -8.460938 3.75 -8.171875 C 4.09375 -7.984375 4.875 -7.75 6.09375 -7.46875 L 7.90625 -7.0625 C 8.78125 -6.863281 9.457031 -6.585938 9.9375 -6.234375 C 10.75 -5.628906 11.15625 -4.753906 11.15625 -3.609375 C 11.15625 -2.179688 10.632812 -1.160156 9.59375 -0.546875 C 8.5625 0.0664062 7.359375 0.375 5.984375 0.375 C 4.367188 0.375 3.109375 -0.0351562 2.203125 -0.859375 C 1.296875 -1.671875 0.851562 -2.773438 0.875 -4.171875 Z M 6.046875 -13.265625 Z M 6.046875 -13.265625 "/>
</g>
<g id="glyph-2-13">
<path d="M 1.484375 -12.046875 L 3.078125 -12.046875 L 3.078125 -9.40625 L 4.578125 -9.40625 L 4.578125 -8.125 L 3.078125 -8.125 L 3.078125 -1.984375 C 3.078125 -1.648438 3.1875 -1.425781 3.40625 -1.3125 C 3.53125 -1.25 3.738281 -1.21875 4.03125 -1.21875 C 4.101562 -1.21875 4.179688 -1.21875 4.265625 -1.21875 C 4.359375 -1.226562 4.460938 -1.238281 4.578125 -1.25 L 4.578125 0 C 4.398438 0.0507812 4.210938 0.0859375 4.015625 0.109375 C 3.816406 0.140625 3.601562 0.15625 3.375 0.15625 C 2.632812 0.15625 2.132812 -0.03125 1.875 -0.40625 C 1.613281 -0.789062 1.484375 -1.285156 1.484375 -1.890625 L 1.484375 -8.125 L 0.203125 -8.125 L 0.203125 -9.40625 L 1.484375 -9.40625 Z M 1.484375 -12.046875 "/>
</g>
<g id="glyph-2-14">
<path d="M 1.15625 -9.40625 L 2.71875 -9.40625 L 2.71875 -8.078125 C 3.09375 -8.535156 3.4375 -8.875 3.75 -9.09375 C 4.269531 -9.445312 4.859375 -9.625 5.515625 -9.625 C 6.265625 -9.625 6.867188 -9.441406 7.328125 -9.078125 C 7.585938 -8.859375 7.820312 -8.546875 8.03125 -8.140625 C 8.382812 -8.640625 8.796875 -9.007812 9.265625 -9.25 C 9.742188 -9.5 10.28125 -9.625 10.875 -9.625 C 12.132812 -9.625 12.992188 -9.164062 13.453125 -8.25 C 13.703125 -7.757812 13.828125 -7.097656 13.828125 -6.265625 L 13.828125 0 L 12.1875 0 L 12.1875 -6.546875 C 12.1875 -7.171875 12.023438 -7.597656 11.703125 -7.828125 C 11.390625 -8.066406 11.007812 -8.1875 10.5625 -8.1875 C 9.945312 -8.1875 9.410156 -7.976562 8.953125 -7.5625 C 8.503906 -7.144531 8.28125 -6.445312 8.28125 -5.46875 L 8.28125 0 L 6.6875 0 L 6.6875 -6.140625 C 6.6875 -6.785156 6.609375 -7.253906 6.453125 -7.546875 C 6.210938 -7.984375 5.765625 -8.203125 5.109375 -8.203125 C 4.503906 -8.203125 3.957031 -7.96875 3.46875 -7.5 C 2.988281 -7.039062 2.75 -6.207031 2.75 -5 L 2.75 0 L 1.15625 0 Z M 1.15625 -9.40625 "/>
</g>
<g id="glyph-2-15">
<path d="M 2.75 -9.40625 L 2.75 -3.171875 C 2.75 -2.679688 2.820312 -2.285156 2.96875 -1.984375 C 3.25 -1.421875 3.773438 -1.140625 4.546875 -1.140625 C 5.648438 -1.140625 6.398438 -1.632812 6.796875 -2.625 C 7.015625 -3.144531 7.125 -3.867188 7.125 -4.796875 L 7.125 -9.40625 L 8.703125 -9.40625 L 8.703125 0 L 7.203125 0 L 7.21875 -1.390625 C 7.019531 -1.035156 6.765625 -0.734375 6.453125 -0.484375 C 5.859375 0.00390625 5.128906 0.25 4.265625 0.25 C 2.921875 0.25 2.003906 -0.195312 1.515625 -1.09375 C 1.253906 -1.570312 1.125 -2.210938 1.125 -3.015625 L 1.125 -9.40625 Z M 4.90625 -9.640625 Z M 4.90625 -9.640625 "/>
</g>
<g id="glyph-2-16">
<path d="M 1.203125 -12.90625 L 2.78125 -12.90625 L 2.78125 0 L 1.203125 0 Z M 1.203125 -12.90625 "/>
</g>
<g id="glyph-2-17">
<path d="M 2.09375 -2.953125 C 2.144531 -2.421875 2.28125 -2.015625 2.5 -1.734375 C 2.894531 -1.222656 3.585938 -0.96875 4.578125 -0.96875 C 5.160156 -0.96875 5.671875 -1.09375 6.109375 -1.34375 C 6.554688 -1.601562 6.78125 -2.003906 6.78125 -2.546875 C 6.78125 -2.941406 6.601562 -3.25 6.25 -3.46875 C 6.019531 -3.59375 5.566406 -3.738281 4.890625 -3.90625 L 3.640625 -4.234375 C 2.835938 -4.429688 2.242188 -4.648438 1.859375 -4.890625 C 1.179688 -5.316406 0.84375 -5.910156 0.84375 -6.671875 C 0.84375 -7.554688 1.160156 -8.273438 1.796875 -8.828125 C 2.441406 -9.378906 3.304688 -9.65625 4.390625 -9.65625 C 5.804688 -9.65625 6.832031 -9.238281 7.46875 -8.40625 C 7.851562 -7.882812 8.039062 -7.316406 8.03125 -6.703125 L 6.546875 -6.703125 C 6.515625 -7.066406 6.382812 -7.394531 6.15625 -7.6875 C 5.789062 -8.101562 5.160156 -8.3125 4.265625 -8.3125 C 3.671875 -8.3125 3.21875 -8.195312 2.90625 -7.96875 C 2.601562 -7.738281 2.453125 -7.4375 2.453125 -7.0625 C 2.453125 -6.644531 2.65625 -6.316406 3.0625 -6.078125 C 3.289062 -5.929688 3.632812 -5.800781 4.09375 -5.6875 L 5.140625 -5.4375 C 6.273438 -5.15625 7.035156 -4.882812 7.421875 -4.625 C 8.035156 -4.226562 8.34375 -3.59375 8.34375 -2.71875 C 8.34375 -1.882812 8.023438 -1.160156 7.390625 -0.546875 C 6.753906 0.0546875 5.785156 0.359375 4.484375 0.359375 C 3.085938 0.359375 2.097656 0.0390625 1.515625 -0.59375 C 0.929688 -1.226562 0.617188 -2.015625 0.578125 -2.953125 Z M 4.4375 -9.640625 Z M 4.4375 -9.640625 "/>
</g>
</g>
<clipPath id="clip-0">
<path clip-rule="nonzero" d="M 8.964844 25 L 318.144531 25 L 318.144531 92.074219 L 8.964844 92.074219 Z M 8.964844 25 "/>
</clipPath>
<clipPath id="clip-1">
<path clip-rule="nonzero" d="M 193 8.964844 L 196 8.964844 L 196 92.074219 L 193 92.074219 Z M 193 8.964844 "/>
</clipPath>
<clipPath id="clip-2">
<path clip-rule="nonzero" d="M 100 8.964844 L 103 8.964844 L 103 92.074219 L 100 92.074219 Z M 100 8.964844 "/>
</clipPath>
<clipPath id="clip-3">
<path clip-rule="nonzero" d="M 162 8.964844 L 165 8.964844 L 165 92.074219 L 162 92.074219 Z M 162 8.964844 "/>
</clipPath>
<clipPath id="clip-4">
<path clip-rule="nonzero" d="M 239 8.964844 L 242 8.964844 L 242 92.074219 L 239 92.074219 Z M 239 8.964844 "/>
</clipPath>
<clipPath id="clip-5">
<path clip-rule="nonzero" d="M 270 8.964844 L 273 8.964844 L 273 92.074219 L 270 92.074219 Z M 270 8.964844 "/>
</clipPath>
</defs>
<g clip-path="url(#clip-0)">
<path fill-rule="nonzero" fill="rgb(90.980392%, 70.196078%, 19.607843%)" fill-opacity="0.329412" d="M 8.964844 91.335938 L 9.585938 91.3125 L 10.820312 91.265625 L 11.441406 91.242188 L 12.058594 91.21875 L 13.292969 91.164062 L 13.914062 91.136719 L 15.148438 91.082031 L 15.769531 91.054688 L 17.003906 90.992188 L 17.625 90.960938 L 18.242188 90.929688 L 18.859375 90.894531 L 19.480469 90.863281 L 20.714844 90.792969 L 21.332031 90.753906 L 21.953125 90.71875 L 23.1875 90.640625 L 23.808594 90.601562 L 25.042969 90.515625 L 25.664062 90.472656 L 26.28125 90.429688 L 27.515625 90.335938 L 28.136719 90.289062 L 28.753906 90.242188 L 29.371094 90.191406 L 29.992188 90.140625 L 30.609375 90.089844 L 31.226562 90.035156 L 31.847656 89.980469 L 32.464844 89.925781 L 33.699219 89.808594 L 34.320312 89.75 L 34.9375 89.691406 L 35.554688 89.628906 L 36.175781 89.5625 L 36.792969 89.5 L 37.410156 89.433594 L 38.03125 89.363281 L 38.648438 89.296875 L 39.265625 89.226562 L 39.882812 89.152344 L 40.503906 89.078125 L 41.121094 89.003906 L 41.738281 88.925781 L 42.359375 88.847656 L 42.976562 88.769531 L 43.59375 88.6875 L 44.214844 88.601562 L 46.066406 88.34375 L 46.6875 88.25 L 47.304688 88.160156 L 47.921875 88.066406 L 48.542969 87.96875 L 49.777344 87.773438 L 50.398438 87.671875 L 51.632812 87.460938 L 52.25 87.351562 L 52.871094 87.242188 L 53.488281 87.132812 L 54.105469 87.019531 L 54.726562 86.902344 L 55.34375 86.785156 L 55.960938 86.664062 L 56.582031 86.542969 L 57.199219 86.417969 L 58.433594 86.160156 L 59.054688 86.03125 L 59.671875 85.898438 L 60.289062 85.761719 L 60.910156 85.625 L 61.527344 85.484375 L 62.144531 85.339844 L 62.765625 85.195312 L 64 84.898438 L 64.617188 84.742188 L 65.238281 84.589844 L 66.472656 84.269531 L 67.09375 84.109375 L 68.328125 83.773438 L 68.949219 83.605469 L 70.183594 83.253906 L 70.800781 83.074219 L 71.421875 82.894531 L 72.039062 82.710938 L 72.65625 82.523438 L 73.277344 82.335938 L 74.511719 81.945312 L 75.132812 81.75 L 76.984375 81.140625 L 77.605469 80.929688 L 78.222656 80.71875 L 78.839844 80.503906 L 79.460938 80.285156 L 80.695312 79.839844 L 81.316406 79.613281 L 82.550781 79.152344 L 83.167969 78.917969 L 83.789062 78.679688 L 84.40625 78.4375 L 85.023438 78.191406 L 85.644531 77.945312 L 86.261719 77.695312 L 86.878906 77.441406 L 87.5 77.1875 L 88.734375 76.664062 L 89.351562 76.398438 L 89.972656 76.132812 L 90.589844 75.863281 L 91.207031 75.585938 L 91.828125 75.3125 L 93.0625 74.75 L 93.683594 74.460938 L 94.300781 74.175781 L 94.917969 73.882812 L 95.539062 73.589844 L 96.15625 73.292969 L 96.773438 72.992188 L 97.390625 72.6875 L 98.011719 72.382812 L 98.628906 72.074219 L 99.246094 71.761719 L 99.867188 71.449219 L 100.484375 71.132812 L 101.101562 70.8125 L 101.722656 70.488281 L 102.339844 70.164062 L 102.957031 69.835938 L 103.574219 69.503906 L 104.195312 69.171875 L 105.429688 68.5 L 106.050781 68.15625 L 106.667969 67.816406 L 107.285156 67.46875 L 107.90625 67.121094 L 109.140625 66.417969 L 109.757812 66.0625 L 110.378906 65.703125 L 111.613281 64.984375 L 112.234375 64.621094 L 112.851562 64.253906 L 113.46875 63.882812 L 114.089844 63.515625 L 114.707031 63.140625 L 115.324219 62.769531 L 115.941406 62.390625 L 116.5625 62.015625 L 117.179688 61.632812 L 117.796875 61.253906 L 118.417969 60.871094 L 119.652344 60.097656 L 120.273438 59.710938 L 120.890625 59.324219 L 121.507812 58.933594 L 122.125 58.539062 L 122.746094 58.148438 L 123.980469 57.359375 L 124.601562 56.960938 L 125.21875 56.566406 L 125.835938 56.167969 L 126.457031 55.769531 L 127.074219 55.367188 L 127.691406 54.96875 L 128.308594 54.566406 L 128.929688 54.164062 L 130.164062 53.359375 L 130.785156 52.957031 L 132.019531 52.152344 L 132.640625 51.75 L 133.257812 51.34375 L 134.492188 50.539062 L 135.113281 50.136719 L 136.347656 49.332031 L 136.96875 48.929688 L 137.585938 48.527344 L 138.203125 48.128906 L 138.824219 47.730469 L 140.675781 46.535156 L 141.296875 46.140625 L 142.53125 45.351562 L 143.152344 44.960938 L 143.769531 44.570312 L 144.386719 44.183594 L 145.007812 43.796875 L 145.625 43.410156 L 146.859375 42.644531 L 147.480469 42.265625 L 148.097656 41.886719 L 148.714844 41.511719 L 149.335938 41.140625 L 149.953125 40.769531 L 150.570312 40.402344 L 151.191406 40.035156 L 151.808594 39.671875 L 153.042969 38.953125 L 153.664062 38.601562 L 154.28125 38.25 L 154.898438 37.902344 L 155.519531 37.554688 L 156.753906 36.875 L 157.375 36.539062 L 157.992188 36.207031 L 159.226562 35.558594 L 159.847656 35.238281 L 160.464844 34.921875 L 161.082031 34.609375 L 161.703125 34.300781 L 162.320312 33.996094 L 162.9375 33.695312 L 163.558594 33.398438 L 164.175781 33.109375 L 165.410156 32.539062 L 166.03125 32.261719 L 166.648438 31.988281 L 167.265625 31.722656 L 167.886719 31.460938 L 168.503906 31.199219 L 169.121094 30.949219 L 169.742188 30.699219 L 170.359375 30.457031 L 170.976562 30.21875 L 171.597656 29.988281 L 172.214844 29.757812 L 173.449219 29.320312 L 174.070312 29.109375 L 174.6875 28.90625 L 175.304688 28.707031 L 175.925781 28.511719 L 176.542969 28.324219 L 177.160156 28.144531 L 177.78125 27.96875 L 178.398438 27.796875 L 179.015625 27.632812 L 179.632812 27.476562 L 180.253906 27.324219 L 180.871094 27.175781 L 181.488281 27.039062 L 182.109375 26.90625 L 182.726562 26.777344 L 183.34375 26.65625 L 183.964844 26.542969 L 184.582031 26.433594 L 185.199219 26.332031 L 185.816406 26.234375 L 186.4375 26.148438 L 187.054688 26.066406 L 187.671875 25.988281 L 188.292969 25.917969 L 188.910156 25.855469 L 189.527344 25.800781 L 190.148438 25.75 L 190.765625 25.707031 L 191.382812 25.671875 L 192 25.640625 L 192.621094 25.617188 L 193.238281 25.601562 L 193.855469 25.589844 L 195.09375 25.589844 L 195.710938 25.601562 L 196.332031 25.617188 L 196.949219 25.640625 L 197.566406 25.671875 L 198.183594 25.707031 L 198.804688 25.75 L 199.421875 25.800781 L 200.039062 25.855469 L 200.660156 25.917969 L 201.277344 25.988281 L 201.894531 26.066406 L 202.515625 26.148438 L 203.132812 26.234375 L 203.75 26.332031 L 204.367188 26.433594 L 204.988281 26.542969 L 205.605469 26.65625 L 206.222656 26.777344 L 206.84375 26.90625 L 207.460938 27.039062 L 208.078125 27.175781 L 208.699219 27.324219 L 209.316406 27.476562 L 209.933594 27.632812 L 210.550781 27.796875 L 211.171875 27.96875 L 211.789062 28.144531 L 212.40625 28.324219 L 213.027344 28.511719 L 213.644531 28.707031 L 214.261719 28.90625 L 214.882812 29.109375 L 215.5 29.320312 L 216.734375 29.757812 L 217.355469 29.988281 L 217.972656 30.21875 L 218.589844 30.457031 L 219.210938 30.699219 L 220.445312 31.199219 L 221.066406 31.460938 L 221.683594 31.722656 L 222.300781 31.988281 L 222.917969 32.261719 L 223.539062 32.539062 L 224.773438 33.109375 L 225.394531 33.398438 L 226.011719 33.695312 L 226.628906 33.996094 L 227.25 34.300781 L 227.867188 34.609375 L 228.484375 34.921875 L 229.101562 35.238281 L 229.722656 35.558594 L 230.957031 36.207031 L 231.578125 36.539062 L 232.195312 36.875 L 232.8125 37.214844 L 233.433594 37.554688 L 234.667969 38.25 L 235.285156 38.601562 L 235.90625 38.953125 L 237.140625 39.671875 L 237.761719 40.035156 L 238.996094 40.769531 L 239.617188 41.140625 L 240.234375 41.511719 L 240.851562 41.886719 L 241.46875 42.265625 L 242.089844 42.644531 L 243.324219 43.410156 L 243.945312 43.796875 L 245.179688 44.570312 L 245.800781 44.960938 L 246.417969 45.351562 L 247.652344 46.140625 L 248.273438 46.535156 L 249.507812 47.332031 L 250.128906 47.730469 L 251.363281 48.527344 L 251.984375 48.929688 L 253.21875 49.734375 L 253.839844 50.136719 L 255.691406 51.34375 L 256.3125 51.75 L 257.546875 52.554688 L 258.167969 52.957031 L 259.402344 53.761719 L 260.023438 54.164062 L 261.257812 54.96875 L 261.875 55.367188 L 262.496094 55.769531 L 263.730469 56.566406 L 264.351562 56.960938 L 264.96875 57.359375 L 265.585938 57.753906 L 266.207031 58.148438 L 266.824219 58.539062 L 267.441406 58.933594 L 268.058594 59.324219 L 268.679688 59.710938 L 269.914062 60.484375 L 270.535156 60.871094 L 271.152344 61.253906 L 271.769531 61.632812 L 272.390625 62.015625 L 273.007812 62.390625 L 273.625 62.769531 L 274.242188 63.140625 L 274.863281 63.515625 L 275.480469 63.882812 L 276.097656 64.253906 L 276.71875 64.621094 L 277.335938 64.984375 L 277.953125 65.34375 L 278.574219 65.703125 L 279.191406 66.0625 L 279.808594 66.417969 L 280.425781 66.769531 L 281.046875 67.121094 L 282.28125 67.816406 L 282.902344 68.15625 L 283.519531 68.5 L 284.136719 68.835938 L 284.757812 69.171875 L 285.992188 69.835938 L 286.609375 70.164062 L 287.230469 70.488281 L 287.847656 70.8125 L 288.464844 71.132812 L 289.085938 71.449219 L 290.320312 72.074219 L 290.941406 72.382812 L 292.175781 72.992188 L 292.792969 73.292969 L 293.414062 73.589844 L 294.648438 74.175781 L 295.269531 74.460938 L 295.886719 74.75 L 296.503906 75.03125 L 297.125 75.3125 L 297.742188 75.585938 L 298.359375 75.863281 L 298.976562 76.132812 L 299.597656 76.398438 L 300.214844 76.664062 L 300.832031 76.925781 L 301.453125 77.1875 L 302.6875 77.695312 L 303.308594 77.945312 L 304.542969 78.4375 L 305.160156 78.679688 L 305.78125 78.917969 L 306.398438 79.152344 L 307.015625 79.382812 L 307.636719 79.613281 L 308.253906 79.839844 L 308.871094 80.0625 L 309.492188 80.285156 L 310.109375 80.503906 L 310.726562 80.71875 L 311.34375 80.929688 L 311.964844 81.140625 L 313.199219 81.546875 L 313.820312 81.75 L 315.054688 82.140625 L 315.675781 82.335938 L 316.910156 82.710938 L 317.527344 82.894531 L 318.148438 83.074219 L 318.148438 92.074219 L 8.964844 92.074219 Z M 8.964844 91.335938 "/>
<path fill-rule="nonzero" fill="rgb(75.686275%, 9.411765%, 0%)" fill-opacity="0.329412" d="M 8.964844 83.074219 L 9.585938 82.894531 L 10.203125 82.710938 L 10.820312 82.523438 L 11.441406 82.335938 L 13.292969 81.75 L 13.914062 81.546875 L 15.148438 81.140625 L 15.769531 80.929688 L 16.386719 80.71875 L 17.003906 80.503906 L 17.625 80.285156 L 18.859375 79.839844 L 19.480469 79.613281 L 20.714844 79.152344 L 21.332031 78.917969 L 21.953125 78.679688 L 22.570312 78.4375 L 23.1875 78.191406 L 23.808594 77.945312 L 24.425781 77.695312 L 25.042969 77.441406 L 25.664062 77.1875 L 26.898438 76.664062 L 27.515625 76.398438 L 28.136719 76.132812 L 28.753906 75.863281 L 29.371094 75.585938 L 29.992188 75.3125 L 31.226562 74.75 L 31.847656 74.460938 L 32.464844 74.175781 L 33.699219 73.589844 L 34.320312 73.292969 L 34.9375 72.992188 L 35.554688 72.6875 L 36.175781 72.382812 L 36.792969 72.074219 L 37.410156 71.761719 L 38.03125 71.449219 L 38.648438 71.132812 L 39.265625 70.8125 L 39.882812 70.488281 L 40.503906 70.164062 L 41.121094 69.835938 L 41.738281 69.503906 L 42.359375 69.171875 L 43.59375 68.5 L 44.214844 68.15625 L 44.832031 67.816406 L 46.066406 67.121094 L 46.6875 66.769531 L 47.304688 66.417969 L 47.921875 66.0625 L 48.542969 65.703125 L 49.777344 64.984375 L 50.398438 64.621094 L 51.015625 64.253906 L 51.632812 63.882812 L 52.25 63.515625 L 52.871094 63.140625 L 53.488281 62.769531 L 54.105469 62.390625 L 54.726562 62.015625 L 55.34375 61.632812 L 55.960938 61.253906 L 56.582031 60.871094 L 58.433594 59.710938 L 59.054688 59.324219 L 59.671875 58.933594 L 60.289062 58.539062 L 60.910156 58.148438 L 62.144531 57.359375 L 62.765625 56.960938 L 63.382812 56.566406 L 64.617188 55.769531 L 65.238281 55.367188 L 65.855469 54.96875 L 66.472656 54.566406 L 67.09375 54.164062 L 68.328125 53.359375 L 68.949219 52.957031 L 70.800781 51.75 L 71.421875 51.34375 L 72.65625 50.539062 L 73.277344 50.136719 L 74.511719 49.332031 L 75.132812 48.929688 L 75.75 48.527344 L 76.984375 47.730469 L 77.605469 47.332031 L 78.839844 46.535156 L 79.460938 46.140625 L 80.695312 45.351562 L 81.316406 44.960938 L 81.933594 44.570312 L 83.167969 43.796875 L 83.789062 43.410156 L 85.023438 42.644531 L 85.644531 42.265625 L 86.261719 41.886719 L 86.878906 41.511719 L 87.5 41.140625 L 88.117188 40.769531 L 89.351562 40.035156 L 89.972656 39.671875 L 91.207031 38.953125 L 91.828125 38.601562 L 92.445312 38.25 L 93.0625 37.902344 L 93.683594 37.554688 L 94.917969 36.875 L 95.539062 36.539062 L 96.15625 36.207031 L 97.390625 35.558594 L 98.011719 35.238281 L 98.628906 34.921875 L 99.246094 34.609375 L 99.867188 34.300781 L 100.484375 33.996094 L 101.101562 33.695312 L 101.722656 33.398438 L 102.339844 33.109375 L 103.574219 32.539062 L 104.195312 32.261719 L 104.8125 31.988281 L 105.429688 31.722656 L 106.050781 31.460938 L 106.667969 31.199219 L 107.285156 30.949219 L 107.90625 30.699219 L 108.523438 30.457031 L 109.140625 30.21875 L 109.757812 29.988281 L 110.378906 29.757812 L 111.613281 29.320312 L 112.234375 29.109375 L 112.851562 28.90625 L 113.46875 28.707031 L 114.089844 28.511719 L 114.707031 28.324219 L 115.324219 28.144531 L 115.941406 27.96875 L 116.5625 27.796875 L 117.179688 27.632812 L 117.796875 27.476562 L 118.417969 27.324219 L 119.035156 27.175781 L 119.652344 27.039062 L 120.273438 26.90625 L 120.890625 26.777344 L 121.507812 26.65625 L 122.125 26.542969 L 122.746094 26.433594 L 123.363281 26.332031 L 123.980469 26.234375 L 124.601562 26.148438 L 125.21875 26.066406 L 125.835938 25.988281 L 126.457031 25.917969 L 127.074219 25.855469 L 127.691406 25.800781 L 128.308594 25.75 L 128.929688 25.707031 L 129.546875 25.671875 L 130.164062 25.640625 L 130.785156 25.617188 L 131.402344 25.601562 L 132.019531 25.589844 L 133.257812 25.589844 L 133.875 25.601562 L 134.492188 25.617188 L 135.113281 25.640625 L 135.730469 25.671875 L 136.347656 25.707031 L 136.96875 25.75 L 137.585938 25.800781 L 138.203125 25.855469 L 138.824219 25.917969 L 139.441406 25.988281 L 140.058594 26.066406 L 140.675781 26.148438 L 141.296875 26.234375 L 141.914062 26.332031 L 142.53125 26.433594 L 143.152344 26.542969 L 143.769531 26.65625 L 144.386719 26.777344 L 145.007812 26.90625 L 145.625 27.039062 L 146.242188 27.175781 L 146.859375 27.324219 L 147.480469 27.476562 L 148.097656 27.632812 L 148.714844 27.796875 L 149.335938 27.96875 L 149.953125 28.144531 L 150.570312 28.324219 L 151.191406 28.511719 L 151.808594 28.707031 L 152.425781 28.90625 L 153.042969 29.109375 L 153.664062 29.320312 L 154.898438 29.757812 L 155.519531 29.988281 L 156.136719 30.21875 L 156.753906 30.457031 L 157.375 30.699219 L 158.609375 31.199219 L 159.226562 31.460938 L 159.847656 31.722656 L 160.464844 31.988281 L 161.082031 32.261719 L 161.703125 32.539062 L 162.9375 33.109375 L 163.558594 33.398438 L 164.175781 33.695312 L 164.792969 33.996094 L 165.410156 34.300781 L 166.03125 34.609375 L 166.648438 34.921875 L 167.265625 35.238281 L 167.886719 35.558594 L 169.121094 36.207031 L 169.742188 36.539062 L 170.359375 36.875 L 170.976562 37.214844 L 171.597656 37.554688 L 172.832031 38.25 L 173.449219 38.601562 L 174.070312 38.953125 L 175.304688 39.671875 L 175.925781 40.035156 L 177.160156 40.769531 L 177.78125 41.140625 L 178.398438 41.511719 L 179.015625 41.886719 L 179.632812 42.265625 L 180.253906 42.644531 L 181.488281 43.410156 L 182.109375 43.796875 L 183.34375 44.570312 L 183.964844 44.960938 L 184.582031 45.351562 L 185.816406 46.140625 L 186.4375 46.535156 L 187.671875 47.332031 L 188.292969 47.730469 L 189.527344 48.527344 L 190.148438 48.929688 L 192 50.136719 L 192.621094 50.539062 L 193.855469 51.34375 L 194.476562 51.75 L 195.710938 52.554688 L 196.332031 52.957031 L 198.183594 54.164062 L 198.804688 54.566406 L 199.421875 54.96875 L 200.039062 55.367188 L 200.660156 55.769531 L 201.894531 56.566406 L 202.515625 56.960938 L 203.132812 57.359375 L 204.367188 58.148438 L 204.988281 58.539062 L 205.605469 58.933594 L 206.222656 59.324219 L 206.84375 59.710938 L 208.078125 60.484375 L 208.699219 60.871094 L 209.316406 61.253906 L 209.933594 61.632812 L 210.550781 62.015625 L 211.171875 62.390625 L 211.789062 62.769531 L 212.40625 63.140625 L 213.027344 63.515625 L 213.644531 63.882812 L 214.261719 64.253906 L 214.882812 64.621094 L 215.5 64.984375 L 216.734375 65.703125 L 217.355469 66.0625 L 217.972656 66.417969 L 218.589844 66.769531 L 219.210938 67.121094 L 220.445312 67.816406 L 221.066406 68.15625 L 221.683594 68.5 L 222.917969 69.171875 L 223.539062 69.503906 L 224.15625 69.835938 L 224.773438 70.164062 L 225.394531 70.488281 L 226.011719 70.8125 L 226.628906 71.132812 L 227.25 71.449219 L 228.484375 72.074219 L 229.101562 72.382812 L 229.722656 72.6875 L 230.339844 72.992188 L 230.957031 73.292969 L 231.578125 73.589844 L 232.8125 74.175781 L 233.433594 74.460938 L 234.050781 74.75 L 235.285156 75.3125 L 235.90625 75.585938 L 236.523438 75.863281 L 237.140625 76.132812 L 237.761719 76.398438 L 238.378906 76.664062 L 238.996094 76.925781 L 239.617188 77.1875 L 240.851562 77.695312 L 241.46875 77.945312 L 242.089844 78.191406 L 242.707031 78.4375 L 243.324219 78.679688 L 243.945312 78.917969 L 244.5625 79.152344 L 245.179688 79.382812 L 245.800781 79.613281 L 246.417969 79.839844 L 247.652344 80.285156 L 248.273438 80.503906 L 248.890625 80.71875 L 249.507812 80.929688 L 250.128906 81.140625 L 251.363281 81.546875 L 251.984375 81.75 L 253.21875 82.140625 L 253.839844 82.335938 L 255.074219 82.710938 L 255.691406 82.894531 L 256.3125 83.074219 L 256.929688 83.253906 L 257.546875 83.429688 L 258.167969 83.605469 L 259.402344 83.941406 L 260.023438 84.109375 L 261.875 84.589844 L 262.496094 84.742188 L 263.113281 84.898438 L 263.730469 85.046875 L 264.351562 85.195312 L 265.585938 85.484375 L 266.207031 85.625 L 267.441406 85.898438 L 268.058594 86.03125 L 268.679688 86.160156 L 269.914062 86.417969 L 270.535156 86.542969 L 271.769531 86.785156 L 272.390625 86.902344 L 273.007812 87.019531 L 273.625 87.132812 L 274.242188 87.242188 L 274.863281 87.351562 L 275.480469 87.460938 L 276.097656 87.566406 L 276.71875 87.671875 L 277.335938 87.773438 L 277.953125 87.871094 L 278.574219 87.96875 L 279.191406 88.066406 L 279.808594 88.160156 L 280.425781 88.25 L 281.046875 88.34375 L 282.28125 88.515625 L 282.902344 88.601562 L 283.519531 88.6875 L 284.136719 88.769531 L 284.757812 88.847656 L 285.992188 89.003906 L 286.609375 89.078125 L 287.230469 89.152344 L 287.847656 89.226562 L 288.464844 89.296875 L 289.085938 89.363281 L 289.703125 89.433594 L 290.320312 89.5 L 290.941406 89.5625 L 291.558594 89.628906 L 292.175781 89.691406 L 292.792969 89.75 L 293.414062 89.808594 L 294.648438 89.925781 L 295.269531 89.980469 L 296.503906 90.089844 L 297.125 90.140625 L 298.359375 90.242188 L 298.976562 90.289062 L 299.597656 90.335938 L 300.832031 90.429688 L 301.453125 90.472656 L 302.6875 90.558594 L 303.308594 90.601562 L 305.160156 90.71875 L 305.78125 90.753906 L 306.398438 90.792969 L 307.015625 90.828125 L 307.636719 90.863281 L 308.253906 90.894531 L 308.871094 90.929688 L 309.492188 90.960938 L 311.34375 91.054688 L 311.964844 91.082031 L 313.199219 91.136719 L 313.820312 91.164062 L 315.054688 91.21875 L 315.675781 91.242188 L 317.527344 91.3125 L 318.148438 91.335938 L 318.148438 92.074219 L 8.964844 92.074219 Z M 8.964844 83.074219 "/>
</g>
<g clip-path="url(#clip-1)">
<path fill="none" stroke-width="1.745965" stroke-linecap="butt" stroke-linejoin="round" stroke="rgb(0%, 0%, 0%)" stroke-opacity="1" stroke-miterlimit="10" d="M 194.476562 92.074219 L 194.476562 8.964844 "/>
</g>
<g clip-path="url(#clip-2)">
<path fill="none" stroke-width="1.745965" stroke-linecap="butt" stroke-linejoin="round" stroke="rgb(0%, 0%, 0%)" stroke-opacity="1" stroke-dasharray="6.983858 6.983858" stroke-miterlimit="10" d="M 101.722656 92.074219 L 101.722656 8.964844 "/>
</g>
<g clip-path="url(#clip-3)">
<path fill="none" stroke-width="1.745965" stroke-linecap="butt" stroke-linejoin="round" stroke="rgb(0%, 0%, 0%)" stroke-opacity="1" stroke-dasharray="6.983858 6.983858" stroke-miterlimit="10" d="M 163.558594 92.074219 L 163.558594 8.964844 "/>
</g>
<g clip-path="url(#clip-4)">
<path fill="none" stroke-width="1.745965" stroke-linecap="butt" stroke-linejoin="round" stroke="rgb(0%, 0%, 0%)" stroke-opacity="1" stroke-dasharray="6.983858 6.983858" stroke-miterlimit="10" d="M 240.851562 92.074219 L 240.851562 8.964844 "/>
</g>
<g clip-path="url(#clip-5)">
<path fill="none" stroke-width="1.745965" stroke-linecap="butt" stroke-linejoin="round" stroke="rgb(0%, 0%, 0%)" stroke-opacity="1" stroke-dasharray="6.983858 6.983858" stroke-miterlimit="10" d="M 271.769531 92.074219 L 271.769531 8.964844 "/>
</g>
<g fill="rgb(0%, 0%, 0%)" fill-opacity="1">
<use xlink:href="#glyph-0-0" x="168.417969" y="75.378906"/>
<use xlink:href="#glyph-0-1" x="176.637036" y="75.378906"/>
<use xlink:href="#glyph-0-2" x="183.283422" y="75.378906"/>
</g>
<g fill="rgb(0%, 0%, 0%)" fill-opacity="1">
<use xlink:href="#glyph-0-0" x="122.042969" y="75.378906"/>
<use xlink:href="#glyph-0-1" x="130.262036" y="75.378906"/>
<use xlink:href="#glyph-0-3" x="136.908422" y="75.378906"/>
</g>
<g fill="rgb(0%, 0%, 0%)" fill-opacity="1">
<use xlink:href="#glyph-0-0" x="60.203125" y="75.378906"/>
<use xlink:href="#glyph-0-1" x="68.422193" y="75.378906"/>
<use xlink:href="#glyph-0-4" x="75.068579" y="75.378906"/>
</g>
<g fill="rgb(0%, 0%, 0%)" fill-opacity="1">
<use xlink:href="#glyph-0-0" x="207.066406" y="75.378906"/>
<use xlink:href="#glyph-0-1" x="215.285474" y="75.378906"/>
<use xlink:href="#glyph-0-2" x="221.93186" y="75.378906"/>
</g>
<g fill="rgb(0%, 0%, 0%)" fill-opacity="1">
<use xlink:href="#glyph-0-0" x="245.714844" y="75.378906"/>
<use xlink:href="#glyph-0-1" x="253.933911" y="75.378906"/>
<use xlink:href="#glyph-0-3" x="260.580297" y="75.378906"/>
</g>
<g fill="rgb(0%, 0%, 0%)" fill-opacity="1">
<use xlink:href="#glyph-0-0" x="276.632812" y="75.378906"/>
<use xlink:href="#glyph-0-1" x="284.85188" y="75.378906"/>
<use xlink:href="#glyph-0-4" x="291.498266" y="75.378906"/>
</g>
<path fill="none" stroke-width="1.745965" stroke-linecap="square" stroke-linejoin="round" stroke="rgb(0%, 0%, 0%)" stroke-opacity="1" stroke-miterlimit="10" d="M 8.964844 92.074219 L 318.148438 92.074219 "/>
<path fill="none" stroke-width="1.745965" stroke-linecap="butt" stroke-linejoin="round" stroke="rgb(0%, 0%, 0%)" stroke-opacity="1" stroke-miterlimit="10" d="M 39.882812 96.558594 L 39.882812 92.074219 "/>
<path fill="none" stroke-width="1.745965" stroke-linecap="butt" stroke-linejoin="round" stroke="rgb(0%, 0%, 0%)" stroke-opacity="1" stroke-miterlimit="10" d="M 163.558594 96.558594 L 163.558594 92.074219 "/>
<path fill="none" stroke-width="1.745965" stroke-linecap="butt" stroke-linejoin="round" stroke="rgb(0%, 0%, 0%)" stroke-opacity="1" stroke-miterlimit="10" d="M 287.230469 96.558594 L 287.230469 92.074219 "/>
<g fill="rgb(0%, 0%, 0%)" fill-opacity="1">
<use xlink:href="#glyph-1-0" x="33.480469" y="110.472656"/>
<use xlink:href="#glyph-1-1" x="38.275781" y="110.472656"/>
</g>
<g fill="rgb(0%, 0%, 0%)" fill-opacity="1">
<use xlink:href="#glyph-1-2" x="159.554688" y="110.472656"/>
</g>
<g fill="rgb(0%, 0%, 0%)" fill-opacity="1">
<use xlink:href="#glyph-1-1" x="283.226562" y="110.472656"/>
</g>
<g fill="rgb(0%, 0%, 0%)" fill-opacity="1">
<use xlink:href="#glyph-2-0" x="96.519531" y="131.050781"/>
<use xlink:href="#glyph-2-1" x="107.514648" y="131.050781"/>
<use xlink:href="#glyph-2-2" x="116.514648" y="131.050781"/>
<use xlink:href="#glyph-2-3" x="126.525391" y="131.050781"/>
<use xlink:href="#glyph-2-4" x="136.536133" y="131.050781"/>
<use xlink:href="#glyph-2-5" x="141.537109" y="131.050781"/>
<use xlink:href="#glyph-2-4" x="151.547852" y="131.050781"/>
<use xlink:href="#glyph-2-6" x="156.548828" y="131.050781"/>
<use xlink:href="#glyph-2-7" x="168.554688" y="131.050781"/>
<use xlink:href="#glyph-2-8" x="177.554688" y="131.050781"/>
<use xlink:href="#glyph-2-9" x="181.553711" y="131.050781"/>
<use xlink:href="#glyph-2-3" x="191.564453" y="131.050781"/>
<use xlink:href="#glyph-2-10" x="201.575195" y="131.050781"/>
<use xlink:href="#glyph-2-11" x="211.585938" y="131.050781"/>
<use xlink:href="#glyph-2-3" x="220.585938" y="131.050781"/>
</g>
<g fill="rgb(0%, 0%, 0%)" fill-opacity="1">
<use xlink:href="#glyph-2-12" x="345.046875" y="35.210938"/>
<use xlink:href="#glyph-2-13" x="357.052734" y="35.210938"/>
<use xlink:href="#glyph-2-8" x="362.053711" y="35.210938"/>
<use xlink:href="#glyph-2-14" x="366.052734" y="35.210938"/>
<use xlink:href="#glyph-2-15" x="381.046875" y="35.210938"/>
<use xlink:href="#glyph-2-16" x="391.057617" y="35.210938"/>
<use xlink:href="#glyph-2-15" x="395.056641" y="35.210938"/>
<use xlink:href="#glyph-2-17" x="405.067383" y="35.210938"/>
</g>
<path fill-rule="nonzero" fill="rgb(75.686275%, 9.411765%, 0%)" fill-opacity="0.329412" d="M 346.464844 62.03125 L 360.910156 62.03125 L 360.910156 47.585938 L 346.464844 47.585938 Z M 346.464844 62.03125 "/>
<path fill-rule="nonzero" fill="rgb(90.980392%, 70.196078%, 19.607843%)" fill-opacity="0.329412" d="M 346.464844 79.3125 L 360.910156 79.3125 L 360.910156 64.867188 L 346.464844 64.867188 Z M 346.464844 79.3125 "/>
<g fill="rgb(0%, 0%, 0%)" fill-opacity="1">
<use xlink:href="#glyph-1-2" x="371.292969" y="59.972656"/>
</g>
<g fill="rgb(0%, 0%, 0%)" fill-opacity="1">
<use xlink:href="#glyph-1-3" x="371.292969" y="77.253906"/>
</g>
</svg>
