<?xml version="1.0" encoding="UTF-8"?>
<svg xmlns="http://www.w3.org/2000/svg" xmlns:xlink="http://www.w3.org/1999/xlink" width="504pt" height="360pt" viewBox="0 0 504 360">
<defs>
<g>
<g id="glyph-0-0">
<path d="M 3.890625 -10.078125 C 5.203125 -10.078125 6.144531 -9.539062 6.71875 -8.46875 C 7.175781 -7.632812 7.40625 -6.492188 7.40625 -5.046875 C 7.40625 -3.679688 7.195312 -2.550781 6.78125 -1.65625 C 6.195312 -0.363281 5.234375 0.28125 3.890625 0.28125 C 2.679688 0.28125 1.78125 -0.242188 1.1875 -1.296875 C 0.695312 -2.171875 0.453125 -3.347656 0.453125 -4.828125 C 0.453125 -5.972656 0.597656 -6.957031 0.890625 -7.78125 C 1.441406 -9.3125 2.441406 -10.078125 3.890625 -10.078125 Z M 3.890625 -0.875 C 4.546875 -0.875 5.066406 -1.164062 5.453125 -1.75 C 5.835938 -2.332031 6.03125 -3.414062 6.03125 -5 C 6.03125 -6.144531 5.890625 -7.085938 5.609375 -7.828125 C 5.328125 -8.566406 4.78125 -8.9375 3.96875 -8.9375 C 3.226562 -8.9375 2.6875 -8.582031 2.34375 -7.875 C 2 -7.175781 1.828125 -6.144531 1.828125 -4.78125 C 1.828125 -3.757812 1.9375 -2.9375 2.15625 -2.3125 C 2.488281 -1.351562 3.066406 -0.875 3.890625 -0.875 Z M 3.890625 -0.875 "/>
</g>
<g id="glyph-0-1">
<path d="M 1.234375 -1.53125 L 2.703125 -1.53125 L 2.703125 0 L 1.234375 0 Z M 1.234375 -1.53125 "/>
</g>
<g id="glyph-0-2">
<path d="M 0.453125 0 C 0.492188 -0.863281 0.671875 -1.617188 0.984375 -2.265625 C 1.296875 -2.910156 1.90625 -3.492188 2.8125 -4.015625 L 4.171875 -4.796875 C 4.773438 -5.148438 5.195312 -5.453125 5.4375 -5.703125 C 5.820312 -6.085938 6.015625 -6.53125 6.015625 -7.03125 C 6.015625 -7.613281 5.835938 -8.078125 5.484375 -8.421875 C 5.128906 -8.773438 4.660156 -8.953125 4.078125 -8.953125 C 3.210938 -8.953125 2.613281 -8.625 2.28125 -7.96875 C 2.101562 -7.613281 2.003906 -7.125 1.984375 -6.5 L 0.703125 -6.5 C 0.710938 -7.375 0.875 -8.085938 1.1875 -8.640625 C 1.726562 -9.617188 2.695312 -10.109375 4.09375 -10.109375 C 5.238281 -10.109375 6.078125 -9.796875 6.609375 -9.171875 C 7.148438 -8.546875 7.421875 -7.851562 7.421875 -7.09375 C 7.421875 -6.28125 7.132812 -5.585938 6.5625 -5.015625 C 6.238281 -4.679688 5.648438 -4.28125 4.796875 -3.8125 L 3.828125 -3.28125 C 3.367188 -3.019531 3.007812 -2.773438 2.75 -2.546875 C 2.28125 -2.140625 1.984375 -1.691406 1.859375 -1.203125 L 7.359375 -1.203125 L 7.359375 0 Z M 0.453125 0 "/>
</g>
<g id="glyph-0-3">
<path d="M 1.78125 -2.5625 C 1.863281 -1.84375 2.195312 -1.34375 2.78125 -1.0625 C 3.082031 -0.925781 3.429688 -0.859375 3.828125 -0.859375 C 4.578125 -0.859375 5.128906 -1.097656 5.484375 -1.578125 C 5.847656 -2.054688 6.03125 -2.585938 6.03125 -3.171875 C 6.03125 -3.867188 5.816406 -4.410156 5.390625 -4.796875 C 4.960938 -5.179688 4.445312 -5.375 3.84375 -5.375 C 3.40625 -5.375 3.03125 -5.289062 2.71875 -5.125 C 2.414062 -4.957031 2.148438 -4.722656 1.921875 -4.421875 L 0.828125 -4.484375 L 1.59375 -9.90625 L 6.828125 -9.90625 L 6.828125 -8.6875 L 2.546875 -8.6875 L 2.125 -5.875 C 2.351562 -6.050781 2.570312 -6.1875 2.78125 -6.28125 C 3.15625 -6.4375 3.59375 -6.515625 4.09375 -6.515625 C 5.007812 -6.515625 5.789062 -6.21875 6.4375 -5.625 C 7.082031 -5.03125 7.40625 -4.273438 7.40625 -3.359375 C 7.40625 -2.398438 7.109375 -1.554688 6.515625 -0.828125 C 5.929688 -0.109375 4.992188 0.25 3.703125 0.25 C 2.878906 0.25 2.148438 0.0195312 1.515625 -0.4375 C 0.890625 -0.894531 0.539062 -1.601562 0.46875 -2.5625 Z M 1.78125 -2.5625 "/>
</g>
<g id="glyph-0-4">
<path d="M 7.53125 -9.90625 L 7.53125 -8.796875 C 7.207031 -8.484375 6.773438 -7.9375 6.234375 -7.15625 C 5.703125 -6.382812 5.226562 -5.546875 4.8125 -4.640625 C 4.40625 -3.765625 4.097656 -2.96875 3.890625 -2.25 C 3.753906 -1.78125 3.578125 -1.03125 3.359375 0 L 1.96875 0 C 2.28125 -1.925781 2.984375 -3.835938 4.078125 -5.734375 C 4.710938 -6.859375 5.382812 -7.820312 6.09375 -8.625 L 0.53125 -8.625 L 0.53125 -9.90625 Z M 7.53125 -9.90625 "/>
</g>
<g id="glyph-0-5">
<path d="M 1.375 -7.125 L 1.375 -8.109375 C 2.289062 -8.191406 2.925781 -8.335938 3.28125 -8.546875 C 3.644531 -8.753906 3.914062 -9.25 4.09375 -10.03125 L 5.09375 -10.03125 L 5.09375 0 L 3.75 0 L 3.75 -7.125 Z M 1.375 -7.125 "/>
</g>
<g id="glyph-0-6">
<path d="M 0.921875 -10.375 L 2.1875 -10.375 L 2.1875 -6.515625 C 2.488281 -6.890625 2.757812 -7.15625 3 -7.3125 C 3.40625 -7.582031 3.914062 -7.71875 4.53125 -7.71875 C 5.625 -7.71875 6.363281 -7.332031 6.75 -6.5625 C 6.957031 -6.144531 7.0625 -5.566406 7.0625 -4.828125 L 7.0625 0 L 5.765625 0 L 5.765625 -4.75 C 5.765625 -5.300781 5.695312 -5.707031 5.5625 -5.96875 C 5.332031 -6.375 4.898438 -6.578125 4.265625 -6.578125 C 3.734375 -6.578125 3.253906 -6.394531 2.828125 -6.03125 C 2.398438 -5.675781 2.1875 -5 2.1875 -4 L 2.1875 0 L 0.921875 0 Z M 0.921875 -10.375 "/>
</g>
<g id="glyph-0-7">
<path d="M 0.921875 -7.5 L 2.21875 -7.5 L 2.21875 0 L 0.921875 0 Z M 0.921875 -10.328125 L 2.21875 -10.328125 L 2.21875 -8.890625 L 0.921875 -8.890625 Z M 0.921875 -10.328125 "/>
</g>
<g id="glyph-0-8">
<path d="M 3.59375 -7.671875 C 4.175781 -7.671875 4.691406 -7.523438 5.140625 -7.234375 C 5.378906 -7.066406 5.617188 -6.828125 5.859375 -6.515625 L 5.859375 -7.46875 L 7.03125 -7.46875 L 7.03125 -0.609375 C 7.03125 0.347656 6.890625 1.101562 6.609375 1.65625 C 6.085938 2.675781 5.097656 3.1875 3.640625 3.1875 C 2.828125 3.1875 2.144531 3.003906 1.59375 2.640625 C 1.039062 2.273438 0.726562 1.707031 0.65625 0.9375 L 1.953125 0.9375 C 2.015625 1.269531 2.132812 1.53125 2.3125 1.71875 C 2.601562 2 3.054688 2.140625 3.671875 2.140625 C 4.640625 2.140625 5.273438 1.796875 5.578125 1.109375 C 5.753906 0.703125 5.832031 -0.015625 5.8125 -1.046875 C 5.5625 -0.660156 5.257812 -0.375 4.90625 -0.1875 C 4.550781 0 4.078125 0.09375 3.484375 0.09375 C 2.671875 0.09375 1.957031 -0.191406 1.34375 -0.765625 C 0.726562 -1.347656 0.421875 -2.3125 0.421875 -3.65625 C 0.421875 -4.914062 0.726562 -5.898438 1.34375 -6.609375 C 1.96875 -7.316406 2.71875 -7.671875 3.59375 -7.671875 Z M 5.859375 -3.796875 C 5.859375 -4.734375 5.664062 -5.425781 5.28125 -5.875 C 4.90625 -6.320312 4.414062 -6.546875 3.8125 -6.546875 C 2.925781 -6.546875 2.316406 -6.128906 1.984375 -5.296875 C 1.816406 -4.847656 1.734375 -4.265625 1.734375 -3.546875 C 1.734375 -2.691406 1.90625 -2.039062 2.25 -1.59375 C 2.59375 -1.15625 3.054688 -0.9375 3.640625 -0.9375 C 4.546875 -0.9375 5.1875 -1.347656 5.5625 -2.171875 C 5.757812 -2.640625 5.859375 -3.179688 5.859375 -3.796875 Z M 3.734375 -7.71875 Z M 3.734375 -7.71875 "/>
</g>
<g id="glyph-0-9">
<path d="M 0.96875 -10.328125 L 2.234375 -10.328125 L 2.234375 0 L 0.96875 0 Z M 0.96875 -10.328125 "/>
</g>
<g id="glyph-0-10">
<path d="M 3.921875 -0.8125 C 4.753906 -0.8125 5.328125 -1.128906 5.640625 -1.765625 C 5.953125 -2.398438 6.109375 -3.109375 6.109375 -3.890625 C 6.109375 -4.585938 6 -5.160156 5.78125 -5.609375 C 5.414062 -6.296875 4.800781 -6.640625 3.9375 -6.640625 C 3.15625 -6.640625 2.585938 -6.34375 2.234375 -5.75 C 1.890625 -5.164062 1.71875 -4.457031 1.71875 -3.625 C 1.71875 -2.820312 1.890625 -2.148438 2.234375 -1.609375 C 2.585938 -1.078125 3.148438 -0.8125 3.921875 -0.8125 Z M 3.96875 -7.75 C 4.9375 -7.75 5.753906 -7.425781 6.421875 -6.78125 C 7.097656 -6.132812 7.4375 -5.179688 7.4375 -3.921875 C 7.4375 -2.710938 7.140625 -1.707031 6.546875 -0.90625 C 5.953125 -0.113281 5.035156 0.28125 3.796875 0.28125 C 2.765625 0.28125 1.941406 -0.0664062 1.328125 -0.765625 C 0.722656 -1.472656 0.421875 -2.421875 0.421875 -3.609375 C 0.421875 -4.867188 0.738281 -5.875 1.375 -6.625 C 2.019531 -7.375 2.882812 -7.75 3.96875 -7.75 Z M 3.921875 -7.71875 Z M 3.921875 -7.71875 "/>
</g>
<g id="glyph-0-11">
<path d="M 1.515625 -7.53125 L 2.96875 -1.59375 L 4.4375 -7.53125 L 5.859375 -7.53125 L 7.328125 -1.625 L 8.875 -7.53125 L 10.140625 -7.53125 L 7.953125 0 L 6.640625 0 L 5.09375 -5.828125 L 3.609375 0 L 2.296875 0 L 0.125 -7.53125 Z M 1.515625 -7.53125 "/>
</g>
<g id="glyph-1-0">
<path d="M 1.53125 -12.90625 L 7.34375 -12.90625 C 8.5 -12.90625 9.425781 -12.582031 10.125 -11.9375 C 10.832031 -11.289062 11.1875 -10.382812 11.1875 -9.21875 C 11.1875 -8.207031 10.867188 -7.328125 10.234375 -6.578125 C 9.609375 -5.828125 8.644531 -5.453125 7.34375 -5.453125 L 3.28125 -5.453125 L 3.28125 0 L 1.53125 0 Z M 9.40625 -9.203125 C 9.40625 -10.148438 9.054688 -10.796875 8.359375 -11.140625 C 7.972656 -11.316406 7.441406 -11.40625 6.765625 -11.40625 L 3.28125 -11.40625 L 3.28125 -6.9375 L 6.765625 -6.9375 C 7.554688 -6.9375 8.191406 -7.101562 8.671875 -7.4375 C 9.160156 -7.769531 9.40625 -8.359375 9.40625 -9.203125 Z M 9.40625 -9.203125 "/>
</g>
<g id="glyph-1-1">
<path d="M 5.328125 -13.125 C 4.410156 -11.332031 3.8125 -10.015625 3.53125 -9.171875 C 3.113281 -7.890625 2.90625 -6.410156 2.90625 -4.734375 C 2.90625 -3.035156 3.144531 -1.484375 3.625 -0.078125 C 3.914062 0.796875 4.492188 2.046875 5.359375 3.671875 L 4.296875 3.671875 C 3.429688 2.335938 2.894531 1.484375 2.6875 1.109375 C 2.488281 0.742188 2.269531 0.242188 2.03125 -0.390625 C 1.695312 -1.253906 1.46875 -2.179688 1.34375 -3.171875 C 1.28125 -3.671875 1.25 -4.15625 1.25 -4.625 C 1.25 -6.351562 1.519531 -7.894531 2.0625 -9.25 C 2.40625 -10.113281 3.128906 -11.40625 4.234375 -13.125 Z M 5.328125 -13.125 "/>
</g>
<g id="glyph-1-2">
<path d="M 6.8125 -13.265625 C 8.445312 -13.265625 9.710938 -12.832031 10.609375 -11.96875 C 11.515625 -11.101562 12.019531 -10.125 12.125 -9.03125 L 10.421875 -9.03125 C 10.222656 -9.863281 9.832031 -10.523438 9.25 -11.015625 C 8.675781 -11.503906 7.867188 -11.75 6.828125 -11.75 C 5.554688 -11.75 4.53125 -11.300781 3.75 -10.40625 C 2.96875 -9.507812 2.578125 -8.140625 2.578125 -6.296875 C 2.578125 -4.785156 2.925781 -3.554688 3.625 -2.609375 C 4.332031 -1.671875 5.390625 -1.203125 6.796875 -1.203125 C 8.085938 -1.203125 9.066406 -1.695312 9.734375 -2.6875 C 10.097656 -3.207031 10.363281 -3.894531 10.53125 -4.75 L 12.25 -4.75 C 12.09375 -3.382812 11.585938 -2.242188 10.734375 -1.328125 C 9.703125 -0.222656 8.316406 0.328125 6.578125 0.328125 C 5.078125 0.328125 3.816406 -0.125 2.796875 -1.03125 C 1.460938 -2.226562 0.796875 -4.082031 0.796875 -6.59375 C 0.796875 -8.5 1.296875 -10.0625 2.296875 -11.28125 C 3.390625 -12.601562 4.894531 -13.265625 6.8125 -13.265625 Z M 6.453125 -13.265625 Z M 6.453125 -13.265625 "/>
</g>
<g id="glyph-1-3">
<path d="M 4.890625 -1.015625 C 5.941406 -1.015625 6.660156 -1.410156 7.046875 -2.203125 C 7.441406 -3.003906 7.640625 -3.890625 7.640625 -4.859375 C 7.640625 -5.734375 7.5 -6.445312 7.21875 -7 C 6.769531 -7.875 6 -8.3125 4.90625 -8.3125 C 3.945312 -8.3125 3.242188 -7.941406 2.796875 -7.203125 C 2.359375 -6.460938 2.140625 -5.570312 2.140625 -4.53125 C 2.140625 -3.53125 2.359375 -2.691406 2.796875 -2.015625 C 3.242188 -1.347656 3.941406 -1.015625 4.890625 -1.015625 Z M 4.953125 -9.6875 C 6.171875 -9.6875 7.195312 -9.28125 8.03125 -8.46875 C 8.875 -7.664062 9.296875 -6.476562 9.296875 -4.90625 C 9.296875 -3.382812 8.925781 -2.128906 8.1875 -1.140625 C 7.445312 -0.148438 6.300781 0.34375 4.75 0.34375 C 3.445312 0.34375 2.414062 -0.09375 1.65625 -0.96875 C 0.894531 -1.84375 0.515625 -3.019531 0.515625 -4.5 C 0.515625 -6.082031 0.914062 -7.34375 1.71875 -8.28125 C 2.519531 -9.21875 3.597656 -9.6875 4.953125 -9.6875 Z M 4.90625 -9.640625 Z M 4.90625 -9.640625 "/>
</g>
<g id="glyph-1-4">
<path d="M 1.15625 -9.40625 L 2.65625 -9.40625 L 2.65625 -8.078125 C 3.101562 -8.628906 3.578125 -9.023438 4.078125 -9.265625 C 4.578125 -9.503906 5.128906 -9.625 5.734375 -9.625 C 7.078125 -9.625 7.984375 -9.160156 8.453125 -8.234375 C 8.703125 -7.722656 8.828125 -6.988281 8.828125 -6.03125 L 8.828125 0 L 7.21875 0 L 7.21875 -5.9375 C 7.21875 -6.507812 7.132812 -6.972656 6.96875 -7.328125 C 6.6875 -7.910156 6.175781 -8.203125 5.4375 -8.203125 C 5.0625 -8.203125 4.753906 -8.164062 4.515625 -8.09375 C 4.085938 -7.957031 3.707031 -7.695312 3.375 -7.3125 C 3.113281 -7 2.941406 -6.675781 2.859375 -6.34375 C 2.785156 -6.019531 2.75 -5.550781 2.75 -4.9375 L 2.75 0 L 1.15625 0 Z M 4.875 -9.640625 Z M 4.875 -9.640625 "/>
</g>
<g id="glyph-1-5">
<path d="M 1.5625 -10.84375 C 1.582031 -11.5 1.695312 -11.976562 1.90625 -12.28125 C 2.269531 -12.820312 2.976562 -13.09375 4.03125 -13.09375 C 4.132812 -13.09375 4.238281 -13.085938 4.34375 -13.078125 C 4.445312 -13.078125 4.566406 -13.070312 4.703125 -13.0625 L 4.703125 -11.625 C 4.535156 -11.632812 4.414062 -11.640625 4.34375 -11.640625 C 4.269531 -11.640625 4.203125 -11.640625 4.140625 -11.640625 C 3.660156 -11.640625 3.375 -11.515625 3.28125 -11.265625 C 3.1875 -11.023438 3.140625 -10.394531 3.140625 -9.375 L 4.703125 -9.375 L 4.703125 -8.125 L 3.125 -8.125 L 3.125 0 L 1.5625 0 L 1.5625 -8.125 L 0.25 -8.125 L 0.25 -9.375 L 1.5625 -9.375 Z M 1.5625 -10.84375 "/>
</g>
<g id="glyph-1-6">
<path d="M 1.15625 -9.375 L 2.765625 -9.375 L 2.765625 0 L 1.15625 0 Z M 1.15625 -12.90625 L 2.765625 -12.90625 L 2.765625 -11.125 L 1.15625 -11.125 Z M 1.15625 -12.90625 "/>
</g>
<g id="glyph-1-7">
<path d="M 2.15625 -4.59375 C 2.15625 -3.582031 2.367188 -2.738281 2.796875 -2.0625 C 3.234375 -1.382812 3.921875 -1.046875 4.859375 -1.046875 C 5.585938 -1.046875 6.1875 -1.359375 6.65625 -1.984375 C 7.132812 -2.617188 7.375 -3.523438 7.375 -4.703125 C 7.375 -5.890625 7.128906 -6.769531 6.640625 -7.34375 C 6.160156 -7.914062 5.5625 -8.203125 4.84375 -8.203125 C 4.039062 -8.203125 3.390625 -7.894531 2.890625 -7.28125 C 2.398438 -6.675781 2.15625 -5.78125 2.15625 -4.59375 Z M 4.546875 -9.578125 C 5.265625 -9.578125 5.867188 -9.425781 6.359375 -9.125 C 6.640625 -8.945312 6.957031 -8.640625 7.3125 -8.203125 L 7.3125 -12.953125 L 8.828125 -12.953125 L 8.828125 0 L 7.40625 0 L 7.40625 -1.3125 C 7.039062 -0.726562 6.601562 -0.304688 6.09375 -0.046875 C 5.59375 0.203125 5.019531 0.328125 4.375 0.328125 C 3.320312 0.328125 2.410156 -0.109375 1.640625 -0.984375 C 0.878906 -1.867188 0.5 -3.046875 0.5 -4.515625 C 0.5 -5.878906 0.847656 -7.0625 1.546875 -8.0625 C 2.242188 -9.070312 3.242188 -9.578125 4.546875 -9.578125 Z M 4.546875 -9.578125 "/>
</g>
<g id="glyph-1-8">
<path d="M 5.078125 -9.625 C 5.742188 -9.625 6.390625 -9.46875 7.015625 -9.15625 C 7.648438 -8.84375 8.128906 -8.4375 8.453125 -7.9375 C 8.773438 -7.457031 8.988281 -6.90625 9.09375 -6.28125 C 9.1875 -5.84375 9.234375 -5.148438 9.234375 -4.203125 L 2.328125 -4.203125 C 2.359375 -3.242188 2.582031 -2.472656 3 -1.890625 C 3.425781 -1.316406 4.082031 -1.03125 4.96875 -1.03125 C 5.789062 -1.03125 6.445312 -1.304688 6.9375 -1.859375 C 7.21875 -2.171875 7.421875 -2.535156 7.546875 -2.953125 L 9.09375 -2.953125 C 9.050781 -2.609375 8.914062 -2.222656 8.6875 -1.796875 C 8.457031 -1.367188 8.195312 -1.019531 7.90625 -0.75 C 7.425781 -0.28125 6.832031 0.03125 6.125 0.1875 C 5.75 0.28125 5.316406 0.328125 4.828125 0.328125 C 3.660156 0.328125 2.671875 -0.09375 1.859375 -0.9375 C 1.046875 -1.789062 0.640625 -2.988281 0.640625 -4.53125 C 0.640625 -6.039062 1.046875 -7.265625 1.859375 -8.203125 C 2.679688 -9.148438 3.753906 -9.625 5.078125 -9.625 Z M 7.609375 -5.453125 C 7.535156 -6.140625 7.382812 -6.691406 7.15625 -7.109375 C 6.71875 -7.867188 5.992188 -8.25 4.984375 -8.25 C 4.253906 -8.25 3.644531 -7.984375 3.15625 -7.453125 C 2.664062 -6.929688 2.40625 -6.265625 2.375 -5.453125 Z M 4.9375 -9.640625 Z M 4.9375 -9.640625 "/>
</g>
<g id="glyph-1-9">
<path d="M 4.796875 -9.6875 C 5.847656 -9.6875 6.707031 -9.425781 7.375 -8.90625 C 8.039062 -8.394531 8.441406 -7.507812 8.578125 -6.25 L 7.046875 -6.25 C 6.953125 -6.832031 6.734375 -7.3125 6.390625 -7.6875 C 6.054688 -8.070312 5.523438 -8.265625 4.796875 -8.265625 C 3.785156 -8.265625 3.0625 -7.773438 2.625 -6.796875 C 2.34375 -6.160156 2.203125 -5.375 2.203125 -4.4375 C 2.203125 -3.488281 2.398438 -2.691406 2.796875 -2.046875 C 3.203125 -1.398438 3.832031 -1.078125 4.6875 -1.078125 C 5.34375 -1.078125 5.863281 -1.273438 6.25 -1.671875 C 6.632812 -2.078125 6.898438 -2.628906 7.046875 -3.328125 L 8.578125 -3.328125 C 8.398438 -2.078125 7.957031 -1.164062 7.25 -0.59375 C 6.550781 -0.0195312 5.65625 0.265625 4.5625 0.265625 C 3.332031 0.265625 2.347656 -0.179688 1.609375 -1.078125 C 0.878906 -1.972656 0.515625 -3.097656 0.515625 -4.453125 C 0.515625 -6.097656 0.914062 -7.378906 1.71875 -8.296875 C 2.519531 -9.222656 3.546875 -9.6875 4.796875 -9.6875 Z M 4.546875 -9.640625 Z M 4.546875 -9.640625 "/>
</g>
<g id="glyph-1-10">
</g>
<g id="glyph-1-11">
<path d="M 0.8125 -9.359375 L 9.96875 -6.25 L 9.96875 -4.765625 L 0.8125 -1.65625 L 0.8125 -3.25 L 8.109375 -5.515625 L 0.8125 -7.765625 Z M 9.96875 -1.421875 L 9.96875 0 L 0.8125 0 L 0.8125 -1.421875 Z M 9.96875 -1.421875 "/>
</g>
<g id="glyph-1-12">
<path d="M 1.125 -12.90625 L 2.640625 -12.90625 L 2.640625 -5.421875 L 6.703125 -9.40625 L 8.734375 -9.40625 L 5.125 -5.890625 L 8.9375 0 L 6.90625 0 L 3.96875 -4.75 L 2.640625 -3.53125 L 2.640625 0 L 1.125 0 Z M 1.125 -12.90625 "/>
</g>
<g id="glyph-1-13">
<path d="M 2.765625 0 L 1.265625 0 L 1.265625 -13.09375 L 2.765625 -13.09375 Z M 2.765625 0 "/>
</g>
<g id="glyph-1-14">
<path d="M 1.765625 -12.90625 L 3.53125 -12.90625 L 3.53125 0 L 1.765625 0 Z M 1.765625 -12.90625 "/>
</g>
<g id="glyph-1-15">
<path d="M 1.203125 -9.40625 L 2.703125 -9.40625 L 2.703125 -7.78125 C 2.828125 -8.101562 3.128906 -8.488281 3.609375 -8.9375 C 4.085938 -9.394531 4.644531 -9.625 5.28125 -9.625 C 5.300781 -9.625 5.347656 -9.617188 5.421875 -9.609375 C 5.492188 -9.609375 5.613281 -9.597656 5.78125 -9.578125 L 5.78125 -7.90625 C 5.6875 -7.925781 5.597656 -7.9375 5.515625 -7.9375 C 5.441406 -7.945312 5.359375 -7.953125 5.265625 -7.953125 C 4.460938 -7.953125 3.847656 -7.695312 3.421875 -7.1875 C 2.992188 -6.675781 2.78125 -6.085938 2.78125 -5.421875 L 2.78125 0 L 1.203125 0 Z M 1.203125 -9.40625 "/>
</g>
<g id="glyph-1-16">
<path d="M 1.484375 -12.046875 L 3.078125 -12.046875 L 3.078125 -9.40625 L 4.578125 -9.40625 L 4.578125 -8.125 L 3.078125 -8.125 L 3.078125 -1.984375 C 3.078125 -1.648438 3.1875 -1.425781 3.40625 -1.3125 C 3.53125 -1.25 3.738281 -1.21875 4.03125 -1.21875 C 4.101562 -1.21875 4.179688 -1.21875 4.265625 -1.21875 C 4.359375 -1.226562 4.460938 -1.238281 4.578125 -1.25 L 4.578125 0 C 4.398438 0.0507812 4.210938 0.0859375 4.015625 0.109375 C 3.816406 0.140625 3.601562 0.15625 3.375 0.15625 C 2.632812 0.15625 2.132812 -0.03125 1.875 -0.40625 C 1.613281 -0.789062 1.484375 -1.285156 1.484375 -1.890625 L 1.484375 -8.125 L 0.203125 -8.125 L 0.203125 -9.40625 L 1.484375 -9.40625 Z M 1.484375 -12.046875 "/>
</g>
<g id="glyph-1-17">
<path d="M 0.625 3.671875 C 1.550781 1.859375 2.148438 0.535156 2.421875 -0.296875 C 2.835938 -1.554688 3.046875 -3.035156 3.046875 -4.734375 C 3.046875 -6.421875 2.804688 -7.96875 2.328125 -9.375 C 2.035156 -10.238281 1.457031 -11.488281 0.59375 -13.125 L 1.65625 -13.125 C 2.5625 -11.675781 3.109375 -10.785156 3.296875 -10.453125 C 3.492188 -10.117188 3.703125 -9.65625 3.921875 -9.0625 C 4.203125 -8.332031 4.398438 -7.609375 4.515625 -6.890625 C 4.640625 -6.171875 4.703125 -5.484375 4.703125 -4.828125 C 4.703125 -3.085938 4.425781 -1.539062 3.875 -0.1875 C 3.53125 0.6875 2.8125 1.972656 1.71875 3.671875 Z M 0.625 3.671875 "/>
</g>
<g id="glyph-1-18">
<path d="M 5.140625 -1.0625 C 5.867188 -1.0625 6.476562 -1.367188 6.96875 -1.984375 C 7.457031 -2.609375 7.703125 -3.535156 7.703125 -4.765625 C 7.703125 -5.515625 7.597656 -6.160156 7.390625 -6.703125 C 6.972656 -7.734375 6.222656 -8.25 5.140625 -8.25 C 4.035156 -8.25 3.285156 -7.703125 2.890625 -6.609375 C 2.671875 -6.023438 2.5625 -5.28125 2.5625 -4.375 C 2.5625 -3.644531 2.671875 -3.023438 2.890625 -2.515625 C 3.296875 -1.546875 4.046875 -1.0625 5.140625 -1.0625 Z M 1.03125 -9.375 L 2.578125 -9.375 L 2.578125 -8.125 C 2.890625 -8.550781 3.234375 -8.878906 3.609375 -9.109375 C 4.140625 -9.460938 4.769531 -9.640625 5.5 -9.640625 C 6.5625 -9.640625 7.460938 -9.226562 8.203125 -8.40625 C 8.953125 -7.59375 9.328125 -6.425781 9.328125 -4.90625 C 9.328125 -2.863281 8.789062 -1.398438 7.71875 -0.515625 C 7.039062 0.0351562 6.25 0.3125 5.34375 0.3125 C 4.632812 0.3125 4.039062 0.152344 3.5625 -0.15625 C 3.28125 -0.320312 2.96875 -0.625 2.625 -1.0625 L 2.625 3.75 L 1.03125 3.75 Z M 1.03125 -9.375 "/>
</g>
<g id="glyph-1-19">
<path d="M 1.15625 -9.40625 L 2.71875 -9.40625 L 2.71875 -8.078125 C 3.09375 -8.535156 3.4375 -8.875 3.75 -9.09375 C 4.269531 -9.445312 4.859375 -9.625 5.515625 -9.625 C 6.265625 -9.625 6.867188 -9.441406 7.328125 -9.078125 C 7.585938 -8.859375 7.820312 -8.546875 8.03125 -8.140625 C 8.382812 -8.640625 8.796875 -9.007812 9.265625 -9.25 C 9.742188 -9.5 10.28125 -9.625 10.875 -9.625 C 12.132812 -9.625 12.992188 -9.164062 13.453125 -8.25 C 13.703125 -7.757812 13.828125 -7.097656 13.828125 -6.265625 L 13.828125 0 L 12.1875 0 L 12.1875 -6.546875 C 12.1875 -7.171875 12.023438 -7.597656 11.703125 -7.828125 C 11.390625 -8.066406 11.007812 -8.1875 10.5625 -8.1875 C 9.945312 -8.1875 9.410156 -7.976562 8.953125 -7.5625 C 8.503906 -7.144531 8.28125 -6.445312 8.28125 -5.46875 L 8.28125 0 L 6.6875 0 L 6.6875 -6.140625 C 6.6875 -6.785156 6.609375 -7.253906 6.453125 -7.546875 C 6.210938 -7.984375 5.765625 -8.203125 5.109375 -8.203125 C 4.503906 -8.203125 3.957031 -7.96875 3.46875 -7.5 C 2.988281 -7.039062 2.75 -6.207031 2.75 -5 L 2.75 0 L 1.15625 0 Z M 1.15625 -9.40625 "/>
</g>
<g id="glyph-1-20">
<path d="M 2.375 -2.5 C 2.375 -2.039062 2.539062 -1.679688 2.875 -1.421875 C 3.207031 -1.160156 3.601562 -1.03125 4.0625 -1.03125 C 4.613281 -1.03125 5.148438 -1.160156 5.671875 -1.421875 C 6.554688 -1.847656 7 -2.546875 7 -3.515625 L 7 -4.796875 C 6.800781 -4.671875 6.550781 -4.566406 6.25 -4.484375 C 5.945312 -4.398438 5.648438 -4.34375 5.359375 -4.3125 L 4.390625 -4.1875 C 3.816406 -4.101562 3.390625 -3.984375 3.109375 -3.828125 C 2.617188 -3.546875 2.375 -3.101562 2.375 -2.5 Z M 6.203125 -5.703125 C 6.566406 -5.753906 6.8125 -5.90625 6.9375 -6.15625 C 7.007812 -6.300781 7.046875 -6.503906 7.046875 -6.765625 C 7.046875 -7.304688 6.851562 -7.695312 6.46875 -7.9375 C 6.082031 -8.1875 5.53125 -8.3125 4.8125 -8.3125 C 3.988281 -8.3125 3.40625 -8.085938 3.0625 -7.640625 C 2.863281 -7.390625 2.738281 -7.023438 2.6875 -6.546875 L 1.203125 -6.546875 C 1.234375 -7.703125 1.609375 -8.503906 2.328125 -8.953125 C 3.054688 -9.410156 3.898438 -9.640625 4.859375 -9.640625 C 5.960938 -9.640625 6.859375 -9.429688 7.546875 -9.015625 C 8.234375 -8.585938 8.578125 -7.929688 8.578125 -7.046875 L 8.578125 -1.625 C 8.578125 -1.457031 8.609375 -1.320312 8.671875 -1.21875 C 8.742188 -1.125 8.890625 -1.078125 9.109375 -1.078125 C 9.179688 -1.078125 9.257812 -1.078125 9.34375 -1.078125 C 9.425781 -1.085938 9.519531 -1.101562 9.625 -1.125 L 9.625 0.046875 C 9.375 0.117188 9.1875 0.160156 9.0625 0.171875 C 8.9375 0.191406 8.757812 0.203125 8.53125 0.203125 C 7.988281 0.203125 7.59375 0.0078125 7.34375 -0.375 C 7.21875 -0.582031 7.128906 -0.875 7.078125 -1.25 C 6.753906 -0.820312 6.289062 -0.453125 5.6875 -0.140625 C 5.082031 0.160156 4.414062 0.3125 3.6875 0.3125 C 2.8125 0.3125 2.097656 0.0429688 1.546875 -0.484375 C 0.992188 -1.015625 0.71875 -1.675781 0.71875 -2.46875 C 0.71875 -3.34375 0.988281 -4.019531 1.53125 -4.5 C 2.082031 -4.976562 2.800781 -5.273438 3.6875 -5.390625 Z M 4.890625 -9.640625 Z M 4.890625 -9.640625 "/>
</g>
<g id="glyph-2-0">
<path d="M -12.90625 -1.53125 L -12.90625 -7.34375 C -12.90625 -8.5 -12.582031 -9.425781 -11.9375 -10.125 C -11.289062 -10.832031 -10.382812 -11.1875 -9.21875 -11.1875 C -8.207031 -11.1875 -7.328125 -10.867188 -6.578125 -10.234375 C -5.828125 -9.609375 -5.453125 -8.644531 -5.453125 -7.34375 L -5.453125 -3.28125 L 0 -3.28125 L 0 -1.53125 Z M -9.203125 -9.40625 C -10.148438 -9.40625 -10.796875 -9.054688 -11.140625 -8.359375 C -11.316406 -7.972656 -11.40625 -7.441406 -11.40625 -6.765625 L -11.40625 -3.28125 L -6.9375 -3.28125 L -6.9375 -6.765625 C -6.9375 -7.554688 -7.101562 -8.191406 -7.4375 -8.671875 C -7.769531 -9.160156 -8.359375 -9.40625 -9.203125 -9.40625 Z M -9.203125 -9.40625 "/>
</g>
<g id="glyph-2-1">
<path d="M -13.125 -5.328125 C -11.332031 -4.410156 -10.015625 -3.8125 -9.171875 -3.53125 C -7.890625 -3.113281 -6.410156 -2.90625 -4.734375 -2.90625 C -3.035156 -2.90625 -1.484375 -3.144531 -0.078125 -3.625 C 0.796875 -3.914062 2.046875 -4.492188 3.671875 -5.359375 L 3.671875 -4.296875 C 2.335938 -3.429688 1.484375 -2.894531 1.109375 -2.6875 C 0.742188 -2.488281 0.242188 -2.269531 -0.390625 -2.03125 C -1.253906 -1.695312 -2.179688 -1.46875 -3.171875 -1.34375 C -3.671875 -1.28125 -4.15625 -1.25 -4.625 -1.25 C -6.351562 -1.25 -7.894531 -1.519531 -9.25 -2.0625 C -10.113281 -2.40625 -11.40625 -3.128906 -13.125 -4.234375 Z M -13.125 -5.328125 "/>
</g>
<g id="glyph-2-2">
<path d="M -13.265625 -6.8125 C -13.265625 -8.445312 -12.832031 -9.710938 -11.96875 -10.609375 C -11.101562 -11.515625 -10.125 -12.019531 -9.03125 -12.125 L -9.03125 -10.421875 C -9.863281 -10.222656 -10.523438 -9.832031 -11.015625 -9.25 C -11.503906 -8.675781 -11.75 -7.867188 -11.75 -6.828125 C -11.75 -5.554688 -11.300781 -4.53125 -10.40625 -3.75 C -9.507812 -2.96875 -8.140625 -2.578125 -6.296875 -2.578125 C -4.785156 -2.578125 -3.554688 -2.925781 -2.609375 -3.625 C -1.671875 -4.332031 -1.203125 -5.390625 -1.203125 -6.796875 C -1.203125 -8.085938 -1.695312 -9.066406 -2.6875 -9.734375 C -3.207031 -10.097656 -3.894531 -10.363281 -4.75 -10.53125 L -4.75 -12.25 C -3.382812 -12.09375 -2.242188 -11.585938 -1.328125 -10.734375 C -0.222656 -9.703125 0.328125 -8.316406 0.328125 -6.578125 C 0.328125 -5.078125 -0.125 -3.816406 -1.03125 -2.796875 C -2.226562 -1.460938 -4.082031 -0.796875 -6.59375 -0.796875 C -8.5 -0.796875 -10.0625 -1.296875 -11.28125 -2.296875 C -12.601562 -3.390625 -13.265625 -4.894531 -13.265625 -6.8125 Z M -13.265625 -6.453125 Z M -13.265625 -6.453125 "/>
</g>
<g id="glyph-2-3">
<path d="M -1.015625 -4.890625 C -1.015625 -5.941406 -1.410156 -6.660156 -2.203125 -7.046875 C -3.003906 -7.441406 -3.890625 -7.640625 -4.859375 -7.640625 C -5.734375 -7.640625 -6.445312 -7.5 -7 -7.21875 C -7.875 -6.769531 -8.3125 -6 -8.3125 -4.90625 C -8.3125 -3.945312 -7.941406 -3.242188 -7.203125 -2.796875 C -6.460938 -2.359375 -5.570312 -2.140625 -4.53125 -2.140625 C -3.53125 -2.140625 -2.691406 -2.359375 -2.015625 -2.796875 C -1.347656 -3.242188 -1.015625 -3.941406 -1.015625 -4.890625 Z M -9.6875 -4.953125 C -9.6875 -6.171875 -9.28125 -7.195312 -8.46875 -8.03125 C -7.664062 -8.875 -6.476562 -9.296875 -4.90625 -9.296875 C -3.382812 -9.296875 -2.128906 -8.925781 -1.140625 -8.1875 C -0.148438 -7.445312 0.34375 -6.300781 0.34375 -4.75 C 0.34375 -3.445312 -0.09375 -2.414062 -0.96875 -1.65625 C -1.84375 -0.894531 -3.019531 -0.515625 -4.5 -0.515625 C -6.082031 -0.515625 -7.34375 -0.914062 -8.28125 -1.71875 C -9.21875 -2.519531 -9.6875 -3.597656 -9.6875 -4.953125 Z M -9.640625 -4.90625 Z M -9.640625 -4.90625 "/>
</g>
<g id="glyph-2-4">
<path d="M -9.40625 -1.15625 L -9.40625 -2.65625 L -8.078125 -2.65625 C -8.628906 -3.101562 -9.023438 -3.578125 -9.265625 -4.078125 C -9.503906 -4.578125 -9.625 -5.128906 -9.625 -5.734375 C -9.625 -7.078125 -9.160156 -7.984375 -8.234375 -8.453125 C -7.722656 -8.703125 -6.988281 -8.828125 -6.03125 -8.828125 L 0 -8.828125 L 0 -7.21875 L -5.9375 -7.21875 C -6.507812 -7.21875 -6.972656 -7.132812 -7.328125 -6.96875 C -7.910156 -6.6875 -8.203125 -6.175781 -8.203125 -5.4375 C -8.203125 -5.0625 -8.164062 -4.753906 -8.09375 -4.515625 C -7.957031 -4.085938 -7.695312 -3.707031 -7.3125 -3.375 C -7 -3.113281 -6.675781 -2.941406 -6.34375 -2.859375 C -6.019531 -2.785156 -5.550781 -2.75 -4.9375 -2.75 L 0 -2.75 L 0 -1.15625 Z M -9.640625 -4.875 Z M -9.640625 -4.875 "/>
</g>
<g id="glyph-2-5">
<path d="M -10.84375 -1.5625 C -11.5 -1.582031 -11.976562 -1.695312 -12.28125 -1.90625 C -12.820312 -2.269531 -13.09375 -2.976562 -13.09375 -4.03125 C -13.09375 -4.132812 -13.085938 -4.238281 -13.078125 -4.34375 C -13.078125 -4.445312 -13.070312 -4.566406 -13.0625 -4.703125 L -11.625 -4.703125 C -11.632812 -4.535156 -11.640625 -4.414062 -11.640625 -4.34375 C -11.640625 -4.269531 -11.640625 -4.203125 -11.640625 -4.140625 C -11.640625 -3.660156 -11.515625 -3.375 -11.265625 -3.28125 C -11.023438 -3.1875 -10.394531 -3.140625 -9.375 -3.140625 L -9.375 -4.703125 L -8.125 -4.703125 L -8.125 -3.125 L 0 -3.125 L 0 -1.5625 L -8.125 -1.5625 L -8.125 -0.25 L -9.375 -0.25 L -9.375 -1.5625 Z M -10.84375 -1.5625 "/>
</g>
<g id="glyph-2-6">
<path d="M -9.375 -1.15625 L -9.375 -2.765625 L 0 -2.765625 L 0 -1.15625 Z M -12.90625 -1.15625 L -12.90625 -2.765625 L -11.125 -2.765625 L -11.125 -1.15625 Z M -12.90625 -1.15625 "/>
</g>
<g id="glyph-2-7">
<path d="M -4.59375 -2.15625 C -3.582031 -2.15625 -2.738281 -2.367188 -2.0625 -2.796875 C -1.382812 -3.234375 -1.046875 -3.921875 -1.046875 -4.859375 C -1.046875 -5.585938 -1.359375 -6.1875 -1.984375 -6.65625 C -2.617188 -7.132812 -3.523438 -7.375 -4.703125 -7.375 C -5.890625 -7.375 -6.769531 -7.128906 -7.34375 -6.640625 C -7.914062 -6.160156 -8.203125 -5.5625 -8.203125 -4.84375 C -8.203125 -4.039062 -7.894531 -3.390625 -7.28125 -2.890625 C -6.675781 -2.398438 -5.78125 -2.15625 -4.59375 -2.15625 Z M -9.578125 -4.546875 C -9.578125 -5.265625 -9.425781 -5.867188 -9.125 -6.359375 C -8.945312 -6.640625 -8.640625 -6.957031 -8.203125 -7.3125 L -12.953125 -7.3125 L -12.953125 -8.828125 L 0 -8.828125 L 0 -7.40625 L -1.3125 -7.40625 C -0.726562 -7.039062 -0.304688 -6.601562 -0.046875 -6.09375 C 0.203125 -5.59375 0.328125 -5.019531 0.328125 -4.375 C 0.328125 -3.320312 -0.109375 -2.410156 -0.984375 -1.640625 C -1.867188 -0.878906 -3.046875 -0.5 -4.515625 -0.5 C -5.878906 -0.5 -7.0625 -0.847656 -8.0625 -1.546875 C -9.070312 -2.242188 -9.578125 -3.242188 -9.578125 -4.546875 Z M -9.578125 -4.546875 "/>
</g>
<g id="glyph-2-8">
<path d="M -9.625 -5.078125 C -9.625 -5.742188 -9.46875 -6.390625 -9.15625 -7.015625 C -8.84375 -7.648438 -8.4375 -8.128906 -7.9375 -8.453125 C -7.457031 -8.773438 -6.90625 -8.988281 -6.28125 -9.09375 C -5.84375 -9.1875 -5.148438 -9.234375 -4.203125 -9.234375 L -4.203125 -2.328125 C -3.242188 -2.359375 -2.472656 -2.582031 -1.890625 -3 C -1.316406 -3.425781 -1.03125 -4.082031 -1.03125 -4.96875 C -1.03125 -5.789062 -1.304688 -6.445312 -1.859375 -6.9375 C -2.171875 -7.21875 -2.535156 -7.421875 -2.953125 -7.546875 L -2.953125 -9.09375 C -2.609375 -9.050781 -2.222656 -8.914062 -1.796875 -8.6875 C -1.367188 -8.457031 -1.019531 -8.195312 -0.75 -7.90625 C -0.28125 -7.425781 0.03125 -6.832031 0.1875 -6.125 C 0.28125 -5.75 0.328125 -5.316406 0.328125 -4.828125 C 0.328125 -3.660156 -0.09375 -2.671875 -0.9375 -1.859375 C -1.789062 -1.046875 -2.988281 -0.640625 -4.53125 -0.640625 C -6.039062 -0.640625 -7.265625 -1.046875 -8.203125 -1.859375 C -9.148438 -2.679688 -9.625 -3.753906 -9.625 -5.078125 Z M -5.453125 -7.609375 C -6.140625 -7.535156 -6.691406 -7.382812 -7.109375 -7.15625 C -7.867188 -6.71875 -8.25 -5.992188 -8.25 -4.984375 C -8.25 -4.253906 -7.984375 -3.644531 -7.453125 -3.15625 C -6.929688 -2.664062 -6.265625 -2.40625 -5.453125 -2.375 Z M -9.640625 -4.9375 Z M -9.640625 -4.9375 "/>
</g>
<g id="glyph-2-9">
<path d="M -9.6875 -4.796875 C -9.6875 -5.847656 -9.425781 -6.707031 -8.90625 -7.375 C -8.394531 -8.039062 -7.507812 -8.441406 -6.25 -8.578125 L -6.25 -7.046875 C -6.832031 -6.953125 -7.3125 -6.734375 -7.6875 -6.390625 C -8.070312 -6.054688 -8.265625 -5.523438 -8.265625 -4.796875 C -8.265625 -3.785156 -7.773438 -3.0625 -6.796875 -2.625 C -6.160156 -2.34375 -5.375 -2.203125 -4.4375 -2.203125 C -3.488281 -2.203125 -2.691406 -2.398438 -2.046875 -2.796875 C -1.398438 -3.203125 -1.078125 -3.832031 -1.078125 -4.6875 C -1.078125 -5.34375 -1.273438 -5.863281 -1.671875 -6.25 C -2.078125 -6.632812 -2.628906 -6.898438 -3.328125 -7.046875 L -3.328125 -8.578125 C -2.078125 -8.398438 -1.164062 -7.957031 -0.59375 -7.25 C -0.0195312 -6.550781 0.265625 -5.65625 0.265625 -4.5625 C 0.265625 -3.332031 -0.179688 -2.347656 -1.078125 -1.609375 C -1.972656 -0.878906 -3.097656 -0.515625 -4.453125 -0.515625 C -6.097656 -0.515625 -7.378906 -0.914062 -8.296875 -1.71875 C -9.222656 -2.519531 -9.6875 -3.546875 -9.6875 -4.796875 Z M -9.640625 -4.546875 Z M -9.640625 -4.546875 "/>
</g>
<g id="glyph-2-10">
</g>
<g id="glyph-2-11">
<path d="M -9.359375 -0.8125 L -6.25 -9.96875 L -4.765625 -9.96875 L -1.65625 -0.8125 L -3.25 -0.8125 L -5.515625 -8.109375 L -7.765625 -0.8125 Z M -1.421875 -9.96875 L 0 -9.96875 L 0 -0.8125 L -1.421875 -0.8125 Z M -1.421875 -9.96875 "/>
</g>
<g id="glyph-2-12">
<path d="M -12.90625 -1.125 L -12.90625 -2.640625 L -5.421875 -2.640625 L -9.40625 -6.703125 L -9.40625 -8.734375 L -5.890625 -5.125 L 0 -8.9375 L 0 -6.90625 L -4.75 -3.96875 L -3.53125 -2.640625 L 0 -2.640625 L 0 -1.125 Z M -12.90625 -1.125 "/>
</g>
<g id="glyph-2-13">
<path d="M 0 -2.765625 L 0 -1.265625 L -13.09375 -1.265625 L -13.09375 -2.765625 Z M 0 -2.765625 "/>
</g>
<g id="glyph-2-14">
<path d="M -9.40625 -1.203125 L -9.40625 -2.703125 L -7.78125 -2.703125 C -8.101562 -2.828125 -8.488281 -3.128906 -8.9375 -3.609375 C -9.394531 -4.085938 -9.625 -4.644531 -9.625 -5.28125 C -9.625 -5.300781 -9.617188 -5.347656 -9.609375 -5.421875 C -9.609375 -5.492188 -9.597656 -5.613281 -9.578125 -5.78125 L -7.90625 -5.78125 C -7.925781 -5.6875 -7.9375 -5.597656 -7.9375 -5.515625 C -7.945312 -5.441406 -7.953125 -5.359375 -7.953125 -5.265625 C -7.953125 -4.460938 -7.695312 -3.847656 -7.1875 -3.421875 C -6.675781 -2.992188 -6.085938 -2.78125 -5.421875 -2.78125 L 0 -2.78125 L 0 -1.203125 Z M -9.40625 -1.203125 "/>
</g>
<g id="glyph-2-15">
<path d="M -12.046875 -1.484375 L -12.046875 -3.078125 L -9.40625 -3.078125 L -9.40625 -4.578125 L -8.125 -4.578125 L -8.125 -3.078125 L -1.984375 -3.078125 C -1.648438 -3.078125 -1.425781 -3.1875 -1.3125 -3.40625 C -1.25 -3.53125 -1.21875 -3.738281 -1.21875 -4.03125 C -1.21875 -4.101562 -1.21875 -4.179688 -1.21875 -4.265625 C -1.226562 -4.359375 -1.238281 -4.460938 -1.25 -4.578125 L 0 -4.578125 C 0.0507812 -4.398438 0.0859375 -4.210938 0.109375 -4.015625 C 0.140625 -3.816406 0.15625 -3.601562 0.15625 -3.375 C 0.15625 -2.632812 -0.03125 -2.132812 -0.40625 -1.875 C -0.789062 -1.613281 -1.285156 -1.484375 -1.890625 -1.484375 L -8.125 -1.484375 L -8.125 -0.203125 L -9.40625 -0.203125 L -9.40625 -1.484375 Z M -12.046875 -1.484375 "/>
</g>
<g id="glyph-2-16">
<path d="M 3.671875 -0.625 C 1.859375 -1.550781 0.535156 -2.148438 -0.296875 -2.421875 C -1.554688 -2.835938 -3.035156 -3.046875 -4.734375 -3.046875 C -6.421875 -3.046875 -7.96875 -2.804688 -9.375 -2.328125 C -10.238281 -2.035156 -11.488281 -1.457031 -13.125 -0.59375 L -13.125 -1.65625 C -11.675781 -2.5625 -10.785156 -3.109375 -10.453125 -3.296875 C -10.117188 -3.492188 -9.65625 -3.703125 -9.0625 -3.921875 C -8.332031 -4.203125 -7.609375 -4.398438 -6.890625 -4.515625 C -6.171875 -4.640625 -5.484375 -4.703125 -4.828125 -4.703125 C -3.085938 -4.703125 -1.539062 -4.425781 -0.1875 -3.875 C 0.6875 -3.53125 1.972656 -2.8125 3.671875 -1.71875 Z M 3.671875 -0.625 "/>
</g>
</g>
<clipPath id="clip-0">
<path clip-rule="nonzero" d="M 354 12.679688 L 358.121094 12.679688 L 358.121094 16 L 354 16 Z M 354 12.679688 "/>
</clipPath>
<clipPath id="clip-1">
<path clip-rule="nonzero" d="M 354 12.679688 L 358.121094 12.679688 L 358.121094 17 L 354 17 Z M 354 12.679688 "/>
</clipPath>
<clipPath id="clip-2">
<path clip-rule="nonzero" d="M 66.4375 301 L 70 301 L 70 304.363281 L 66.4375 304.363281 Z M 66.4375 301 "/>
</clipPath>
<clipPath id="clip-3">
<path clip-rule="nonzero" d="M 66.4375 300 L 71 300 L 71 304.363281 L 66.4375 304.363281 Z M 66.4375 300 "/>
</clipPath>
<clipPath id="clip-4">
<path clip-rule="nonzero" d="M 354 12.679688 L 358.121094 12.679688 L 358.121094 16 L 354 16 Z M 354 12.679688 "/>
</clipPath>
<clipPath id="clip-5">
<path clip-rule="nonzero" d="M 354 12.679688 L 358.121094 12.679688 L 358.121094 17 L 354 17 Z M 354 12.679688 "/>
</clipPath>
<clipPath id="clip-6">
<path clip-rule="nonzero" d="M 66.4375 301 L 70 301 L 70 304.363281 L 66.4375 304.363281 Z M 66.4375 301 "/>
</clipPath>
<clipPath id="clip-7">
<path clip-rule="nonzero" d="M 66.4375 300 L 71 300 L 71 304.363281 L 66.4375 304.363281 Z M 66.4375 300 "/>
</clipPath>
<clipPath id="clip-8">
<path clip-rule="nonzero" d="M 66.4375 12.679688 L 358.121094 12.679688 L 358.121094 304.363281 L 66.4375 304.363281 Z M 66.4375 12.679688 "/>
</clipPath>
</defs>
<g clip-path="url(#clip-0)">
<path fill-rule="nonzero" fill="rgb(97.254902%, 46.27451%, 42.745098%)" fill-opacity="1" d="M 361.320312 12.679688 C 361.320312 16.945312 354.921875 16.945312 354.921875 12.679688 C 354.921875 8.414062 361.320312 8.414062 361.320312 12.679688 "/>
</g>
<g clip-path="url(#clip-1)">
<path fill="none" stroke-width="1.159628" stroke-linecap="round" stroke-linejoin="round" stroke="rgb(97.254902%, 46.27451%, 42.745098%)" stroke-opacity="1" stroke-miterlimit="10" d="M 361.320312 12.679688 C 361.320312 16.945312 354.921875 16.945312 354.921875 12.679688 C 354.921875 8.414062 361.320312 8.414062 361.320312 12.679688 "/>
</g>
<path fill-rule="nonzero" fill="rgb(97.254902%, 46.27451%, 42.745098%)" fill-opacity="1" stroke-width="1.159628" stroke-linecap="round" stroke-linejoin="round" stroke="rgb(97.254902%, 46.27451%, 42.745098%)" stroke-opacity="1" stroke-miterlimit="10" d="M 206.734375 77.746094 C 206.734375 82.011719 200.335938 82.011719 200.335938 77.746094 C 200.335938 73.480469 206.734375 73.480469 206.734375 77.746094 "/>
<path fill-rule="nonzero" fill="rgb(97.254902%, 46.27451%, 42.745098%)" fill-opacity="1" stroke-width="1.159628" stroke-linecap="round" stroke-linejoin="round" stroke="rgb(97.254902%, 46.27451%, 42.745098%)" stroke-opacity="1" stroke-miterlimit="10" d="M 120.570312 153.925781 C 120.570312 158.191406 114.171875 158.191406 114.171875 153.925781 C 114.171875 149.660156 120.570312 149.660156 120.570312 153.925781 "/>
<path fill-rule="nonzero" fill="rgb(97.254902%, 46.27451%, 42.745098%)" fill-opacity="1" stroke-width="1.159628" stroke-linecap="round" stroke-linejoin="round" stroke="rgb(97.254902%, 46.27451%, 42.745098%)" stroke-opacity="1" stroke-miterlimit="10" d="M 83.804688 219.523438 C 83.804688 223.785156 77.410156 223.785156 77.410156 219.523438 C 77.410156 215.257812 83.804688 215.257812 83.804688 219.523438 "/>
<g clip-path="url(#clip-2)">
<path fill-rule="nonzero" fill="rgb(97.254902%, 46.27451%, 42.745098%)" fill-opacity="1" d="M 69.636719 304.359375 C 69.636719 308.625 63.238281 308.625 63.238281 304.359375 C 63.238281 300.097656 69.636719 300.097656 69.636719 304.359375 "/>
</g>
<g clip-path="url(#clip-3)">
<path fill="none" stroke-width="1.159628" stroke-linecap="round" stroke-linejoin="round" stroke="rgb(97.254902%, 46.27451%, 42.745098%)" stroke-opacity="1" stroke-miterlimit="10" d="M 69.636719 304.359375 C 69.636719 308.625 63.238281 308.625 63.238281 304.359375 C 63.238281 300.097656 69.636719 300.097656 69.636719 304.359375 "/>
</g>
<g clip-path="url(#clip-4)">
<path fill-rule="nonzero" fill="rgb(0%, 74.901961%, 76.862745%)" fill-opacity="1" d="M 361.320312 12.679688 C 361.320312 16.945312 354.921875 16.945312 354.921875 12.679688 C 354.921875 8.414062 361.320312 8.414062 361.320312 12.679688 "/>
</g>
<g clip-path="url(#clip-5)">
<path fill="none" stroke-width="1.159628" stroke-linecap="round" stroke-linejoin="round" stroke="rgb(0%, 74.901961%, 76.862745%)" stroke-opacity="1" stroke-miterlimit="10" d="M 361.320312 12.679688 C 361.320312 16.945312 354.921875 16.945312 354.921875 12.679688 C 354.921875 8.414062 361.320312 8.414062 361.320312 12.679688 "/>
</g>
<path fill-rule="nonzero" fill="rgb(0%, 74.901961%, 76.862745%)" fill-opacity="1" stroke-width="1.159628" stroke-linecap="round" stroke-linejoin="round" stroke="rgb(0%, 74.901961%, 76.862745%)" stroke-opacity="1" stroke-miterlimit="10" d="M 233.058594 108.746094 C 233.058594 113.011719 226.664062 113.011719 226.664062 108.746094 C 226.664062 104.480469 233.058594 104.480469 233.058594 108.746094 "/>
<path fill-rule="nonzero" fill="rgb(0%, 74.901961%, 76.862745%)" fill-opacity="1" stroke-width="1.159628" stroke-linecap="round" stroke-linejoin="round" stroke="rgb(0%, 74.901961%, 76.862745%)" stroke-opacity="1" stroke-miterlimit="10" d="M 146.878906 194.753906 C 146.878906 199.019531 140.480469 199.019531 140.480469 194.753906 C 140.480469 190.488281 146.878906 190.488281 146.878906 194.753906 "/>
<path fill-rule="nonzero" fill="rgb(0%, 74.901961%, 76.862745%)" fill-opacity="1" stroke-width="1.159628" stroke-linecap="round" stroke-linejoin="round" stroke="rgb(0%, 74.901961%, 76.862745%)" stroke-opacity="1" stroke-miterlimit="10" d="M 98.488281 255.015625 C 98.488281 259.28125 92.09375 259.28125 92.09375 255.015625 C 92.09375 250.75 98.488281 250.75 98.488281 255.015625 "/>
<g clip-path="url(#clip-6)">
<path fill-rule="nonzero" fill="rgb(0%, 74.901961%, 76.862745%)" fill-opacity="1" d="M 69.636719 304.359375 C 69.636719 308.625 63.238281 308.625 63.238281 304.359375 C 63.238281 300.097656 69.636719 300.097656 69.636719 304.359375 "/>
</g>
<g clip-path="url(#clip-7)">
<path fill="none" stroke-width="1.159628" stroke-linecap="round" stroke-linejoin="round" stroke="rgb(0%, 74.901961%, 76.862745%)" stroke-opacity="1" stroke-miterlimit="10" d="M 69.636719 304.359375 C 69.636719 308.625 63.238281 308.625 63.238281 304.359375 C 63.238281 300.097656 69.636719 300.097656 69.636719 304.359375 "/>
</g>
<g clip-path="url(#clip-8)">
<path fill="none" stroke-width="1.745965" stroke-linecap="butt" stroke-linejoin="round" stroke="rgb(0%, 0%, 0%)" stroke-opacity="1" stroke-dasharray="1.745965 5.237894" stroke-miterlimit="10" d="M -225.242188 596.042969 L 649.800781 -279.003906 "/>
<path fill="none" stroke-width="1.745965" stroke-linecap="butt" stroke-linejoin="round" stroke="rgb(97.254902%, 46.27451%, 42.745098%)" stroke-opacity="1" stroke-miterlimit="10" d="M 358.121094 12.679688 L 203.535156 77.746094 L 117.371094 153.925781 L 80.609375 219.523438 L 66.4375 304.359375 "/>
<path fill="none" stroke-width="1.745965" stroke-linecap="butt" stroke-linejoin="round" stroke="rgb(0%, 74.901961%, 76.862745%)" stroke-opacity="1" stroke-miterlimit="10" d="M 358.121094 12.679688 L 229.863281 108.746094 L 143.679688 194.753906 L 95.292969 255.015625 L 66.4375 304.359375 "/>
<path fill="none" stroke-width="1.745965" stroke-linecap="round" stroke-linejoin="round" stroke="rgb(20%, 20%, 20%)" stroke-opacity="0.8" stroke-miterlimit="10" d="M 66.4375 304.359375 L 358.121094 304.359375 L 358.121094 12.675781 L 66.4375 12.675781 Z M 66.4375 304.359375 "/>
</g>
<g fill="rgb(30.196078%, 30.196078%, 30.196078%)" fill-opacity="0.698039">
<use xlink:href="#glyph-0-0" x="30.339844" y="309.527344"/>
<use xlink:href="#glyph-0-1" x="38.348438" y="309.527344"/>
<use xlink:href="#glyph-0-0" x="42.349219" y="309.527344"/>
<use xlink:href="#glyph-0-0" x="50.357813" y="309.527344"/>
</g>
<g fill="rgb(30.196078%, 30.196078%, 30.196078%)" fill-opacity="0.698039">
<use xlink:href="#glyph-0-0" x="30.339844" y="236.605469"/>
<use xlink:href="#glyph-0-1" x="38.348438" y="236.605469"/>
<use xlink:href="#glyph-0-2" x="42.349219" y="236.605469"/>
<use xlink:href="#glyph-0-3" x="50.357813" y="236.605469"/>
</g>
<g fill="rgb(30.196078%, 30.196078%, 30.196078%)" fill-opacity="0.698039">
<use xlink:href="#glyph-0-0" x="30.339844" y="163.683594"/>
<use xlink:href="#glyph-0-1" x="38.348438" y="163.683594"/>
<use xlink:href="#glyph-0-3" x="42.349219" y="163.683594"/>
<use xlink:href="#glyph-0-0" x="50.357813" y="163.683594"/>
</g>
<g fill="rgb(30.196078%, 30.196078%, 30.196078%)" fill-opacity="0.698039">
<use xlink:href="#glyph-0-0" x="30.339844" y="90.765625"/>
<use xlink:href="#glyph-0-1" x="38.348438" y="90.765625"/>
<use xlink:href="#glyph-0-4" x="42.349219" y="90.765625"/>
<use xlink:href="#glyph-0-3" x="50.357813" y="90.765625"/>
</g>
<g fill="rgb(30.196078%, 30.196078%, 30.196078%)" fill-opacity="0.698039">
<use xlink:href="#glyph-0-5" x="30.339844" y="17.84375"/>
<use xlink:href="#glyph-0-1" x="38.348438" y="17.84375"/>
<use xlink:href="#glyph-0-0" x="42.349219" y="17.84375"/>
<use xlink:href="#glyph-0-0" x="50.357813" y="17.84375"/>
</g>
<path fill="none" stroke-width="1.745965" stroke-linecap="butt" stroke-linejoin="round" stroke="rgb(20%, 20%, 20%)" stroke-opacity="0.8" stroke-miterlimit="10" d="M 61.957031 304.359375 L 66.4375 304.359375 "/>
<path fill="none" stroke-width="1.745965" stroke-linecap="butt" stroke-linejoin="round" stroke="rgb(20%, 20%, 20%)" stroke-opacity="0.8" stroke-miterlimit="10" d="M 61.957031 231.441406 L 66.4375 231.441406 "/>
<path fill="none" stroke-width="1.745965" stroke-linecap="butt" stroke-linejoin="round" stroke="rgb(20%, 20%, 20%)" stroke-opacity="0.8" stroke-miterlimit="10" d="M 61.957031 158.519531 L 66.4375 158.519531 "/>
<path fill="none" stroke-width="1.745965" stroke-linecap="butt" stroke-linejoin="round" stroke="rgb(20%, 20%, 20%)" stroke-opacity="0.8" stroke-miterlimit="10" d="M 61.957031 85.601562 L 66.4375 85.601562 "/>
<path fill="none" stroke-width="1.745965" stroke-linecap="butt" stroke-linejoin="round" stroke="rgb(20%, 20%, 20%)" stroke-opacity="0.8" stroke-miterlimit="10" d="M 61.957031 12.679688 L 66.4375 12.679688 "/>
<path fill="none" stroke-width="1.745965" stroke-linecap="butt" stroke-linejoin="round" stroke="rgb(20%, 20%, 20%)" stroke-opacity="0.8" stroke-miterlimit="10" d="M 66.4375 308.84375 L 66.4375 304.359375 "/>
<path fill="none" stroke-width="1.745965" stroke-linecap="butt" stroke-linejoin="round" stroke="rgb(20%, 20%, 20%)" stroke-opacity="0.8" stroke-miterlimit="10" d="M 139.359375 308.84375 L 139.359375 304.359375 "/>
<path fill="none" stroke-width="1.745965" stroke-linecap="butt" stroke-linejoin="round" stroke="rgb(20%, 20%, 20%)" stroke-opacity="0.8" stroke-miterlimit="10" d="M 212.28125 308.84375 L 212.28125 304.359375 "/>
<path fill="none" stroke-width="1.745965" stroke-linecap="butt" stroke-linejoin="round" stroke="rgb(20%, 20%, 20%)" stroke-opacity="0.8" stroke-miterlimit="10" d="M 285.199219 308.84375 L 285.199219 304.359375 "/>
<path fill="none" stroke-width="1.745965" stroke-linecap="butt" stroke-linejoin="round" stroke="rgb(20%, 20%, 20%)" stroke-opacity="0.8" stroke-miterlimit="10" d="M 358.121094 308.84375 L 358.121094 304.359375 "/>
<g fill="rgb(30.196078%, 30.196078%, 30.196078%)" fill-opacity="0.698039">
<use xlink:href="#glyph-0-0" x="52.425781" y="322.761719"/>
<use xlink:href="#glyph-0-1" x="60.434375" y="322.761719"/>
<use xlink:href="#glyph-0-0" x="64.435156" y="322.761719"/>
<use xlink:href="#glyph-0-0" x="72.44375" y="322.761719"/>
</g>
<g fill="rgb(30.196078%, 30.196078%, 30.196078%)" fill-opacity="0.698039">
<use xlink:href="#glyph-0-0" x="125.347656" y="322.761719"/>
<use xlink:href="#glyph-0-1" x="133.35625" y="322.761719"/>
<use xlink:href="#glyph-0-2" x="137.357031" y="322.761719"/>
<use xlink:href="#glyph-0-3" x="145.365625" y="322.761719"/>
</g>
<g fill="rgb(30.196078%, 30.196078%, 30.196078%)" fill-opacity="0.698039">
<use xlink:href="#glyph-0-0" x="198.269531" y="322.761719"/>
<use xlink:href="#glyph-0-1" x="206.278125" y="322.761719"/>
<use xlink:href="#glyph-0-3" x="210.278906" y="322.761719"/>
<use xlink:href="#glyph-0-0" x="218.2875" y="322.761719"/>
</g>
<g fill="rgb(30.196078%, 30.196078%, 30.196078%)" fill-opacity="0.698039">
<use xlink:href="#glyph-0-0" x="271.1875" y="322.761719"/>
<use xlink:href="#glyph-0-1" x="279.196094" y="322.761719"/>
<use xlink:href="#glyph-0-4" x="283.196875" y="322.761719"/>
<use xlink:href="#glyph-0-3" x="291.205469" y="322.761719"/>
</g>
<g fill="rgb(30.196078%, 30.196078%, 30.196078%)" fill-opacity="0.698039">
<use xlink:href="#glyph-0-5" x="344.109375" y="322.761719"/>
<use xlink:href="#glyph-0-1" x="352.117969" y="322.761719"/>
<use xlink:href="#glyph-0-0" x="356.11875" y="322.761719"/>
<use xlink:href="#glyph-0-0" x="364.127344" y="322.761719"/>
</g>
<g fill="rgb(0%, 0%, 0%)" fill-opacity="1">
<use xlink:href="#glyph-1-0" x="97.960938" y="343.339844"/>
<use xlink:href="#glyph-1-1" x="109.966797" y="343.339844"/>
<use xlink:href="#glyph-1-2" x="115.960938" y="343.339844"/>
<use xlink:href="#glyph-1-3" x="128.959961" y="343.339844"/>
<use xlink:href="#glyph-1-4" x="138.970703" y="343.339844"/>
<use xlink:href="#glyph-1-5" x="148.981445" y="343.339844"/>
<use xlink:href="#glyph-1-6" x="153.982422" y="343.339844"/>
<use xlink:href="#glyph-1-7" x="157.981445" y="343.339844"/>
<use xlink:href="#glyph-1-8" x="167.992188" y="343.339844"/>
<use xlink:href="#glyph-1-4" x="178.00293" y="343.339844"/>
<use xlink:href="#glyph-1-9" x="188.013672" y="343.339844"/>
<use xlink:href="#glyph-1-8" x="197.013672" y="343.339844"/>
<use xlink:href="#glyph-1-10" x="207.024414" y="343.339844"/>
<use xlink:href="#glyph-1-11" x="212.025391" y="343.339844"/>
<use xlink:href="#glyph-1-10" x="221.904297" y="343.339844"/>
<use xlink:href="#glyph-1-12" x="226.905273" y="343.339844"/>
<use xlink:href="#glyph-1-10" x="235.905273" y="343.339844"/>
<use xlink:href="#glyph-1-13" x="240.90625" y="343.339844"/>
<use xlink:href="#glyph-1-10" x="245.582031" y="343.339844"/>
<use xlink:href="#glyph-1-14" x="250.583008" y="343.339844"/>
<use xlink:href="#glyph-1-4" x="255.583984" y="343.339844"/>
<use xlink:href="#glyph-1-9" x="265.594727" y="343.339844"/>
<use xlink:href="#glyph-1-3" x="274.594727" y="343.339844"/>
<use xlink:href="#glyph-1-15" x="284.605469" y="343.339844"/>
<use xlink:href="#glyph-1-15" x="290.599609" y="343.339844"/>
<use xlink:href="#glyph-1-8" x="296.59375" y="343.339844"/>
<use xlink:href="#glyph-1-9" x="306.604492" y="343.339844"/>
<use xlink:href="#glyph-1-16" x="315.604492" y="343.339844"/>
<use xlink:href="#glyph-1-17" x="320.605469" y="343.339844"/>
</g>
<g fill="rgb(0%, 0%, 0%)" fill-opacity="1">
<use xlink:href="#glyph-2-0" x="21.878906" y="267.332031"/>
<use xlink:href="#glyph-2-1" x="21.878906" y="255.326172"/>
<use xlink:href="#glyph-2-2" x="21.878906" y="249.332031"/>
<use xlink:href="#glyph-2-3" x="21.878906" y="236.333008"/>
<use xlink:href="#glyph-2-4" x="21.878906" y="226.322266"/>
<use xlink:href="#glyph-2-5" x="21.878906" y="216.311523"/>
<use xlink:href="#glyph-2-6" x="21.878906" y="211.310547"/>
<use xlink:href="#glyph-2-7" x="21.878906" y="207.311523"/>
<use xlink:href="#glyph-2-8" x="21.878906" y="197.300781"/>
<use xlink:href="#glyph-2-4" x="21.878906" y="187.290039"/>
<use xlink:href="#glyph-2-9" x="21.878906" y="177.279297"/>
<use xlink:href="#glyph-2-8" x="21.878906" y="168.279297"/>
<use xlink:href="#glyph-2-10" x="21.878906" y="158.268555"/>
<use xlink:href="#glyph-2-11" x="21.878906" y="153.267578"/>
<use xlink:href="#glyph-2-10" x="21.878906" y="143.388672"/>
<use xlink:href="#glyph-2-12" x="21.878906" y="138.387695"/>
<use xlink:href="#glyph-2-10" x="21.878906" y="129.387695"/>
<use xlink:href="#glyph-2-13" x="21.878906" y="124.386719"/>
<use xlink:href="#glyph-2-10" x="21.878906" y="119.710938"/>
<use xlink:href="#glyph-2-2" x="21.878906" y="114.709961"/>
<use xlink:href="#glyph-2-3" x="21.878906" y="101.710938"/>
<use xlink:href="#glyph-2-14" x="21.878906" y="91.700195"/>
<use xlink:href="#glyph-2-14" x="21.878906" y="85.706055"/>
<use xlink:href="#glyph-2-8" x="21.878906" y="79.711914"/>
<use xlink:href="#glyph-2-9" x="21.878906" y="69.701172"/>
<use xlink:href="#glyph-2-15" x="21.878906" y="60.701172"/>
<use xlink:href="#glyph-2-16" x="21.878906" y="55.700195"/>
</g>
<g fill="rgb(0%, 0%, 0%)" fill-opacity="1">
<use xlink:href="#glyph-1-18" x="385.019531" y="143.210938"/>
<use xlink:href="#glyph-1-8" x="395.030273" y="143.210938"/>
<use xlink:href="#glyph-1-15" x="405.041016" y="143.210938"/>
<use xlink:href="#glyph-1-5" x="411.035156" y="143.210938"/>
<use xlink:href="#glyph-1-3" x="416.036133" y="143.210938"/>
<use xlink:href="#glyph-1-15" x="426.046875" y="143.210938"/>
<use xlink:href="#glyph-1-19" x="432.041016" y="143.210938"/>
<use xlink:href="#glyph-1-20" x="447.035156" y="143.210938"/>
<use xlink:href="#glyph-1-4" x="457.045898" y="143.210938"/>
<use xlink:href="#glyph-1-9" x="467.056641" y="143.210938"/>
<use xlink:href="#glyph-1-8" x="476.056641" y="143.210938"/>
</g>
<path fill-rule="nonzero" fill="rgb(97.254902%, 46.27451%, 42.745098%)" fill-opacity="1" stroke-width="1.159628" stroke-linecap="round" stroke-linejoin="round" stroke="rgb(97.254902%, 46.27451%, 42.745098%)" stroke-opacity="1" stroke-miterlimit="10" d="M 396.859375 162.808594 C 396.859375 167.074219 390.460938 167.074219 390.460938 162.808594 C 390.460938 158.542969 396.859375 158.542969 396.859375 162.808594 "/>
<path fill="none" stroke-width="1.745965" stroke-linecap="butt" stroke-linejoin="round" stroke="rgb(97.254902%, 46.27451%, 42.745098%)" stroke-opacity="1" stroke-miterlimit="10" d="M 386.746094 162.808594 L 400.570312 162.808594 "/>
<path fill-rule="nonzero" fill="rgb(0%, 74.901961%, 76.862745%)" fill-opacity="1" stroke-width="1.159628" stroke-linecap="round" stroke-linejoin="round" stroke="rgb(0%, 74.901961%, 76.862745%)" stroke-opacity="1" stroke-miterlimit="10" d="M 396.859375 180.089844 C 396.859375 184.355469 390.460938 184.355469 390.460938 180.089844 C 390.460938 175.824219 396.859375 175.824219 396.859375 180.089844 "/>
<path fill="none" stroke-width="1.745965" stroke-linecap="butt" stroke-linejoin="round" stroke="rgb(0%, 74.901961%, 76.862745%)" stroke-opacity="1" stroke-miterlimit="10" d="M 386.746094 180.089844 L 400.570312 180.089844 "/>
<g fill="rgb(0%, 0%, 0%)" fill-opacity="1">
<use xlink:href="#glyph-0-6" x="411.265625" y="167.972656"/>
<use xlink:href="#glyph-0-7" x="419.274219" y="167.972656"/>
<use xlink:href="#glyph-0-8" x="422.473437" y="167.972656"/>
<use xlink:href="#glyph-0-6" x="430.482031" y="167.972656"/>
</g>
<g fill="rgb(0%, 0%, 0%)" fill-opacity="1">
<use xlink:href="#glyph-0-9" x="411.265625" y="185.253906"/>
<use xlink:href="#glyph-0-10" x="414.464844" y="185.253906"/>
<use xlink:href="#glyph-0-11" x="422.473437" y="185.253906"/>
</g>
</svg>
