<?xml version="1.0" encoding="UTF-8"?>
<svg xmlns="http://www.w3.org/2000/svg" xmlns:xlink="http://www.w3.org/1999/xlink" width="504pt" height="360pt" viewBox="0 0 504 360">
<defs>
<g>
<g id="glyph-0-0">
<path d="M 3.890625 -10.078125 C 5.203125 -10.078125 6.144531 -9.539062 6.71875 -8.46875 C 7.175781 -7.632812 7.40625 -6.492188 7.40625 -5.046875 C 7.40625 -3.679688 7.195312 -2.550781 6.78125 -1.65625 C 6.195312 -0.363281 5.234375 0.28125 3.890625 0.28125 C 2.679688 0.28125 1.78125 -0.242188 1.1875 -1.296875 C 0.695312 -2.171875 0.453125 -3.347656 0.453125 -4.828125 C 0.453125 -5.972656 0.597656 -6.957031 0.890625 -7.78125 C 1.441406 -9.3125 2.441406 -10.078125 3.890625 -10.078125 Z M 3.890625 -0.875 C 4.546875 -0.875 5.066406 -1.164062 5.453125 -1.75 C 5.835938 -2.332031 6.03125 -3.414062 6.03125 -5 C 6.03125 -6.144531 5.890625 -7.085938 5.609375 -7.828125 C 5.328125 -8.566406 4.78125 -8.9375 3.96875 -8.9375 C 3.226562 -8.9375 2.6875 -8.582031 2.34375 -7.875 C 2 -7.175781 1.828125 -6.144531 1.828125 -4.78125 C 1.828125 -3.757812 1.9375 -2.9375 2.15625 -2.3125 C 2.488281 -1.351562 3.066406 -0.875 3.890625 -0.875 Z M 3.890625 -0.875 "/>
</g>
<g id="glyph-0-1">
<path d="M 1.234375 -1.53125 L 2.703125 -1.53125 L 2.703125 0 L 1.234375 0 Z M 1.234375 -1.53125 "/>
</g>
<g id="glyph-0-2">
<path d="M 0.453125 0 C 0.492188 -0.863281 0.671875 -1.617188 0.984375 -2.265625 C 1.296875 -2.910156 1.90625 -3.492188 2.8125 -4.015625 L 4.171875 -4.796875 C 4.773438 -5.148438 5.195312 -5.453125 5.4375 -5.703125 C 5.820312 -6.085938 6.015625 -6.53125 6.015625 -7.03125 C 6.015625 -7.613281 5.835938 -8.078125 5.484375 -8.421875 C 5.128906 -8.773438 4.660156 -8.953125 4.078125 -8.953125 C 3.210938 -8.953125 2.613281 -8.625 2.28125 -7.96875 C 2.101562 -7.613281 2.003906 -7.125 1.984375 -6.5 L 0.703125 -6.5 C 0.710938 -7.375 0.875 -8.085938 1.1875 -8.640625 C 1.726562 -9.617188 2.695312 -10.109375 4.09375 -10.109375 C 5.238281 -10.109375 6.078125 -9.796875 6.609375 -9.171875 C 7.148438 -8.546875 7.421875 -7.851562 7.421875 -7.09375 C 7.421875 -6.28125 7.132812 -5.585938 6.5625 -5.015625 C 6.238281 -4.679688 5.648438 -4.28125 4.796875 -3.8125 L 3.828125 -3.28125 C 3.367188 -3.019531 3.007812 -2.773438 2.75 -2.546875 C 2.28125 -2.140625 1.984375 -1.691406 1.859375 -1.203125 L 7.359375 -1.203125 L 7.359375 0 Z M 0.453125 0 "/>
</g>
<g id="glyph-0-3">
<path d="M 1.78125 -2.5625 C 1.863281 -1.84375 2.195312 -1.34375 2.78125 -1.0625 C 3.082031 -0.925781 3.429688 -0.859375 3.828125 -0.859375 C 4.578125 -0.859375 5.128906 -1.097656 5.484375 -1.578125 C 5.847656 -2.054688 6.03125 -2.585938 6.03125 -3.171875 C 6.03125 -3.867188 5.816406 -4.410156 5.390625 -4.796875 C 4.960938 -5.179688 4.445312 -5.375 3.84375 -5.375 C 3.40625 -5.375 3.03125 -5.289062 2.71875 -5.125 C 2.414062 -4.957031 2.148438 -4.722656 1.921875 -4.421875 L 0.828125 -4.484375 L 1.59375 -9.90625 L 6.828125 -9.90625 L 6.828125 -8.6875 L 2.546875 -8.6875 L 2.125 -5.875 C 2.351562 -6.050781 2.570312 -6.1875 2.78125 -6.28125 C 3.15625 -6.4375 3.59375 -6.515625 4.09375 -6.515625 C 5.007812 -6.515625 5.789062 -6.21875 6.4375 -5.625 C 7.082031 -5.03125 7.40625 -4.273438 7.40625 -3.359375 C 7.40625 -2.398438 7.109375 -1.554688 6.515625 -0.828125 C 5.929688 -0.109375 4.992188 0.25 3.703125 0.25 C 2.878906 0.25 2.148438 0.0195312 1.515625 -0.4375 C 0.890625 -0.894531 0.539062 -1.601562 0.46875 -2.5625 Z M 1.78125 -2.5625 "/>
</g>
<g id="glyph-0-4">
<path d="M 7.53125 -9.90625 L 7.53125 -8.796875 C 7.207031 -8.484375 6.773438 -7.9375 6.234375 -7.15625 C 5.703125 -6.382812 5.226562 -5.546875 4.8125 -4.640625 C 4.40625 -3.765625 4.097656 -2.96875 3.890625 -2.25 C 3.753906 -1.78125 3.578125 -1.03125 3.359375 0 L 1.96875 0 C 2.28125 -1.925781 2.984375 -3.835938 4.078125 -5.734375 C 4.710938 -6.859375 5.382812 -7.820312 6.09375 -8.625 L 0.53125 -8.625 L 0.53125 -9.90625 Z M 7.53125 -9.90625 "/>
</g>
<g id="glyph-0-5">
<path d="M 1.375 -7.125 L 1.375 -8.109375 C 2.289062 -8.191406 2.925781 -8.335938 3.28125 -8.546875 C 3.644531 -8.753906 3.914062 -9.25 4.09375 -10.03125 L 5.09375 -10.03125 L 5.09375 0 L 3.75 0 L 3.75 -7.125 Z M 1.375 -7.125 "/>
</g>
<g id="glyph-1-0">
<path d="M 1.53125 -12.90625 L 7.34375 -12.90625 C 8.5 -12.90625 9.425781 -12.582031 10.125 -11.9375 C 10.832031 -11.289062 11.1875 -10.382812 11.1875 -9.21875 C 11.1875 -8.207031 10.867188 -7.328125 10.234375 -6.578125 C 9.609375 -5.828125 8.644531 -5.453125 7.34375 -5.453125 L 3.28125 -5.453125 L 3.28125 0 L 1.53125 0 Z M 9.40625 -9.203125 C 9.40625 -10.148438 9.054688 -10.796875 8.359375 -11.140625 C 7.972656 -11.316406 7.441406 -11.40625 6.765625 -11.40625 L 3.28125 -11.40625 L 3.28125 -6.9375 L 6.765625 -6.9375 C 7.554688 -6.9375 8.191406 -7.101562 8.671875 -7.4375 C 9.160156 -7.769531 9.40625 -8.359375 9.40625 -9.203125 Z M 9.40625 -9.203125 "/>
</g>
<g id="glyph-1-1">
<path d="M 5.328125 -13.125 C 4.410156 -11.332031 3.8125 -10.015625 3.53125 -9.171875 C 3.113281 -7.890625 2.90625 -6.410156 2.90625 -4.734375 C 2.90625 -3.035156 3.144531 -1.484375 3.625 -0.078125 C 3.914062 0.796875 4.492188 2.046875 5.359375 3.671875 L 4.296875 3.671875 C 3.429688 2.335938 2.894531 1.484375 2.6875 1.109375 C 2.488281 0.742188 2.269531 0.242188 2.03125 -0.390625 C 1.695312 -1.253906 1.46875 -2.179688 1.34375 -3.171875 C 1.28125 -3.671875 1.25 -4.15625 1.25 -4.625 C 1.25 -6.351562 1.519531 -7.894531 2.0625 -9.25 C 2.40625 -10.113281 3.128906 -11.40625 4.234375 -13.125 Z M 5.328125 -13.125 "/>
</g>
<g id="glyph-1-2">
<path d="M 1.421875 -12.90625 L 3.1875 -12.90625 L 3.1875 -7.578125 L 9.890625 -7.578125 L 9.890625 -12.90625 L 11.65625 -12.90625 L 11.65625 0 L 9.890625 0 L 9.890625 -6.03125 L 3.1875 -6.03125 L 3.1875 0 L 1.421875 0 Z M 1.421875 -12.90625 "/>
</g>
<g id="glyph-1-3">
<path d="M 1.15625 -9.375 L 2.765625 -9.375 L 2.765625 0 L 1.15625 0 Z M 1.15625 -12.90625 L 2.765625 -12.90625 L 2.765625 -11.125 L 1.15625 -11.125 Z M 1.15625 -12.90625 "/>
</g>
<g id="glyph-1-4">
<path d="M 1.484375 -12.046875 L 3.078125 -12.046875 L 3.078125 -9.40625 L 4.578125 -9.40625 L 4.578125 -8.125 L 3.078125 -8.125 L 3.078125 -1.984375 C 3.078125 -1.648438 3.1875 -1.425781 3.40625 -1.3125 C 3.53125 -1.25 3.738281 -1.21875 4.03125 -1.21875 C 4.101562 -1.21875 4.179688 -1.21875 4.265625 -1.21875 C 4.359375 -1.226562 4.460938 -1.238281 4.578125 -1.25 L 4.578125 0 C 4.398438 0.0507812 4.210938 0.0859375 4.015625 0.109375 C 3.816406 0.140625 3.601562 0.15625 3.375 0.15625 C 2.632812 0.15625 2.132812 -0.03125 1.875 -0.40625 C 1.613281 -0.789062 1.484375 -1.285156 1.484375 -1.890625 L 1.484375 -8.125 L 0.203125 -8.125 L 0.203125 -9.40625 L 1.484375 -9.40625 Z M 1.484375 -12.046875 "/>
</g>
<g id="glyph-1-5">
<path d="M 0.625 3.671875 C 1.550781 1.859375 2.148438 0.535156 2.421875 -0.296875 C 2.835938 -1.554688 3.046875 -3.035156 3.046875 -4.734375 C 3.046875 -6.421875 2.804688 -7.96875 2.328125 -9.375 C 2.035156 -10.238281 1.457031 -11.488281 0.59375 -13.125 L 1.65625 -13.125 C 2.5625 -11.675781 3.109375 -10.785156 3.296875 -10.453125 C 3.492188 -10.117188 3.703125 -9.65625 3.921875 -9.0625 C 4.203125 -8.332031 4.398438 -7.609375 4.515625 -6.890625 C 4.640625 -6.171875 4.703125 -5.484375 4.703125 -4.828125 C 4.703125 -3.085938 4.425781 -1.539062 3.875 -0.1875 C 3.53125 0.6875 2.8125 1.972656 1.71875 3.671875 Z M 0.625 3.671875 "/>
</g>
<g id="glyph-2-0">
<path d="M -12.90625 -1.53125 L -12.90625 -7.34375 C -12.90625 -8.5 -12.582031 -9.425781 -11.9375 -10.125 C -11.289062 -10.832031 -10.382812 -11.1875 -9.21875 -11.1875 C -8.207031 -11.1875 -7.328125 -10.867188 -6.578125 -10.234375 C -5.828125 -9.609375 -5.453125 -8.644531 -5.453125 -7.34375 L -5.453125 -3.28125 L 0 -3.28125 L 0 -1.53125 Z M -9.203125 -9.40625 C -10.148438 -9.40625 -10.796875 -9.054688 -11.140625 -8.359375 C -11.316406 -7.972656 -11.40625 -7.441406 -11.40625 -6.765625 L -11.40625 -3.28125 L -6.9375 -3.28125 L -6.9375 -6.765625 C -6.9375 -7.554688 -7.101562 -8.191406 -7.4375 -8.671875 C -7.769531 -9.160156 -8.359375 -9.40625 -9.203125 -9.40625 Z M -9.203125 -9.40625 "/>
</g>
<g id="glyph-2-1">
<path d="M -13.125 -5.328125 C -11.332031 -4.410156 -10.015625 -3.8125 -9.171875 -3.53125 C -7.890625 -3.113281 -6.410156 -2.90625 -4.734375 -2.90625 C -3.035156 -2.90625 -1.484375 -3.144531 -0.078125 -3.625 C 0.796875 -3.914062 2.046875 -4.492188 3.671875 -5.359375 L 3.671875 -4.296875 C 2.335938 -3.429688 1.484375 -2.894531 1.109375 -2.6875 C 0.742188 -2.488281 0.242188 -2.269531 -0.390625 -2.03125 C -1.253906 -1.695312 -2.179688 -1.46875 -3.171875 -1.34375 C -3.671875 -1.28125 -4.15625 -1.25 -4.625 -1.25 C -6.351562 -1.25 -7.894531 -1.519531 -9.25 -2.0625 C -10.113281 -2.40625 -11.40625 -3.128906 -13.125 -4.234375 Z M -13.125 -5.328125 "/>
</g>
<g id="glyph-2-2">
<path d="M -12.90625 -1.53125 L -12.90625 -10.5 L -11.328125 -10.5 L -11.328125 -3.28125 L -7.40625 -3.28125 L -7.40625 -9.625 L -5.875 -9.625 L -5.875 -3.28125 L 0 -3.28125 L 0 -1.53125 Z M -12.90625 -1.53125 "/>
</g>
<g id="glyph-2-3">
<path d="M -2.5 -2.375 C -2.039062 -2.375 -1.679688 -2.539062 -1.421875 -2.875 C -1.160156 -3.207031 -1.03125 -3.601562 -1.03125 -4.0625 C -1.03125 -4.613281 -1.160156 -5.148438 -1.421875 -5.671875 C -1.847656 -6.554688 -2.546875 -7 -3.515625 -7 L -4.796875 -7 C -4.671875 -6.800781 -4.566406 -6.550781 -4.484375 -6.25 C -4.398438 -5.945312 -4.34375 -5.648438 -4.3125 -5.359375 L -4.1875 -4.390625 C -4.101562 -3.816406 -3.984375 -3.390625 -3.828125 -3.109375 C -3.546875 -2.617188 -3.101562 -2.375 -2.5 -2.375 Z M -5.703125 -6.203125 C -5.753906 -6.566406 -5.90625 -6.8125 -6.15625 -6.9375 C -6.300781 -7.007812 -6.503906 -7.046875 -6.765625 -7.046875 C -7.304688 -7.046875 -7.695312 -6.851562 -7.9375 -6.46875 C -8.1875 -6.082031 -8.3125 -5.53125 -8.3125 -4.8125 C -8.3125 -3.988281 -8.085938 -3.40625 -7.640625 -3.0625 C -7.390625 -2.863281 -7.023438 -2.738281 -6.546875 -2.6875 L -6.546875 -1.203125 C -7.703125 -1.234375 -8.503906 -1.609375 -8.953125 -2.328125 C -9.410156 -3.054688 -9.640625 -3.898438 -9.640625 -4.859375 C -9.640625 -5.960938 -9.429688 -6.859375 -9.015625 -7.546875 C -8.585938 -8.234375 -7.929688 -8.578125 -7.046875 -8.578125 L -1.625 -8.578125 C -1.457031 -8.578125 -1.320312 -8.609375 -1.21875 -8.671875 C -1.125 -8.742188 -1.078125 -8.890625 -1.078125 -9.109375 C -1.078125 -9.179688 -1.078125 -9.257812 -1.078125 -9.34375 C -1.085938 -9.425781 -1.101562 -9.519531 -1.125 -9.625 L 0.046875 -9.625 C 0.117188 -9.375 0.160156 -9.1875 0.171875 -9.0625 C 0.191406 -8.9375 0.203125 -8.757812 0.203125 -8.53125 C 0.203125 -7.988281 0.0078125 -7.59375 -0.375 -7.34375 C -0.582031 -7.21875 -0.875 -7.128906 -1.25 -7.078125 C -0.820312 -6.753906 -0.453125 -6.289062 -0.140625 -5.6875 C 0.160156 -5.082031 0.3125 -4.414062 0.3125 -3.6875 C 0.3125 -2.8125 0.0429688 -2.097656 -0.484375 -1.546875 C -1.015625 -0.992188 -1.675781 -0.71875 -2.46875 -0.71875 C -3.34375 -0.71875 -4.019531 -0.988281 -4.5 -1.53125 C -4.976562 -2.082031 -5.273438 -2.800781 -5.390625 -3.6875 Z M -9.640625 -4.890625 Z M -9.640625 -4.890625 "/>
</g>
<g id="glyph-2-4">
<path d="M -12.90625 -1.203125 L -12.90625 -2.78125 L 0 -2.78125 L 0 -1.203125 Z M -12.90625 -1.203125 "/>
</g>
<g id="glyph-2-5">
<path d="M -2.953125 -2.09375 C -2.421875 -2.144531 -2.015625 -2.28125 -1.734375 -2.5 C -1.222656 -2.894531 -0.96875 -3.585938 -0.96875 -4.578125 C -0.96875 -5.160156 -1.09375 -5.671875 -1.34375 -6.109375 C -1.601562 -6.554688 -2.003906 -6.78125 -2.546875 -6.78125 C -2.941406 -6.78125 -3.25 -6.601562 -3.46875 -6.25 C -3.59375 -6.019531 -3.738281 -5.566406 -3.90625 -4.890625 L -4.234375 -3.640625 C -4.429688 -2.835938 -4.648438 -2.242188 -4.890625 -1.859375 C -5.316406 -1.179688 -5.910156 -0.84375 -6.671875 -0.84375 C -7.554688 -0.84375 -8.273438 -1.160156 -8.828125 -1.796875 C -9.378906 -2.441406 -9.65625 -3.304688 -9.65625 -4.390625 C -9.65625 -5.804688 -9.238281 -6.832031 -8.40625 -7.46875 C -7.882812 -7.851562 -7.316406 -8.039062 -6.703125 -8.03125 L -6.703125 -6.546875 C -7.066406 -6.515625 -7.394531 -6.382812 -7.6875 -6.15625 C -8.101562 -5.789062 -8.3125 -5.160156 -8.3125 -4.265625 C -8.3125 -3.671875 -8.195312 -3.21875 -7.96875 -2.90625 C -7.738281 -2.601562 -7.4375 -2.453125 -7.0625 -2.453125 C -6.644531 -2.453125 -6.316406 -2.65625 -6.078125 -3.0625 C -5.929688 -3.289062 -5.800781 -3.632812 -5.6875 -4.09375 L -5.4375 -5.140625 C -5.15625 -6.273438 -4.882812 -7.035156 -4.625 -7.421875 C -4.226562 -8.035156 -3.59375 -8.34375 -2.71875 -8.34375 C -1.882812 -8.34375 -1.160156 -8.023438 -0.546875 -7.390625 C 0.0546875 -6.753906 0.359375 -5.785156 0.359375 -4.484375 C 0.359375 -3.085938 0.0390625 -2.097656 -0.59375 -1.515625 C -1.226562 -0.929688 -2.015625 -0.617188 -2.953125 -0.578125 Z M -9.640625 -4.4375 Z M -9.640625 -4.4375 "/>
</g>
<g id="glyph-2-6">
<path d="M -9.625 -5.078125 C -9.625 -5.742188 -9.46875 -6.390625 -9.15625 -7.015625 C -8.84375 -7.648438 -8.4375 -8.128906 -7.9375 -8.453125 C -7.457031 -8.773438 -6.90625 -8.988281 -6.28125 -9.09375 C -5.84375 -9.1875 -5.148438 -9.234375 -4.203125 -9.234375 L -4.203125 -2.328125 C -3.242188 -2.359375 -2.472656 -2.582031 -1.890625 -3 C -1.316406 -3.425781 -1.03125 -4.082031 -1.03125 -4.96875 C -1.03125 -5.789062 -1.304688 -6.445312 -1.859375 -6.9375 C -2.171875 -7.21875 -2.535156 -7.421875 -2.953125 -7.546875 L -2.953125 -9.09375 C -2.609375 -9.050781 -2.222656 -8.914062 -1.796875 -8.6875 C -1.367188 -8.457031 -1.019531 -8.195312 -0.75 -7.90625 C -0.28125 -7.425781 0.03125 -6.832031 0.1875 -6.125 C 0.28125 -5.75 0.328125 -5.316406 0.328125 -4.828125 C 0.328125 -3.660156 -0.09375 -2.671875 -0.9375 -1.859375 C -1.789062 -1.046875 -2.988281 -0.640625 -4.53125 -0.640625 C -6.039062 -0.640625 -7.265625 -1.046875 -8.203125 -1.859375 C -9.148438 -2.679688 -9.625 -3.753906 -9.625 -5.078125 Z M -5.453125 -7.609375 C -6.140625 -7.535156 -6.691406 -7.382812 -7.109375 -7.15625 C -7.867188 -6.71875 -8.25 -5.992188 -8.25 -4.984375 C -8.25 -4.253906 -7.984375 -3.644531 -7.453125 -3.15625 C -6.929688 -2.664062 -6.265625 -2.40625 -5.453125 -2.375 Z M -9.640625 -4.9375 Z M -9.640625 -4.9375 "/>
</g>
<g id="glyph-2-7">
</g>
<g id="glyph-2-8">
<path d="M -5.296875 -8 L -11 -6.03125 L -5.296875 -3.953125 Z M -12.90625 -5.125 L -12.90625 -7.109375 L 0 -11.78125 L 0 -9.875 L -3.875 -8.5625 L -3.875 -3.453125 L 0 -2.0625 L 0 -0.265625 Z M -12.90625 -5.125 "/>
</g>
<g id="glyph-2-9">
<path d="M -9.40625 -1.203125 L -9.40625 -2.703125 L -7.78125 -2.703125 C -8.101562 -2.828125 -8.488281 -3.128906 -8.9375 -3.609375 C -9.394531 -4.085938 -9.625 -4.644531 -9.625 -5.28125 C -9.625 -5.300781 -9.617188 -5.347656 -9.609375 -5.421875 C -9.609375 -5.492188 -9.597656 -5.613281 -9.578125 -5.78125 L -7.90625 -5.78125 C -7.925781 -5.6875 -7.9375 -5.597656 -7.9375 -5.515625 C -7.945312 -5.441406 -7.953125 -5.359375 -7.953125 -5.265625 C -7.953125 -4.460938 -7.695312 -3.847656 -7.1875 -3.421875 C -6.675781 -2.992188 -6.085938 -2.78125 -5.421875 -2.78125 L 0 -2.78125 L 0 -1.203125 Z M -9.40625 -1.203125 "/>
</g>
<g id="glyph-2-10">
<path d="M -9.40625 -1.15625 L -9.40625 -2.71875 L -8.078125 -2.71875 C -8.535156 -3.09375 -8.875 -3.4375 -9.09375 -3.75 C -9.445312 -4.269531 -9.625 -4.859375 -9.625 -5.515625 C -9.625 -6.265625 -9.441406 -6.867188 -9.078125 -7.328125 C -8.859375 -7.585938 -8.546875 -7.820312 -8.140625 -8.03125 C -8.640625 -8.382812 -9.007812 -8.796875 -9.25 -9.265625 C -9.5 -9.742188 -9.625 -10.28125 -9.625 -10.875 C -9.625 -12.132812 -9.164062 -12.992188 -8.25 -13.453125 C -7.757812 -13.703125 -7.097656 -13.828125 -6.265625 -13.828125 L 0 -13.828125 L 0 -12.1875 L -6.546875 -12.1875 C -7.171875 -12.1875 -7.597656 -12.023438 -7.828125 -11.703125 C -8.066406 -11.390625 -8.1875 -11.007812 -8.1875 -10.5625 C -8.1875 -9.945312 -7.976562 -9.410156 -7.5625 -8.953125 C -7.144531 -8.503906 -6.445312 -8.28125 -5.46875 -8.28125 L 0 -8.28125 L 0 -6.6875 L -6.140625 -6.6875 C -6.785156 -6.6875 -7.253906 -6.609375 -7.546875 -6.453125 C -7.984375 -6.210938 -8.203125 -5.765625 -8.203125 -5.109375 C -8.203125 -4.503906 -7.96875 -3.957031 -7.5 -3.46875 C -7.039062 -2.988281 -6.207031 -2.75 -5 -2.75 L 0 -2.75 L 0 -1.15625 Z M -9.40625 -1.15625 "/>
</g>
<g id="glyph-2-11">
<path d="M 3.671875 -0.625 C 1.859375 -1.550781 0.535156 -2.148438 -0.296875 -2.421875 C -1.554688 -2.835938 -3.035156 -3.046875 -4.734375 -3.046875 C -6.421875 -3.046875 -7.96875 -2.804688 -9.375 -2.328125 C -10.238281 -2.035156 -11.488281 -1.457031 -13.125 -0.59375 L -13.125 -1.65625 C -11.675781 -2.5625 -10.785156 -3.109375 -10.453125 -3.296875 C -10.117188 -3.492188 -9.65625 -3.703125 -9.0625 -3.921875 C -8.332031 -4.203125 -7.609375 -4.398438 -6.890625 -4.515625 C -6.171875 -4.640625 -5.484375 -4.703125 -4.828125 -4.703125 C -3.085938 -4.703125 -1.539062 -4.425781 -0.1875 -3.875 C 0.6875 -3.53125 1.972656 -2.8125 3.671875 -1.71875 Z M 3.671875 -0.625 "/>
</g>
</g>
<clipPath id="clip-0">
<path clip-rule="nonzero" d="M 131.183594 8.964844 L 430.292969 8.964844 L 430.292969 308.074219 L 131.183594 308.074219 Z M 131.183594 8.964844 "/>
</clipPath>
<clipPath id="clip-1">
<path clip-rule="nonzero" d="M 131.183594 8.964844 L 430.292969 8.964844 L 430.292969 308.074219 L 131.183594 308.074219 Z M 131.183594 8.964844 "/>
</clipPath>
</defs>
<g clip-path="url(#clip-0)">
<path fill="none" stroke-width="1.745965" stroke-linecap="butt" stroke-linejoin="round" stroke="rgb(0%, 0%, 0%)" stroke-opacity="1" stroke-dasharray="6.983858 6.983858" stroke-miterlimit="10" d="M -167.925781 607.183594 L 729.398438 -290.140625 "/>
</g>
<path fill="none" stroke-width="1.745965" stroke-linecap="butt" stroke-linejoin="round" stroke="rgb(0%, 0%, 0%)" stroke-opacity="1" stroke-miterlimit="10" d="M 416.695312 22.5625 L 329.679688 44.316406 L 264.421875 66.070312 L 177.40625 66.070312 L 177.40625 109.574219 L 155.65625 142.207031 L 144.777344 294.476562 "/>
<path fill-rule="nonzero" fill="rgb(0%, 0%, 0%)" fill-opacity="1" stroke-width="1.159628" stroke-linecap="round" stroke-linejoin="round" stroke="rgb(0%, 0%, 0%)" stroke-opacity="1" stroke-miterlimit="10" d="M 419.894531 22.5625 C 419.894531 26.828125 413.496094 26.828125 413.496094 22.5625 C 413.496094 18.296875 419.894531 18.296875 419.894531 22.5625 "/>
<path fill-rule="nonzero" fill="rgb(0%, 0%, 0%)" fill-opacity="1" stroke-width="1.159628" stroke-linecap="round" stroke-linejoin="round" stroke="rgb(0%, 0%, 0%)" stroke-opacity="1" stroke-miterlimit="10" d="M 332.878906 44.316406 C 332.878906 48.582031 326.480469 48.582031 326.480469 44.316406 C 326.480469 40.050781 332.878906 40.050781 332.878906 44.316406 "/>
<path fill-rule="nonzero" fill="rgb(0%, 0%, 0%)" fill-opacity="1" stroke-width="1.159628" stroke-linecap="round" stroke-linejoin="round" stroke="rgb(0%, 0%, 0%)" stroke-opacity="1" stroke-miterlimit="10" d="M 267.621094 66.070312 C 267.621094 70.332031 261.222656 70.332031 261.222656 66.070312 C 261.222656 61.804688 267.621094 61.804688 267.621094 66.070312 "/>
<path fill-rule="nonzero" fill="rgb(0%, 0%, 0%)" fill-opacity="1" stroke-width="1.159628" stroke-linecap="round" stroke-linejoin="round" stroke="rgb(0%, 0%, 0%)" stroke-opacity="1" stroke-miterlimit="10" d="M 180.605469 66.070312 C 180.605469 70.332031 174.210938 70.332031 174.210938 66.070312 C 174.210938 61.804688 180.605469 61.804688 180.605469 66.070312 "/>
<path fill-rule="nonzero" fill="rgb(0%, 0%, 0%)" fill-opacity="1" stroke-width="1.159628" stroke-linecap="round" stroke-linejoin="round" stroke="rgb(0%, 0%, 0%)" stroke-opacity="1" stroke-miterlimit="10" d="M 180.605469 109.574219 C 180.605469 113.839844 174.210938 113.839844 174.210938 109.574219 C 174.210938 105.308594 180.605469 105.308594 180.605469 109.574219 "/>
<path fill-rule="nonzero" fill="rgb(0%, 0%, 0%)" fill-opacity="1" stroke-width="1.159628" stroke-linecap="round" stroke-linejoin="round" stroke="rgb(0%, 0%, 0%)" stroke-opacity="1" stroke-miterlimit="10" d="M 158.851562 142.207031 C 158.851562 146.46875 152.457031 146.46875 152.457031 142.207031 C 152.457031 137.941406 158.851562 137.941406 158.851562 142.207031 "/>
<path fill-rule="nonzero" fill="rgb(0%, 0%, 0%)" fill-opacity="1" stroke-width="1.159628" stroke-linecap="round" stroke-linejoin="round" stroke="rgb(0%, 0%, 0%)" stroke-opacity="1" stroke-miterlimit="10" d="M 147.976562 294.476562 C 147.976562 298.742188 141.578125 298.742188 141.578125 294.476562 C 141.578125 290.214844 147.976562 290.214844 147.976562 294.476562 "/>
<path fill="none" stroke-width="1.745965" stroke-linecap="butt" stroke-linejoin="round" stroke="rgb(0%, 0%, 0%)" stroke-opacity="0.501961" stroke-dasharray="1.745965 5.237894" stroke-miterlimit="10" d="M 144.777344 294.476562 L 164.152344 148.253906 L 171.644531 102.769531 L 178.273438 65.949219 L 248.855469 51.0625 L 321.1875 37.222656 L 416.695312 22.5625 "/>
<path fill="none" stroke-width="1.745965" stroke-linecap="butt" stroke-linejoin="round" stroke="rgb(0%, 0%, 0%)" stroke-opacity="0.501961" stroke-miterlimit="10" d="M 416.695312 22.5625 L 416.695312 22.5625 "/>
<path fill="none" stroke-width="1.745965" stroke-linecap="butt" stroke-linejoin="round" stroke="rgb(0%, 0%, 0%)" stroke-opacity="0.501961" stroke-miterlimit="10" d="M 416.695312 22.5625 L 416.695312 22.5625 "/>
<path fill="none" stroke-width="1.745965" stroke-linecap="butt" stroke-linejoin="round" stroke="rgb(0%, 0%, 0%)" stroke-opacity="0.501961" stroke-miterlimit="10" d="M 416.695312 22.5625 L 416.695312 22.5625 "/>
<path fill="none" stroke-width="1.745965" stroke-linecap="butt" stroke-linejoin="round" stroke="rgb(0%, 0%, 0%)" stroke-opacity="0.501961" stroke-miterlimit="10" d="M 361.882812 37.222656 L 361.882812 37.222656 "/>
<path fill="none" stroke-width="1.745965" stroke-linecap="butt" stroke-linejoin="round" stroke="rgb(0%, 0%, 0%)" stroke-opacity="0.501961" stroke-miterlimit="10" d="M 361.882812 37.222656 L 270.472656 37.222656 "/>
<path fill="none" stroke-width="1.745965" stroke-linecap="butt" stroke-linejoin="round" stroke="rgb(0%, 0%, 0%)" stroke-opacity="0.501961" stroke-miterlimit="10" d="M 270.472656 37.222656 L 270.472656 37.222656 "/>
<path fill="none" stroke-width="1.745965" stroke-linecap="butt" stroke-linejoin="round" stroke="rgb(0%, 0%, 0%)" stroke-opacity="0.501961" stroke-miterlimit="10" d="M 298.875 51.0625 L 298.875 51.0625 "/>
<path fill="none" stroke-width="1.745965" stroke-linecap="butt" stroke-linejoin="round" stroke="rgb(0%, 0%, 0%)" stroke-opacity="0.501961" stroke-miterlimit="10" d="M 298.875 51.0625 L 203.878906 51.0625 "/>
<path fill="none" stroke-width="1.745965" stroke-linecap="butt" stroke-linejoin="round" stroke="rgb(0%, 0%, 0%)" stroke-opacity="0.501961" stroke-miterlimit="10" d="M 203.878906 51.0625 L 203.878906 51.0625 "/>
<path fill="none" stroke-width="1.745965" stroke-linecap="butt" stroke-linejoin="round" stroke="rgb(0%, 0%, 0%)" stroke-opacity="0.501961" stroke-miterlimit="10" d="M 222.984375 65.949219 L 222.984375 65.949219 "/>
<path fill="none" stroke-width="1.745965" stroke-linecap="butt" stroke-linejoin="round" stroke="rgb(0%, 0%, 0%)" stroke-opacity="0.501961" stroke-miterlimit="10" d="M 222.984375 65.949219 L 153.449219 65.949219 "/>
<path fill="none" stroke-width="1.745965" stroke-linecap="butt" stroke-linejoin="round" stroke="rgb(0%, 0%, 0%)" stroke-opacity="0.501961" stroke-miterlimit="10" d="M 153.449219 65.949219 L 153.449219 65.949219 "/>
<path fill="none" stroke-width="1.745965" stroke-linecap="butt" stroke-linejoin="round" stroke="rgb(0%, 0%, 0%)" stroke-opacity="0.501961" stroke-miterlimit="10" d="M 209.796875 102.769531 L 209.796875 102.769531 "/>
<path fill="none" stroke-width="1.745965" stroke-linecap="butt" stroke-linejoin="round" stroke="rgb(0%, 0%, 0%)" stroke-opacity="0.501961" stroke-miterlimit="10" d="M 209.796875 102.769531 L 151.722656 102.769531 "/>
<path fill="none" stroke-width="1.745965" stroke-linecap="butt" stroke-linejoin="round" stroke="rgb(0%, 0%, 0%)" stroke-opacity="0.501961" stroke-miterlimit="10" d="M 151.722656 102.769531 L 151.722656 102.769531 "/>
<path fill="none" stroke-width="1.745965" stroke-linecap="butt" stroke-linejoin="round" stroke="rgb(0%, 0%, 0%)" stroke-opacity="0.501961" stroke-miterlimit="10" d="M 195.246094 148.253906 L 195.246094 148.253906 "/>
<path fill="none" stroke-width="1.745965" stroke-linecap="butt" stroke-linejoin="round" stroke="rgb(0%, 0%, 0%)" stroke-opacity="0.501961" stroke-miterlimit="10" d="M 195.246094 148.253906 L 149.726562 148.253906 "/>
<path fill="none" stroke-width="1.745965" stroke-linecap="butt" stroke-linejoin="round" stroke="rgb(0%, 0%, 0%)" stroke-opacity="0.501961" stroke-miterlimit="10" d="M 149.726562 148.253906 L 149.726562 148.253906 "/>
<path fill="none" stroke-width="1.745965" stroke-linecap="butt" stroke-linejoin="round" stroke="rgb(0%, 0%, 0%)" stroke-opacity="0.501961" stroke-miterlimit="10" d="M 144.777344 294.476562 L 144.777344 294.476562 "/>
<path fill="none" stroke-width="1.745965" stroke-linecap="butt" stroke-linejoin="round" stroke="rgb(0%, 0%, 0%)" stroke-opacity="0.501961" stroke-miterlimit="10" d="M 144.777344 294.476562 L 144.777344 294.476562 "/>
<path fill="none" stroke-width="1.745965" stroke-linecap="butt" stroke-linejoin="round" stroke="rgb(0%, 0%, 0%)" stroke-opacity="0.501961" stroke-miterlimit="10" d="M 144.777344 294.476562 L 144.777344 294.476562 "/>
<path fill="none" stroke-width="1.745965" stroke-linecap="butt" stroke-linejoin="round" stroke="rgb(0%, 0%, 0%)" stroke-opacity="0.501961" stroke-miterlimit="10" d="M 416.695312 22.5625 L 416.695312 22.5625 "/>
<path fill="none" stroke-width="1.745965" stroke-linecap="butt" stroke-linejoin="round" stroke="rgb(0%, 0%, 0%)" stroke-opacity="0.501961" stroke-miterlimit="10" d="M 416.695312 22.5625 L 416.695312 22.5625 "/>
<path fill="none" stroke-width="1.745965" stroke-linecap="butt" stroke-linejoin="round" stroke="rgb(0%, 0%, 0%)" stroke-opacity="0.501961" stroke-miterlimit="10" d="M 416.695312 22.5625 L 416.695312 22.5625 "/>
<path fill="none" stroke-width="1.745965" stroke-linecap="butt" stroke-linejoin="round" stroke="rgb(0%, 0%, 0%)" stroke-opacity="0.501961" stroke-miterlimit="10" d="M 321.1875 26.628906 L 321.1875 26.628906 "/>
<path fill="none" stroke-width="1.745965" stroke-linecap="butt" stroke-linejoin="round" stroke="rgb(0%, 0%, 0%)" stroke-opacity="0.501961" stroke-miterlimit="10" d="M 321.1875 26.628906 L 321.1875 59.402344 "/>
<path fill="none" stroke-width="1.745965" stroke-linecap="butt" stroke-linejoin="round" stroke="rgb(0%, 0%, 0%)" stroke-opacity="0.501961" stroke-miterlimit="10" d="M 321.1875 59.402344 L 321.1875 59.402344 "/>
<path fill="none" stroke-width="1.745965" stroke-linecap="butt" stroke-linejoin="round" stroke="rgb(0%, 0%, 0%)" stroke-opacity="0.501961" stroke-miterlimit="10" d="M 248.855469 31.722656 L 248.855469 31.722656 "/>
<path fill="none" stroke-width="1.745965" stroke-linecap="butt" stroke-linejoin="round" stroke="rgb(0%, 0%, 0%)" stroke-opacity="0.501961" stroke-miterlimit="10" d="M 248.855469 31.722656 L 248.855469 83.601562 "/>
<path fill="none" stroke-width="1.745965" stroke-linecap="butt" stroke-linejoin="round" stroke="rgb(0%, 0%, 0%)" stroke-opacity="0.501961" stroke-miterlimit="10" d="M 248.855469 83.601562 L 248.855469 83.601562 "/>
<path fill="none" stroke-width="1.745965" stroke-linecap="butt" stroke-linejoin="round" stroke="rgb(0%, 0%, 0%)" stroke-opacity="0.501961" stroke-miterlimit="10" d="M 178.273438 37.03125 L 178.273438 37.03125 "/>
<path fill="none" stroke-width="1.745965" stroke-linecap="butt" stroke-linejoin="round" stroke="rgb(0%, 0%, 0%)" stroke-opacity="0.501961" stroke-miterlimit="10" d="M 178.273438 37.03125 L 178.273438 110.777344 "/>
<path fill="none" stroke-width="1.745965" stroke-linecap="butt" stroke-linejoin="round" stroke="rgb(0%, 0%, 0%)" stroke-opacity="0.501961" stroke-miterlimit="10" d="M 178.273438 110.777344 L 178.273438 110.777344 "/>
<path fill="none" stroke-width="1.745965" stroke-linecap="butt" stroke-linejoin="round" stroke="rgb(0%, 0%, 0%)" stroke-opacity="0.501961" stroke-miterlimit="10" d="M 171.644531 62.136719 L 171.644531 62.136719 "/>
<path fill="none" stroke-width="1.745965" stroke-linecap="butt" stroke-linejoin="round" stroke="rgb(0%, 0%, 0%)" stroke-opacity="0.501961" stroke-miterlimit="10" d="M 171.644531 62.136719 L 171.644531 150.953125 "/>
<path fill="none" stroke-width="1.745965" stroke-linecap="butt" stroke-linejoin="round" stroke="rgb(0%, 0%, 0%)" stroke-opacity="0.501961" stroke-miterlimit="10" d="M 171.644531 150.953125 L 171.644531 150.953125 "/>
<path fill="none" stroke-width="1.745965" stroke-linecap="butt" stroke-linejoin="round" stroke="rgb(0%, 0%, 0%)" stroke-opacity="0.501961" stroke-miterlimit="10" d="M 164.152344 101.082031 L 164.152344 101.082031 "/>
<path fill="none" stroke-width="1.745965" stroke-linecap="butt" stroke-linejoin="round" stroke="rgb(0%, 0%, 0%)" stroke-opacity="0.501961" stroke-miterlimit="10" d="M 164.152344 101.082031 L 164.152344 197.101562 "/>
<path fill="none" stroke-width="1.745965" stroke-linecap="butt" stroke-linejoin="round" stroke="rgb(0%, 0%, 0%)" stroke-opacity="0.501961" stroke-miterlimit="10" d="M 164.152344 197.101562 L 164.152344 197.101562 "/>
<path fill="none" stroke-width="1.745965" stroke-linecap="butt" stroke-linejoin="round" stroke="rgb(0%, 0%, 0%)" stroke-opacity="0.501961" stroke-miterlimit="10" d="M 144.777344 294.476562 L 144.777344 294.476562 "/>
<path fill="none" stroke-width="1.745965" stroke-linecap="butt" stroke-linejoin="round" stroke="rgb(0%, 0%, 0%)" stroke-opacity="0.501961" stroke-miterlimit="10" d="M 144.777344 294.476562 L 144.777344 294.476562 "/>
<path fill="none" stroke-width="1.745965" stroke-linecap="butt" stroke-linejoin="round" stroke="rgb(0%, 0%, 0%)" stroke-opacity="0.501961" stroke-miterlimit="10" d="M 144.777344 294.476562 L 144.777344 294.476562 "/>
<g clip-path="url(#clip-1)">
<path fill="none" stroke-width="1.745965" stroke-linecap="round" stroke-linejoin="round" stroke="rgb(20%, 20%, 20%)" stroke-opacity="0.8" stroke-miterlimit="10" d="M 131.183594 308.074219 L 430.292969 308.074219 L 430.292969 8.964844 L 131.183594 8.964844 Z M 131.183594 308.074219 "/>
</g>
<g fill="rgb(30.196078%, 30.196078%, 30.196078%)" fill-opacity="0.698039">
<use xlink:href="#glyph-0-0" x="95.085938" y="299.644531"/>
<use xlink:href="#glyph-0-1" x="103.094531" y="299.644531"/>
<use xlink:href="#glyph-0-0" x="107.095313" y="299.644531"/>
<use xlink:href="#glyph-0-0" x="115.103906" y="299.644531"/>
</g>
<g fill="rgb(30.196078%, 30.196078%, 30.196078%)" fill-opacity="0.698039">
<use xlink:href="#glyph-0-0" x="95.085938" y="231.664062"/>
<use xlink:href="#glyph-0-1" x="103.094531" y="231.664062"/>
<use xlink:href="#glyph-0-2" x="107.095313" y="231.664062"/>
<use xlink:href="#glyph-0-3" x="115.103906" y="231.664062"/>
</g>
<g fill="rgb(30.196078%, 30.196078%, 30.196078%)" fill-opacity="0.698039">
<use xlink:href="#glyph-0-0" x="95.085938" y="163.683594"/>
<use xlink:href="#glyph-0-1" x="103.094531" y="163.683594"/>
<use xlink:href="#glyph-0-3" x="107.095313" y="163.683594"/>
<use xlink:href="#glyph-0-0" x="115.103906" y="163.683594"/>
</g>
<g fill="rgb(30.196078%, 30.196078%, 30.196078%)" fill-opacity="0.698039">
<use xlink:href="#glyph-0-0" x="95.085938" y="95.707031"/>
<use xlink:href="#glyph-0-1" x="103.094531" y="95.707031"/>
<use xlink:href="#glyph-0-4" x="107.095313" y="95.707031"/>
<use xlink:href="#glyph-0-3" x="115.103906" y="95.707031"/>
</g>
<g fill="rgb(30.196078%, 30.196078%, 30.196078%)" fill-opacity="0.698039">
<use xlink:href="#glyph-0-5" x="95.085938" y="27.726562"/>
<use xlink:href="#glyph-0-1" x="103.094531" y="27.726562"/>
<use xlink:href="#glyph-0-0" x="107.095313" y="27.726562"/>
<use xlink:href="#glyph-0-0" x="115.103906" y="27.726562"/>
</g>
<path fill="none" stroke-width="1.745965" stroke-linecap="butt" stroke-linejoin="round" stroke="rgb(20%, 20%, 20%)" stroke-opacity="0.8" stroke-miterlimit="10" d="M 126.699219 294.476562 L 131.183594 294.476562 "/>
<path fill="none" stroke-width="1.745965" stroke-linecap="butt" stroke-linejoin="round" stroke="rgb(20%, 20%, 20%)" stroke-opacity="0.8" stroke-miterlimit="10" d="M 126.699219 226.5 L 131.183594 226.5 "/>
<path fill="none" stroke-width="1.745965" stroke-linecap="butt" stroke-linejoin="round" stroke="rgb(20%, 20%, 20%)" stroke-opacity="0.8" stroke-miterlimit="10" d="M 126.699219 158.519531 L 131.183594 158.519531 "/>
<path fill="none" stroke-width="1.745965" stroke-linecap="butt" stroke-linejoin="round" stroke="rgb(20%, 20%, 20%)" stroke-opacity="0.8" stroke-miterlimit="10" d="M 126.699219 90.542969 L 131.183594 90.542969 "/>
<path fill="none" stroke-width="1.745965" stroke-linecap="butt" stroke-linejoin="round" stroke="rgb(20%, 20%, 20%)" stroke-opacity="0.8" stroke-miterlimit="10" d="M 126.699219 22.5625 L 131.183594 22.5625 "/>
<path fill="none" stroke-width="1.745965" stroke-linecap="butt" stroke-linejoin="round" stroke="rgb(20%, 20%, 20%)" stroke-opacity="0.8" stroke-miterlimit="10" d="M 144.777344 312.558594 L 144.777344 308.074219 "/>
<path fill="none" stroke-width="1.745965" stroke-linecap="butt" stroke-linejoin="round" stroke="rgb(20%, 20%, 20%)" stroke-opacity="0.8" stroke-miterlimit="10" d="M 212.757812 312.558594 L 212.757812 308.074219 "/>
<path fill="none" stroke-width="1.745965" stroke-linecap="butt" stroke-linejoin="round" stroke="rgb(20%, 20%, 20%)" stroke-opacity="0.8" stroke-miterlimit="10" d="M 280.734375 312.558594 L 280.734375 308.074219 "/>
<path fill="none" stroke-width="1.745965" stroke-linecap="butt" stroke-linejoin="round" stroke="rgb(20%, 20%, 20%)" stroke-opacity="0.8" stroke-miterlimit="10" d="M 348.714844 312.558594 L 348.714844 308.074219 "/>
<path fill="none" stroke-width="1.745965" stroke-linecap="butt" stroke-linejoin="round" stroke="rgb(20%, 20%, 20%)" stroke-opacity="0.8" stroke-miterlimit="10" d="M 416.695312 312.558594 L 416.695312 308.074219 "/>
<g fill="rgb(30.196078%, 30.196078%, 30.196078%)" fill-opacity="0.698039">
<use xlink:href="#glyph-0-0" x="130.765625" y="326.472656"/>
<use xlink:href="#glyph-0-1" x="138.774219" y="326.472656"/>
<use xlink:href="#glyph-0-0" x="142.775" y="326.472656"/>
<use xlink:href="#glyph-0-0" x="150.783594" y="326.472656"/>
</g>
<g fill="rgb(30.196078%, 30.196078%, 30.196078%)" fill-opacity="0.698039">
<use xlink:href="#glyph-0-0" x="198.746094" y="326.472656"/>
<use xlink:href="#glyph-0-1" x="206.754687" y="326.472656"/>
<use xlink:href="#glyph-0-2" x="210.755469" y="326.472656"/>
<use xlink:href="#glyph-0-3" x="218.764062" y="326.472656"/>
</g>
<g fill="rgb(30.196078%, 30.196078%, 30.196078%)" fill-opacity="0.698039">
<use xlink:href="#glyph-0-0" x="266.722656" y="326.472656"/>
<use xlink:href="#glyph-0-1" x="274.73125" y="326.472656"/>
<use xlink:href="#glyph-0-3" x="278.732031" y="326.472656"/>
<use xlink:href="#glyph-0-0" x="286.740625" y="326.472656"/>
</g>
<g fill="rgb(30.196078%, 30.196078%, 30.196078%)" fill-opacity="0.698039">
<use xlink:href="#glyph-0-0" x="334.703125" y="326.472656"/>
<use xlink:href="#glyph-0-1" x="342.711719" y="326.472656"/>
<use xlink:href="#glyph-0-4" x="346.7125" y="326.472656"/>
<use xlink:href="#glyph-0-3" x="354.721094" y="326.472656"/>
</g>
<g fill="rgb(30.196078%, 30.196078%, 30.196078%)" fill-opacity="0.698039">
<use xlink:href="#glyph-0-5" x="402.683594" y="326.472656"/>
<use xlink:href="#glyph-0-1" x="410.692187" y="326.472656"/>
<use xlink:href="#glyph-0-0" x="414.692969" y="326.472656"/>
<use xlink:href="#glyph-0-0" x="422.701562" y="326.472656"/>
</g>
<g fill="rgb(0%, 0%, 0%)" fill-opacity="1">
<use xlink:href="#glyph-1-0" x="257.738281" y="347.050781"/>
<use xlink:href="#glyph-1-1" x="269.744141" y="347.050781"/>
<use xlink:href="#glyph-1-2" x="275.738281" y="347.050781"/>
<use xlink:href="#glyph-1-3" x="288.737305" y="347.050781"/>
<use xlink:href="#glyph-1-4" x="292.736328" y="347.050781"/>
<use xlink:href="#glyph-1-5" x="297.737305" y="347.050781"/>
</g>
<g fill="rgb(0%, 0%, 0%)" fill-opacity="1">
<use xlink:href="#glyph-2-0" x="86.621094" y="218.527344"/>
<use xlink:href="#glyph-2-1" x="86.621094" y="206.521484"/>
<use xlink:href="#glyph-2-2" x="86.621094" y="200.527344"/>
<use xlink:href="#glyph-2-3" x="86.621094" y="189.532227"/>
<use xlink:href="#glyph-2-4" x="86.621094" y="179.521484"/>
<use xlink:href="#glyph-2-5" x="86.621094" y="175.522461"/>
<use xlink:href="#glyph-2-6" x="86.621094" y="166.522461"/>
<use xlink:href="#glyph-2-7" x="86.621094" y="156.511719"/>
<use xlink:href="#glyph-2-8" x="86.621094" y="151.510742"/>
<use xlink:href="#glyph-2-4" x="86.621094" y="139.504883"/>
<use xlink:href="#glyph-2-3" x="86.621094" y="135.505859"/>
<use xlink:href="#glyph-2-9" x="86.621094" y="125.495117"/>
<use xlink:href="#glyph-2-10" x="86.621094" y="119.500977"/>
<use xlink:href="#glyph-2-11" x="86.621094" y="104.506836"/>
</g>
</svg>
