<?xml version="1.0" encoding="UTF-8"?>
<svg xmlns="http://www.w3.org/2000/svg" xmlns:xlink="http://www.w3.org/1999/xlink" width="504pt" height="360pt" viewBox="0 0 504 360">
<defs>
<g>
<g id="glyph-0-0">
<path d="M 5.453125 -10.609375 C 6.765625 -10.609375 7.78125 -10.265625 8.5 -9.578125 C 9.21875 -8.890625 9.617188 -8.109375 9.703125 -7.234375 L 8.328125 -7.234375 C 8.179688 -7.898438 7.875 -8.425781 7.40625 -8.8125 C 6.945312 -9.195312 6.300781 -9.390625 5.46875 -9.390625 C 4.445312 -9.390625 3.625 -9.03125 3 -8.3125 C 2.375 -7.601562 2.0625 -6.507812 2.0625 -5.03125 C 2.0625 -3.820312 2.34375 -2.84375 2.90625 -2.09375 C 3.46875 -1.34375 4.3125 -0.96875 5.4375 -0.96875 C 6.46875 -0.96875 7.253906 -1.363281 7.796875 -2.15625 C 8.078125 -2.570312 8.289062 -3.117188 8.4375 -3.796875 L 9.796875 -3.796875 C 9.671875 -2.710938 9.269531 -1.800781 8.59375 -1.0625 C 7.769531 -0.175781 6.660156 0.265625 5.265625 0.265625 C 4.066406 0.265625 3.0625 -0.0976562 2.25 -0.828125 C 1.175781 -1.785156 0.640625 -3.269531 0.640625 -5.28125 C 0.640625 -6.800781 1.039062 -8.050781 1.84375 -9.03125 C 2.71875 -10.082031 3.921875 -10.609375 5.453125 -10.609375 Z M 5.171875 -10.609375 Z M 5.171875 -10.609375 "/>
</g>
<g id="glyph-0-1">
<path d="M 3.921875 -0.8125 C 4.753906 -0.8125 5.328125 -1.128906 5.640625 -1.765625 C 5.953125 -2.398438 6.109375 -3.109375 6.109375 -3.890625 C 6.109375 -4.585938 6 -5.160156 5.78125 -5.609375 C 5.414062 -6.296875 4.800781 -6.640625 3.9375 -6.640625 C 3.15625 -6.640625 2.585938 -6.34375 2.234375 -5.75 C 1.890625 -5.164062 1.71875 -4.457031 1.71875 -3.625 C 1.71875 -2.820312 1.890625 -2.148438 2.234375 -1.609375 C 2.585938 -1.078125 3.148438 -0.8125 3.921875 -0.8125 Z M 3.96875 -7.75 C 4.9375 -7.75 5.753906 -7.425781 6.421875 -6.78125 C 7.097656 -6.132812 7.4375 -5.179688 7.4375 -3.921875 C 7.4375 -2.710938 7.140625 -1.707031 6.546875 -0.90625 C 5.953125 -0.113281 5.035156 0.28125 3.796875 0.28125 C 2.765625 0.28125 1.941406 -0.0664062 1.328125 -0.765625 C 0.722656 -1.472656 0.421875 -2.421875 0.421875 -3.609375 C 0.421875 -4.867188 0.738281 -5.875 1.375 -6.625 C 2.019531 -7.375 2.882812 -7.75 3.96875 -7.75 Z M 3.921875 -7.71875 Z M 3.921875 -7.71875 "/>
</g>
<g id="glyph-0-2">
<path d="M 0.921875 -7.53125 L 2.125 -7.53125 L 2.125 -6.46875 C 2.488281 -6.90625 2.867188 -7.21875 3.265625 -7.40625 C 3.660156 -7.601562 4.101562 -7.703125 4.59375 -7.703125 C 5.664062 -7.703125 6.390625 -7.328125 6.765625 -6.578125 C 6.960938 -6.171875 7.0625 -5.585938 7.0625 -4.828125 L 7.0625 0 L 5.78125 0 L 5.78125 -4.75 C 5.78125 -5.207031 5.710938 -5.578125 5.578125 -5.859375 C 5.347656 -6.328125 4.941406 -6.5625 4.359375 -6.5625 C 4.054688 -6.5625 3.804688 -6.53125 3.609375 -6.46875 C 3.265625 -6.363281 2.960938 -6.160156 2.703125 -5.859375 C 2.492188 -5.609375 2.351562 -5.347656 2.28125 -5.078125 C 2.21875 -4.816406 2.1875 -4.441406 2.1875 -3.953125 L 2.1875 0 L 0.921875 0 Z M 3.90625 -7.71875 Z M 3.90625 -7.71875 "/>
</g>
<g id="glyph-0-3">
<path d="M 1.25 -8.6875 C 1.257812 -9.207031 1.347656 -9.585938 1.515625 -9.828125 C 1.816406 -10.265625 2.390625 -10.484375 3.234375 -10.484375 C 3.304688 -10.484375 3.382812 -10.476562 3.46875 -10.46875 C 3.5625 -10.46875 3.660156 -10.460938 3.765625 -10.453125 L 3.765625 -9.296875 C 3.628906 -9.304688 3.53125 -9.3125 3.46875 -9.3125 C 3.414062 -9.320312 3.363281 -9.328125 3.3125 -9.328125 C 2.925781 -9.328125 2.695312 -9.222656 2.625 -9.015625 C 2.550781 -8.816406 2.515625 -8.3125 2.515625 -7.5 L 3.765625 -7.5 L 3.765625 -6.5 L 2.5 -6.5 L 2.5 0 L 1.25 0 L 1.25 -6.5 L 0.203125 -6.5 L 0.203125 -7.5 L 1.25 -7.5 Z M 1.25 -8.6875 "/>
</g>
<g id="glyph-0-4">
<path d="M 0.921875 -7.5 L 2.21875 -7.5 L 2.21875 0 L 0.921875 0 Z M 0.921875 -10.328125 L 2.21875 -10.328125 L 2.21875 -8.890625 L 0.921875 -8.890625 Z M 0.921875 -10.328125 "/>
</g>
<g id="glyph-0-5">
<path d="M 1.734375 -3.671875 C 1.734375 -2.867188 1.898438 -2.195312 2.234375 -1.65625 C 2.578125 -1.113281 3.128906 -0.84375 3.890625 -0.84375 C 4.472656 -0.84375 4.953125 -1.09375 5.328125 -1.59375 C 5.710938 -2.09375 5.90625 -2.816406 5.90625 -3.765625 C 5.90625 -4.710938 5.707031 -5.414062 5.3125 -5.875 C 4.925781 -6.332031 4.445312 -6.5625 3.875 -6.5625 C 3.238281 -6.5625 2.722656 -6.316406 2.328125 -5.828125 C 1.929688 -5.335938 1.734375 -4.617188 1.734375 -3.671875 Z M 3.640625 -7.671875 C 4.210938 -7.671875 4.691406 -7.546875 5.078125 -7.296875 C 5.304688 -7.160156 5.566406 -6.914062 5.859375 -6.5625 L 5.859375 -10.375 L 7.0625 -10.375 L 7.0625 0 L 5.9375 0 L 5.9375 -1.046875 C 5.632812 -0.585938 5.28125 -0.253906 4.875 -0.046875 C 4.476562 0.160156 4.019531 0.265625 3.5 0.265625 C 2.65625 0.265625 1.925781 -0.0820312 1.3125 -0.78125 C 0.695312 -1.488281 0.390625 -2.429688 0.390625 -3.609375 C 0.390625 -4.703125 0.671875 -5.648438 1.234375 -6.453125 C 1.796875 -7.265625 2.597656 -7.671875 3.640625 -7.671875 Z M 3.640625 -7.671875 "/>
</g>
<g id="glyph-0-6">
<path d="M 4.0625 -7.703125 C 4.601562 -7.703125 5.125 -7.578125 5.625 -7.328125 C 6.125 -7.078125 6.503906 -6.753906 6.765625 -6.359375 C 7.015625 -5.972656 7.1875 -5.523438 7.28125 -5.015625 C 7.351562 -4.671875 7.390625 -4.117188 7.390625 -3.359375 L 1.859375 -3.359375 C 1.890625 -2.597656 2.070312 -1.984375 2.40625 -1.515625 C 2.738281 -1.054688 3.257812 -0.828125 3.96875 -0.828125 C 4.632812 -0.828125 5.164062 -1.046875 5.5625 -1.484375 C 5.78125 -1.734375 5.9375 -2.023438 6.03125 -2.359375 L 7.28125 -2.359375 C 7.25 -2.085938 7.140625 -1.78125 6.953125 -1.4375 C 6.765625 -1.09375 6.554688 -0.816406 6.328125 -0.609375 C 5.941406 -0.234375 5.46875 0.0195312 4.90625 0.15625 C 4.601562 0.226562 4.257812 0.265625 3.875 0.265625 C 2.9375 0.265625 2.140625 -0.0703125 1.484375 -0.75 C 0.828125 -1.4375 0.5 -2.394531 0.5 -3.625 C 0.5 -4.832031 0.828125 -5.8125 1.484375 -6.5625 C 2.140625 -7.320312 3 -7.703125 4.0625 -7.703125 Z M 6.078125 -4.375 C 6.023438 -4.914062 5.90625 -5.351562 5.71875 -5.6875 C 5.375 -6.289062 4.796875 -6.59375 3.984375 -6.59375 C 3.398438 -6.59375 2.910156 -6.382812 2.515625 -5.96875 C 2.128906 -5.550781 1.925781 -5.019531 1.90625 -4.375 Z M 3.953125 -7.71875 Z M 3.953125 -7.71875 "/>
</g>
<g id="glyph-0-7">
<path d="M 1.1875 -9.640625 L 2.46875 -9.640625 L 2.46875 -7.53125 L 3.671875 -7.53125 L 3.671875 -6.5 L 2.46875 -6.5 L 2.46875 -1.578125 C 2.46875 -1.316406 2.554688 -1.144531 2.734375 -1.0625 C 2.828125 -1.007812 2.988281 -0.984375 3.21875 -0.984375 C 3.28125 -0.984375 3.347656 -0.984375 3.421875 -0.984375 C 3.492188 -0.984375 3.578125 -0.988281 3.671875 -1 L 3.671875 0 C 3.523438 0.0390625 3.367188 0.0703125 3.203125 0.09375 C 3.046875 0.113281 2.878906 0.125 2.703125 0.125 C 2.109375 0.125 1.707031 -0.0234375 1.5 -0.328125 C 1.289062 -0.628906 1.1875 -1.023438 1.1875 -1.515625 L 1.1875 -6.5 L 0.15625 -6.5 L 0.15625 -7.53125 L 1.1875 -7.53125 Z M 1.1875 -9.640625 "/>
</g>
<g id="glyph-0-8">
<path d="M 4.265625 -10.328125 L 4.046875 -6.203125 L 3.203125 -6.203125 L 2.984375 -10.328125 Z M 1.84375 -10.328125 L 1.640625 -6.203125 L 0.796875 -6.203125 L 0.578125 -10.328125 Z M 1.84375 -10.328125 "/>
</g>
<g id="glyph-0-9">
<path d="M 3.890625 -10.078125 C 5.203125 -10.078125 6.144531 -9.539062 6.71875 -8.46875 C 7.175781 -7.632812 7.40625 -6.492188 7.40625 -5.046875 C 7.40625 -3.679688 7.195312 -2.550781 6.78125 -1.65625 C 6.195312 -0.363281 5.234375 0.28125 3.890625 0.28125 C 2.679688 0.28125 1.78125 -0.242188 1.1875 -1.296875 C 0.695312 -2.171875 0.453125 -3.347656 0.453125 -4.828125 C 0.453125 -5.972656 0.597656 -6.957031 0.890625 -7.78125 C 1.441406 -9.3125 2.441406 -10.078125 3.890625 -10.078125 Z M 3.890625 -0.875 C 4.546875 -0.875 5.066406 -1.164062 5.453125 -1.75 C 5.835938 -2.332031 6.03125 -3.414062 6.03125 -5 C 6.03125 -6.144531 5.890625 -7.085938 5.609375 -7.828125 C 5.328125 -8.566406 4.78125 -8.9375 3.96875 -8.9375 C 3.226562 -8.9375 2.6875 -8.582031 2.34375 -7.875 C 2 -7.175781 1.828125 -6.144531 1.828125 -4.78125 C 1.828125 -3.757812 1.9375 -2.9375 2.15625 -2.3125 C 2.488281 -1.351562 3.066406 -0.875 3.890625 -0.875 Z M 3.890625 -0.875 "/>
</g>
<g id="glyph-0-10">
<path d="M 5.5625 -10.59375 C 6.53125 -10.59375 7.367188 -10.40625 8.078125 -10.03125 C 9.109375 -9.5 9.738281 -8.554688 9.96875 -7.203125 L 8.578125 -7.203125 C 8.410156 -7.953125 8.0625 -8.5 7.53125 -8.84375 C 7 -9.195312 6.332031 -9.375 5.53125 -9.375 C 4.570312 -9.375 3.765625 -9.015625 3.109375 -8.296875 C 2.453125 -7.578125 2.125 -6.503906 2.125 -5.078125 C 2.125 -3.859375 2.394531 -2.859375 2.9375 -2.078125 C 3.476562 -1.304688 4.359375 -0.921875 5.578125 -0.921875 C 6.515625 -0.921875 7.285156 -1.191406 7.890625 -1.734375 C 8.503906 -2.273438 8.816406 -3.15625 8.828125 -4.375 L 5.59375 -4.375 L 5.59375 -5.53125 L 10.140625 -5.53125 L 10.140625 0 L 9.234375 0 L 8.890625 -1.328125 C 8.421875 -0.804688 8.003906 -0.445312 7.640625 -0.25 C 7.023438 0.101562 6.242188 0.28125 5.296875 0.28125 C 4.066406 0.28125 3.015625 -0.117188 2.140625 -0.921875 C 1.179688 -1.910156 0.703125 -3.273438 0.703125 -5.015625 C 0.703125 -6.742188 1.171875 -8.117188 2.109375 -9.140625 C 2.992188 -10.109375 4.144531 -10.59375 5.5625 -10.59375 Z M 5.328125 -10.609375 Z M 5.328125 -10.609375 "/>
</g>
<g id="glyph-0-11">
<path d="M 2.1875 -7.53125 L 2.1875 -2.53125 C 2.1875 -2.144531 2.25 -1.832031 2.375 -1.59375 C 2.601562 -1.144531 3.023438 -0.921875 3.640625 -0.921875 C 4.515625 -0.921875 5.113281 -1.3125 5.4375 -2.09375 C 5.613281 -2.519531 5.703125 -3.097656 5.703125 -3.828125 L 5.703125 -7.53125 L 6.96875 -7.53125 L 6.96875 0 L 5.765625 0 L 5.78125 -1.109375 C 5.613281 -0.828125 5.410156 -0.585938 5.171875 -0.390625 C 4.691406 0.00390625 4.101562 0.203125 3.40625 0.203125 C 2.332031 0.203125 1.601562 -0.15625 1.21875 -0.875 C 1.007812 -1.257812 0.90625 -1.769531 0.90625 -2.40625 L 0.90625 -7.53125 Z M 3.9375 -7.71875 Z M 3.9375 -7.71875 "/>
</g>
<g id="glyph-0-12">
<path d="M 1.6875 -2.359375 C 1.71875 -1.941406 1.820312 -1.617188 2 -1.390625 C 2.3125 -0.984375 2.863281 -0.78125 3.65625 -0.78125 C 4.125 -0.78125 4.535156 -0.878906 4.890625 -1.078125 C 5.253906 -1.285156 5.4375 -1.601562 5.4375 -2.03125 C 5.4375 -2.351562 5.289062 -2.597656 5 -2.765625 C 4.820312 -2.867188 4.460938 -2.988281 3.921875 -3.125 L 2.90625 -3.390625 C 2.269531 -3.546875 1.796875 -3.722656 1.484375 -3.921875 C 0.941406 -4.265625 0.671875 -4.738281 0.671875 -5.34375 C 0.671875 -6.050781 0.925781 -6.625 1.4375 -7.0625 C 1.957031 -7.507812 2.648438 -7.734375 3.515625 -7.734375 C 4.648438 -7.734375 5.46875 -7.398438 5.96875 -6.734375 C 6.28125 -6.304688 6.429688 -5.847656 6.421875 -5.359375 L 5.234375 -5.359375 C 5.210938 -5.648438 5.113281 -5.910156 4.9375 -6.140625 C 4.644531 -6.472656 4.140625 -6.640625 3.421875 -6.640625 C 2.941406 -6.640625 2.578125 -6.546875 2.328125 -6.359375 C 2.085938 -6.179688 1.96875 -5.945312 1.96875 -5.65625 C 1.96875 -5.320312 2.128906 -5.054688 2.453125 -4.859375 C 2.640625 -4.742188 2.914062 -4.640625 3.28125 -4.546875 L 4.109375 -4.34375 C 5.023438 -4.125 5.632812 -3.910156 5.9375 -3.703125 C 6.4375 -3.378906 6.6875 -2.875 6.6875 -2.1875 C 6.6875 -1.507812 6.429688 -0.925781 5.921875 -0.4375 C 5.410156 0.0390625 4.632812 0.28125 3.59375 0.28125 C 2.46875 0.28125 1.671875 0.0273438 1.203125 -0.46875 C 0.742188 -0.976562 0.5 -1.609375 0.46875 -2.359375 Z M 3.546875 -7.71875 Z M 3.546875 -7.71875 "/>
</g>
<g id="glyph-0-13">
<path d="M 1.375 -7.125 L 1.375 -8.109375 C 2.289062 -8.191406 2.925781 -8.335938 3.28125 -8.546875 C 3.644531 -8.753906 3.914062 -9.25 4.09375 -10.03125 L 5.09375 -10.03125 L 5.09375 0 L 3.75 0 L 3.75 -7.125 Z M 1.375 -7.125 "/>
</g>
<g id="glyph-1-0">
<path d="M 2.515625 -4.171875 C 2.554688 -3.429688 2.726562 -2.832031 3.03125 -2.375 C 3.613281 -1.519531 4.632812 -1.09375 6.09375 -1.09375 C 6.75 -1.09375 7.347656 -1.1875 7.890625 -1.375 C 8.929688 -1.738281 9.453125 -2.390625 9.453125 -3.328125 C 9.453125 -4.035156 9.234375 -4.535156 8.796875 -4.828125 C 8.347656 -5.128906 7.648438 -5.382812 6.703125 -5.59375 L 4.953125 -6 C 3.816406 -6.25 3.007812 -6.53125 2.53125 -6.84375 C 1.707031 -7.382812 1.296875 -8.191406 1.296875 -9.265625 C 1.296875 -10.421875 1.695312 -11.367188 2.5 -12.109375 C 3.300781 -12.859375 4.441406 -13.234375 5.921875 -13.234375 C 7.273438 -13.234375 8.421875 -12.90625 9.359375 -12.25 C 10.304688 -11.601562 10.78125 -10.5625 10.78125 -9.125 L 9.140625 -9.125 C 9.054688 -9.8125 8.867188 -10.34375 8.578125 -10.71875 C 8.046875 -11.382812 7.140625 -11.71875 5.859375 -11.71875 C 4.828125 -11.71875 4.085938 -11.5 3.640625 -11.0625 C 3.191406 -10.632812 2.96875 -10.132812 2.96875 -9.5625 C 2.96875 -8.925781 3.226562 -8.460938 3.75 -8.171875 C 4.09375 -7.984375 4.875 -7.75 6.09375 -7.46875 L 7.90625 -7.0625 C 8.78125 -6.863281 9.457031 -6.585938 9.9375 -6.234375 C 10.75 -5.628906 11.15625 -4.753906 11.15625 -3.609375 C 11.15625 -2.179688 10.632812 -1.160156 9.59375 -0.546875 C 8.5625 0.0664062 7.359375 0.375 5.984375 0.375 C 4.367188 0.375 3.109375 -0.0351562 2.203125 -0.859375 C 1.296875 -1.671875 0.851562 -2.773438 0.875 -4.171875 Z M 6.046875 -13.265625 Z M 6.046875 -13.265625 "/>
</g>
<g id="glyph-1-1">
<path d="M 1.484375 -12.046875 L 3.078125 -12.046875 L 3.078125 -9.40625 L 4.578125 -9.40625 L 4.578125 -8.125 L 3.078125 -8.125 L 3.078125 -1.984375 C 3.078125 -1.648438 3.1875 -1.425781 3.40625 -1.3125 C 3.53125 -1.25 3.738281 -1.21875 4.03125 -1.21875 C 4.101562 -1.21875 4.179688 -1.21875 4.265625 -1.21875 C 4.359375 -1.226562 4.460938 -1.238281 4.578125 -1.25 L 4.578125 0 C 4.398438 0.0507812 4.210938 0.0859375 4.015625 0.109375 C 3.816406 0.140625 3.601562 0.15625 3.375 0.15625 C 2.632812 0.15625 2.132812 -0.03125 1.875 -0.40625 C 1.613281 -0.789062 1.484375 -1.285156 1.484375 -1.890625 L 1.484375 -8.125 L 0.203125 -8.125 L 0.203125 -9.40625 L 1.484375 -9.40625 Z M 1.484375 -12.046875 "/>
</g>
<g id="glyph-1-2">
<path d="M 1.15625 -9.375 L 2.765625 -9.375 L 2.765625 0 L 1.15625 0 Z M 1.15625 -12.90625 L 2.765625 -12.90625 L 2.765625 -11.125 L 1.15625 -11.125 Z M 1.15625 -12.90625 "/>
</g>
<g id="glyph-1-3">
<path d="M 1.15625 -9.40625 L 2.71875 -9.40625 L 2.71875 -8.078125 C 3.09375 -8.535156 3.4375 -8.875 3.75 -9.09375 C 4.269531 -9.445312 4.859375 -9.625 5.515625 -9.625 C 6.265625 -9.625 6.867188 -9.441406 7.328125 -9.078125 C 7.585938 -8.859375 7.820312 -8.546875 8.03125 -8.140625 C 8.382812 -8.640625 8.796875 -9.007812 9.265625 -9.25 C 9.742188 -9.5 10.28125 -9.625 10.875 -9.625 C 12.132812 -9.625 12.992188 -9.164062 13.453125 -8.25 C 13.703125 -7.757812 13.828125 -7.097656 13.828125 -6.265625 L 13.828125 0 L 12.1875 0 L 12.1875 -6.546875 C 12.1875 -7.171875 12.023438 -7.597656 11.703125 -7.828125 C 11.390625 -8.066406 11.007812 -8.1875 10.5625 -8.1875 C 9.945312 -8.1875 9.410156 -7.976562 8.953125 -7.5625 C 8.503906 -7.144531 8.28125 -6.445312 8.28125 -5.46875 L 8.28125 0 L 6.6875 0 L 6.6875 -6.140625 C 6.6875 -6.785156 6.609375 -7.253906 6.453125 -7.546875 C 6.210938 -7.984375 5.765625 -8.203125 5.109375 -8.203125 C 4.503906 -8.203125 3.957031 -7.96875 3.46875 -7.5 C 2.988281 -7.039062 2.75 -6.207031 2.75 -5 L 2.75 0 L 1.15625 0 Z M 1.15625 -9.40625 "/>
</g>
<g id="glyph-1-4">
<path d="M 2.75 -9.40625 L 2.75 -3.171875 C 2.75 -2.679688 2.820312 -2.285156 2.96875 -1.984375 C 3.25 -1.421875 3.773438 -1.140625 4.546875 -1.140625 C 5.648438 -1.140625 6.398438 -1.632812 6.796875 -2.625 C 7.015625 -3.144531 7.125 -3.867188 7.125 -4.796875 L 7.125 -9.40625 L 8.703125 -9.40625 L 8.703125 0 L 7.203125 0 L 7.21875 -1.390625 C 7.019531 -1.035156 6.765625 -0.734375 6.453125 -0.484375 C 5.859375 0.00390625 5.128906 0.25 4.265625 0.25 C 2.921875 0.25 2.003906 -0.195312 1.515625 -1.09375 C 1.253906 -1.570312 1.125 -2.210938 1.125 -3.015625 L 1.125 -9.40625 Z M 4.90625 -9.640625 Z M 4.90625 -9.640625 "/>
</g>
<g id="glyph-1-5">
<path d="M 1.203125 -12.90625 L 2.78125 -12.90625 L 2.78125 0 L 1.203125 0 Z M 1.203125 -12.90625 "/>
</g>
<g id="glyph-1-6">
<path d="M 2.09375 -2.953125 C 2.144531 -2.421875 2.28125 -2.015625 2.5 -1.734375 C 2.894531 -1.222656 3.585938 -0.96875 4.578125 -0.96875 C 5.160156 -0.96875 5.671875 -1.09375 6.109375 -1.34375 C 6.554688 -1.601562 6.78125 -2.003906 6.78125 -2.546875 C 6.78125 -2.941406 6.601562 -3.25 6.25 -3.46875 C 6.019531 -3.59375 5.566406 -3.738281 4.890625 -3.90625 L 3.640625 -4.234375 C 2.835938 -4.429688 2.242188 -4.648438 1.859375 -4.890625 C 1.179688 -5.316406 0.84375 -5.910156 0.84375 -6.671875 C 0.84375 -7.554688 1.160156 -8.273438 1.796875 -8.828125 C 2.441406 -9.378906 3.304688 -9.65625 4.390625 -9.65625 C 5.804688 -9.65625 6.832031 -9.238281 7.46875 -8.40625 C 7.851562 -7.882812 8.039062 -7.316406 8.03125 -6.703125 L 6.546875 -6.703125 C 6.515625 -7.066406 6.382812 -7.394531 6.15625 -7.6875 C 5.789062 -8.101562 5.160156 -8.3125 4.265625 -8.3125 C 3.671875 -8.3125 3.21875 -8.195312 2.90625 -7.96875 C 2.601562 -7.738281 2.453125 -7.4375 2.453125 -7.0625 C 2.453125 -6.644531 2.65625 -6.316406 3.0625 -6.078125 C 3.289062 -5.929688 3.632812 -5.800781 4.09375 -5.6875 L 5.140625 -5.4375 C 6.273438 -5.15625 7.035156 -4.882812 7.421875 -4.625 C 8.035156 -4.226562 8.34375 -3.59375 8.34375 -2.71875 C 8.34375 -1.882812 8.023438 -1.160156 7.390625 -0.546875 C 6.753906 0.0546875 5.785156 0.359375 4.484375 0.359375 C 3.085938 0.359375 2.097656 0.0390625 1.515625 -0.59375 C 0.929688 -1.226562 0.617188 -2.015625 0.578125 -2.953125 Z M 4.4375 -9.640625 Z M 4.4375 -9.640625 "/>
</g>
</g>
</defs>
<path fill-rule="nonzero" fill="rgb(97.254902%, 46.27451%, 42.745098%)" fill-opacity="1" d="M 17.804688 300.039062 L 45.472656 300.039062 L 45.472656 165.464844 L 17.804688 165.464844 Z M 17.804688 300.039062 "/>
<path fill-rule="nonzero" fill="rgb(97.254902%, 46.27451%, 42.745098%)" fill-opacity="1" d="M 79.285156 300.039062 L 106.953125 300.039062 L 106.953125 199.105469 L 79.285156 199.105469 Z M 79.285156 300.039062 "/>
<path fill-rule="nonzero" fill="rgb(97.254902%, 46.27451%, 42.745098%)" fill-opacity="1" d="M 140.765625 300.039062 L 168.433594 300.039062 L 168.433594 165.464844 L 140.765625 165.464844 Z M 140.765625 300.039062 "/>
<path fill-rule="nonzero" fill="rgb(97.254902%, 46.27451%, 42.745098%)" fill-opacity="1" d="M 263.726562 300.039062 L 291.394531 300.039062 L 291.394531 266.394531 L 263.726562 266.394531 Z M 263.726562 300.039062 "/>
<path fill-rule="nonzero" fill="rgb(97.254902%, 46.27451%, 42.745098%)" fill-opacity="1" d="M 325.207031 300.039062 L 352.875 300.039062 L 352.875 283.21875 L 325.207031 283.21875 Z M 325.207031 300.039062 "/>
<path fill-rule="nonzero" fill="rgb(0%, 74.901961%, 76.862745%)" fill-opacity="1" d="M 46.238281 300.039062 L 73.90625 300.039062 L 73.90625 266.394531 L 46.238281 266.394531 Z M 46.238281 300.039062 "/>
<path fill-rule="nonzero" fill="rgb(0%, 74.901961%, 76.862745%)" fill-opacity="1" d="M 107.71875 300.039062 L 135.386719 300.039062 L 135.386719 266.394531 L 107.71875 266.394531 Z M 107.71875 300.039062 "/>
<path fill-rule="nonzero" fill="rgb(0%, 74.901961%, 76.862745%)" fill-opacity="1" d="M 230.683594 300.039062 L 258.351562 300.039062 L 258.351562 232.75 L 230.683594 232.75 Z M 230.683594 300.039062 "/>
<path fill-rule="nonzero" fill="rgb(0%, 74.901961%, 76.862745%)" fill-opacity="1" d="M 292.164062 300.039062 L 319.832031 300.039062 L 319.832031 249.574219 L 292.164062 249.574219 Z M 292.164062 300.039062 "/>
<path fill-rule="nonzero" fill="rgb(0%, 74.901961%, 76.862745%)" fill-opacity="1" d="M 353.644531 300.039062 L 381.3125 300.039062 L 381.3125 64.53125 L 353.644531 64.53125 Z M 353.644531 300.039062 "/>
<path fill="none" stroke-width="2.487522" stroke-linecap="butt" stroke-linejoin="round" stroke="rgb(0%, 0%, 0%)" stroke-opacity="1" stroke-miterlimit="10" d="M 367.476562 164.800781 L 367.476562 22.828125 "/>
<path fill="none" stroke-width="2.487522" stroke-linecap="butt" stroke-linejoin="round" stroke="rgb(0%, 0%, 0%)" stroke-opacity="1" stroke-miterlimit="10" d="M 31.636719 217.460938 L 31.636719 86.148438 "/>
<path fill="none" stroke-width="2.487522" stroke-linecap="butt" stroke-linejoin="round" stroke="rgb(0%, 0%, 0%)" stroke-opacity="1" stroke-miterlimit="10" d="M 93.117188 252.617188 L 93.117188 144.382812 "/>
<path fill="none" stroke-width="2.487522" stroke-linecap="butt" stroke-linejoin="round" stroke="rgb(0%, 0%, 0%)" stroke-opacity="1" stroke-miterlimit="10" d="M 154.597656 257.707031 L 154.597656 153.851562 "/>
<path fill="none" stroke-width="2.487522" stroke-linecap="butt" stroke-linejoin="round" stroke="rgb(0%, 0%, 0%)" stroke-opacity="1" stroke-miterlimit="10" d="M 305.996094 273.179688 L 305.996094 181.339844 "/>
<path fill="none" stroke-width="2.487522" stroke-linecap="butt" stroke-linejoin="round" stroke="rgb(0%, 0%, 0%)" stroke-opacity="1" stroke-miterlimit="10" d="M 244.515625 280.191406 L 244.515625 199.78125 "/>
<path fill="none" stroke-width="2.487522" stroke-linecap="butt" stroke-linejoin="round" stroke="rgb(0%, 0%, 0%)" stroke-opacity="1" stroke-miterlimit="10" d="M 183.035156 283.488281 L 183.035156 214.730469 "/>
<path fill="none" stroke-width="2.487522" stroke-linecap="butt" stroke-linejoin="round" stroke="rgb(0%, 0%, 0%)" stroke-opacity="1" stroke-miterlimit="10" d="M 339.042969 286.894531 L 339.042969 218.976562 "/>
<path fill="none" stroke-width="2.487522" stroke-linecap="butt" stroke-linejoin="round" stroke="rgb(0%, 0%, 0%)" stroke-opacity="1" stroke-miterlimit="10" d="M 216.078125 291.554688 L 216.078125 239.410156 "/>
<path fill="none" stroke-width="2.487522" stroke-linecap="butt" stroke-linejoin="round" stroke="rgb(0%, 0%, 0%)" stroke-opacity="1" stroke-miterlimit="10" d="M 121.554688 289.691406 L 121.554688 237.742188 "/>
<path fill="none" stroke-width="2.487522" stroke-linecap="butt" stroke-linejoin="round" stroke="rgb(0%, 0%, 0%)" stroke-opacity="1" stroke-miterlimit="10" d="M 60.074219 294.007812 L 60.074219 247.253906 "/>
<path fill="none" stroke-width="2.487522" stroke-linecap="butt" stroke-linejoin="round" stroke="rgb(0%, 0%, 0%)" stroke-opacity="1" stroke-miterlimit="10" d="M 277.5625 291.867188 L 277.5625 245.296875 "/>
<path fill-rule="nonzero" fill="rgb(0%, 0%, 0%)" fill-opacity="1" stroke-width="1.062992" stroke-linecap="round" stroke-linejoin="round" stroke="rgb(0%, 0%, 0%)" stroke-opacity="1" stroke-miterlimit="10" d="M 370.246094 95.453125 C 370.246094 99.148438 364.707031 99.148438 364.707031 95.453125 C 364.707031 91.761719 370.246094 91.761719 370.246094 95.453125 "/>
<path fill-rule="nonzero" fill="rgb(0%, 0%, 0%)" fill-opacity="1" stroke-width="1.062992" stroke-linecap="round" stroke-linejoin="round" stroke="rgb(0%, 0%, 0%)" stroke-opacity="1" stroke-miterlimit="10" d="M 34.40625 155.945312 C 34.40625 159.640625 28.867188 159.640625 28.867188 155.945312 C 28.867188 152.25 34.40625 152.25 34.40625 155.945312 "/>
<path fill-rule="nonzero" fill="rgb(0%, 0%, 0%)" fill-opacity="1" stroke-width="1.062992" stroke-linecap="round" stroke-linejoin="round" stroke="rgb(0%, 0%, 0%)" stroke-opacity="1" stroke-miterlimit="10" d="M 95.886719 208.386719 C 95.886719 212.082031 90.347656 212.082031 90.347656 208.386719 C 90.347656 204.695312 95.886719 204.695312 95.886719 208.386719 "/>
<path fill-rule="nonzero" fill="rgb(0%, 0%, 0%)" fill-opacity="1" stroke-width="1.062992" stroke-linecap="round" stroke-linejoin="round" stroke="rgb(0%, 0%, 0%)" stroke-opacity="1" stroke-miterlimit="10" d="M 157.371094 213.757812 C 157.371094 217.449219 151.828125 217.449219 151.828125 213.757812 C 151.828125 210.0625 157.371094 210.0625 157.371094 213.757812 "/>
<path fill-rule="nonzero" fill="rgb(0%, 0%, 0%)" fill-opacity="1" stroke-width="1.062992" stroke-linecap="round" stroke-linejoin="round" stroke="rgb(0%, 0%, 0%)" stroke-opacity="1" stroke-miterlimit="10" d="M 308.765625 237.234375 C 308.765625 240.929688 303.226562 240.929688 303.226562 237.234375 C 303.226562 233.539062 308.765625 233.539062 308.765625 237.234375 "/>
<path fill-rule="nonzero" fill="rgb(0%, 0%, 0%)" fill-opacity="1" stroke-width="1.062992" stroke-linecap="round" stroke-linejoin="round" stroke="rgb(0%, 0%, 0%)" stroke-opacity="1" stroke-miterlimit="10" d="M 247.285156 249.671875 C 247.285156 253.367188 241.746094 253.367188 241.746094 249.671875 C 241.746094 245.980469 247.285156 245.980469 247.285156 249.671875 "/>
<path fill-rule="nonzero" fill="rgb(0%, 0%, 0%)" fill-opacity="1" stroke-width="1.062992" stroke-linecap="round" stroke-linejoin="round" stroke="rgb(0%, 0%, 0%)" stroke-opacity="1" stroke-miterlimit="10" d="M 185.804688 258.042969 C 185.804688 261.738281 180.265625 261.738281 180.265625 258.042969 C 180.265625 254.351562 185.804688 254.351562 185.804688 258.042969 "/>
<path fill-rule="nonzero" fill="rgb(0%, 0%, 0%)" fill-opacity="1" stroke-width="1.062992" stroke-linecap="round" stroke-linejoin="round" stroke="rgb(0%, 0%, 0%)" stroke-opacity="1" stroke-miterlimit="10" d="M 341.8125 263.34375 C 341.8125 267.039062 336.269531 267.039062 336.269531 263.34375 C 336.269531 259.652344 341.8125 259.652344 341.8125 263.34375 "/>
<path fill-rule="nonzero" fill="rgb(0%, 0%, 0%)" fill-opacity="1" stroke-width="1.062992" stroke-linecap="round" stroke-linejoin="round" stroke="rgb(0%, 0%, 0%)" stroke-opacity="1" stroke-miterlimit="10" d="M 218.851562 274.496094 C 218.851562 278.191406 213.308594 278.191406 213.308594 274.496094 C 213.308594 270.804688 218.851562 270.804688 218.851562 274.496094 "/>
<path fill-rule="nonzero" fill="rgb(0%, 0%, 0%)" fill-opacity="1" stroke-width="1.062992" stroke-linecap="round" stroke-linejoin="round" stroke="rgb(0%, 0%, 0%)" stroke-opacity="1" stroke-miterlimit="10" d="M 124.324219 272.304688 C 124.324219 275.996094 118.78125 275.996094 118.78125 272.304688 C 118.78125 268.609375 124.324219 268.609375 124.324219 272.304688 "/>
<path fill-rule="nonzero" fill="rgb(0%, 0%, 0%)" fill-opacity="1" stroke-width="1.062992" stroke-linecap="round" stroke-linejoin="round" stroke="rgb(0%, 0%, 0%)" stroke-opacity="1" stroke-miterlimit="10" d="M 62.84375 279.617188 C 62.84375 283.3125 57.300781 283.3125 57.300781 279.617188 C 57.300781 275.921875 62.84375 275.921875 62.84375 279.617188 "/>
<path fill-rule="nonzero" fill="rgb(0%, 0%, 0%)" fill-opacity="1" stroke-width="1.062992" stroke-linecap="round" stroke-linejoin="round" stroke="rgb(0%, 0%, 0%)" stroke-opacity="1" stroke-miterlimit="10" d="M 280.332031 276.261719 C 280.332031 279.953125 274.789062 279.953125 274.789062 276.261719 C 274.789062 272.566406 280.332031 272.566406 280.332031 276.261719 "/>
<path fill="none" stroke-width="1.745965" stroke-linecap="square" stroke-linejoin="round" stroke="rgb(0%, 0%, 0%)" stroke-opacity="1" stroke-miterlimit="10" d="M 8.964844 313.898438 L 390.148438 313.898438 "/>
<path fill="none" stroke-width="1.745965" stroke-linecap="butt" stroke-linejoin="round" stroke="rgb(0%, 0%, 0%)" stroke-opacity="1" stroke-miterlimit="10" d="M 45.855469 318.382812 L 45.855469 313.898438 "/>
<path fill="none" stroke-width="1.745965" stroke-linecap="butt" stroke-linejoin="round" stroke="rgb(0%, 0%, 0%)" stroke-opacity="1" stroke-miterlimit="10" d="M 107.335938 318.382812 L 107.335938 313.898438 "/>
<path fill="none" stroke-width="1.745965" stroke-linecap="butt" stroke-linejoin="round" stroke="rgb(0%, 0%, 0%)" stroke-opacity="1" stroke-miterlimit="10" d="M 168.816406 318.382812 L 168.816406 313.898438 "/>
<path fill="none" stroke-width="1.745965" stroke-linecap="butt" stroke-linejoin="round" stroke="rgb(0%, 0%, 0%)" stroke-opacity="1" stroke-miterlimit="10" d="M 230.296875 318.382812 L 230.296875 313.898438 "/>
<path fill="none" stroke-width="1.745965" stroke-linecap="butt" stroke-linejoin="round" stroke="rgb(0%, 0%, 0%)" stroke-opacity="1" stroke-miterlimit="10" d="M 291.777344 318.382812 L 291.777344 313.898438 "/>
<path fill="none" stroke-width="1.745965" stroke-linecap="butt" stroke-linejoin="round" stroke="rgb(0%, 0%, 0%)" stroke-opacity="1" stroke-miterlimit="10" d="M 353.257812 318.382812 L 353.257812 313.898438 "/>
<g fill="rgb(0%, 0%, 0%)" fill-opacity="1">
<use xlink:href="#glyph-0-0" x="15.035156" y="332.296875"/>
<use xlink:href="#glyph-0-1" x="25.434375" y="332.296875"/>
<use xlink:href="#glyph-0-2" x="33.442969" y="332.296875"/>
<use xlink:href="#glyph-0-3" x="41.451563" y="332.296875"/>
<use xlink:href="#glyph-0-4" x="45.452344" y="332.296875"/>
<use xlink:href="#glyph-0-5" x="48.651563" y="332.296875"/>
<use xlink:href="#glyph-0-6" x="56.660156" y="332.296875"/>
<use xlink:href="#glyph-0-2" x="64.66875" y="332.296875"/>
<use xlink:href="#glyph-0-7" x="72.677344" y="332.296875"/>
</g>
<g fill="rgb(0%, 0%, 0%)" fill-opacity="1">
<use xlink:href="#glyph-0-8" x="36.738281" y="347.847656"/>
<use xlink:href="#glyph-0-9" x="41.85" y="347.847656"/>
<use xlink:href="#glyph-0-8" x="49.858594" y="347.847656"/>
</g>
<g fill="rgb(0%, 0%, 0%)" fill-opacity="1">
<use xlink:href="#glyph-0-10" x="148.007812" y="332.296875"/>
<use xlink:href="#glyph-0-11" x="159.208594" y="332.296875"/>
<use xlink:href="#glyph-0-6" x="167.217187" y="332.296875"/>
<use xlink:href="#glyph-0-12" x="175.225781" y="332.296875"/>
<use xlink:href="#glyph-0-12" x="182.425781" y="332.296875"/>
</g>
<g fill="rgb(0%, 0%, 0%)" fill-opacity="1">
<use xlink:href="#glyph-0-8" x="159.699219" y="347.847656"/>
<use xlink:href="#glyph-0-9" x="164.810937" y="347.847656"/>
<use xlink:href="#glyph-0-8" x="172.819531" y="347.847656"/>
</g>
<g fill="rgb(0%, 0%, 0%)" fill-opacity="1">
<use xlink:href="#glyph-0-10" x="209.488281" y="332.296875"/>
<use xlink:href="#glyph-0-11" x="220.689063" y="332.296875"/>
<use xlink:href="#glyph-0-6" x="228.697656" y="332.296875"/>
<use xlink:href="#glyph-0-12" x="236.70625" y="332.296875"/>
<use xlink:href="#glyph-0-12" x="243.90625" y="332.296875"/>
</g>
<g fill="rgb(0%, 0%, 0%)" fill-opacity="1">
<use xlink:href="#glyph-0-8" x="221.179688" y="347.847656"/>
<use xlink:href="#glyph-0-13" x="226.291406" y="347.847656"/>
<use xlink:href="#glyph-0-8" x="234.3" y="347.847656"/>
</g>
<g fill="rgb(0%, 0%, 0%)" fill-opacity="1">
<use xlink:href="#glyph-0-0" x="322.4375" y="332.296875"/>
<use xlink:href="#glyph-0-1" x="332.836719" y="332.296875"/>
<use xlink:href="#glyph-0-2" x="340.845312" y="332.296875"/>
<use xlink:href="#glyph-0-3" x="348.853906" y="332.296875"/>
<use xlink:href="#glyph-0-4" x="352.854687" y="332.296875"/>
<use xlink:href="#glyph-0-5" x="356.053906" y="332.296875"/>
<use xlink:href="#glyph-0-6" x="364.0625" y="332.296875"/>
<use xlink:href="#glyph-0-2" x="372.071094" y="332.296875"/>
<use xlink:href="#glyph-0-7" x="380.079687" y="332.296875"/>
</g>
<g fill="rgb(0%, 0%, 0%)" fill-opacity="1">
<use xlink:href="#glyph-0-8" x="344.140625" y="347.847656"/>
<use xlink:href="#glyph-0-13" x="349.252344" y="347.847656"/>
<use xlink:href="#glyph-0-8" x="357.260938" y="347.847656"/>
</g>
<g fill="rgb(0%, 0%, 0%)" fill-opacity="1">
<use xlink:href="#glyph-1-0" x="417.046875" y="146.125"/>
<use xlink:href="#glyph-1-1" x="429.052734" y="146.125"/>
<use xlink:href="#glyph-1-2" x="434.053711" y="146.125"/>
<use xlink:href="#glyph-1-3" x="438.052734" y="146.125"/>
<use xlink:href="#glyph-1-4" x="453.046875" y="146.125"/>
<use xlink:href="#glyph-1-5" x="463.057617" y="146.125"/>
<use xlink:href="#glyph-1-4" x="467.056641" y="146.125"/>
<use xlink:href="#glyph-1-6" x="477.067383" y="146.125"/>
</g>
<path fill-rule="nonzero" fill="rgb(97.254902%, 46.27451%, 42.745098%)" fill-opacity="1" d="M 418.207031 173.203125 L 433.167969 173.203125 L 433.167969 158.242188 L 418.207031 158.242188 Z M 418.207031 173.203125 "/>
<path fill-rule="nonzero" fill="rgb(0%, 74.901961%, 76.862745%)" fill-opacity="1" d="M 418.207031 190.480469 L 433.167969 190.480469 L 433.167969 175.519531 L 418.207031 175.519531 Z M 418.207031 190.480469 "/>
<g fill="rgb(0%, 0%, 0%)" fill-opacity="1">
<use xlink:href="#glyph-0-9" x="443.292969" y="170.886719"/>
</g>
<g fill="rgb(0%, 0%, 0%)" fill-opacity="1">
<use xlink:href="#glyph-0-13" x="443.292969" y="188.167969"/>
</g>
</svg>
